<svg width="164" height="42" xmlns="http://www.w3.org/2000/svg" xmlns:xlink="http://www.w3.org/1999/xlink"><defs><path d="M36.34 25.15C32.579 21.982 27.74 20 22.367 20 10.54 20 1 29.377 1 41s9.54 21 21.366 21c5.375 0 10.212-1.981 13.975-5.15v4.225H44V20.792h-7.66v4.359zM22.5 55C15.088 55 9 48.912 9 41.5S15.088 28 22.5 28 36 34.088 36 41.5C36 49.044 29.912 55 22.5 55zm45.7-.528c4.133 0 7.867-1.85 10.267-4.755L83 55.925C79.267 59.755 73.933 62 68.2 62 56.467 62 47 52.623 47 41s9.467-21 21.2-21c5.733 0 10.933 2.377 14.8 6.075l-4.533 6.208c-2.4-2.906-6.134-4.755-10.267-4.755-7.6 0-13.6 6.076-13.6 13.472 0 7.528 6.133 13.472 13.6 13.472zm89.14-33.68v4.359c-3.762-3.17-8.6-5.151-13.974-5.151C131.54 20 122 29.377 122 41s9.54 21 21.366 21c5.375 0 10.212-1.981 13.975-5.15v4.225H165V20.792h-7.66zM143.5 55c-7.412 0-13.5-6.088-13.5-13.5S136.088 28 143.5 28 157 34.088 157 41.5c0 7.544-6.088 13.5-13.5 13.5zm-32.132-17.738V21H119v40h-7.632V44.738H94.632V61H87V21h7.632v16.262h16.736z" id="path-1"/></defs><g id="Symbols" stroke="none" stroke-width="1" fill="none" fill-rule="evenodd"><g id="UI-KIT/Branding/Logotype" transform="translate(-1 -20)"><g id="logotype"><mask id="mask-2" fill="#fff"><use xlink:href="#path-1"/></mask><use id="logo-copy-4" fill="#212121" fill-rule="nonzero" xlink:href="#path-1"/></g></g></g></svg>