<?xml version="1.0" encoding="UTF-8"?>
<svg width="164px" height="42px" viewBox="0 0 164 42" version="1.1" xmlns="http://www.w3.org/2000/svg" xmlns:xlink="http://www.w3.org/1999/xlink">
    <!-- Generator: Sketch 49.3 (51167) - http://www.bohemiancoding.com/sketch -->
    <title>logo copy 4</title>
    <desc>Created with Sketch.</desc>
    <defs>
        <path d="M36.340625,25.1509434 C32.578125,21.9811321 27.740625,20 22.365625,20 C10.540625,20 1,29.3773585 1,41 C1,52.6226415 10.540625,62 22.365625,62 C27.740625,62 32.578125,60.0188679 36.340625,56.8490566 L36.340625,61.0754717 L44,61.0754717 L44,20.7924528 L36.340625,20.7924528 L36.340625,25.1509434 Z M22.5,55 C15.0882353,55 9,48.9117647 9,41.5 C9,34.0882353 15.0882353,28 22.5,28 C29.9117647,28 36,34.0882353 36,41.5 C36,49.0441176 29.9117647,55 22.5,55 Z M68.2,54.4716981 C72.3333333,54.4716981 76.0666667,52.6226415 78.4666667,49.7169811 L83,55.9245283 C79.2666667,59.754717 73.9333333,62 68.2,62 C56.4666667,62 47,52.6226415 47,41 C47,29.3773585 56.4666667,20 68.2,20 C73.9333333,20 79.1333333,22.3773585 83,26.0754717 L78.4666667,32.2830189 C76.0666667,29.3773585 72.3333333,27.5283019 68.2,27.5283019 C60.6,27.5283019 54.6,33.6037736 54.6,41 C54.6,48.5283019 60.7333333,54.4716981 68.2,54.4716981 Z M157.340625,20.7924528 L157.340625,25.1509434 C153.578125,21.9811321 148.740625,20 143.365625,20 C131.540625,20 122,29.3773585 122,41 C122,52.6226415 131.540625,62 143.365625,62 C148.740625,62 153.578125,60.0188679 157.340625,56.8490566 L157.340625,61.0754717 L165,61.0754717 L165,20.7924528 L157.340625,20.7924528 Z M143.5,55 C136.088235,55 130,48.9117647 130,41.5 C130,34.0882353 136.088235,28 143.5,28 C150.911765,28 157,34.0882353 157,41.5 C157,49.0441176 150.911765,55 143.5,55 Z M111.368201,37.2622951 L111.368201,21 L119,21 L119,61 L111.368201,61 L111.368201,44.7377049 L94.6317992,44.7377049 L94.6317992,61 L87,61 L87,21 L94.6317992,21 L94.6317992,37.2622951 L111.368201,37.2622951 Z" id="path-1"></path>
    </defs>
    <g id="Symbols" stroke="none" stroke-width="1" fill="none" fill-rule="evenodd">
        <g id="UI-KIT/Branding/Logotype" transform="translate(-1.000000, -20.000000)">
            <g id="logotype">
                <mask id="mask-2" fill="white">
                    <use xlink:href="#path-1"></use>
                </mask>
                <use id="logo-copy-4" fill="#212121" fill-rule="nonzero" xlink:href="#path-1"></use>
            </g>
        </g>
    </g>
</svg>