<svg xmlns="http://www.w3.org/2000/svg" width="240" height="118" shape-rendering="geometricPrecision" text-rendering="geometricPrecision" image-rendering="optimizeQuality" fill-rule="evenodd" clip-rule="evenodd"><path fill="#fff" d="M0 0h240v118.04H0z"/><g fill-rule="nonzero"><path d="M82.02 39.49c-.37.37-.37.96 0 1.33.37.37.96.37 1.33 0 .36-.37.36-.96 0-1.33a.936.936 0 00-1.33 0z" fill="#fefefe"/><path d="M91.3 38.91h-4.02l-.97 1.2c-.17.17-.11.34.06.4l1.32.58 3.72-1.72c.23-.12.17-.46-.11-.46zM76.4 58.45h-4.93c-1.27.75-1.67.98-3.44 1.67-.13.04-.17.17-.12.34l4.41 12.32h2.52L70.8 61.49c2.62 0 8.9-.7 12.3-6.19-1.02 1.59-3.49 3.15-6.7 3.15zm6.95-17.63c-.37.36-.96.36-1.33 0a.936.936 0 010-1.33c.37-.37.96-.37 1.33 0-.78-.78-2.05-.78-2.83 0-.78.78-.78 2.05 0 2.83.78.78 2.05.78 2.83 0 .78-.78.78-2.05 0-2.83.36.37.36.96 0 1.33zM73.7 63.15l3.44 9.63h2.52l-3.61-10.09c-.69.17-1.49.35-2.35.46zm3.4-12c.27-.41.52-.83.77-1.25-.12-.06-.21-.05-.33.07-5.1 5.39-10.03 6.07-13.81 6.07h-5.79c-.17 0-.32-.21-.2-.39 4.49-6.19 9.46-11.03 13.11-14.19l-9.7 8.11c-.75.63-1.66 1.03-2.92 1.03H46.02c-.35 0-.23.29-.17.46.85 2.63 3.15 4.98 7.16 4.98l-2.86 2.93c-.12.11-.12.4.17.4h10.89c7.87 0 12.71-3.42 15.89-8.22z" fill="#00985f"/><path d="M185.87 72.76h8.87V45.27h-8.87v10.08h-8.36V45.27h-8.94v27.49h8.94V62.4h8.36v10.36zM80.52 42.32c-.78-.78-.78-2.05 0-2.83.78-.78 2.05-.78 2.83 0 .78.78.78 2.05 0 2.83-.78.78-2.05.78-2.83 0zM83.1 55.3c3.4-5.49 4.59-14.22 4.59-14.22l-1.32-.57c-.17-.06-.23-.23-.06-.4l.98-1.2c-.64-1.21-2.81-3.16-6.02-3.16-1.91 0-3.57.51-5.07 1.49 0 0-2.18 1.48-5.35 4.22-3.65 3.16-8.62 8-13.1 14.19-.13.18.02.39.19.39h5.79c3.78 0 8.71-.68 13.81-6.07.12-.12.21-.13.33-.07.11.06.13.18.07.3-.8 1.95-2.81 5.9-6.47 8.25h4.92c3.22 0 5.69-1.55 6.71-3.15zm-4.99 6.63l3.85 10.85h10.77c-2.24-6.65-4.64-12.9-6.88-18.63-1.86 3.85-3.63 5.79-7.74 7.78zM45.26 72.78h10.89l3.68-11.52h-10.6c-1.26 3.44-2.6 7.22-3.97 11.52zM60 48.08l5.5-4.53c1.15-3.15 2.36-6.36 3.62-9.06.63 1.44 1.21 2.87 1.84 4.42 3.02-2.48 4.87-3.96 7.37-4.67-1.54-3.38-2.62-5.71-3.14-6.74H62.98c-1.03 2.18-4.92 10.26-9.45 21.21h4.41c.8 0 1.49-.12 2.06-.63zm67.38 21.65l.57 3.03h7.22V45.27h-8.93v19.07c-.75.92-2.35 1.89-3.73 1.89-2.46 0-3.84-1.43-3.84-4V45.27h-8.87v19.07c-.75.92-2.52 1.89-4.01 1.89-2.29 0-3.55-1.43-3.55-4V45.27h-8.88v18.16c0 6.64 2.87 9.91 8.88 9.91 4.35 0 6.87-1.61 8.88-3.73 1.37 2.47 3.89 3.73 7.55 3.73 4.36 0 6.76-1.55 8.71-3.61zm28.24-5.39c-.8.92-2.12 1.9-4.29 1.9-2.41 0-3.73-2.24-3.73-6.53 0-5.27 1.44-7.91 4.3-7.91 1.66 0 2.52.12 3.72.4v12.14zm-7.31 9h.28c3.97-.04 6.71-1.41 8.23-3.61l.46 3.03h7.28V46.42c-2.92-.92-6.25-1.72-12.49-1.72-8.88 0-13.74 5.44-13.74 15.35 0 9.24 3.4 13.25 9.98 13.29z" fill="#dc000f"/></g></svg>