<?xml version="1.0" encoding="utf-8"?>
<!-- Generator: Adobe Illustrator 23.1.0, SVG Export Plug-In . SVG Version: 6.00 Build 0)  -->
<svg version="1.1" id="Layer_1" xmlns="http://www.w3.org/2000/svg" xmlns:xlink="http://www.w3.org/1999/xlink" x="0px" y="0px"
	 viewBox="0 0 149.5 45.8" style="enable-background:new 0 0 149.5 45.8;" xml:space="preserve">
<style type="text/css">
	.st0{fill:#FEFEFE;}
	.st1{fill:#00985F;}
	.st2{fill:#DC000F;}
</style>
<g id="Слой_x0020_1">
	<g id="_2853363558880">
		<g>
			<path class="st0" d="M36.8,12c-0.4,0.4-0.4,1,0,1.3c0.4,0.4,1,0.4,1.3,0c0.4-0.4,0.4-1,0-1.3C37.7,11.6,37.1,11.6,36.8,12z"/>
			<path class="st1" d="M46,11.4h-4l-1,1.2c-0.2,0.2-0.1,0.3,0.1,0.4l1.3,0.6l3.7-1.7C46.4,11.8,46.3,11.4,46,11.4z M31.1,31h-4.9
				c-1.3,0.8-1.7,1-3.4,1.7c-0.1,0-0.2,0.2-0.1,0.3l4.4,12.3h2.5l-4-11.3c2.6,0,8.9-0.7,12.3-6.2C36.8,29.4,34.3,31,31.1,31z
				 M38.1,13.3c-0.4,0.4-1,0.4-1.3,0c-0.4-0.4-0.4-1,0-1.3c0.4-0.4,1-0.4,1.3,0c-0.8-0.8-2.1-0.8-2.8,0s-0.8,2,0,2.8
				c0.8,0.8,2.1,0.8,2.8,0s0.8-2,0-2.8C38.4,12.4,38.4,12.9,38.1,13.3z M28.4,35.7l3.4,9.6h2.5l-3.6-10.1
				C30.1,35.4,29.3,35.5,28.4,35.7z M31.8,23.7c0.3-0.4,0.5-0.8,0.8-1.3c-0.1-0.1-0.2,0-0.3,0.1c-5.1,5.4-10,6.1-13.8,6.1h-5.8
				c-0.2,0-0.3-0.2-0.2-0.4C17,22,21.9,17.1,25.6,14l-9.7,8.1c-0.8,0.6-1.7,1-2.9,1H0.8c-0.3,0-0.2,0.3-0.2,0.5c0.8,2.6,3.2,5,7.2,5
				l-2.9,2.9c-0.1,0.1-0.1,0.4,0.2,0.4h10.9C23.8,31.9,28.7,28.5,31.8,23.7z"/>
			<path class="st2" d="M140.6,45.3h8.9V17.8h-8.9v10.1h-8.4V17.8h-8.9v27.5h8.9V34.9h8.4V45.3z M35.3,14.8c-0.8-0.8-0.8-2,0-2.8
				c0.8-0.8,2.1-0.8,2.8,0s0.8,2,0,2.8C37.3,15.6,36,15.6,35.3,14.8z M37.8,27.8c3.4-5.5,4.6-14.2,4.6-14.2L41.1,13
				c-0.2-0.1-0.2-0.2-0.1-0.4l1-1.2c-0.6-1.2-2.8-3.2-6-3.2c-1.9,0-3.6,0.5-5.1,1.5c0,0-2.2,1.5-5.3,4.2c-3.7,3.2-8.6,8-13.1,14.2
				c-0.1,0.2,0,0.4,0.2,0.4h5.8c3.8,0,8.7-0.7,13.8-6.1c0.1-0.1,0.2-0.1,0.3-0.1c0.1,0.1,0.1,0.2,0.1,0.3c-0.8,2-2.8,5.9-6.5,8.3
				h4.9C34.4,30.9,36.8,29.4,37.8,27.8L37.8,27.8z M32.8,34.4l3.8,10.8h10.8c-2.2-6.7-4.6-12.9-6.9-18.6
				C38.7,30.5,37,32.4,32.8,34.4z M0,45.3h10.9l3.7-11.5H4C2.7,37.2,1.4,41,0,45.3z M14.7,20.6l5.5-4.5c1.2-3.2,2.4-6.4,3.6-9.1
				c0.6,1.4,1.2,2.9,1.8,4.4c3-2.5,4.9-4,7.4-4.7C31.5,3.4,30.4,1,29.9,0H17.7c-1,2.2-4.9,10.3-9.5,21.2h4.4
				C13.5,21.2,14.2,21.1,14.7,20.6z M82.1,42.2l0.6,3h7.2V17.8H81v19.1c-0.8,0.9-2.3,1.9-3.7,1.9c-2.5,0-3.8-1.4-3.8-4v-17h-8.9
				v19.1c-0.8,0.9-2.5,1.9-4,1.9c-2.3,0-3.6-1.4-3.6-4v-17h-8.9v18.2c0,6.6,2.9,9.9,8.9,9.9c4.3,0,6.9-1.6,8.9-3.7
				c1.4,2.5,3.9,3.7,7.6,3.7C77.8,45.8,80.2,44.3,82.1,42.2z M110.4,36.8c-0.8,0.9-2.1,1.9-4.3,1.9c-2.4,0-3.7-2.2-3.7-6.5
				c0-5.3,1.4-7.9,4.3-7.9c1.7,0,2.5,0.1,3.7,0.4L110.4,36.8L110.4,36.8z M103,45.8h0.3c4,0,6.7-1.4,8.2-3.6l0.5,3h7.3V18.9
				c-2.9-0.9-6.3-1.7-12.5-1.7c-8.9,0-13.7,5.4-13.7,15.4C93.1,41.8,96.5,45.8,103,45.8L103,45.8z"/>
		</g>
	</g>
</g>
</svg>
