<svg version="1.1" id="Layer_1" xmlns="http://www.w3.org/2000/svg" x="0" y="0" width="659" height="197" xml:space="preserve"><path fill="#80BB3D" d="M251.509 98.401c0 53.366-55.905 96.629-124.862 96.629-68.961 0-124.863-43.263-124.863-96.629 0-53.366 55.902-96.629 124.863-96.629 68.957 0 124.862 43.264 124.862 96.629z"/><path fill="#FFF" d="M237.559 98.223c-.07-45.658-49.785-82.595-111.039-82.501-16.604.025-32.349 2.771-46.482 7.667-11.991-1.478-23.779 3.235-23.779 3.235s8.597 13.889 21.505 18.966c9.073 3.569 19.314.566 21.107-1.129.002-.001-3.522-7.191-14.9-12.225-4.403-1.946-10.487-3.701-17.24-4.653 4.548.391 8.407-.101 17.592 2.824 12.787 4.073 16.163 11.706 16.163 11.706.733-7.191-4.083-12.27-8.823-14.993 10.896-2.842 22.631-4.404 34.863-4.422 57.401-.089 103.987 33.735 104.05 75.545.021 12.941-4.42 25.131-12.264 35.798-.137-.135-5.251-5.365-11.509-9.938 2.815-16.85-9.577-32.511-23.062-40.239 6.183-19.671-12.816-39.764-47.236-40.483-5.123-.04-12.133.224-16.696.715l1.912-12.154-2.726.004c-9.551.078-13.1 6.195-14.131 8.596l-3.689 7.097C79.766 53.58 68.022 63.74 66.972 64.646c-2.477 2.139-1.967 3.062 2.445 1.237 7.875-3.259 17.039-6.186 26.644-8.409L67.179 110.62c-15.452-1.768-31.569.045-39.723 10.518-3.069-7.129-4.736-14.71-4.747-22.579-.038-24.218 15.543-45.804 39.818-59.699-6.143-4.004-11.705-.752-13.453.502-.048.034-.047.036-.096.065-20.547 15.039-33.28 35.984-33.245 59.133.017 10.823 2.826 21.152 7.913 30.616-.623 3.263-.26 7.108 2.642 10.817 3.904 4.988 11.722 7.193 20.864 3.995 12.34-4.311 21.825-17.836 24.84-22.742-8.912-1.459-12.437 1.783-13.695 3.462-3.636 4.847-8.981 10.291-14.582 12.694-11.465 4.916-18.883-5.457-9.829-13.806 6.13-5.655 18.292-6.832 29.261-5.449l.269.001c13.862 1.831 24.551 6.024 26.874 6.97-2.127 12.503-3.624 20.493-3.624 20.493l4.083.051c13.34-.006 14.512-9.968 14.512-9.968.02.018.686-3.505.686-3.505 12.232 6.011 24.129 12.431 24.734 12.787 3.131 1.722 7.66 1.623 8.361-2.927l5.182-35.273c13.566-.791 26.891-6.075 34.001-13.791 6.189 4.856 11.916 12.595 13.008 21.959-7.573-3.291-16.138-5.256-24.931-3.893-20.37 3.155-27.493 24.106-16.291 35.993 8.404 8.919 20.458 9.889 33.423 4.989 6.842-2.586 13.582-7.654 18.186-14.818-.97-.984-2.81-2.717-4.899-4.004-5.721-3.521-9.962.469-11.194 1.867-3.63 4.546-8.599 7.869-13.798 9.14-23.694 5.785-25.928-25.24-1.641-26.171 7.68-.295 14.443 2.983 20.398 7.296a.028.028 0 00-.004.012c6.149 4.618 14.593 13.171 18.807 16.107 8.982 6.258 17.734 3.502 17.734 3.502s-1.513-2.493-4.029-5.669c9.283-12.107 14.586-26.13 14.565-41.072zM91.961 115.671c-4.603-1.48-13.219-3.27-15.012-3.627L99.721 70.02c-2.377 14.001-5.323 31.309-7.76 45.651zm53.355-16.32l2.096-14.262c-15.731.121-17.991 10.879-18.25 12.58-7.527-3.63-1.136-11.45 9.451-13.455 11.724-2.222 22.852.399 29.562 3.155-3.773 6.946-12.113 11.085-22.859 11.982zm25.588-20.438c-5.963-1.561-13.912-2.975-22.201-2.679l2.783-18.942c-16.767-2.827-17.68 8.448-17.68 8.448-.596 4.046-1.277 8.668-2.002 13.575-15.568 6.029-17.053 19.923-3.737 25.333-1.345 9.113-3.431 23.219-3.462 23.197-4.33-1.89-13.033-5.446-16.903-6.874l10.57-67.177c45.304-4.696 54.155 16.163 52.632 25.119zm31.891 70.955l-.018.014c-18.869 14.838-46.184 24.18-76.02 24.225-29.631.045-56.377-9.035-75.334-23.41-1.872-1.418-6.619-4.635-12.586-1.734 20.311 19.572 52.153 32.155 87.936 32.1 35.909-.054 67.812-12.825 88.053-32.58-5.708-2.825-10.693.383-12.031 1.385z"/><path d="M508.415 22.038c-6.487 0-8.938 2.602-11.247 8.142-3.283 9.723-6.354 18.792-6.984 20.657-.999-2.321-7.131-16.522-12.431-28.799h-20.049c9.215 19.696 22.601 48.331 23.699 50.679-.401.923-.699 1.635-.699 1.635-1.789 3.997-5.455 4.538-8.622 4.538l-7.199-.163-1.733 12.946c4.222 1.155 8.576 1.617 13.465 1.617 8.207 0 14.466-3.722 17.726-10.481l3.819-8.059a82.931 82.931 0 002.163-5.006l18.971-47.707h-10.879zm-74.882 25.129H422.94V36.372h22.319c5.28-.229 8.256-3.134 8.256-8.345l.01.021v-6.156h-38.098c-7.859.163-11.479 5.101-11.479 10.893v59.461h30.987c19.003 0 25.751-12.143 25.751-22.539.001-11.218-8.395-22.54-27.153-22.54zm-5.22 30.599h-5.373V61.648h7.679c6.541-.012 10.066 3.526 10.066 7.858.001 3.547-1.279 8.26-12.372 8.26zm179.632-12.942c.812-2.157 7.302-19.355 8.666-22.977 1.488 3.579 8.624 20.775 9.538 22.977h-18.204zm-44.944-8.451c2.131-1.981 4.58-5.596 6.234-9.347.006-.002 2.512-5.721 2.512-5.721 1.785-3.995 5.264-4.536 8.437-4.536h.451l1.912-14.266-1.194-.198c-2.412-.419-4.446-.614-6.382-.614-8.169 0-14.466 3.719-17.728 10.478l-4.416 9.334c-2.351 5.027-5.27 7.172-9.758 7.172h-3.938V21.89h-7.54c-7.733.161-11.348 4.947-11.454 10.62v59.733h18.994V63.151h2.837c6.172 0 11.337 4.468 15.366 13.277 0 .003 7.284 15.815 7.284 15.815h32.965s4.686-12.401 5.112-13.544h29.28c.451 1.094 5.614 13.544 5.614 13.544h20.497l-31.252-70.354h-13.076c-6.676 0-9.079 2.735-11.456 8.628v-.002l-21.118 52.386-4.943-10.112c-4.066-8.362-8.518-13.857-13.24-16.416zm-175.803-1.778c4.815-2.302 10.596-7.667 10.596-15.577 0-12.224-14.296-17.696-28.453-17.696-6.62 0-14.203 1.217-23.05 3.63l1.633 14.896s9.114-2.724 14.145-3.154c10.376-.885 14.874 2.248 14.874 6.01 0 1.707 0 6.905-13.774 6.905h-6.645v14.376h5.545c11.133 0 15.274 1.762 15.274 6.507 0 4.715-4.741 7.27-14.077 7.105a69.67 69.67 0 01-15.415-1.767c.198.753 1.321 4.898 3.096 8.577 1.253 2.599 4.05 7.628 9.579 8.21 0 0 3.979.433 7.119.352 19.41-.508 30.553-7.685 30.553-21.085-.001-9.176-5.309-13.969-11-17.289zm-69.085-32.701H305.02c-6.33 0-8.815 2.487-11.08 7.761l-25.238 62.59h20.158s4.689-12.401 5.117-13.542h29.275c.456 1.092 5.619 13.542 5.619 13.542h20.5l-31.258-70.351zm-18.884 42.93c.813-2.157 7.299-19.354 8.669-22.977 1.487 3.579 8.622 20.775 9.534 22.977h-18.203zm35.883 71.82c4.995-3.149 7.923-8.027 7.923-13.409 0-8.727-7.398-18.121-23.643-18.121h-19.156c-7.45.156-11.045 4.602-11.402 10.001v60.349h34.275c23.33 0 25.143-16.099 25.143-21.035 0-8.4-4.895-14.884-13.14-17.785zm-27.285-17.055h7.958c5.727 0 7.756 3.37 7.756 6.254 0 2.976-2.029 6.452-7.756 6.452h-7.958v-12.706zm8.661 41.396h-8.661v-14.212h10.97c4.573 0 9.463 1.774 9.463 6.754 0 4.723-1.927 7.458-11.772 7.458zm265.654-55.761h-13.096c-6.327 0-8.812 2.49-11.079 7.761l-25.235 62.592h20.158s4.689-12.403 5.119-13.544h29.268c.462 1.094 5.623 13.544 5.623 13.544h20.499l-31.257-70.353zm-18.886 42.931c.816-2.156 7.299-19.355 8.671-22.978 1.486 3.582 8.624 20.774 9.536 22.978h-18.207zm-92.155-42.929c-6.483 0-8.934 2.601-11.245 8.14-3.282 9.722-6.355 18.792-6.982 20.656-1.002-2.32-9.098-16.882-14.302-28.939H418.88c9.047 19.345 24.113 48.473 25.212 50.82-.403.923-.698 1.636-.698 1.636-1.791 3.996-5.456 4.537-8.625 4.537l-7.199-.163-1.733 12.945c4.225 1.155 8.577 1.616 13.466 1.616 8.207 0 14.465-3.72 17.728-10.479l3.815-8.059a83.249 83.249 0 002.168-5.006l18.97-47.705h-10.883zm-56.56 14.878l1.91-14.268-1.188-.196c-2.418-.421-4.453-.615-6.389-.615-8.168 0-14.464 3.72-17.729 10.479l-4.414 9.336c-2.351 5.023-5.267 7.167-9.754 7.167h-3.945v-26.781h-7.53c-7.794.164-11.407 5.022-11.464 10.756v59.595h18.994v-29.09h2.842c6.171 0 11.337 4.468 15.367 13.275l7.283 15.814h21.135l-9.508-19.455c-4.072-8.362-8.524-13.856-13.248-16.418 2.135-1.98 4.582-5.594 6.236-9.345.004-.004 2.511-5.722 2.511-5.722 1.789-3.994 5.267-4.534 8.44-4.534h.451zm117.139 46.659c1.605-4.327 2.953-10.376 2.949-10.356-5.143 2.015-11.301 4.69-20.07 4.491-13.269 0-20.266-9.305-20.266-20.515 0-10.964 7.246-20.716 19.871-20.716 6.861 0 13.014 1.881 20.575 6.296l.733.426v-17.476c-8.122-3.249-14.713-4.708-21.168-4.708-10.638 0-20.348 3.716-27.348 10.467-7.037 6.783-10.913 16.205-10.913 26.528 0 8.15 3.396 16.816 9.09 23.184 4.895 5.478 13.835 12.004 28.629 12.004 3.191 0 5.458-.09 8.296-.691 4.946-1.052 8.018-4.61 9.622-8.934z" fill="#4B721D"/></svg>