<svg version="1.1" id="Слой_1" xmlns="http://www.w3.org/2000/svg" x="0" y="0" viewBox="0 0 464.5 74.6" xml:space="preserve"><path d="M56.8 74.6H14.2C6.4 74.6 0 68.3 0 60.4V14.2C0 6.4 6.4 0 14.2 0h42.6C64.7 0 71 6.4 71 14.2v46.2c0 7.9-6.3 14.2-14.2 14.2zm393.5 0h-80.1c-7.9 0-14.2-6.4-14.2-14.2V14.2C356 6.4 362.4 0 370.2 0h80.1c7.9 0 14.2 6.4 14.2 14.2v46.2c0 7.9-6.3 14.2-14.2 14.2z" fill="#a0d4d2"/><path d="M39 59.1H26.8c-3.1 0-5.6-2.4-5.6-5.4V21.5c0-3 2.5-5.4 5.6-5.4h10c6.2 0 13.1 3.5 13.1 10.9 0 4.1-1.7 7.4-5.2 9.1v.1c6.2 1.6 8.8 5.4 8.8 11.1-.1 8.1-7.5 11.8-14.5 11.8zm-4.3-34h-2.4v7.7h1.9c1.4 0 4.5-.4 4.5-4.2 0-2.3-1.7-3.5-4-3.5zm.8 16.6h-3.2v8.4h4.1c3 0 5.4-.6 5.6-4.2 0-2.6-1.7-4.2-6.5-4.2zM93 49.2h18.6c2.6 0 4.7 2.3 4.7 4.9 0 2.7-2.1 4.9-4.7 4.9H87.4c-3.1 0-5.6-2.4-5.6-5.4V21.5c0-3 2.5-5.4 5.6-5.4h24.2c2.6 0 4.7 2.3 4.7 4.9 0 2.7-2.1 4.9-4.7 4.9H93v6.6h15.3c2.7 0 4.7 2.3 4.7 4.9 0 2.7-2.1 4.9-4.7 4.9H93v6.9zm68.8 2.1h-13.2l-1.5 4.7c-.7 2.3-2.4 3.7-5.4 3.7-3.3 0-5.3-2.4-5.3-5.1 0-.6.3-1.7.5-2.3l10.6-31c1.1-3.2 3.2-5.8 7.8-5.8s6.9 2.7 7.9 5.8l10.3 31c.2.6.4 1.7.4 2.3 0 3.2-2.4 5.1-5.6 5.1-2.7 0-4.6-1.3-5.3-3.7l-1.2-4.7zm-10.5-8.9h7.8l-3.8-13.1-4 13.1zm68.9 4.7c1.1-1.4 1.6-3.3 1.6-6.1V20.9c0-3 2.5-5.4 5.6-5.4 3 0 5.6 2.4 5.6 5.4v21.2c0 4.7-1.3 8.7-3.8 11.7-3.3 3.8-8.5 5.9-15.1 5.9s-11.8-2.1-15.1-5.9c-2.5-3-3.8-6.9-3.8-11.7V20.9c0-3 2.5-5.4 5.6-5.4 3.1 0 5.6 2.4 5.6 5.4V41c0 2.8.5 4.7 1.6 6.1 1.5 2 3.6 2.6 6.1 2.6 2.5 0 4.5-.6 6.1-2.6zM277.9 26v28.4c0 3-2.6 5.4-5.6 5.4-3 0-5.6-2.4-5.6-5.4V26h-9.1c-2.7 0-4.8-2.2-4.8-4.9 0-2.6 2.1-4.9 4.8-4.9h29.3c2.7 0 4.8 2.3 4.8 4.9 0 2.7-2.1 4.9-4.8 4.9h-9zm53.5 15.7v12.6c0 3-2.6 5.4-5.6 5.4-3 0-5.6-2.4-5.6-5.4V41.7l-11.4-17.3c-.6-1-1-2.3-1-3.5 0-3.1 2.4-5.3 5.5-5.3 1.8 0 3.6.8 4.6 2.4l7.8 12.6 8-12.7c1-1.5 2.8-2.3 4.6-2.3 3.1 0 5.5 2.3 5.5 5.4 0 1.2-.3 2.5-1 3.5l-11.4 17.2zm63.4 7.8c2.6 0 4.7 2.2 4.7 4.8 0 2.7-2.1 4.8-4.7 4.8h-21.3c-2.6 0-4.6-1.8-4.6-5 0-6.2 1.5-10.2 5-13.7 4.4-4.2 9.8-5.3 13.1-8.4 1-1 1.5-2.1 1.5-3.6 0-.8-.1-1.8-1.1-2.7-.7-.6-1.7-.9-3.3-.9-2 0-3.4.6-4.7 1.4-1.8 1-3.2 2.3-5.2 2.3-2.7 0-4.8-1.8-4.8-4.8 0-2.8 2.4-4.7 5.5-6.1 3.3-1.5 6.2-2 10.1-2 4.5 0 8.3 1.6 10.8 4.3 2 2.1 3.2 5 3.2 8.3 0 3.8-1.4 7.1-4 9.7-4.2 4.2-8.8 5.1-12.2 7.8-1.4 1.1-2 2.3-2 3.9h14zm43.2 9.6h-12.2c-3.1 0-5.6-2.4-5.6-5.4V21.5c0-3 2.5-5.4 5.6-5.4h10c6.2 0 13.1 3.5 13.1 10.9 0 4.1-1.7 7.4-5.2 9.1v.1c6.2 1.6 8.8 5.4 8.8 11.1-.1 8.1-7.5 11.8-14.5 11.8zm-4.3-34h-2.4v7.7h1.9c1.4 0 4.5-.4 4.5-4.2 0-2.3-1.7-3.5-4-3.5zm.9 16.6h-3.2v8.4h4.1c3 0 5.4-.6 5.6-4.2 0-2.6-1.8-4.2-6.5-4.2z" fill="#272727"/></svg>