<?xml version="1.0" encoding="utf-8"?>
<!-- Generator: Adobe Illustrator 22.1.0, SVG Export Plug-In . SVG Version: 6.00 Build 0)  -->
<svg version="1.1" id="Слой_1" xmlns="http://www.w3.org/2000/svg" xmlns:xlink="http://www.w3.org/1999/xlink" x="0px" y="0px"
	 viewBox="0 0 464.5 74.6" style="enable-background:new 0 0 464.5 74.6;" xml:space="preserve">
<style type="text/css">
	.st0{fill:#A0D4D2;}
	.st1{fill:#272727;}
</style>
<g>
	<path class="st0" d="M56.8,74.6H14.2C6.4,74.6,0,68.3,0,60.4V14.2C0,6.4,6.4,0,14.2,0h42.6C64.7,0,71,6.4,71,14.2v46.2
		C71,68.3,64.7,74.6,56.8,74.6z"/>
	<path class="st0" d="M450.3,74.6h-80.1c-7.9,0-14.2-6.4-14.2-14.2V14.2C356,6.4,362.4,0,370.2,0h80.1c7.9,0,14.2,6.4,14.2,14.2
		v46.2C464.5,68.3,458.2,74.6,450.3,74.6z"/>
	<path class="st1" d="M39,59.1H26.8c-3.1,0-5.6-2.4-5.6-5.4V21.5c0-3,2.5-5.4,5.6-5.4h10c6.2,0,13.1,3.5,13.1,10.9
		c0,4.1-1.7,7.4-5.2,9.1v0.1c6.2,1.6,8.8,5.4,8.8,11.1C53.4,55.4,46,59.1,39,59.1z M34.7,25.1h-2.4v7.7h1.9c1.4,0,4.5-0.4,4.5-4.2
		C38.7,26.3,37,25.1,34.7,25.1z M35.5,41.7h-3.2v8.4h4.1c3,0,5.4-0.6,5.6-4.2C42,43.3,40.3,41.7,35.5,41.7z"/>
	<path class="st1" d="M93,49.2h18.6c2.6,0,4.7,2.3,4.7,4.9c0,2.7-2.1,4.9-4.7,4.9H87.4c-3.1,0-5.6-2.4-5.6-5.4V21.5
		c0-3,2.5-5.4,5.6-5.4h24.2c2.6,0,4.7,2.3,4.7,4.9c0,2.7-2.1,4.9-4.7,4.9H93v6.6h15.3c2.7,0,4.7,2.3,4.7,4.9c0,2.7-2.1,4.9-4.7,4.9
		H93V49.2z"/>
	<path class="st1" d="M161.8,51.3h-13.2l-1.5,4.7c-0.7,2.3-2.4,3.7-5.4,3.7c-3.3,0-5.3-2.4-5.3-5.1c0-0.6,0.3-1.7,0.5-2.3l10.6-31
		c1.1-3.2,3.2-5.8,7.8-5.8c4.6,0,6.9,2.7,7.9,5.8l10.3,31c0.2,0.6,0.4,1.7,0.4,2.3c0,3.2-2.4,5.1-5.6,5.1c-2.7,0-4.6-1.3-5.3-3.7
		L161.8,51.3z M151.3,42.4h7.8l-3.8-13.1L151.3,42.4z"/>
	<path class="st1" d="M220.2,47.1c1.1-1.4,1.6-3.3,1.6-6.1V20.9c0-3,2.5-5.4,5.6-5.4c3,0,5.6,2.4,5.6,5.4v21.2
		c0,4.7-1.3,8.7-3.8,11.7c-3.3,3.8-8.5,5.9-15.1,5.9c-6.6,0-11.8-2.1-15.1-5.9c-2.5-3-3.8-6.9-3.8-11.7V20.9c0-3,2.5-5.4,5.6-5.4
		c3.1,0,5.6,2.4,5.6,5.4V41c0,2.8,0.5,4.7,1.6,6.1c1.5,2,3.6,2.6,6.1,2.6C216.6,49.7,218.6,49.1,220.2,47.1z"/>
	<path class="st1" d="M277.9,26v28.4c0,3-2.6,5.4-5.6,5.4c-3,0-5.6-2.4-5.6-5.4V26h-9.1c-2.7,0-4.8-2.2-4.8-4.9
		c0-2.6,2.1-4.9,4.8-4.9h29.3c2.7,0,4.8,2.3,4.8,4.9c0,2.7-2.1,4.9-4.8,4.9H277.9z"/>
	<path class="st1" d="M331.4,41.7v12.6c0,3-2.6,5.4-5.6,5.4c-3,0-5.6-2.4-5.6-5.4V41.7l-11.4-17.3c-0.6-1-1-2.3-1-3.5
		c0-3.1,2.4-5.3,5.5-5.3c1.8,0,3.6,0.8,4.6,2.4l7.8,12.6l8-12.7c1-1.5,2.8-2.3,4.6-2.3c3.1,0,5.5,2.3,5.5,5.4c0,1.2-0.3,2.5-1,3.5
		L331.4,41.7z"/>
	<path class="st1" d="M394.8,49.5c2.6,0,4.7,2.2,4.7,4.8c0,2.7-2.1,4.8-4.7,4.8h-21.3c-2.6,0-4.6-1.8-4.6-5c0-6.2,1.5-10.2,5-13.7
		c4.4-4.2,9.8-5.3,13.1-8.4c1-1,1.5-2.1,1.5-3.6c0-0.8-0.1-1.8-1.1-2.7c-0.7-0.6-1.7-0.9-3.3-0.9c-2,0-3.4,0.6-4.7,1.4
		c-1.8,1-3.2,2.3-5.2,2.3c-2.7,0-4.8-1.8-4.8-4.8c0-2.8,2.4-4.7,5.5-6.1c3.3-1.5,6.2-2,10.1-2c4.5,0,8.3,1.6,10.8,4.3
		c2,2.1,3.2,5,3.2,8.3c0,3.8-1.4,7.1-4,9.7c-4.2,4.2-8.8,5.1-12.2,7.8c-1.4,1.1-2,2.3-2,3.9H394.8z"/>
	<path class="st1" d="M438,59.1h-12.2c-3.1,0-5.6-2.4-5.6-5.4V21.5c0-3,2.5-5.4,5.6-5.4h10c6.2,0,13.1,3.5,13.1,10.9
		c0,4.1-1.7,7.4-5.2,9.1v0.1c6.2,1.6,8.8,5.4,8.8,11.1C452.4,55.4,445,59.1,438,59.1z M433.7,25.1h-2.4v7.7h1.9
		c1.4,0,4.5-0.4,4.5-4.2C437.7,26.3,436,25.1,433.7,25.1z M434.6,41.7h-3.2v8.4h4.1c3,0,5.4-0.6,5.6-4.2
		C441.1,43.3,439.3,41.7,434.6,41.7z"/>
</g>
</svg>
