<?xml version="1.0" encoding="utf-8"?>
<!-- Generator: Adobe Illustrator 21.1.0, SVG Export Plug-In . SVG Version: 6.00 Build 0)  -->
<svg version="1.1" id="Layer_1" xmlns="http://www.w3.org/2000/svg" xmlns:xlink="http://www.w3.org/1999/xlink" x="0px" y="0px"
	 viewBox="0 0 225 82" style="enable-background:new 0 0 225 82;" xml:space="preserve">
<style type="text/css">
	.st0{fill:#4C2967;}
</style>
<g>
	<path class="st0" d="M8.802,0C7.576,0.054,6.447,0.327,5.393,0.816C4.354,1.3,3.416,1.955,2.598,2.775
		c-0.81,0.82-1.454,1.788-1.905,2.897C0.228,6.771,0,7.944,0,9.176v44.396h5.509V20.587h7.502v-5.479H5.509V9.176
		c0-0.982,0.339-1.811,0.992-2.507c0.667-0.692,1.48-1.068,2.452-1.119h4.057V0H8.953H8.802z"/>
	<path class="st0" d="M49.803,44.385v0.157v0.149c-0.112,0.92-0.484,1.702-1.163,2.339c-0.674,0.636-1.467,0.953-2.4,0.953H25.969
		c-0.981,0-1.82-0.348-2.509-1.032c-0.698-0.689-1.059-1.544-1.059-2.567V24.414c0-1.021,0.36-1.875,1.059-2.564
		c0.688-0.687,1.527-1.031,2.509-1.031H46.24c0.981,0,1.815,0.344,2.518,1.031c0.696,0.689,1.045,1.543,1.045,2.564V44.385z
		 M55.373,44.774v-0.389V24.414c0-1.226-0.247-2.398-0.734-3.521c-0.495-1.122-1.155-2.09-1.98-2.909
		c-0.823-0.816-1.792-1.465-2.895-1.95c-1.113-0.481-2.284-0.728-3.524-0.728H25.969c-1.239,0-2.412,0.247-3.523,0.728
		c-1.112,0.486-2.074,1.135-2.896,1.95c-0.83,0.819-1.485,1.787-1.977,2.909c-0.491,1.123-0.737,2.295-0.737,3.521v19.971
		c0,1.226,0.246,2.395,0.737,3.484c0.492,1.096,1.146,2.051,1.977,2.874c0.822,0.815,1.784,1.466,2.896,1.945
		c1.111,0.486,2.284,0.726,3.523,0.726H46.24c1.191,0,2.32-0.21,3.406-0.647c1.084-0.432,2.04-1.031,2.865-1.801
		c0.871,0.822,1.856,1.458,2.933,1.916c1.092,0.46,2.244,0.69,3.485,0.69v-5.434c-0.923-0.054-1.729-0.395-2.393-1.032
		C55.863,46.467,55.476,45.689,55.373,44.774z"/>
	<path class="st0" d="M131.234,17.986c-0.818-0.819-1.796-1.466-2.916-1.957c-1.128-0.483-2.311-0.723-3.542-0.723h-20.052
		c-1.285,0-2.465,0.233-3.532,0.688c-1.081,0.462-2.031,1.093-2.853,1.911c-0.82-0.819-1.781-1.449-2.883-1.911
		c-1.1-0.455-2.261-0.688-3.499-0.688h-20.05c-1.281,0-2.485,0.24-3.582,0.723c-1.099,0.491-2.062,1.138-2.882,1.957
		c-0.815,0.816-1.471,1.772-1.955,2.869c-0.49,1.097-0.733,2.286-0.733,3.556v29.161h5.534V24.411c0-1.02,0.341-1.871,1.04-2.562
		c0.692-0.692,1.549-1.028,2.579-1.028h20.05c0.981,0,1.795,0.314,2.464,0.955c0.665,0.637,1.044,1.39,1.154,2.257v0.378v29.161
		h5.533V24.411v-0.378c0.107-0.867,0.489-1.62,1.15-2.257c0.66-0.641,1.49-0.955,2.465-0.955h20.052c1.03,0,1.885,0.337,2.582,1.028
		c0.694,0.691,1.037,1.541,1.037,2.562v29.161h5.534V24.411c0-1.27-0.249-2.459-0.734-3.556
		C132.705,19.758,132.059,18.802,131.234,17.986z"/>
	<path class="st0" d="M143.148,13.01c1.052,0,1.942-0.367,2.675-1.104c0.741-0.736,1.116-1.63,1.116-2.684
		c0-1.046-0.375-1.961-1.116-2.723c-0.733-0.764-1.623-1.142-2.675-1.142c-1.055,0-1.954,0.378-2.718,1.142
		c-0.764,0.762-1.144,1.677-1.144,2.723c0,1.054,0.38,1.949,1.144,2.684C141.194,12.643,142.093,13.01,143.148,13.01z"/>
	<path class="st0" d="M143.51,18.025c-0.852,0.842-1.5,1.807-1.974,2.905c-0.479,1.1-0.72,2.262-0.72,3.481v29.161h5.701V24.411
		c0-0.964,0.347-1.8,1.03-2.488c0.688-0.689,1.499-1.059,2.453-1.102v-5.514c-1.266,0-2.453,0.24-3.558,0.723
		C145.332,16.521,144.358,17.183,143.51,18.025z"/>
	<path class="st0" d="M172.234,13.01c1.051,0,1.944-0.367,2.688-1.104c0.738-0.736,1.098-1.63,1.098-2.684
		c0-1.046-0.36-1.961-1.098-2.723c-0.744-0.764-1.637-1.142-2.688-1.142c-1.049,0-1.959,0.378-2.715,1.142
		c-0.764,0.762-1.152,1.677-1.152,2.723c0,1.054,0.388,1.949,1.152,2.684C170.275,12.643,171.185,13.01,172.234,13.01z"/>
	<path class="st0" d="M171.828,18.025c-0.857,0.842-1.509,1.807-1.981,2.905c-0.48,1.1-0.714,2.262-0.714,3.481v29.161h5.698V24.411
		c0-0.964,0.343-1.8,1.021-2.488c0.696-0.689,1.501-1.059,2.464-1.102v-5.514c-1.271,0-2.464,0.24-3.566,0.723
		C173.642,16.521,172.671,17.183,171.828,18.025z"/>
	<path class="st0" d="M215.867,44.385v0.157v0.149c-0.096,0.92-0.487,1.702-1.156,2.339c-0.674,0.636-1.473,0.953-2.402,0.953
		h-20.261c-0.985,0-1.827-0.348-2.523-1.032c-0.69-0.689-1.044-1.544-1.044-2.567V24.414c0-1.021,0.354-1.875,1.044-2.564
		c0.696-0.687,1.538-1.031,2.523-1.031h20.261c0.977,0,1.824,0.344,2.513,1.031c0.697,0.689,1.045,1.543,1.045,2.564V44.385z
		 M222.597,47.105c-0.673-0.638-1.055-1.416-1.163-2.331v-0.389V24.414c0-1.226-0.238-2.398-0.73-3.521
		c-0.489-1.122-1.146-2.09-1.974-2.909c-0.828-0.816-1.791-1.465-2.899-1.95c-1.113-0.481-2.278-0.728-3.522-0.728h-20.261
		c-1.248,0-2.421,0.247-3.517,0.728c-1.114,0.486-2.086,1.135-2.909,1.95c-0.829,0.819-1.48,1.787-1.98,2.909
		c-0.482,1.123-0.734,2.295-0.734,3.521v19.971c0,1.226,0.252,2.395,0.734,3.484c0.5,1.096,1.151,2.051,1.98,2.874
		c0.823,0.815,1.795,1.466,2.909,1.945c1.096,0.486,2.269,0.726,3.517,0.726h20.261c1.187,0,2.317-0.21,3.411-0.647
		c1.079-0.432,2.033-1.031,2.853-1.801c0.875,0.822,1.86,1.458,2.943,1.916c1.081,0.46,2.251,0.69,3.484,0.69v-5.434
		C224.07,48.083,223.271,47.742,222.597,47.105z"/>
	<path class="st0" d="M155.357,53.571h5.357V0.765h-5.357V53.571z"/>
</g>
<g>
	<path class="st0" d="M1.56,76.592h2.736c0.771,0,1.398-0.193,1.864-0.574c0.463-0.379,0.698-0.977,0.698-1.776
		c0-0.319-0.035-0.63-0.105-0.924c-0.069-0.291-0.193-0.55-0.368-0.772c-0.175-0.221-0.42-0.399-0.727-0.532
		C5.349,71.88,4.95,71.812,4.47,71.812H1.56V76.592z M4.421,78.061H0.386C0.067,78.061,0,77.869,0,77.708V65.404
		c0-0.273,0.154-0.343,0.284-0.353l6.769,0c0.24,0,0.367,0.121,0.367,0.349v0.751c0,0.242-0.133,0.369-0.386,0.369H1.56v3.862h2.946
		c0.785,0,1.439,0.119,1.944,0.355c0.504,0.237,0.908,0.546,1.2,0.92c0.291,0.374,0.494,0.796,0.604,1.255
		c0.11,0.456,0.165,0.914,0.165,1.357c0,0.628-0.108,1.186-0.32,1.658c-0.213,0.472-0.504,0.871-0.866,1.186
		c-0.361,0.315-0.789,0.553-1.272,0.711C5.478,77.982,4.96,78.061,4.421,78.061z"/>
	<path class="st0" d="M11.595,76.556c0.55,0.158,1.061,0.271,1.519,0.337c0.466,0.066,0.919,0.101,1.347,0.101
		c0.423,0,0.78-0.064,1.063-0.19c0.279-0.125,0.507-0.338,0.677-0.634c0.171-0.299,0.295-0.699,0.368-1.188
		c0.073-0.49,0.111-1.108,0.111-1.837c0-0.768-0.038-1.392-0.111-1.857c-0.073-0.461-0.186-0.822-0.337-1.074
		c-0.149-0.248-0.336-0.413-0.555-0.492c-0.223-0.079-0.49-0.119-0.793-0.119c-0.238,0-0.517,0.04-0.828,0.121
		c-0.313,0.081-0.626,0.183-0.934,0.304c-0.305,0.12-0.6,0.25-0.875,0.385c-0.259,0.127-0.478,0.24-0.653,0.333V76.556z
		 M11.183,81.888h-0.842c-0.167,0-0.271-0.033-0.322-0.098c-0.048-0.062-0.07-0.171-0.07-0.332V68.686
		c0-0.255,0.135-0.389,0.392-0.389h0.842c0.257,0,0.392,0.134,0.392,0.389v0.71l0.018,0.013c0.147-0.093,0.34-0.212,0.574-0.353
		c0.249-0.149,0.532-0.294,0.843-0.43c0.312-0.136,0.643-0.257,0.986-0.358c0.345-0.103,0.693-0.155,1.033-0.155
		c0.637,0,1.177,0.115,1.607,0.342c0.429,0.226,0.775,0.561,1.027,0.993c0.25,0.43,0.433,0.966,0.541,1.592
		c0.107,0.626,0.163,1.355,0.163,2.167c0,0.84-0.062,1.597-0.183,2.249c-0.122,0.655-0.34,1.213-0.644,1.657
		c-0.306,0.445-0.721,0.79-1.23,1.022c-0.509,0.233-1.165,0.35-1.947,0.35c-0.378,0-0.81-0.041-1.282-0.123
		c-0.462-0.08-0.962-0.225-1.487-0.434v3.53c0,0.147-0.026,0.252-0.081,0.322C11.457,81.853,11.349,81.888,11.183,81.888z"/>
	<path class="st0" d="M21.611,72.304h4.95c-0.003-0.321-0.033-0.649-0.092-0.976c-0.06-0.337-0.18-0.645-0.354-0.911
		c-0.174-0.266-0.424-0.485-0.745-0.649c-0.321-0.165-0.757-0.249-1.295-0.249c-0.444,0-0.822,0.068-1.123,0.201
		c-0.301,0.132-0.547,0.322-0.734,0.562c-0.188,0.243-0.331,0.539-0.425,0.884C21.701,71.501,21.64,71.884,21.611,72.304z
		 M24.157,78.061c-0.948,0-1.713-0.143-2.272-0.424c-0.56-0.28-0.991-0.658-1.281-1.117c-0.29-0.458-0.483-0.99-0.572-1.584
		c-0.089-0.589-0.134-1.205-0.134-1.829c0-0.467,0.042-0.997,0.124-1.575c0.082-0.58,0.271-1.13,0.56-1.632
		c0.29-0.505,0.717-0.933,1.269-1.273c0.553-0.34,1.315-0.513,2.265-0.513c0.879,0,1.598,0.126,2.137,0.374
		c0.539,0.249,0.963,0.582,1.261,0.989c0.297,0.406,0.5,0.877,0.604,1.401c0.102,0.518,0.168,1.051,0.197,1.585
		c0.013,0.318-0.041,0.59-0.16,0.811c-0.124,0.228-0.39,0.343-0.789,0.343h-5.755c0.014,0.557,0.07,1.033,0.162,1.413
		c0.094,0.386,0.249,0.699,0.464,0.931c0.213,0.233,0.486,0.398,0.813,0.492c0.33,0.095,0.738,0.144,1.212,0.144
		c0.203,0,0.437-0.009,0.696-0.029l0.781-0.059c0.263-0.02,0.516-0.042,0.749-0.067c0.238-0.026,0.449-0.052,0.626-0.079
		c0.152-0.014,0.259-0.006,0.34,0.022c0.089,0.032,0.151,0.121,0.182,0.265l0.082,0.437c0.045,0.201-0.041,0.354-0.252,0.44
		c-0.195,0.08-0.431,0.154-0.705,0.22c-0.274,0.065-0.566,0.122-0.868,0.169c-0.303,0.046-0.608,0.083-0.908,0.109
		C24.68,78.048,24.402,78.061,24.157,78.061z"/>
	<path class="st0" d="M37.768,78.061H37.17c-0.445,0-0.539-0.244-0.539-0.447v-4.109H31.48v4.109c0,0.293-0.172,0.447-0.497,0.447
		h-0.639c-0.325,0-0.497-0.155-0.497-0.447V68.58c0-0.175,0.043-0.299,0.13-0.368c0.083-0.066,0.206-0.101,0.367-0.101h0.639
		c0.161,0,0.285,0.034,0.368,0.101c0.086,0.07,0.129,0.194,0.129,0.369v3.5h5.151v-3.5c0-0.177,0.051-0.302,0.153-0.371
		c0.096-0.066,0.226-0.099,0.386-0.099h0.598c0.161,0,0.285,0.034,0.368,0.101c0.085,0.07,0.129,0.193,0.129,0.368v9.034
		C38.265,77.907,38.093,78.061,37.768,78.061z"/>
	<path class="st0" d="M42.001,76.272h5.175v-6.686h-3.758l-0.422,3.046c-0.094,0.656-0.179,1.197-0.254,1.611
		c-0.075,0.41-0.154,0.746-0.235,0.999c-0.081,0.254-0.165,0.46-0.247,0.611C42.191,75.987,42.103,76.127,42.001,76.272z
		 M49.23,80.357h-0.751c-0.124,0-0.207-0.033-0.249-0.097c-0.038-0.059-0.064-0.174-0.078-0.353l-0.081-2.159H40.66l-0.159,2.158
		c-0.014,0.181-0.044,0.297-0.09,0.356c-0.05,0.063-0.122,0.095-0.217,0.095h-0.771c-0.124,0-0.207-0.033-0.25-0.097
		c-0.038-0.059-0.063-0.174-0.078-0.353l-0.06-3.023c-0.015-0.156,0.013-0.263,0.085-0.326c0.066-0.057,0.165-0.1,0.293-0.127
		l0.523-0.078c0.418-0.216,0.717-0.551,0.887-0.994c0.174-0.453,0.331-1.057,0.465-1.797L42,69.03
		c0.055-0.323,0.18-0.56,0.371-0.703c0.189-0.143,0.475-0.214,0.848-0.214h4.995c0.202,0,0.35,0.051,0.439,0.151
		c0.087,0.099,0.131,0.226,0.131,0.379v7.655l0.632,0.074c0.153,0.029,0.248,0.091,0.288,0.182c0.036,0.087,0.048,0.18,0.033,0.279
		l-0.203,3.073c-0.014,0.18-0.043,0.297-0.09,0.356C49.397,80.325,49.325,80.357,49.23,80.357z"/>
	<path class="st0" d="M52.799,76.538h2.71c0.475,0,0.875-0.129,1.187-0.383c0.309-0.253,0.465-0.644,0.465-1.165
		c0-0.43-0.117-0.797-0.347-1.089c-0.229-0.291-0.623-0.438-1.172-0.438h-2.845V76.538z M55.49,78.061h-3.693
		c-0.431,0-0.521-0.244-0.521-0.447v-9.055c0-0.204,0.09-0.447,0.521-0.447h0.539c0.303,0,0.463,0.154,0.463,0.445v3.382h2.903
		c0.541,0,1.006,0.087,1.382,0.258c0.376,0.171,0.685,0.401,0.918,0.682c0.234,0.281,0.405,0.61,0.509,0.981
		c0.103,0.369,0.155,0.749,0.155,1.13c0,0.493-0.088,0.937-0.263,1.319c-0.175,0.384-0.412,0.71-0.703,0.969
		c-0.291,0.26-0.632,0.458-1.014,0.588C56.305,77.996,55.903,78.061,55.49,78.061z M60.755,78.061h-0.604
		c-0.404,0-0.489-0.244-0.489-0.447V68.58c0-0.175,0.045-0.3,0.134-0.369c0.085-0.066,0.204-0.099,0.355-0.099h0.604
		c0.152,0,0.269,0.034,0.348,0.1c0.081,0.069,0.122,0.193,0.122,0.368v9.034C61.224,77.817,61.143,78.061,60.755,78.061z"/>
	<path class="st0" d="M63.233,81.122c-0.059,0-0.116-0.028-0.171-0.085l-0.235-0.219c-0.064-0.048-0.087-0.116-0.061-0.187
		c0.022-0.06,0.062-0.119,0.119-0.176c0.233-0.211,0.399-0.436,0.495-0.67c0.096-0.235,0.146-0.479,0.146-0.728
		c0-0.233-0.046-0.476-0.136-0.719c-0.091-0.242-0.208-0.452-0.35-0.621c-0.065-0.089-0.091-0.175-0.079-0.253
		c0.014-0.085,0.069-0.162,0.167-0.231l0.79-0.602c0.1-0.073,0.198-0.107,0.294-0.1c0.095,0.008,0.181,0.05,0.254,0.123
		c0.199,0.19,0.349,0.402,0.444,0.627c0.094,0.226,0.142,0.438,0.142,0.63c0,0.809-0.165,1.472-0.492,1.974
		c-0.325,0.499-0.691,0.882-1.089,1.138c-0.042,0.028-0.095,0.055-0.165,0.084C63.281,81.118,63.257,81.122,63.233,81.122z"/>
	<path class="st0" d="M76.166,78.061c-0.918,0-1.664-0.133-2.216-0.395c-0.553-0.263-0.986-0.63-1.287-1.09
		c-0.3-0.459-0.498-0.997-0.588-1.598c-0.09-0.597-0.136-1.249-0.136-1.941c0-0.626,0.046-1.239,0.136-1.823
		c0.09-0.589,0.288-1.12,0.588-1.578c0.301-0.46,0.734-0.834,1.287-1.109c0.552-0.275,1.298-0.415,2.216-0.415
		c0.207,0,0.446,0.006,0.73,0.019c0.277,0.014,0.562,0.037,0.846,0.069c0.285,0.033,0.57,0.079,0.848,0.138
		c0.277,0.059,0.531,0.134,0.756,0.227c0.123,0.043,0.199,0.112,0.223,0.204c0.022,0.082,0.026,0.167,0.011,0.251l-0.084,0.45
		c-0.032,0.122-0.109,0.198-0.229,0.228c-0.109,0.028-0.229,0.036-0.36,0.021c-0.43-0.039-0.905-0.08-1.425-0.126
		c-0.518-0.046-0.968-0.069-1.338-0.069c-0.463,0-0.857,0.062-1.169,0.183c-0.309,0.119-0.558,0.315-0.739,0.58
		c-0.184,0.267-0.318,0.626-0.4,1.069c-0.082,0.445-0.124,1.005-0.124,1.664c0,0.711,0.042,1.307,0.124,1.771
		c0.082,0.462,0.221,0.835,0.411,1.108c0.188,0.271,0.44,0.466,0.749,0.58c0.313,0.115,0.699,0.174,1.15,0.174
		c0.165,0,0.37-0.007,0.611-0.02c0.235-0.013,0.487-0.029,0.748-0.049c0.256-0.02,0.516-0.04,0.78-0.059
		c0.265-0.02,0.502-0.042,0.706-0.068c0.135-0.014,0.239-0.007,0.322,0.021c0.091,0.032,0.153,0.12,0.184,0.265l0.084,0.411
		c0.046,0.202-0.039,0.356-0.252,0.456c-0.393,0.171-0.891,0.29-1.482,0.355C77.255,78.029,76.69,78.061,76.166,78.061z"/>
	<path class="st0" d="M82.695,72.162h2.813c0.437,0,0.79-0.131,1.051-0.389c0.26-0.259,0.392-0.58,0.392-0.954
		c0-0.309-0.117-0.598-0.346-0.856c-0.229-0.257-0.663-0.388-1.291-0.388h-2.62V72.162z M82.695,76.537h2.639
		c0.379,0,0.692-0.049,0.93-0.147c0.238-0.098,0.428-0.22,0.565-0.363c0.137-0.141,0.234-0.296,0.289-0.457
		c0.056-0.162,0.084-0.317,0.084-0.458c0-0.39-0.12-0.747-0.358-1.06c-0.234-0.311-0.646-0.468-1.221-0.468h-2.929V76.537z
		 M85.656,78.061h-3.989c-0.207,0-0.346-0.036-0.425-0.112c-0.079-0.076-0.119-0.188-0.119-0.335v-9.095
		c0-0.165,0.037-0.272,0.114-0.329c0.073-0.052,0.188-0.079,0.354-0.079h3.825c1.092,0,1.892,0.242,2.377,0.719
		c0.485,0.479,0.732,1.12,0.732,1.91c0,0.151-0.017,0.32-0.05,0.503c-0.033,0.184-0.09,0.374-0.17,0.565
		c-0.08,0.191-0.198,0.379-0.35,0.557c-0.138,0.16-0.312,0.306-0.519,0.431c0.242,0.12,0.448,0.271,0.615,0.453
		c0.182,0.198,0.327,0.409,0.432,0.63c0.104,0.218,0.179,0.444,0.225,0.669c0.045,0.227,0.069,0.437,0.069,0.628
		c0,0.437-0.083,0.836-0.246,1.186c-0.164,0.349-0.389,0.654-0.669,0.907c-0.28,0.253-0.613,0.45-0.991,0.586
		C86.493,77.992,86.084,78.061,85.656,78.061z"/>
	<path class="st0" d="M94.455,69.542c-0.519,0-0.944,0.074-1.262,0.22c-0.317,0.146-0.57,0.366-0.754,0.657
		c-0.186,0.292-0.314,0.661-0.381,1.095c-0.067,0.436-0.101,0.958-0.101,1.553c0,0.594,0.034,1.116,0.101,1.552
		c0.067,0.435,0.194,0.803,0.381,1.095c0.184,0.291,0.437,0.511,0.754,0.656c0.317,0.146,0.741,0.221,1.262,0.221
		c0.547,0,0.996-0.071,1.335-0.212c0.337-0.138,0.604-0.353,0.794-0.636c0.192-0.286,0.323-0.654,0.389-1.095
		c0.068-0.444,0.101-0.976,0.101-1.582c0-0.592-0.033-1.119-0.101-1.563c-0.067-0.44-0.198-0.807-0.389-1.094
		c-0.191-0.283-0.459-0.501-0.795-0.647C95.45,69.616,95.001,69.542,94.455,69.542z M94.445,78.061c-0.977,0-1.751-0.16-2.304-0.475
		c-0.552-0.314-0.969-0.724-1.242-1.218c-0.272-0.49-0.44-1.048-0.502-1.656c-0.06-0.603-0.091-1.199-0.091-1.772
		c0-0.47,0.041-0.991,0.122-1.55c0.082-0.562,0.264-1.092,0.542-1.577c0.28-0.485,0.697-0.895,1.242-1.216
		c0.545-0.323,1.296-0.485,2.233-0.485c0.935,0,1.695,0.143,2.259,0.424c0.565,0.283,1.004,0.656,1.304,1.109
		c0.299,0.452,0.496,0.974,0.585,1.55c0.088,0.574,0.132,1.16,0.132,1.745c0,0.571-0.034,1.164-0.102,1.763
		c-0.067,0.602-0.243,1.159-0.521,1.656c-0.28,0.5-0.712,0.913-1.285,1.228C96.245,77.901,95.447,78.061,94.445,78.061z"/>
	<path class="st0" d="M104.688,70.608c-0.625,0-1.127,0.111-1.49,0.328c-0.365,0.217-0.643,0.501-0.827,0.842
		c-0.186,0.346-0.311,0.732-0.37,1.15c-0.061,0.42-0.091,0.835-0.091,1.238c0,0.387,0.027,0.773,0.08,1.148
		c0.053,0.371,0.171,0.709,0.35,1.006c0.177,0.295,0.435,0.535,0.765,0.713c0.33,0.177,0.78,0.268,1.339,0.268
		c0.572,0,1.033-0.094,1.369-0.278c0.337-0.184,0.597-0.427,0.776-0.723c0.178-0.297,0.296-0.646,0.349-1.036
		c0.054-0.394,0.081-0.811,0.081-1.24c0-0.44-0.027-0.874-0.081-1.289c-0.053-0.411-0.164-0.78-0.33-1.098
		c-0.165-0.316-0.402-0.569-0.705-0.753C105.6,70.701,105.191,70.608,104.688,70.608z M104.362,78.826
		c-0.856,0-1.559-0.138-2.092-0.411c-0.532-0.273-0.956-0.636-1.256-1.079c-0.299-0.442-0.504-0.95-0.606-1.507
		c-0.101-0.553-0.153-1.116-0.153-1.672c0-1.187,0.035-2.287,0.103-3.27c0.069-0.987,0.24-1.875,0.508-2.639
		c0.269-0.767,0.673-1.425,1.201-1.953c0.528-0.531,1.258-0.944,2.17-1.228c0.53-0.149,1.111-0.29,1.726-0.418
		c0.618-0.129,1.158-0.24,1.62-0.334c0.13-0.029,0.218-0.036,0.276-0.021c0.063,0.019,0.108,0.088,0.14,0.214l0.164,0.629
		c0.046,0.146,0.044,0.267-0.007,0.357c-0.046,0.08-0.13,0.134-0.25,0.162c-0.511,0.107-0.974,0.21-1.373,0.304
		c-0.402,0.095-0.78,0.183-1.132,0.264c-0.631,0.16-1.159,0.35-1.569,0.564c-0.407,0.213-0.745,0.482-1.006,0.801
		c-0.259,0.319-0.455,0.706-0.581,1.151c-0.125,0.434-0.215,0.954-0.27,1.546c0.336-0.399,0.758-0.691,1.254-0.867
		c0.516-0.184,1.093-0.277,1.716-0.277c0.692,0,1.285,0.125,1.761,0.371c0.476,0.245,0.867,0.588,1.16,1.017
		c0.292,0.428,0.502,0.943,0.624,1.528c0.122,0.582,0.183,1.213,0.183,1.876c0,0.567-0.05,1.15-0.152,1.732
		c-0.103,0.586-0.31,1.116-0.617,1.579c-0.308,0.464-0.747,0.848-1.307,1.14C106.038,78.677,105.286,78.826,104.362,78.826z"/>
	<path class="st0" d="M114.352,69.542c-0.519,0-0.944,0.074-1.261,0.22c-0.318,0.146-0.571,0.366-0.755,0.657
		c-0.186,0.292-0.314,0.661-0.381,1.095c-0.067,0.436-0.1,0.958-0.1,1.553c0,0.594,0.033,1.116,0.1,1.552
		c0.067,0.435,0.195,0.803,0.381,1.095c0.184,0.291,0.437,0.511,0.755,0.656c0.317,0.146,0.741,0.221,1.261,0.221
		c0.547,0,0.996-0.071,1.335-0.212c0.336-0.138,0.604-0.353,0.795-0.636c0.191-0.286,0.322-0.654,0.389-1.095
		c0.067-0.444,0.101-0.976,0.101-1.582c0-0.592-0.034-1.119-0.101-1.563c-0.067-0.44-0.198-0.807-0.389-1.094
		c-0.192-0.283-0.459-0.501-0.796-0.647C115.348,69.616,114.899,69.542,114.352,69.542z M114.342,78.061
		c-0.976,0-1.752-0.16-2.303-0.475c-0.552-0.314-0.97-0.724-1.242-1.218c-0.272-0.49-0.442-1.048-0.502-1.656
		c-0.06-0.603-0.091-1.199-0.091-1.772c0-0.47,0.04-0.991,0.122-1.55c0.081-0.562,0.263-1.092,0.542-1.577
		c0.279-0.485,0.696-0.895,1.242-1.216c0.545-0.323,1.296-0.485,2.232-0.485c0.935,0,1.695,0.143,2.261,0.424
		c0.564,0.283,1.003,0.656,1.303,1.109c0.3,0.452,0.495,0.974,0.584,1.55c0.089,0.574,0.132,1.16,0.132,1.745
		c0,0.571-0.033,1.164-0.1,1.763c-0.069,0.602-0.244,1.159-0.523,1.656c-0.279,0.5-0.712,0.913-1.284,1.228
		C116.144,77.901,115.345,78.061,114.342,78.061z"/>
	<path class="st0" d="M122.358,76.272h5.176v-6.686h-3.758l-0.421,3.046c-0.094,0.656-0.18,1.197-0.254,1.611
		c-0.075,0.41-0.154,0.746-0.235,0.999c-0.081,0.254-0.164,0.46-0.247,0.611C122.548,75.987,122.46,76.127,122.358,76.272z
		 M129.586,80.357h-0.751c-0.123,0-0.207-0.033-0.25-0.097c-0.037-0.059-0.063-0.174-0.077-0.353l-0.079-2.159h-7.412l-0.159,2.158
		c-0.015,0.181-0.045,0.297-0.09,0.356c-0.049,0.063-0.122,0.095-0.217,0.095h-0.772c-0.123,0-0.207-0.033-0.249-0.097
		c-0.038-0.059-0.063-0.174-0.077-0.353l-0.062-3.023c-0.014-0.156,0.014-0.263,0.085-0.326c0.067-0.057,0.166-0.1,0.294-0.127
		l0.524-0.078c0.418-0.216,0.717-0.551,0.888-0.994c0.173-0.453,0.33-1.057,0.464-1.797l0.71-4.531
		c0.055-0.323,0.181-0.56,0.372-0.703c0.189-0.143,0.475-0.214,0.849-0.214h4.994c0.202,0,0.349,0.051,0.439,0.151
		c0.088,0.099,0.131,0.226,0.131,0.379v7.655l0.633,0.074c0.153,0.029,0.248,0.091,0.288,0.182c0.037,0.087,0.048,0.18,0.034,0.279
		l-0.203,3.073c-0.014,0.18-0.043,0.297-0.09,0.356C129.754,80.325,129.681,80.357,129.586,80.357z"/>
	<path class="st0" d="M139.553,78.061h-0.597c-0.445,0-0.538-0.244-0.538-0.447v-4.109h-5.152v4.109
		c0,0.293-0.171,0.447-0.497,0.447h-0.64c-0.324,0-0.496-0.155-0.496-0.447V68.58c0-0.175,0.044-0.298,0.129-0.368
		c0.083-0.066,0.206-0.101,0.367-0.101h0.64c0.16,0,0.284,0.034,0.368,0.101c0.086,0.07,0.129,0.194,0.129,0.369v3.5h5.152v-3.5
		c0-0.177,0.05-0.302,0.152-0.371c0.097-0.066,0.226-0.099,0.386-0.099h0.597c0.162,0,0.286,0.034,0.369,0.101
		c0.085,0.07,0.129,0.193,0.129,0.368v9.034C140.051,77.907,139.88,78.061,139.553,78.061z"/>
	<path class="st0" d="M143.105,76.538h2.711c0.476,0,0.875-0.129,1.186-0.383c0.31-0.253,0.466-0.644,0.466-1.165
		c0-0.43-0.117-0.797-0.346-1.089c-0.229-0.291-0.623-0.438-1.172-0.438h-2.845V76.538z M145.796,78.061h-3.693
		c-0.43,0-0.521-0.244-0.521-0.447v-9.055c0-0.204,0.091-0.447,0.521-0.447h0.54c0.302,0,0.462,0.154,0.462,0.445v3.382h2.903
		c0.541,0,1.006,0.087,1.381,0.258c0.376,0.171,0.686,0.401,0.92,0.682c0.233,0.281,0.404,0.61,0.508,0.981
		c0.104,0.369,0.155,0.749,0.155,1.13c0,0.493-0.088,0.937-0.263,1.319c-0.175,0.384-0.412,0.71-0.703,0.969
		c-0.291,0.26-0.632,0.458-1.014,0.588C146.611,77.996,146.209,78.061,145.796,78.061z M151.062,78.061h-0.604
		c-0.405,0-0.489-0.244-0.489-0.447V68.58c0-0.175,0.045-0.3,0.134-0.369c0.083-0.066,0.204-0.099,0.355-0.099h0.604
		c0.151,0,0.268,0.034,0.346,0.1c0.082,0.069,0.123,0.193,0.123,0.368v9.034C151.531,77.817,151.449,78.061,151.062,78.061z"/>
	<path class="st0" d="M155.54,72.304h4.95c-0.002-0.321-0.033-0.649-0.092-0.976c-0.061-0.338-0.179-0.645-0.354-0.911
		c-0.174-0.266-0.424-0.485-0.745-0.649c-0.32-0.165-0.757-0.249-1.295-0.249c-0.444,0-0.823,0.068-1.123,0.201
		c-0.3,0.132-0.548,0.322-0.734,0.562c-0.189,0.243-0.332,0.539-0.426,0.884C155.629,71.502,155.568,71.885,155.54,72.304z
		 M158.086,78.061c-0.948,0-1.713-0.143-2.273-0.424c-0.56-0.281-0.991-0.658-1.281-1.117c-0.29-0.458-0.482-0.99-0.572-1.584
		c-0.088-0.588-0.133-1.204-0.133-1.829c0-0.467,0.041-0.997,0.123-1.575c0.083-0.58,0.271-1.129,0.561-1.632
		c0.289-0.505,0.717-0.933,1.268-1.273c0.554-0.34,1.315-0.513,2.265-0.513c0.88,0,1.6,0.126,2.138,0.374
		c0.539,0.249,0.963,0.582,1.261,0.989c0.297,0.406,0.5,0.877,0.604,1.401c0.102,0.518,0.168,1.052,0.196,1.585
		c0.014,0.318-0.04,0.59-0.159,0.811c-0.125,0.228-0.39,0.343-0.79,0.343h-5.755c0.014,0.556,0.069,1.032,0.163,1.413
		c0.093,0.386,0.25,0.699,0.463,0.931c0.212,0.233,0.486,0.398,0.813,0.492c0.33,0.095,0.737,0.144,1.211,0.144
		c0.203,0,0.438-0.009,0.696-0.029l0.782-0.059c0.262-0.02,0.514-0.042,0.749-0.067c0.238-0.026,0.448-0.052,0.625-0.079
		c0.152-0.014,0.259-0.006,0.341,0.022c0.09,0.032,0.15,0.121,0.181,0.265l0.083,0.437c0.044,0.201-0.043,0.354-0.252,0.44
		c-0.195,0.08-0.432,0.154-0.706,0.22c-0.275,0.065-0.566,0.122-0.867,0.169c-0.303,0.046-0.609,0.083-0.908,0.109
		C158.609,78.048,158.331,78.061,158.086,78.061z"/>
	<path class="st0" d="M172.516,69.542c-0.52,0-0.945,0.074-1.263,0.22c-0.317,0.146-0.57,0.366-0.754,0.657
		c-0.186,0.292-0.314,0.661-0.38,1.095c-0.068,0.436-0.101,0.958-0.101,1.553c0,0.594,0.033,1.116,0.101,1.552
		c0.066,0.435,0.194,0.803,0.38,1.095c0.184,0.291,0.437,0.511,0.754,0.656c0.318,0.146,0.742,0.221,1.263,0.221
		c0.546,0,0.996-0.071,1.334-0.212c0.336-0.138,0.603-0.353,0.794-0.636c0.192-0.286,0.323-0.654,0.39-1.095
		c0.067-0.444,0.101-0.976,0.101-1.582c0-0.592-0.034-1.119-0.101-1.563c-0.067-0.44-0.198-0.807-0.39-1.094
		c-0.191-0.283-0.458-0.501-0.794-0.647C173.511,69.616,173.062,69.542,172.516,69.542z M172.505,78.061
		c-0.976,0-1.751-0.16-2.303-0.475c-0.552-0.314-0.969-0.724-1.243-1.218c-0.271-0.49-0.439-1.048-0.5-1.656
		c-0.062-0.603-0.092-1.199-0.092-1.772c0-0.47,0.041-0.991,0.122-1.55c0.082-0.562,0.264-1.092,0.542-1.577
		c0.28-0.485,0.697-0.895,1.242-1.216c0.545-0.323,1.296-0.485,2.232-0.485c0.936,0,1.696,0.143,2.261,0.424
		c0.565,0.283,1.003,0.656,1.303,1.109c0.299,0.452,0.496,0.974,0.584,1.55c0.088,0.574,0.133,1.16,0.133,1.745
		c0,0.571-0.035,1.164-0.102,1.763c-0.068,0.602-0.243,1.159-0.522,1.656c-0.279,0.5-0.711,0.913-1.284,1.228
		C174.306,77.901,173.509,78.061,172.505,78.061z"/>
	<path class="st0" d="M182.457,78.061h-0.551c-0.41,0-0.496-0.244-0.496-0.447v-8.019h-2.598c-0.191,0-0.318-0.037-0.389-0.114
		c-0.071-0.074-0.107-0.193-0.107-0.354v-0.568c0-0.204,0.083-0.447,0.477-0.447h6.719c0.178,0,0.296,0.037,0.361,0.116
		c0.065,0.076,0.096,0.187,0.096,0.332v0.568c0,0.159-0.031,0.277-0.096,0.353c-0.065,0.077-0.189,0.114-0.38,0.114h-2.579v8.019
		C182.914,77.907,182.755,78.061,182.457,78.061z"/>
	<path class="st0" d="M200.793,80.357h-0.721c-0.116,0-0.194-0.033-0.233-0.098c-0.036-0.06-0.059-0.176-0.073-0.356l-0.055-2.045
		h-6.397c-0.134,0-0.244-0.033-0.326-0.097c-0.087-0.068-0.131-0.189-0.131-0.362V68.55c0-0.286,0.158-0.438,0.457-0.438h0.608
		c0.287,0,0.439,0.152,0.439,0.44v7.853h4.437v-7.853c0-0.2,0.083-0.44,0.476-0.44h0.551c0.394,0,0.476,0.239,0.476,0.44
		l0.019,7.817l0.648,0.056c0.155,0.015,0.249,0.074,0.281,0.177c0.027,0.092,0.033,0.188,0.019,0.285l-0.189,3.017
		c-0.013,0.181-0.041,0.298-0.083,0.358C200.95,80.326,200.882,80.357,200.793,80.357z"/>
	<path class="st0" d="M204.52,72.304h4.95c-0.002-0.321-0.034-0.649-0.092-0.976c-0.06-0.338-0.179-0.645-0.354-0.911
		c-0.174-0.266-0.424-0.485-0.745-0.649c-0.321-0.165-0.756-0.249-1.295-0.249c-0.444,0-0.823,0.068-1.124,0.201
		c-0.3,0.132-0.547,0.322-0.734,0.562c-0.187,0.243-0.331,0.539-0.424,0.884C204.61,71.502,204.549,71.885,204.52,72.304z
		 M207.066,78.061c-0.948,0-1.713-0.143-2.272-0.424c-0.561-0.281-0.992-0.658-1.283-1.117c-0.289-0.458-0.482-0.99-0.571-1.584
		c-0.088-0.588-0.134-1.204-0.134-1.829c0-0.467,0.042-0.997,0.124-1.575c0.083-0.58,0.271-1.129,0.56-1.632
		c0.291-0.505,0.718-0.933,1.27-1.273c0.552-0.34,1.315-0.513,2.264-0.513c0.881,0,1.599,0.126,2.138,0.374
		c0.539,0.249,0.962,0.582,1.261,0.989c0.297,0.406,0.499,0.877,0.603,1.401c0.103,0.518,0.169,1.052,0.196,1.585
		c0.014,0.318-0.04,0.59-0.158,0.811c-0.125,0.228-0.391,0.343-0.79,0.343h-5.755c0.015,0.556,0.069,1.032,0.162,1.413
		c0.094,0.386,0.25,0.699,0.463,0.931c0.213,0.233,0.486,0.398,0.814,0.492c0.33,0.095,0.736,0.144,1.21,0.144
		c0.204,0,0.439-0.009,0.696-0.029l0.782-0.059c0.263-0.02,0.515-0.042,0.749-0.067c0.238-0.026,0.45-0.052,0.626-0.079
		c0.152-0.014,0.259-0.006,0.34,0.022c0.09,0.032,0.151,0.121,0.181,0.265l0.083,0.437c0.045,0.201-0.041,0.354-0.251,0.44
		c-0.195,0.08-0.432,0.154-0.706,0.22c-0.275,0.065-0.567,0.122-0.868,0.169c-0.303,0.046-0.608,0.083-0.907,0.109
		C207.589,78.048,207.311,78.061,207.066,78.061z"/>
	<path class="st0" d="M220.677,78.061h-0.598c-0.445,0-0.539-0.244-0.539-0.447v-4.109h-5.152v4.109
		c0,0.293-0.171,0.447-0.497,0.447h-0.639c-0.325,0-0.497-0.155-0.497-0.447V68.58c0-0.175,0.044-0.298,0.13-0.368
		c0.082-0.066,0.206-0.101,0.367-0.101h0.639c0.161,0,0.285,0.034,0.368,0.101c0.087,0.07,0.129,0.194,0.129,0.369v3.5h5.152v-3.5
		c0-0.177,0.052-0.302,0.154-0.371c0.095-0.066,0.225-0.099,0.385-0.099h0.598c0.161,0,0.284,0.034,0.368,0.101
		c0.086,0.07,0.128,0.193,0.128,0.368v9.034C221.173,77.907,221.002,78.061,220.677,78.061z"/>
	<path class="st0" d="M224.484,75.232h-0.418c-0.118,0-0.259-0.063-0.259-0.368l-0.161-9.424c0-0.254,0.101-0.389,0.292-0.389h0.706
		c0.119,0,0.259,0.068,0.259,0.388l-0.193,9.427C224.695,75.169,224.579,75.232,224.484,75.232z M224.227,78.826
		c-0.334,0-0.547-0.102-0.633-0.306c-0.083-0.195-0.125-0.434-0.125-0.711c0-0.278,0.048-0.508,0.143-0.684
		c0.097-0.181,0.305-0.272,0.615-0.272c0.321,0,0.533,0.091,0.63,0.272c0.095,0.176,0.143,0.407,0.143,0.684
		c0,0.277-0.048,0.518-0.141,0.712C224.761,78.725,224.549,78.826,224.227,78.826z"/>
</g>
</svg>
