<svg version="1.1" id="Layer_1" xmlns="http://www.w3.org/2000/svg" x="0" y="0" viewBox="0 0 225 82" xml:space="preserve"><path d="M8.802 0a8.93 8.93 0 00-3.409.816 9.735 9.735 0 00-2.795 1.959A8.82 8.82 0 00.693 5.672 8.913 8.913 0 000 9.176v44.396h5.509V20.587h7.502v-5.479H5.509V9.176c0-.982.339-1.811.992-2.507A3.545 3.545 0 018.953 5.55h4.057V0H8.802zm41.001 44.385v.306c-.112.92-.484 1.702-1.163 2.339a3.366 3.366 0 01-2.4.953H25.969c-.981 0-1.82-.348-2.509-1.032-.698-.689-1.059-1.544-1.059-2.567v-19.97c0-1.021.36-1.875 1.059-2.564.688-.687 1.527-1.031 2.509-1.031H46.24c.981 0 1.815.344 2.518 1.031.696.689 1.045 1.543 1.045 2.564v19.971zm5.57.389v-20.36a8.756 8.756 0 00-.734-3.521 9.392 9.392 0 00-1.98-2.909 9.504 9.504 0 00-2.895-1.95 8.782 8.782 0 00-3.524-.728H25.969a8.773 8.773 0 00-3.523.728 9.423 9.423 0 00-2.896 1.95 9.25 9.25 0 00-1.977 2.909 8.692 8.692 0 00-.737 3.521v19.971c0 1.226.246 2.395.737 3.484a9.426 9.426 0 001.977 2.874 9.288 9.288 0 002.896 1.945 8.688 8.688 0 003.523.726H46.24c1.191 0 2.32-.21 3.406-.647a9.082 9.082 0 002.865-1.801 9.88 9.88 0 002.933 1.916 8.85 8.85 0 003.485.69v-5.434a3.668 3.668 0 01-2.393-1.032 3.693 3.693 0 01-1.163-2.332zm75.861-26.788c-.818-.819-1.796-1.466-2.916-1.957a8.914 8.914 0 00-3.542-.723h-20.052c-1.285 0-2.465.233-3.532.688a9.017 9.017 0 00-2.853 1.911 8.88 8.88 0 00-2.883-1.911 9.048 9.048 0 00-3.499-.688h-20.05c-1.281 0-2.485.24-3.582.723a9.529 9.529 0 00-2.882 1.957 9.385 9.385 0 00-1.955 2.869c-.49 1.097-.733 2.286-.733 3.556v29.161h5.534V24.411c0-1.02.341-1.871 1.04-2.562.692-.692 1.549-1.028 2.579-1.028h20.05c.981 0 1.795.314 2.464.955.665.637 1.044 1.39 1.154 2.257v29.539h5.533V24.033c.107-.867.489-1.62 1.15-2.257.66-.641 1.49-.955 2.465-.955h20.052c1.03 0 1.885.337 2.582 1.028.694.691 1.037 1.541 1.037 2.562v29.161h5.534V24.411c0-1.27-.249-2.459-.734-3.556a9.332 9.332 0 00-1.961-2.869zm11.914-4.976c1.052 0 1.942-.367 2.675-1.104a3.644 3.644 0 001.116-2.684c0-1.046-.375-1.961-1.116-2.723-.733-.764-1.623-1.142-2.675-1.142-1.055 0-1.954.378-2.718 1.142-.764.762-1.144 1.677-1.144 2.723 0 1.054.38 1.949 1.144 2.684.764.737 1.663 1.104 2.718 1.104zm.362 5.015a9.092 9.092 0 00-1.974 2.905 8.633 8.633 0 00-.72 3.481v29.161h5.701V24.411c0-.964.347-1.8 1.03-2.488.688-.689 1.499-1.059 2.453-1.102v-5.514c-1.266 0-2.453.24-3.558.723a9.662 9.662 0 00-2.932 1.995zm28.724-5.015c1.051 0 1.944-.367 2.688-1.104.738-.736 1.098-1.63 1.098-2.684 0-1.046-.36-1.961-1.098-2.723-.744-.764-1.637-1.142-2.688-1.142-1.049 0-1.959.378-2.715 1.142-.764.762-1.152 1.677-1.152 2.723 0 1.054.388 1.949 1.152 2.684a3.76 3.76 0 002.715 1.104zm-.406 5.015a9 9 0 00-1.981 2.905 8.61 8.61 0 00-.714 3.481v29.161h5.698V24.411c0-.964.343-1.8 1.021-2.488.696-.689 1.501-1.059 2.464-1.102v-5.514c-1.271 0-2.464.24-3.566.723a9.58 9.58 0 00-2.922 1.995zm44.039 26.36v.306a3.67 3.67 0 01-1.156 2.339 3.377 3.377 0 01-2.402.953h-20.261a3.475 3.475 0 01-2.523-1.032c-.69-.689-1.044-1.544-1.044-2.567v-19.97c0-1.021.354-1.875 1.044-2.564.696-.687 1.538-1.031 2.523-1.031h20.261c.977 0 1.824.344 2.513 1.031.697.689 1.045 1.543 1.045 2.564v19.971zm6.73 2.72a3.713 3.713 0 01-1.163-2.331v-20.36a8.669 8.669 0 00-.73-3.521 9.225 9.225 0 00-1.974-2.909 9.522 9.522 0 00-2.899-1.95 8.758 8.758 0 00-3.522-.728h-20.261a8.661 8.661 0 00-3.517.728 9.472 9.472 0 00-2.909 1.95c-.829.819-1.48 1.787-1.98 2.909a8.841 8.841 0 00-.734 3.521v19.971c0 1.226.252 2.395.734 3.484a9.614 9.614 0 001.98 2.874 9.336 9.336 0 002.909 1.945 8.578 8.578 0 003.517.726h20.261c1.187 0 2.317-.21 3.411-.647a9.026 9.026 0 002.853-1.801 9.9 9.9 0 002.943 1.916c1.081.46 2.251.69 3.484.69v-5.434a3.706 3.706 0 01-2.403-1.033zm-67.24 6.466h5.357V.765h-5.357v52.806zM1.56 76.592h2.736c.771 0 1.398-.193 1.864-.574.463-.379.698-.977.698-1.776 0-.319-.035-.63-.105-.924a1.968 1.968 0 00-.368-.772 1.84 1.84 0 00-.727-.532c-.309-.134-.708-.202-1.188-.202H1.56v4.78zm2.861 1.469H.386c-.319 0-.386-.192-.386-.353V65.404c0-.273.154-.343.284-.353h6.769c.24 0 .367.121.367.349v.751c0 .242-.133.369-.386.369H1.56v3.862h2.946c.785 0 1.439.119 1.944.355.504.237.908.546 1.2.92.291.374.494.796.604 1.255.11.456.165.914.165 1.357 0 .628-.108 1.186-.32 1.658a3.415 3.415 0 01-.866 1.186 3.637 3.637 0 01-1.272.711 4.944 4.944 0 01-1.54.237zm7.174-1.505c.55.158 1.061.271 1.519.337.466.066.919.101 1.347.101.423 0 .78-.064 1.063-.19.279-.125.507-.338.677-.634.171-.299.295-.699.368-1.188.073-.49.111-1.108.111-1.837 0-.768-.038-1.392-.111-1.857-.073-.461-.186-.822-.337-1.074-.149-.248-.336-.413-.555-.492a2.39 2.39 0 00-.793-.119c-.238 0-.517.04-.828.121a8.132 8.132 0 00-.934.304c-.305.12-.6.25-.875.385-.259.127-.478.24-.653.333v5.81zm-.412 5.332h-.842c-.167 0-.271-.033-.322-.098-.048-.062-.07-.171-.07-.332V68.686c0-.255.135-.389.392-.389h.842c.257 0 .392.134.392.389v.71l.018.013c.147-.093.34-.212.574-.353.249-.149.532-.294.843-.43.312-.136.643-.257.986-.358a3.615 3.615 0 011.033-.155c.637 0 1.177.115 1.607.342a2.56 2.56 0 011.027.993c.25.43.433.966.541 1.592.107.626.163 1.355.163 2.167 0 .84-.062 1.597-.183 2.249-.122.655-.34 1.213-.644 1.657-.306.445-.721.79-1.23 1.022-.509.233-1.165.35-1.947.35a7.536 7.536 0 01-2.769-.557v3.53c0 .147-.026.252-.081.322-.056.073-.164.108-.33.108zm10.428-9.584h4.95a5.814 5.814 0 00-.092-.976 2.437 2.437 0 00-.354-.911 1.906 1.906 0 00-.745-.649c-.321-.165-.757-.249-1.295-.249-.444 0-.822.068-1.123.201a1.866 1.866 0 00-.734.562 2.508 2.508 0 00-.425.884 5.854 5.854 0 00-.182 1.138zm2.546 5.757c-.948 0-1.713-.143-2.272-.424-.56-.28-.991-.658-1.281-1.117a4.06 4.06 0 01-.572-1.584 12.292 12.292 0 01-.134-1.829c0-.467.042-.997.124-1.575a4.53 4.53 0 01.56-1.632c.29-.505.717-.933 1.269-1.273.553-.34 1.315-.513 2.265-.513.879 0 1.598.126 2.137.374.539.249.963.582 1.261.989.297.406.5.877.604 1.401.102.518.168 1.051.197 1.585.013.318-.041.59-.16.811-.124.228-.39.343-.789.343h-5.755a6.87 6.87 0 00.162 1.413c.094.386.249.699.464.931.213.233.486.398.813.492.33.095.738.144 1.212.144.203 0 .437-.009.696-.029l.781-.059c.263-.02.516-.042.749-.067a15.3 15.3 0 00.626-.079.823.823 0 01.34.022c.089.032.151.121.182.265l.082.437c.045.201-.041.354-.252.44-.195.08-.431.154-.705.22-.274.065-.566.122-.868.169a11.209 11.209 0 01-1.736.145zm13.611 0h-.598c-.445 0-.539-.244-.539-.447v-4.109H31.48v4.109c0 .293-.172.447-.497.447h-.639c-.325 0-.497-.155-.497-.447V68.58c0-.175.043-.299.13-.368.083-.066.206-.101.367-.101h.639c.161 0 .285.034.368.101.086.07.129.194.129.369v3.5h5.151v-3.5c0-.177.051-.302.153-.371a.673.673 0 01.386-.099h.598c.161 0 .285.034.368.101.085.07.129.193.129.368v9.034c0 .293-.172.447-.497.447zm4.233-1.789h5.175v-6.686h-3.758l-.422 3.046a46.28 46.28 0 01-.254 1.611c-.075.41-.154.746-.235.999-.081.254-.165.46-.247.611a3.627 3.627 0 01-.259.419zm7.229 4.085h-.751c-.124 0-.207-.033-.249-.097-.038-.059-.064-.174-.078-.353l-.081-2.159H40.66l-.159 2.158c-.014.181-.044.297-.09.356a.26.26 0 01-.217.095h-.771c-.124 0-.207-.033-.25-.097-.038-.059-.063-.174-.078-.353l-.06-3.023c-.015-.156.013-.263.085-.326a.654.654 0 01.293-.127l.523-.078c.418-.216.717-.551.887-.994.174-.453.331-1.057.465-1.797L42 69.03c.055-.323.18-.56.371-.703.189-.143.475-.214.848-.214h4.995c.202 0 .35.051.439.151a.555.555 0 01.131.379v7.655l.632.074c.153.029.248.091.288.182.036.087.048.18.033.279l-.203 3.073c-.014.18-.043.297-.09.356-.047.063-.119.095-.214.095zm3.569-3.819h2.71c.475 0 .875-.129 1.187-.383.309-.253.465-.644.465-1.165 0-.43-.117-.797-.347-1.089-.229-.291-.623-.438-1.172-.438h-2.845v3.075zm2.691 1.523h-3.693c-.431 0-.521-.244-.521-.447v-9.055c0-.204.09-.447.521-.447h.539c.303 0 .463.154.463.445v3.382h2.903c.541 0 1.006.087 1.382.258.376.171.685.401.918.682.234.281.405.61.509.981.103.369.155.749.155 1.13 0 .493-.088.937-.263 1.319-.175.384-.412.71-.703.969-.291.26-.632.458-1.014.588-.381.13-.783.195-1.196.195zm5.265 0h-.604c-.404 0-.489-.244-.489-.447V68.58c0-.175.045-.3.134-.369a.568.568 0 01.355-.099h.604c.152 0 .269.034.348.1.081.069.122.193.122.368v9.034c-.001.203-.082.447-.47.447zm2.478 3.061c-.059 0-.116-.028-.171-.085l-.235-.219c-.064-.048-.087-.116-.061-.187a.494.494 0 01.119-.176c.233-.211.399-.436.495-.67a1.915 1.915 0 00.01-1.447 2.122 2.122 0 00-.35-.621c-.065-.089-.091-.175-.079-.253.014-.085.069-.162.167-.231l.79-.602a.444.444 0 01.294-.1c.095.008.181.05.254.123.199.19.349.402.444.627.094.226.142.438.142.63 0 .809-.165 1.472-.492 1.974-.325.499-.691.882-1.089 1.138a.96.96 0 01-.165.084.177.177 0 01-.073.015zm12.933-3.061c-.918 0-1.664-.133-2.216-.395-.553-.263-.986-.63-1.287-1.09a3.97 3.97 0 01-.588-1.598 13.091 13.091 0 01-.136-1.941c0-.626.046-1.239.136-1.823.09-.589.288-1.12.588-1.578.301-.46.734-.834 1.287-1.109.552-.275 1.298-.415 2.216-.415a13.827 13.827 0 011.576.088c.285.033.57.079.848.138.277.059.531.134.756.227.123.043.199.112.223.204a.575.575 0 01.011.251l-.084.45a.297.297 0 01-.229.228.987.987 0 01-.36.021l-1.425-.126a15.512 15.512 0 00-1.338-.069c-.463 0-.857.062-1.169.183a1.554 1.554 0 00-.739.58c-.184.267-.318.626-.4 1.069-.082.445-.124 1.005-.124 1.664 0 .711.042 1.307.124 1.771.082.462.221.835.411 1.108.188.271.44.466.749.58.313.115.699.174 1.15.174.165 0 .37-.007.611-.02.235-.013.487-.029.748-.049l.78-.059c.265-.02.502-.042.706-.068a.765.765 0 01.322.021c.091.032.153.12.184.265l.084.411c.046.202-.039.356-.252.456-.393.171-.891.29-1.482.355a15.74 15.74 0 01-1.681.096zm6.529-5.899h2.813c.437 0 .79-.131 1.051-.389.26-.259.392-.58.392-.954a1.27 1.27 0 00-.346-.856c-.229-.257-.663-.388-1.291-.388h-2.62v2.587zm0 4.375h2.639c.379 0 .692-.049.93-.147.238-.098.428-.22.565-.363.137-.141.234-.296.289-.457.056-.162.084-.317.084-.458 0-.39-.12-.747-.358-1.06-.234-.311-.646-.468-1.221-.468h-2.929v2.953zm2.961 1.524h-3.989c-.207 0-.346-.036-.425-.112-.079-.076-.119-.188-.119-.335v-9.095c0-.165.037-.272.114-.329.073-.052.188-.079.354-.079h3.825c1.092 0 1.892.242 2.377.719.485.479.732 1.12.732 1.91a2.868 2.868 0 01-.22 1.068 2.136 2.136 0 01-.869.988c.242.12.448.271.615.453.182.198.327.409.432.63.104.218.179.444.225.669.045.227.069.437.069.628 0 .437-.083.836-.246 1.186a2.844 2.844 0 01-1.66 1.493 3.555 3.555 0 01-1.215.206zm8.799-8.519c-.519 0-.944.074-1.262.22-.317.146-.57.366-.754.657-.186.292-.314.661-.381 1.095-.067.436-.101.958-.101 1.553 0 .594.034 1.116.101 1.552.067.435.194.803.381 1.095.184.291.437.511.754.656.317.146.741.221 1.262.221.547 0 .996-.071 1.335-.212a1.72 1.72 0 00.794-.636c.192-.286.323-.654.389-1.095.068-.444.101-.976.101-1.582 0-.592-.033-1.119-.101-1.563-.067-.44-.198-.807-.389-1.094a1.807 1.807 0 00-.795-.647c-.339-.146-.788-.22-1.334-.22zm-.01 8.519c-.977 0-1.751-.16-2.304-.475-.552-.314-.969-.724-1.242-1.218a4.286 4.286 0 01-.502-1.656 17.982 17.982 0 01-.091-1.772c0-.47.041-.991.122-1.55a4.445 4.445 0 01.542-1.577c.28-.485.697-.895 1.242-1.216.545-.323 1.296-.485 2.233-.485.935 0 1.695.143 2.259.424.565.283 1.004.656 1.304 1.109.299.452.496.974.585 1.55.088.574.132 1.16.132 1.745 0 .571-.034 1.164-.102 1.763a4.358 4.358 0 01-.521 1.656c-.28.5-.712.913-1.285 1.228-.572.314-1.37.474-2.372.474zm10.243-7.453c-.625 0-1.127.111-1.49.328a2.189 2.189 0 00-.827.842 3.429 3.429 0 00-.37 1.15 8.63 8.63 0 00-.091 1.238c0 .387.027.773.08 1.148.053.371.171.709.35 1.006.177.295.435.535.765.713.33.177.78.268 1.339.268.572 0 1.033-.094 1.369-.278.337-.184.597-.427.776-.723.178-.297.296-.646.349-1.036a10.034 10.034 0 000-2.529 3.267 3.267 0 00-.33-1.098 1.893 1.893 0 00-.705-.753c-.303-.183-.712-.276-1.215-.276zm-.326 8.218c-.856 0-1.559-.138-2.092-.411-.532-.273-.956-.636-1.256-1.079a3.938 3.938 0 01-.606-1.507 9.336 9.336 0 01-.153-1.672c0-1.187.035-2.287.103-3.27.069-.987.24-1.875.508-2.639a5.13 5.13 0 011.201-1.953c.528-.531 1.258-.944 2.17-1.228a25.99 25.99 0 011.726-.418c.618-.129 1.158-.24 1.62-.334.13-.029.218-.036.276-.021.063.019.108.088.14.214l.164.629c.046.146.044.267-.007.357-.046.08-.13.134-.25.162-.511.107-.974.21-1.373.304-.402.095-.78.183-1.132.264-.631.16-1.159.35-1.569.564a3.2 3.2 0 00-1.006.801 3.187 3.187 0 00-.581 1.151 8.518 8.518 0 00-.27 1.546 2.875 2.875 0 011.254-.867 5.1 5.1 0 011.716-.277c.692 0 1.285.125 1.761.371.476.245.867.588 1.16 1.017.292.428.502.943.624 1.528.122.582.183 1.213.183 1.876 0 .567-.05 1.15-.152 1.732a4.123 4.123 0 01-.617 1.579c-.308.464-.747.848-1.307 1.14-.559.292-1.311.441-2.235.441zm9.99-9.284c-.519 0-.944.074-1.261.22a1.729 1.729 0 00-.755.657c-.186.292-.314.661-.381 1.095-.067.436-.1.958-.1 1.553 0 .594.033 1.116.1 1.552.067.435.195.803.381 1.095.184.291.437.511.755.656.317.146.741.221 1.261.221.547 0 .996-.071 1.335-.212.336-.138.604-.353.795-.636.191-.286.322-.654.389-1.095.067-.444.101-.976.101-1.582 0-.592-.034-1.119-.101-1.563-.067-.44-.198-.807-.389-1.094a1.81 1.81 0 00-.796-.647c-.338-.146-.787-.22-1.334-.22zm-.01 8.519c-.976 0-1.752-.16-2.303-.475-.552-.314-.97-.724-1.242-1.218a4.252 4.252 0 01-.502-1.656 17.982 17.982 0 01-.091-1.772c0-.47.04-.991.122-1.55a4.406 4.406 0 01.542-1.577c.279-.485.696-.895 1.242-1.216.545-.323 1.296-.485 2.232-.485.935 0 1.695.143 2.261.424.564.283 1.003.656 1.303 1.109.3.452.495.974.584 1.55.089.574.132 1.16.132 1.745 0 .571-.033 1.164-.1 1.763a4.378 4.378 0 01-.523 1.656c-.279.5-.712.913-1.284 1.228-.571.314-1.37.474-2.373.474zm8.016-1.789h5.176v-6.686h-3.758l-.421 3.046c-.094.656-.18 1.197-.254 1.611-.075.41-.154.746-.235.999-.081.254-.164.46-.247.611a3.96 3.96 0 01-.261.419zm7.228 4.085h-.751c-.123 0-.207-.033-.25-.097-.037-.059-.063-.174-.077-.353l-.079-2.159h-7.412l-.159 2.158c-.015.181-.045.297-.09.356-.049.063-.122.095-.217.095h-.772c-.123 0-.207-.033-.249-.097-.038-.059-.063-.174-.077-.353l-.062-3.023c-.014-.156.014-.263.085-.326a.664.664 0 01.294-.127l.524-.078c.418-.216.717-.551.888-.994.173-.453.33-1.057.464-1.797l.71-4.531c.055-.323.181-.56.372-.703.189-.143.475-.214.849-.214h4.994c.202 0 .349.051.439.151a.55.55 0 01.131.379v7.655l.633.074c.153.029.248.091.288.182.037.087.048.18.034.279l-.203 3.073c-.014.18-.043.297-.09.356-.049.062-.122.094-.217.094zm9.967-2.296h-.597c-.445 0-.538-.244-.538-.447v-4.109h-5.152v4.109c0 .293-.171.447-.497.447h-.64c-.324 0-.496-.155-.496-.447V68.58c0-.175.044-.298.129-.368.083-.066.206-.101.367-.101h.64c.16 0 .284.034.368.101.086.07.129.194.129.369v3.5h5.152v-3.5c0-.177.05-.302.152-.371a.676.676 0 01.386-.099h.597c.162 0 .286.034.369.101.085.07.129.193.129.368v9.034c0 .293-.171.447-.498.447zm3.552-1.523h2.711c.476 0 .875-.129 1.186-.383.31-.253.466-.644.466-1.165 0-.43-.117-.797-.346-1.089-.229-.291-.623-.438-1.172-.438h-2.845v3.075zm2.691 1.523h-3.693c-.43 0-.521-.244-.521-.447v-9.055c0-.204.091-.447.521-.447h.54c.302 0 .462.154.462.445v3.382h2.903c.541 0 1.006.087 1.381.258.376.171.686.401.92.682.233.281.404.61.508.981.104.369.155.749.155 1.13 0 .493-.088.937-.263 1.319-.175.384-.412.71-.703.969-.291.26-.632.458-1.014.588-.381.13-.783.195-1.196.195zm5.266 0h-.604c-.405 0-.489-.244-.489-.447V68.58c0-.175.045-.3.134-.369a.564.564 0 01.355-.099h.604c.151 0 .268.034.346.1.082.069.123.193.123.368v9.034c0 .203-.082.447-.469.447zm4.478-5.757h4.95a5.712 5.712 0 00-.092-.976 2.43 2.43 0 00-.354-.911 1.906 1.906 0 00-.745-.649c-.32-.165-.757-.249-1.295-.249-.444 0-.823.068-1.123.201-.3.132-.548.322-.734.562a2.492 2.492 0 00-.426.884 5.807 5.807 0 00-.181 1.138zm2.546 5.757c-.948 0-1.713-.143-2.273-.424s-.991-.658-1.281-1.117a4.076 4.076 0 01-.572-1.584 12.408 12.408 0 01-.133-1.829c0-.467.041-.997.123-1.575.083-.58.271-1.129.561-1.632.289-.505.717-.933 1.268-1.273.554-.34 1.315-.513 2.265-.513.88 0 1.6.126 2.138.374.539.249.963.582 1.261.989.297.406.5.877.604 1.401.102.518.168 1.052.196 1.585.014.318-.04.59-.159.811-.125.228-.39.343-.79.343h-5.755c.014.556.069 1.032.163 1.413.093.386.25.699.463.931.212.233.486.398.813.492.33.095.737.144 1.211.144.203 0 .438-.009.696-.029l.782-.059c.262-.02.514-.042.749-.067.238-.026.448-.052.625-.079a.83.83 0 01.341.022c.09.032.15.121.181.265l.083.437c.044.201-.043.354-.252.44-.195.08-.432.154-.706.22-.275.065-.566.122-.867.169a11.16 11.16 0 01-1.735.145zm14.43-8.519c-.52 0-.945.074-1.263.22-.317.146-.57.366-.754.657-.186.292-.314.661-.38 1.095-.068.436-.101.958-.101 1.553 0 .594.033 1.116.101 1.552.066.435.194.803.38 1.095.184.291.437.511.754.656.318.146.742.221 1.263.221.546 0 .996-.071 1.334-.212a1.73 1.73 0 00.794-.636c.192-.286.323-.654.39-1.095.067-.444.101-.976.101-1.582 0-.592-.034-1.119-.101-1.563-.067-.44-.198-.807-.39-1.094a1.804 1.804 0 00-.794-.647c-.339-.146-.788-.22-1.334-.22zm-.011 8.519c-.976 0-1.751-.16-2.303-.475-.552-.314-.969-.724-1.243-1.218a4.284 4.284 0 01-.5-1.656 17.395 17.395 0 01-.092-1.772c0-.47.041-.991.122-1.55a4.445 4.445 0 01.542-1.577c.28-.485.697-.895 1.242-1.216.545-.323 1.296-.485 2.232-.485.936 0 1.696.143 2.261.424.565.283 1.003.656 1.303 1.109.299.452.496.974.584 1.55.088.574.133 1.16.133 1.745 0 .571-.035 1.164-.102 1.763a4.36 4.36 0 01-.522 1.656c-.279.5-.711.913-1.284 1.228-.572.314-1.369.474-2.373.474zm9.952 0h-.551c-.41 0-.496-.244-.496-.447v-8.019h-2.598c-.191 0-.318-.037-.389-.114-.071-.074-.107-.193-.107-.354v-.568c0-.204.083-.447.477-.447h6.719c.178 0 .296.037.361.116.065.076.096.187.096.332v.568c0 .159-.031.277-.096.353-.065.077-.189.114-.38.114h-2.579v8.019c0 .293-.159.447-.457.447zm18.336 2.296h-.721c-.116 0-.194-.033-.233-.098-.036-.06-.059-.176-.073-.356l-.055-2.045h-6.397a.518.518 0 01-.326-.097c-.087-.068-.131-.189-.131-.362V68.55c0-.286.158-.438.457-.438h.608c.287 0 .439.152.439.44v7.853h4.437v-7.853c0-.2.083-.44.476-.44h.551c.394 0 .476.239.476.44l.019 7.817.648.056c.155.015.249.074.281.177a.667.667 0 01.019.285l-.189 3.017c-.013.181-.041.298-.083.358-.046.064-.114.095-.203.095zm3.727-8.053h4.95a5.814 5.814 0 00-.092-.976 2.413 2.413 0 00-.354-.911 1.906 1.906 0 00-.745-.649c-.321-.165-.756-.249-1.295-.249-.444 0-.823.068-1.124.201-.3.132-.547.322-.734.562a2.507 2.507 0 00-.424.884 5.88 5.88 0 00-.182 1.138zm2.546 5.757c-.948 0-1.713-.143-2.272-.424-.561-.281-.992-.658-1.283-1.117a4.075 4.075 0 01-.571-1.584 12.407 12.407 0 01-.134-1.829c0-.467.042-.997.124-1.575.083-.58.271-1.129.56-1.632.291-.505.718-.933 1.27-1.273.552-.34 1.315-.513 2.264-.513.881 0 1.599.126 2.138.374.539.249.962.582 1.261.989.297.406.499.877.603 1.401.103.518.169 1.052.196 1.585.014.318-.04.59-.158.811-.125.228-.391.343-.79.343h-5.755c.015.556.069 1.032.162 1.413.094.386.25.699.463.931.213.233.486.398.814.492.33.095.736.144 1.21.144.204 0 .439-.009.696-.029l.782-.059c.263-.02.515-.042.749-.067.238-.026.45-.052.626-.079a.823.823 0 01.34.022c.09.032.151.121.181.265l.083.437c.045.201-.041.354-.251.44-.195.08-.432.154-.706.22-.275.065-.567.122-.868.169a11.16 11.16 0 01-1.734.145zm13.611 0h-.598c-.445 0-.539-.244-.539-.447v-4.109h-5.152v4.109c0 .293-.171.447-.497.447h-.639c-.325 0-.497-.155-.497-.447V68.58c0-.175.044-.298.13-.368.082-.066.206-.101.367-.101h.639c.161 0 .285.034.368.101.087.07.129.194.129.369v3.5h5.152v-3.5c0-.177.052-.302.154-.371a.668.668 0 01.385-.099h.598c.161 0 .284.034.368.101.086.07.128.193.128.368v9.034c0 .293-.171.447-.496.447zm3.807-2.829h-.418c-.118 0-.259-.063-.259-.368l-.161-9.424c0-.254.101-.389.292-.389h.706c.119 0 .259.068.259.388l-.193 9.427c-.015.303-.131.366-.226.366zm-.257 3.594c-.334 0-.547-.102-.633-.306a1.82 1.82 0 01-.125-.711c0-.278.048-.508.143-.684.097-.181.305-.272.615-.272.321 0 .533.091.63.272.095.176.143.407.143.684 0 .277-.048.518-.141.712-.098.204-.31.305-.632.305z" fill="#4c2967"/></svg>