<svg version="1.1" id="Слой_1" xmlns="http://www.w3.org/2000/svg" x="0" y="0" viewBox="0 0 300 48" xml:space="preserve"><style>.st2,.st3{fill-rule:evenodd;clip-rule:evenodd;fill:#fff}.st3{fill:#00c7c9}.st4{fill:#1a1715}</style><circle cx="287.6" cy="11.7" r="11.4" fill="#00c7c9"/><path d="M44.5 9c-.8-2.1-2.5-4.3-4.3-5.8-4.9-4-12.4-3.2-17.4.3-1.7 1.2-3.1 2.8-4.2 4.5l-.1.1V8c-.4-.3-.7-.7-1.1-1l-.1-.1c-.1-.1-.1-.2-.2-.3-.4-.3-.9-.3-1.3.1-2.5 3-4.5 6.5-5.3 10.3v.1l-.1-.1c-1.1-.5-2.2-1-3.4-1.3-.3-.1-.6-.2-.9-.2-.5-.1-1.3-.2-1.5.3-.2.4-.1.6 0 1 .6 2.4.8 4.9.9 7.4v.2l-.2-.1c-.7-.2-1.4-.6-2.1-.8-.3-.1-.6-.1-.9-.1-.1 0-.2.1-.3.1-.3.2-.4.6-.4.9-.1 1.4.3 3.2.7 4.5.1.5.3 1 .5 1.5 1.1 3.1 3 5.7 5.6 7.8.1 0 .1.1.2.1 2.9 5 8.5 7.4 13.9 8.7 2.3.5 4.6.8 7 .8 0 0 3.3.1 5.7-.1h.4c5.9-.4 14.6-2.4 18.7-7 .6-.7 1.1-1.5 1.6-2.3.1 0 .1-.1.2-.1 3-2.4 5.1-5.6 6.1-9.3.4-1.3.6-2.7.7-4.1v-.7c-.1-.4-.3-.6-.7-.7-.7-.2-2.4.6-3.1.9l-.2.1v-.2c.1-2.6.3-5.1 1-7.6.2-.8-.5-1.2-1.2-1.1-1.3.2-2.7.7-3.9 1.2-.3.1-.5.2-.8.4l-.1.1v-.1c-.8-3.8-2.9-7.3-5.3-10.3-.3-.4-.9-.4-1.3-.1-.1.1-.2.2-.2.3l-.2.2c-.7.7-1.4 1.3-2.2 2l-.1.1-.1-.4z" fill-rule="evenodd" clip-rule="evenodd" fill="#1a1715"/><path class="st2" d="M36.5 24c.7-1.7 2.1-1.8 3-3.6-.6-4.2-4.9-5.8-5.7-10.5-1.3 2-3.1 4-5 5.3 1 2.7.8 4.6-.4 6.9 2.4-1.6 6.6-.8 8.1 1.9zm-18 2.2c.5-4.8 3.6-9 7.1-11.3 2.4-1.6 4.9-3.1 6.5-5.9.7-1.2.8-1.7 1-3-.8.7-2 1.3-3.1 1.9-4.2 2-9.4 3.4-11.5 8-1.5 3.3-1 7.7 0 10.3z"/><path class="st2" d="M23 31.6c-1.1-4.4 1.4-7.1 3.4-8.6 1.3-2.1 2.2-4.8 1.2-7.2-3.7 2.2-7.7 6.5-7.2 11 .2 1.6.9 3.1 2.4 4.6.1.1.1.2.2.2z"/><path class="st2" d="M18.2 13.2c1.5-2 4.4-3.8 6.6-4.8 3.3-1.5 7.8-2.3 10-5.5-.8 3.5 0 6.6 1.3 9 .4.8 1.1 1.6 1.7 2.3 2 2.3 3.5 4.3 2.7 7.6 1.9-1.6 3-4.1 2.8-7.2-.2-3.7-2.6-6.7-5.8-9.1 2.9.8 4.7 2.8 6.3 5.5v-.1c-.1-2.5-2.6-5.3-4.5-6.8-4.3-3.5-11-2.8-15.7.5-3 2-4.9 5.5-5.4 8.6z"/><path class="st3" d="M28 46.7c-2-1-4.7-2.4-7-4-4-2.8-6.9-6.1-9.2-10.4-1.5-2.8-2.8-5.9-4.1-9.3-.2-.6-.4-1-.9-2.2.1 1.4.2 2.7.3 4 .2 5 .9 9.3 2.7 12.6 1.7 3 4.8 5.3 8.2 6.9 3.5 1.5 7 2.3 10 2.4zM56.5 23c-3.7 9.3-8.8 17.5-19.4 23.2 6.4-.8 13.3-3.8 15.8-6.7 3.1-3.5 4-8.5 4.2-14.7.1-1.3.1-2.6.2-4l-.8 2.2z"/><path class="st3" d="M7.4 17.8c.9 1.4 1.5 3 2.1 4.6 1.2 2.9 2.3 5.9 3.8 8.7 3.8 7.3 9.9 11.4 17.3 14.7-1-6.4-6.3-10.6-10.5-14.9-2-2-3.4-4.6-4-7.3l-.1-.2c-2.5-2.5-5.2-4.5-8.6-5.6zm26.9 27.9c.3-.1.6-.3.9-.4C45.5 40 50.6 32.9 54.8 22.4c.6-1.6 1.2-3.1 2.1-4.6-1.9.6-3.6 1.6-5.3 2.7-5.1 3.4-8.7 7.3-11.9 12.6-2.2 3.8-4.4 8.4-5.4 12.6z"/><path class="st3" d="M38.6 23.7c-.4.6-.9 1.1-1.3 1.7.7 2.4.8 4.9.6 7.4 2.8-5.8 7.6-10.2 12.9-13.7.5-.3 1-.6 1.4-.9-.6-3.5-2.3-6.7-4.4-9.4-.8.8-1.7 1.6-2.7 2.3L45 11v.3c.1 1.3-.3 2.5-.3 3.7v.2c.2 4-2.1 7.5-6.1 8.5zm19.1 11c1.3-1.7 2.2-3.6 2.7-5.6.3-.9.4-1.9.5-2.8l-2.1.6c-.1 2.6-.4 5.3-1.1 7.8zm-50.9 0c-.7-2.5-1-5.2-1.2-7.8l-2.1-.6c.1 1 .3 1.9.5 2.8.6 2.1 1.5 4 2.8 5.6zm9.9-19c-.2-2 .2-4.1 1-6-.4-.4-.8-.7-1.2-1.1-1.6 2.1-2.9 4.4-3.8 6.8-.2.5-.3 1-.4 1.5-.1.4-.2.7-.2 1.1.6.3 1.1.7 1.6 1.1.7.5 1.4 1.1 2 1.7 0-1.8.4-3.5 1-5.1z"/><path class="st2" d="M32.4 46.1l-.1-.6v-.1c-.9-4.2-4.5-9.1-7.5-12.1-1.2-2.3-.9-5.2.6-7.3 1.8-2.6 6.1-4.7 8.9-2.4 2.7 2.3 2.2 8.5 2.3 11.8-1.1 3.4-3.4 6.6-4 10.1l-.2.6z"/><path class="st4" d="M37.6 19.1c-.7-.2-1.2-.1-2.1.1.6-.3.9-.4 1.6-.4-.7-1.5-.5-3.5-.4-4.4.2.3.1.3.3.6-.4 1.6.1 2.9.6 4.1zM30.9 15c.4-.4 1.6-1.5 3.5-1.5l.2.4c-1.7 0-3 .6-3.7 1.1zm6.1 5.1c-.6 1.1-1.6 1.2-2.6.5-.3-.2-.5-.4-.7-.7l.1-.1c.3.3.7.6 1.1.7.8.4 1.7.3 2.1-.4z"/><path d="M34 20c-.2.1-.3.3-.4.6 0-.3.1-.6.2-.7l.2.1z" fill-rule="evenodd" clip-rule="evenodd" fill="#171819"/><path class="st4" d="M35.6 15.8c-.4-.2-.8-.2-1.1-.3a.96.96 0 00-1.9 0v.2c-.4.2-.7.4-.8.5 1.1-.4 2.5-.5 3.8-.4z"/><circle transform="rotate(-4.937 33.54 15.112) scale(1.00001)" class="st2" cx="33.5" cy="15.1" r=".4"/><path d="M278.5 14.1h1.4v1.6h-1.4v-1.6zm4-6.4h1.2v2.1c.6-1.3 1.8-2.3 3.3-2.2v1.3h-.1c-1.8 0-3.2 1.3-3.2 3.7v3.2h-1.2V7.7zm6.2 5v-5h1.2v4.7c0 1.5.8 2.4 2.2 2.4 1.4 0 2.4-1 2.4-2.5V7.7h1.2v8.1h-1.2v-1.4c-.5.9-1.4 1.6-2.8 1.6-1.9-.1-3-1.4-3-3.3z" fill="#fff"/><path class="st4" d="M70.7 35.8h2.8c.7 0 1.3.2 1.7.6.3.3.4.6.4 1.1 0 .9-.5 1.3-1 1.5.8.2 1.4.7 1.4 1.6 0 1.1-.9 1.8-2.4 1.8h-2.9v-6.6zm2.7 2.9c.9 0 1.5-.4 1.5-1.2 0-.6-.5-1.1-1.5-1.1h-2v2.3h2zm.2 3c1 0 1.6-.4 1.6-1.2 0-.7-.6-1.1-1.7-1.1h-2.1v2.3h2.2zm3.5-2.7c0-1.9 1.4-3.4 3.3-3.4 1.2 0 1.9.4 2.5 1.1l-.5.5c-.6-.5-1.2-.9-2.1-.9-1.5 0-2.5 1.2-2.5 2.7 0 1.5 1.1 2.7 2.5 2.7.9 0 1.5-.3 2.1-.9l.5.5c-.7.7-1.4 1.1-2.6 1.1-1.8 0-3.2-1.5-3.2-3.4zm7.2-3.2H89v.7h-4v2.2h3.6v.7H85v2.3h4v.7h-4.8v-6.6zm8.3 5.8h.7c.6-1 1-2.6 1-4.7v-1.1h4.3v5.9h.9l-.1 2.1h-.6v-1.5h-5.3l-.1 1.5h-.6v-2.2zm5.2 0v-5.2H95v.9c0 1.7-.3 3.5-.9 4.4h3.7zm1.7.6l.1-.6c.1 0 .4.1.6.1.5 0 1.4-.3 1.4-4.8v-1.2h4.2v6.6h-.7v-5.9h-2.8v.7c0 4.6-.9 5.2-1.9 5.2-.4.1-.7 0-.9-.1zm9.7-2.5c-1-.2-1.8-.9-1.8-1.9 0-.5.2-1 .5-1.3.4-.4 1.1-.7 1.9-.7h2.8v6.6h-.7v-2.5H110l-1.9 2.5h-.9l2-2.7zm2.7-.5v-2.8h-2c-1.1 0-1.7.5-1.7 1.4 0 .9.7 1.4 1.7 1.4h2zm5.3-3.4h.7v3.9l3.8-3.9h1l-2.8 2.9 2.9 3.7h-.9l-2.5-3.2-1.4 1.4v1.8h-.7v-6.6zm6.8 0h2.5c1.5 0 2.5.8 2.5 2.1 0 1.4-1.2 2.1-2.6 2.1h-1.6v2.3h-.8v-6.5zm2.3 3.5c1.1 0 1.8-.6 1.8-1.5s-.7-1.4-1.8-1.4h-1.7v2.9h1.7zm5.7-3.6h.7l3 6.6h-.8l-.8-1.7h-3.6l-.8 1.7h-.7l3-6.6zm1.8 4.2l-1.5-3.3-1.5 3.3h3zm2.5-.9c0-1.9 1.4-3.4 3.3-3.4 1.2 0 1.9.4 2.5 1.1l-.5.5c-.6-.5-1.2-.9-2.1-.9-1.5 0-2.5 1.2-2.5 2.7 0 1.5 1.1 2.7 2.5 2.7.9 0 1.5-.3 2.1-.9l.5.5c-.7.7-1.4 1.1-2.6 1.1-1.8 0-3.2-1.5-3.2-3.4zm6.9 0c0-1.8 1.4-3.4 3.4-3.4s3.3 1.6 3.3 3.4c0 1.8-1.4 3.4-3.4 3.4s-3.3-1.5-3.3-3.4zm5.9 0c0-1.5-1.1-2.7-2.6-2.7S144 37.5 144 39c0 1.5 1.1 2.7 2.6 2.7s2.5-1.2 2.5-2.7zm3.6-2.6h-2.2v-.7h5.2v.7h-2.2v5.9h-.7v-5.9zm4.3-.6h.7v2.5h1.7c1.4 0 2.5.6 2.5 1.9 0 1.3-.9 2.1-2.4 2.1H157v-6.5zm2.5 5.8c1 0 1.7-.5 1.7-1.4 0-.9-.7-1.3-1.8-1.3h-1.7v2.7h1.8zm3.3-5.8h.7v6.6h-.7v-6.6zm5.4 0h5.2v6.6h-.7v-5.9H169v5.9h-.7v-6.6zm6.7 3.2c0-1.8 1.4-3.4 3.4-3.4s3.3 1.6 3.3 3.4c0 1.8-1.4 3.4-3.4 3.4-1.9 0-3.3-1.5-3.3-3.4zm5.9 0c0-1.5-1.1-2.7-2.6-2.7s-2.6 1.2-2.6 2.7c0 1.5 1.1 2.7 2.6 2.7 1.6 0 2.6-1.2 2.6-2.7zm4.2 3.2l.1-.6c.1 0 .4.1.6.1.5 0 1.4-.3 1.4-4.8v-1.2h4.2v6.6h-.7v-5.9h-2.8v.7c0 4.6-.9 5.2-1.9 5.2-.4.1-.7 0-.9-.1zm8 0l.3-.6c.3.1.5.2.8.2.4 0 .9-.3 1.3-1l-2.9-5h.8l2.4 4.3 2.1-4.3h.8L196 41c-.5 1.1-1.2 1.5-2 1.5-.3-.1-.6-.2-1-.3zm10.9-2.7c-.5.3-1.4.6-2 .6-1.3 0-2.1-.7-2.1-1.9v-2.5h.7V38c0 .8.5 1.4 1.4 1.4.7 0 1.4-.3 2-.6v-3.1h.7v6.6h-.7v-2.8zm2.6-3.7h.7v5.9h3.1v-5.9h.7v5.9h3.1v-5.9h.7v6.6h-8.5v-6.6zm10.3 0h.7v5.4l3.9-5.4h.7v6.6h-.7V37l-3.9 5.4h-.7v-6.6zm7.2 0h.7l2.4 3.6 2.4-3.6h.7v6.6h-.7V37l-2.4 3.5-2.4-3.5v5.3h-.7v-6.5zm16.3 6.5H235v-6.6h.7v5.9h3.7v-5.9h.7v5.9h.9l-.1 2.1h-.6v-1.4zm1.8-6.5h4.7v.7h-4v2.2h3.6v.7h-3.6v2.3h4v.7H242v-6.6zm6.2 0h.7v2.9h3.8v-2.9h.7v6.6h-.7v-2.9H249v2.9h-.7v-6.6zm9.6-.1h.7l3 6.6h-.8l-.8-1.7h-3.6l-.8 1.7h-.8l3.1-6.6zm1.8 4.2l-1.5-3.3-1.5 3.3h3zm3.1-4.1h.7l2.4 3.6 2.4-3.6h.7v6.6h-.7V37l-2.4 3.5-2.4-3.5v5.3h-.7v-6.5zM70.5 10.2h3.8v7.6l7.1-7.6H86l-7 7.4 7.4 10h-4.6l-5.4-7.4-2 2.1v5.3h-3.8V10.2zm18.2 0h8c2.2 0 3.9.6 5.1 1.8 1 1 1.5 2.3 1.5 4 0 2.8-1.5 4.6-3.7 5.4l4.3 6.2h-4.5L95.5 22h-3v5.6h-3.8V10.2zm7.7 8.4c1.9 0 2.9-1 2.9-2.5 0-1.6-1.1-2.5-3-2.5h-3.8v5h3.9zm16.3-8.5h3.5l7.5 17.6h-4l-1.6-3.9h-7.4l-1.6 3.9h-3.9l7.5-17.6zm4 10.2l-2.3-5.7-2.3 5.7h4.6zm8.2 4.8l2.3-2.7c1.6 1.3 3.2 2.1 5.2 2.1 1.6 0 2.5-.6 2.5-1.7 0-1-.6-1.5-3.5-2.2-3.5-.9-5.8-1.9-5.8-5.4 0-3.2 2.5-5.3 6.1-5.3 2.5 0 4.7.8 6.5 2.2l-2 2.9c-1.5-1.1-3.1-1.7-4.5-1.7-1.5 0-2.2.7-2.2 1.6 0 1.1.7 1.5 3.8 2.3 3.5.9 5.5 2.2 5.5 5.3 0 3.5-2.6 5.4-6.4 5.4-2.7 0-5.4-1-7.5-2.8zm16.4-6.2c0-5 3.9-9 9.3-9s9.2 4 9.2 9-3.9 9-9.3 9-9.2-4-9.2-9zm14.5 0c0-3-2.2-5.5-5.3-5.5-3.1 0-5.2 2.4-5.2 5.5 0 3 2.2 5.5 5.3 5.5 3.1 0 5.2-2.5 5.2-5.5zm10.7-5.2h-5.3v-3.5h14.4v3.5h-5.3v13.9h-3.8V13.7zm12.1-3.5h3.8v7.6l7.1-7.6h4.6l-7.1 7.4 7.4 10h-4.6l-5.4-7.4-2 2.1v5.3h-3.8V10.2zm24.7-.1h3.5l7.5 17.6h-4l-1.6-3.9h-7.4l-1.6 3.9h-3.9l7.5-17.6zm4 10.2l-2.3-5.7-2.3 5.7h4.6zm9.4-10.1h7.1c4.2 0 6.7 2.5 6.7 6.1 0 4-3.1 6.1-7 6.1h-2.9v5.2h-3.8V10.2zm6.9 8.8c1.9 0 3-1.1 3-2.7 0-1.7-1.2-2.6-3.1-2.6h-3V19h3.1zm10-8.8h8c2.2 0 3.9.6 5.1 1.8 1 1 1.5 2.3 1.5 4 0 2.8-1.5 4.6-3.7 5.4l4.3 6.2h-4.5l-3.8-5.6h-3v5.6h-3.8V10.2zm7.7 8.4c1.9 0 2.9-1 2.9-2.5 0-1.6-1.1-2.5-3-2.5h-3.8v5h3.9zm9.3.3c0-5 3.9-9 9.3-9s9.2 4 9.2 9-3.9 9-9.3 9-9.2-4-9.2-9zm14.5 0c0-3-2.2-5.5-5.3-5.5s-5.2 2.4-5.2 5.5c0 3 2.2 5.5 5.3 5.5 3.1 0 5.2-2.5 5.2-5.5z"/></svg>