<?xml version="1.0" encoding="utf-8"?>
<!-- Generator: Adobe Illustrator 19.2.1, SVG Export Plug-In . SVG Version: 6.00 Build 0)  -->
<svg version="1.1" id="Слой_1" xmlns="http://www.w3.org/2000/svg" xmlns:xlink="http://www.w3.org/1999/xlink" x="0px" y="0px"
	 viewBox="0 0 300 48" style="enable-background:new 0 0 300 48;" xml:space="preserve">
<style type="text/css">
	.st0{fill:#00C7C9;}
	.st1{fill-rule:evenodd;clip-rule:evenodd;fill:#1A1715;}
	.st2{fill-rule:evenodd;clip-rule:evenodd;fill:#FFFFFF;}
	.st3{fill-rule:evenodd;clip-rule:evenodd;fill:#00C7C9;}
	.st4{fill:#1A1715;}
	.st5{fill-rule:evenodd;clip-rule:evenodd;fill:#171819;}
	.st6{fill:#FFFFFF;}
</style>
<circle class="st0" cx="287.6" cy="11.7" r="11.4"/>
<path class="st1" d="M44.5,9c-0.8-2.1-2.5-4.3-4.3-5.8c-4.9-4-12.4-3.2-17.4,0.3c-1.7,1.2-3.1,2.8-4.2,4.5l-0.1,0.1L18.5,8
	c-0.4-0.3-0.7-0.7-1.1-1l0,0l-0.1-0.1c-0.1-0.1-0.1-0.2-0.2-0.3c-0.4-0.3-0.9-0.3-1.3,0.1c-2.5,3-4.5,6.5-5.3,10.3l0,0.1l-0.1-0.1
	c-1.1-0.5-2.2-1-3.4-1.3c-0.3-0.1-0.6-0.2-0.9-0.2c-0.5-0.1-1.3-0.2-1.5,0.3c-0.2,0.4-0.1,0.6,0,1c0.6,2.4,0.8,4.9,0.9,7.4l0,0.2
	l-0.2-0.1c-0.7-0.2-1.4-0.6-2.1-0.8c-0.3-0.1-0.6-0.1-0.9-0.1c-0.1,0-0.2,0.1-0.3,0.1c-0.3,0.2-0.4,0.6-0.4,0.9v0
	c-0.1,1.4,0.3,3.2,0.7,4.5c0.1,0.5,0.3,1,0.5,1.5c1.1,3.1,3,5.7,5.6,7.8c0.1,0,0.1,0.1,0.2,0.1l0,0l0,0c2.9,5,8.5,7.4,13.9,8.7
	c2.3,0.5,4.6,0.8,7,0.8l0,0c0,0,3.3,0.1,5.7-0.1c0.1,0,0.2,0,0.2,0l0.2,0c5.9-0.4,14.6-2.4,18.7-7c0.6-0.7,1.1-1.5,1.6-2.3l0,0l0,0
	c0.1,0,0.1-0.1,0.2-0.1c3-2.4,5.1-5.6,6.1-9.3c0.4-1.3,0.6-2.7,0.7-4.1c0-0.2,0-0.5,0-0.7c-0.1-0.4-0.3-0.6-0.7-0.7
	c-0.7-0.2-2.4,0.6-3.1,0.9l-0.2,0.1l0-0.2c0.1-2.6,0.3-5.1,1-7.6c0.2-0.8-0.5-1.2-1.2-1.1c-1.3,0.2-2.7,0.7-3.9,1.2
	c-0.3,0.1-0.5,0.2-0.8,0.4l-0.1,0.1l0-0.1c-0.8-3.8-2.9-7.3-5.3-10.3c-0.3-0.4-0.9-0.4-1.3-0.1c-0.1,0.1-0.2,0.2-0.2,0.3
	c-0.1,0.1-0.1,0.1-0.2,0.2c-0.7,0.7-1.4,1.3-2.2,2l-0.1,0.1L44.5,9z"/>
<path class="st2" d="M36.5,24c0.7-1.7,2.1-1.8,3-3.6c-0.6-4.2-4.9-5.8-5.7-10.5c-1.3,2-3.1,4-5,5.3c1,2.7,0.8,4.6-0.4,6.9
	C30.8,20.5,35,21.3,36.5,24z"/>
<path class="st2" d="M18.5,26.2c0.5-4.8,3.6-9,7.1-11.3c2.4-1.6,4.9-3.1,6.5-5.9c0.7-1.2,0.8-1.7,1-3c-0.8,0.7-2,1.3-3.1,1.9
	c-4.2,2-9.4,3.4-11.5,8C17,19.2,17.5,23.6,18.5,26.2z"/>
<path class="st2" d="M23,31.6c-1.1-4.4,1.4-7.1,3.4-8.6c1.3-2.1,2.2-4.8,1.2-7.2c-3.7,2.2-7.7,6.5-7.2,11c0.2,1.6,0.9,3.1,2.4,4.6
	C22.9,31.5,22.9,31.6,23,31.6z"/>
<path class="st2" d="M18.2,13.2c1.5-2,4.4-3.8,6.6-4.8c3.3-1.5,7.8-2.3,10-5.5c-0.8,3.5,0,6.6,1.3,9c0.4,0.8,1.1,1.6,1.7,2.3
	c2,2.3,3.5,4.3,2.7,7.6c1.9-1.6,3-4.1,2.8-7.2c-0.2-3.7-2.6-6.7-5.8-9.1c2.9,0.8,4.7,2.8,6.3,5.5l0-0.1c-0.1-2.5-2.6-5.3-4.5-6.8
	c-4.3-3.5-11-2.8-15.7,0.5C20.6,6.6,18.7,10.1,18.2,13.2z"/>
<path class="st3" d="M28,46.7c-2-1-4.7-2.4-7-4c-4-2.8-6.9-6.1-9.2-10.4c-1.5-2.8-2.8-5.9-4.1-9.3c-0.2-0.6-0.4-1-0.9-2.2l0,0
	c0.1,1.4,0.2,2.7,0.3,4c0.2,5,0.9,9.3,2.7,12.6c1.7,3,4.8,5.3,8.2,6.9C21.5,45.8,25,46.6,28,46.7z"/>
<path class="st3" d="M56.5,23c-3.7,9.3-8.8,17.5-19.4,23.2c6.4-0.8,13.3-3.8,15.8-6.7c3.1-3.5,4-8.5,4.2-14.7l0,0
	c0.1-1.3,0.1-2.6,0.2-4L56.5,23z"/>
<path class="st3" d="M7.4,17.8c0.9,1.4,1.5,3,2.1,4.6c1.2,2.9,2.3,5.9,3.8,8.7c3.8,7.3,9.9,11.4,17.3,14.7l0,0
	c-1-6.4-6.3-10.6-10.5-14.9c-2-2-3.4-4.6-4-7.3l0,0l0,0L16,23.4C13.5,20.9,10.8,18.9,7.4,17.8L7.4,17.8z"/>
<path class="st3" d="M34.3,45.7L34.3,45.7c0.3-0.1,0.6-0.3,0.9-0.4C45.5,40,50.6,32.9,54.8,22.4c0.6-1.6,1.2-3.1,2.1-4.6l0,0
	c-1.9,0.6-3.6,1.6-5.3,2.7c-5.1,3.4-8.7,7.3-11.9,12.6C37.5,36.9,35.3,41.5,34.3,45.7L34.3,45.7z"/>
<path class="st3" d="M38.6,23.7L38.6,23.7c-0.4,0.6-0.9,1.1-1.3,1.7l0,0c0.7,2.4,0.8,4.9,0.6,7.4l0,0c2.8-5.8,7.6-10.2,12.9-13.7
	c0.5-0.3,1-0.6,1.4-0.9c-0.6-3.5-2.3-6.7-4.4-9.4l0,0c-0.8,0.8-1.7,1.6-2.7,2.3C45,11,45,11,45,11h0c0,0.1,0,0.2,0,0.3
	c0.1,1.3-0.3,2.5-0.3,3.7l0,0.2C44.9,19.2,42.6,22.7,38.6,23.7z"/>
<path class="st3" d="M57.7,34.7L57.7,34.7c1.3-1.7,2.2-3.6,2.7-5.6c0.3-0.9,0.4-1.9,0.5-2.8l0,0c-0.7,0.2-1.4,0.4-2.1,0.6v0
	C58.7,29.5,58.4,32.2,57.7,34.7L57.7,34.7z"/>
<path class="st3" d="M6.8,34.7L6.8,34.7c-0.7-2.5-1-5.2-1.2-7.8h0c-0.7-0.2-1.4-0.4-2.1-0.6l0,0c0.1,1,0.3,1.9,0.5,2.8
	C4.6,31.2,5.5,33.1,6.8,34.7L6.8,34.7z"/>
<path class="st3" d="M16.7,15.7c-0.2-2,0.2-4.1,1-6l0,0c-0.4-0.4-0.8-0.7-1.2-1.1l0,0c-1.6,2.1-2.9,4.4-3.8,6.8
	c-0.2,0.5-0.3,1-0.4,1.5c-0.1,0.4-0.2,0.7-0.2,1.1c0.6,0.3,1.1,0.7,1.6,1.1c0.7,0.5,1.4,1.1,2,1.7l0,0C15.7,19,16.1,17.3,16.7,15.7z
	"/>
<path class="st2" d="M32.4,46.1L32.4,46.1l-0.1-0.6c0-0.1,0,0,0-0.1c-0.9-4.2-4.5-9.1-7.5-12.1c-1.2-2.3-0.9-5.2,0.6-7.3
	c1.8-2.6,6.1-4.7,8.9-2.4c2.7,2.3,2.2,8.5,2.3,11.8c-1.1,3.4-3.4,6.6-4,10.1L32.4,46.1z"/>
<path class="st4" d="M37.6,19.1c-0.7-0.2-1.2-0.1-2.1,0.1c0.6-0.3,0.9-0.4,1.6-0.4c-0.7-1.5-0.5-3.5-0.4-4.4
	c0.2,0.3,0.1,0.3,0.3,0.6C36.6,16.6,37.1,17.9,37.6,19.1z"/>
<path class="st4" d="M30.9,15c0.4-0.4,1.6-1.5,3.5-1.5l0.2,0.4C32.9,13.9,31.6,14.5,30.9,15z"/>
<path class="st4" d="M37,20.1L37,20.1c-0.6,1.1-1.6,1.2-2.6,0.5c-0.3-0.2-0.5-0.4-0.7-0.7l0.1-0.1c0.3,0.3,0.7,0.6,1.1,0.7
	C35.7,20.9,36.6,20.8,37,20.1z"/>
<path class="st5" d="M34,20c-0.2,0.1-0.3,0.3-0.4,0.6c0-0.3,0.1-0.6,0.2-0.7L34,20z"/>
<path class="st4" d="M35.6,15.8c-0.4-0.2-0.8-0.2-1.1-0.3c-0.2-1.1-1.7-1.1-1.9,0c0,0.1,0,0.2,0,0.2c-0.4,0.2-0.7,0.4-0.8,0.5
	C32.9,15.8,34.3,15.7,35.6,15.8z"/>
<ellipse transform="matrix(0.9963 -8.605617e-002 8.605617e-002 0.9963 -1.176 2.9423)" class="st2" cx="33.5" cy="15.1" rx="0.4" ry="0.4"/>
<g>
	<path class="st6" d="M278.5,14.1h1.4v1.6h-1.4V14.1z"/>
	<path class="st6" d="M282.5,7.7h1.2v2.1c0.6-1.3,1.8-2.3,3.3-2.2v1.3h-0.1c-1.8,0-3.2,1.3-3.2,3.7v3.2h-1.2V7.7z"/>
	<path class="st6" d="M288.7,12.7v-5h1.2v4.7c0,1.5,0.8,2.4,2.2,2.4c1.4,0,2.4-1,2.4-2.5V7.7h1.2v8.1h-1.2v-1.4
		c-0.5,0.9-1.4,1.6-2.8,1.6C289.8,15.9,288.7,14.6,288.7,12.7z"/>
</g>
<g>
	<path class="st4" d="M70.7,35.8h2.8c0.7,0,1.3,0.2,1.7,0.6c0.3,0.3,0.4,0.6,0.4,1.1c0,0.9-0.5,1.3-1,1.5c0.8,0.2,1.4,0.7,1.4,1.6
		c0,1.1-0.9,1.8-2.4,1.8h-2.9V35.8z M73.4,38.7c0.9,0,1.5-0.4,1.5-1.2c0-0.6-0.5-1.1-1.5-1.1h-2v2.3H73.4z M73.6,41.7
		c1,0,1.6-0.4,1.6-1.2c0-0.7-0.6-1.1-1.7-1.1h-2.1v2.3H73.6z"/>
	<path class="st4" d="M77.1,39c0-1.9,1.4-3.4,3.3-3.4c1.2,0,1.9,0.4,2.5,1.1l-0.5,0.5c-0.6-0.5-1.2-0.9-2.1-0.9
		c-1.5,0-2.5,1.2-2.5,2.7c0,1.5,1.1,2.7,2.5,2.7c0.9,0,1.5-0.3,2.1-0.9l0.5,0.5c-0.7,0.7-1.4,1.1-2.6,1.1
		C78.5,42.4,77.1,40.9,77.1,39z"/>
	<path class="st4" d="M84.3,35.8h4.7v0.7h-4v2.2h3.6v0.7h-3.6v2.3h4v0.7h-4.8V35.8z"/>
	<path class="st4" d="M92.6,41.6h0.7c0.6-1,1-2.6,1-4.7v-1.1h4.3v5.9h0.9l-0.1,2.1h-0.6v-1.5h-5.3l-0.1,1.5h-0.6V41.6z M97.8,41.6
		v-5.2H95v0.9c0,1.7-0.3,3.5-0.9,4.4H97.8z"/>
	<path class="st4" d="M99.5,42.2l0.1-0.6c0.1,0,0.4,0.1,0.6,0.1c0.5,0,1.4-0.3,1.4-4.8v-1.2h4.2v6.6h-0.7v-5.9h-2.8v0.7
		c0,4.6-0.9,5.2-1.9,5.2C100,42.4,99.7,42.3,99.5,42.2z"/>
	<path class="st4" d="M109.2,39.7c-1-0.2-1.8-0.9-1.8-1.9c0-0.5,0.2-1,0.5-1.3c0.4-0.4,1.1-0.7,1.9-0.7h2.8v6.6h-0.7v-2.5H110
		l-1.9,2.5h-0.9L109.2,39.7z M111.9,39.2v-2.8h-2c-1.1,0-1.7,0.5-1.7,1.4c0,0.9,0.7,1.4,1.7,1.4H111.9z"/>
	<path class="st4" d="M117.2,35.8h0.7v3.9l3.8-3.9h1l-2.8,2.9l2.9,3.7h-0.9l-2.5-3.2l-1.4,1.4v1.8h-0.7V35.8z"/>
	<path class="st4" d="M124,35.8h2.5c1.5,0,2.5,0.8,2.5,2.1c0,1.4-1.2,2.1-2.6,2.1h-1.6v2.3H124V35.8z M126.3,39.3
		c1.1,0,1.8-0.6,1.8-1.5c0-0.9-0.7-1.4-1.8-1.4h-1.7v2.9H126.3z"/>
	<path class="st4" d="M132,35.7h0.7l3,6.6h-0.8l-0.8-1.7h-3.6l-0.8,1.7H129L132,35.7z M133.8,39.9l-1.5-3.3l-1.5,3.3H133.8z"/>
	<path class="st4" d="M136.3,39c0-1.9,1.4-3.4,3.3-3.4c1.2,0,1.9,0.4,2.5,1.1l-0.5,0.5c-0.6-0.5-1.2-0.9-2.1-0.9
		c-1.5,0-2.5,1.2-2.5,2.7c0,1.5,1.1,2.7,2.5,2.7c0.9,0,1.5-0.3,2.1-0.9l0.5,0.5c-0.7,0.7-1.4,1.1-2.6,1.1
		C137.7,42.4,136.3,40.9,136.3,39z"/>
	<path class="st4" d="M143.2,39c0-1.8,1.4-3.4,3.4-3.4c2,0,3.3,1.6,3.3,3.4c0,1.8-1.4,3.4-3.4,3.4C144.5,42.4,143.2,40.9,143.2,39z
		 M149.1,39c0-1.5-1.1-2.7-2.6-2.7S144,37.5,144,39c0,1.5,1.1,2.7,2.6,2.7S149.1,40.5,149.1,39z"/>
	<path class="st4" d="M152.7,36.4h-2.2v-0.7h5.2v0.7h-2.2v5.9h-0.7V36.4z"/>
	<path class="st4" d="M157,35.8h0.7v2.5h1.7c1.4,0,2.5,0.6,2.5,1.9c0,1.3-0.9,2.1-2.4,2.1H157V35.8z M159.5,41.6
		c1,0,1.7-0.5,1.7-1.4c0-0.9-0.7-1.3-1.8-1.3h-1.7v2.7H159.5z M162.8,35.8h0.7v6.6h-0.7V35.8z"/>
	<path class="st4" d="M168.2,35.8h5.2v6.6h-0.7v-5.9h-3.7v5.9h-0.7V35.8z"/>
	<path class="st4" d="M174.9,39c0-1.8,1.4-3.4,3.4-3.4c2,0,3.3,1.6,3.3,3.4c0,1.8-1.4,3.4-3.4,3.4C176.3,42.4,174.9,40.9,174.9,39z
		 M180.8,39c0-1.5-1.1-2.7-2.6-2.7c-1.5,0-2.6,1.2-2.6,2.7c0,1.5,1.1,2.7,2.6,2.7C179.8,41.7,180.8,40.5,180.8,39z"/>
	<path class="st4" d="M185,42.2l0.1-0.6c0.1,0,0.4,0.1,0.6,0.1c0.5,0,1.4-0.3,1.4-4.8v-1.2h4.2v6.6h-0.7v-5.9h-2.8v0.7
		c0,4.6-0.9,5.2-1.9,5.2C185.5,42.4,185.2,42.3,185,42.2z"/>
	<path class="st4" d="M193,42.2l0.3-0.6c0.3,0.1,0.5,0.2,0.8,0.2c0.4,0,0.9-0.3,1.3-1l-2.9-5h0.8l2.4,4.3l2.1-4.3h0.8l-2.6,5.2
		c-0.5,1.1-1.2,1.5-2,1.5C193.7,42.4,193.4,42.3,193,42.2z"/>
	<path class="st4" d="M203.9,39.5c-0.5,0.3-1.4,0.6-2,0.6c-1.3,0-2.1-0.7-2.1-1.9v-2.5h0.7v2.3c0,0.8,0.5,1.4,1.4,1.4
		c0.7,0,1.4-0.3,2-0.6v-3.1h0.7v6.6h-0.7V39.5z"/>
	<path class="st4" d="M206.5,35.8h0.7v5.9h3.1v-5.9h0.7v5.9h3.1v-5.9h0.7v6.6h-8.5V35.8z"/>
	<path class="st4" d="M216.8,35.8h0.7v5.4l3.9-5.4h0.7v6.6h-0.7v-5.4l-3.9,5.4h-0.7V35.8z"/>
	<path class="st4" d="M224,35.8h0.7l2.4,3.6l2.4-3.6h0.7v6.6h-0.7V37l-2.4,3.5h0l-2.4-3.5v5.3H224V35.8z"/>
	<path class="st4" d="M240.3,42.3h-5.3v-6.6h0.7v5.9h3.7v-5.9h0.7v5.9h0.9l-0.1,2.1h-0.6V42.3z"/>
	<path class="st4" d="M242.1,35.8h4.7v0.7h-4v2.2h3.6v0.7h-3.6v2.3h4v0.7h-4.8V35.8z"/>
	<path class="st4" d="M248.3,35.8h0.7v2.9h3.8v-2.9h0.7v6.6h-0.7v-2.9h-3.8v2.9h-0.7V35.8z"/>
	<path class="st4" d="M257.9,35.7h0.7l3,6.6h-0.8l-0.8-1.7h-3.6l-0.8,1.7h-0.8L257.9,35.7z M259.7,39.9l-1.5-3.3l-1.5,3.3H259.7z"/>
	<path class="st4" d="M262.8,35.8h0.7l2.4,3.6l2.4-3.6h0.7v6.6h-0.7V37l-2.4,3.5h0l-2.4-3.5v5.3h-0.7V35.8z"/>
</g>
<g>
	<path class="st4" d="M70.5,10.2h3.8v7.6l7.1-7.6h4.6L79,17.6l7.4,10h-4.6l-5.4-7.4l-2,2.1v5.3h-3.8V10.2z"/>
	<path class="st4" d="M88.7,10.2h8c2.2,0,3.9,0.6,5.1,1.8c1,1,1.5,2.3,1.5,4c0,2.8-1.5,4.6-3.7,5.4l4.3,6.2h-4.5L95.5,22h-3v5.6
		h-3.8V10.2z M96.4,18.6c1.9,0,2.9-1,2.9-2.5c0-1.6-1.1-2.5-3-2.5h-3.8v5H96.4z"/>
	<path class="st4" d="M112.7,10.1h3.5l7.5,17.6h-4l-1.6-3.9h-7.4l-1.6,3.9h-3.9L112.7,10.1z M116.7,20.3l-2.3-5.7l-2.3,5.7H116.7z"
		/>
	<path class="st4" d="M124.9,25.1l2.3-2.7c1.6,1.3,3.2,2.1,5.2,2.1c1.6,0,2.5-0.6,2.5-1.7c0-1-0.6-1.5-3.5-2.2
		c-3.5-0.9-5.8-1.9-5.8-5.4c0-3.2,2.5-5.3,6.1-5.3c2.5,0,4.7,0.8,6.5,2.2l-2,2.9c-1.5-1.1-3.1-1.7-4.5-1.7c-1.5,0-2.2,0.7-2.2,1.6
		c0,1.1,0.7,1.5,3.8,2.3c3.5,0.9,5.5,2.2,5.5,5.3c0,3.5-2.6,5.4-6.4,5.4C129.7,27.9,127,26.9,124.9,25.1z"/>
	<path class="st4" d="M141.3,18.9c0-5,3.9-9,9.3-9c5.4,0,9.2,4,9.2,9c0,5-3.9,9-9.3,9C145.1,27.9,141.3,23.9,141.3,18.9z
		 M155.8,18.9c0-3-2.2-5.5-5.3-5.5c-3.1,0-5.2,2.4-5.2,5.5c0,3,2.2,5.5,5.3,5.5C153.7,24.4,155.8,21.9,155.8,18.9z"/>
	<path class="st4" d="M166.5,13.7h-5.3v-3.5h14.4v3.5h-5.3v13.9h-3.8V13.7z"/>
	<path class="st4" d="M178.6,10.2h3.8v7.6l7.1-7.6h4.6l-7.1,7.4l7.4,10h-4.6l-5.4-7.4l-2,2.1v5.3h-3.8V10.2z"/>
	<path class="st4" d="M203.3,10.1h3.5l7.5,17.6h-4l-1.6-3.9h-7.4l-1.6,3.9h-3.9L203.3,10.1z M207.3,20.3l-2.3-5.7l-2.3,5.7H207.3z"
		/>
	<path class="st4" d="M216.7,10.2h7.1c4.2,0,6.7,2.5,6.7,6.1c0,4-3.1,6.1-7,6.1h-2.9v5.2h-3.8V10.2z M223.6,19c1.9,0,3-1.1,3-2.7
		c0-1.7-1.2-2.6-3.1-2.6h-3V19H223.6z"/>
	<path class="st4" d="M233.6,10.2h8c2.2,0,3.9,0.6,5.1,1.8c1,1,1.5,2.3,1.5,4c0,2.8-1.5,4.6-3.7,5.4l4.3,6.2h-4.5l-3.8-5.6h-3v5.6
		h-3.8V10.2z M241.3,18.6c1.9,0,2.9-1,2.9-2.5c0-1.6-1.1-2.5-3-2.5h-3.8v5H241.3z"/>
	<path class="st4" d="M250.6,18.9c0-5,3.9-9,9.3-9c5.4,0,9.2,4,9.2,9c0,5-3.9,9-9.3,9C254.4,27.9,250.6,23.9,250.6,18.9z
		 M265.1,18.9c0-3-2.2-5.5-5.3-5.5s-5.2,2.4-5.2,5.5c0,3,2.2,5.5,5.3,5.5C263,24.4,265.1,21.9,265.1,18.9z"/>
</g>
</svg>
