<svg version="1.1" id="Layer_1" xmlns="http://www.w3.org/2000/svg" x="0" y="0" viewBox="0 0 88 10.6" xml:space="preserve"><path d="M32.7 10.4h1.8V.1h-1.8v10.3zm16.8 0h1.8V.1h-1.8v10.3zM42 6.5L39 .1h-1.9L42 10.6 46.9.1H45l-3 6.4zM0 10.4h1.8V.1H0v10.3zM8.4.1H6.2L2.1 5.2l4.1 5.2h2.2L4.3 5.2 8.4.1zm63.5 4.3V1.8h1.7c1.2 0 1.5.8 1.5 1.3 0 .8-.5 1.3-1.5 1.3h-1.7zm4.9-1.3c0-1.9-1.7-3-3.2-3H70v10.3h1.8V6.1l3.4 4.3h2.2l-3.5-4.3c1.6-.2 2.9-1.3 2.9-3zM16.7 6.8c0 1.2-.8 2.1-1.9 2.1-1.1 0-1.9-.8-1.9-2.1V.1h-1.8v6.8c0 2.4 1.7 3.7 3.7 3.7s3.7-1.3 3.7-3.7V.1h-1.8v6.7zm8.9-1.1h-1.3V1.9h1.3c1.3 0 2.1.8 2.1 1.9 0 1.1-.8 1.9-2.1 1.9zm.1-5.6h-3.2v10.3h1.8V7.5h1.4c2.4 0 3.7-1.8 3.7-3.7S28.1.1 25.7.1zm33 5.6h-1.3V1.9h1.3c1.2 0 2 .8 2 1.9 0 1.1-.8 1.9-2 1.9zm.1-5.6h-3.2v10.3h1.8V7.5h1.4c2.4 0 3.7-1.8 3.7-3.7S61.2.1 58.8.1zm27 0v6.7c0 1.2-.8 2.1-1.9 2.1-1.2 0-1.9-.9-1.9-2.1V.1h-1.8v6.8c0 2.4 1.7 3.7 3.7 3.7s3.7-1.3 3.7-3.7V.1h-1.8zM64.2 10.4H66V8.6h-1.8v1.8z"/></svg>