<?xml version="1.0" encoding="utf-8"?>
<!-- Generator: Adobe Illustrator 23.1.0, SVG Export Plug-In . SVG Version: 6.00 Build 0)  -->
<svg version="1.1" id="Layer_1" xmlns="http://www.w3.org/2000/svg" xmlns:xlink="http://www.w3.org/1999/xlink" x="0px" y="0px"
	 viewBox="0 0 88 10.6" style="enable-background:new 0 0 88 10.6;" xml:space="preserve">
<path d="M32.7,10.4h1.8V0.1h-1.8V10.4z M49.5,10.4h1.8V0.1h-1.8V10.4L49.5,10.4z M42,6.5l-3-6.4h-1.9L42,10.6l4.9-10.5H45L42,6.5
	L42,6.5z M0,10.4h1.8V0.1H0L0,10.4L0,10.4z M8.4,0.1H6.2L2.1,5.2l4.1,5.2h2.2L4.3,5.2L8.4,0.1L8.4,0.1z M71.9,4.4V1.8h1.7
	c1.2,0,1.5,0.8,1.5,1.3c0,0.8-0.5,1.3-1.5,1.3L71.9,4.4L71.9,4.4z M76.8,3.1c0-1.9-1.7-3-3.2-3h-3.6v10.3h1.8V6.1h0l3.4,4.3h2.2
	l-3.5-4.3C75.5,5.9,76.8,4.8,76.8,3.1L76.8,3.1z M16.7,6.8c0,1.2-0.8,2.1-1.9,2.1c-1.1,0-1.9-0.8-1.9-2.1V0.1h-1.8v6.8
	c0,2.4,1.7,3.7,3.7,3.7c2,0,3.7-1.3,3.7-3.7V0.1h-1.8V6.8z M25.6,5.7h-1.3V1.9h1.3c1.3,0,2.1,0.8,2.1,1.9
	C27.7,4.9,26.9,5.7,25.6,5.7L25.6,5.7z M25.7,0.1h-3.2v10.3h1.8V7.5h1.4c2.4,0,3.7-1.8,3.7-3.7S28.1,0.1,25.7,0.1L25.7,0.1z
	 M58.7,5.7h-1.3V1.9h1.3c1.2,0,2,0.8,2,1.9C60.7,4.9,59.9,5.7,58.7,5.7L58.7,5.7z M58.8,0.1h-3.2v10.3h1.8V7.5h1.4
	c2.4,0,3.7-1.8,3.7-3.7S61.2,0.1,58.8,0.1L58.8,0.1z M85.8,0.1v6.7c0,1.2-0.8,2.1-1.9,2.1C82.7,8.9,82,8,82,6.8V0.1h-1.8v6.8
	c0,2.4,1.7,3.7,3.7,3.7c2,0,3.7-1.3,3.7-3.7V0.1L85.8,0.1L85.8,0.1z M64.2,10.4h1.8V8.6h-1.8C64.2,8.6,64.2,10.4,64.2,10.4z"/>
</svg>
