<svg width="120" height="37" viewBox="0 0 120 37" fill="none" xmlns="http://www.w3.org/2000/svg">
<rect width="120" height="37" fill="black" fill-opacity="0"/>
<path fill-rule="evenodd" clip-rule="evenodd" d="M57.5258 5.74873L54.4473 5.75091V3.59766H57.5258C58.2233 3.60128 58.6145 4.18603 58.6036 4.67356C58.5884 5.34899 58.0451 5.75164 57.5258 5.74873ZM57.526 0.282227H51.691C51.3798 0.282227 51.123 0.537599 51.123 0.848109V13.9606C51.123 14.2711 51.3798 14.5272 51.691 14.5272L53.8801 14.528C54.1914 14.528 54.4474 14.2711 54.4474 13.9606V9.06429H57.526C59.763 9.06429 61.8656 7.37825 61.9281 4.67362C61.9776 2.52472 60.158 0.282227 57.526 0.282227Z" fill="black"/>
<path fill-rule="evenodd" clip-rule="evenodd" d="M119.936 3.00351V0.819789C119.936 0.510004 119.68 0.253906 119.371 0.253906H111.536C111.225 0.253906 110.969 0.509279 110.969 0.819789L110.968 13.9613C110.968 14.2711 111.225 14.5265 111.535 14.5265H119.368C119.678 14.5265 119.935 14.2704 119.935 13.9606V11.7769C119.935 11.4664 119.678 11.211 119.368 11.211H114.292V9.06426H117.735C118.046 9.06426 118.302 8.80889 118.302 8.49838V6.31393C118.302 6.00487 118.047 5.74804 117.737 5.74804H114.292L114.291 3.5694H119.368C119.679 3.5694 119.936 3.31402 119.936 3.00351Z" fill="black"/>
<path fill-rule="evenodd" clip-rule="evenodd" d="M7.42013 11.3295C5.24631 11.3295 3.4834 9.57164 3.4834 7.40243C3.4834 5.23394 5.24631 3.47607 7.42013 3.47607C9.59394 3.47607 11.3569 5.23394 11.3569 7.40243C11.3569 9.57164 9.59394 11.3295 7.42013 11.3295ZM7.42036 0C3.32218 0 0 3.31404 0 7.40218C0 11.491 3.32218 14.8051 7.42036 14.8051C11.5185 14.8051 14.8407 11.491 14.8407 7.40218C14.8407 3.31404 11.5185 0 7.42036 0Z" fill="#EC1409"/>
<path fill-rule="evenodd" clip-rule="evenodd" d="M28.9431 0.257812H21.0914C20.7802 0.257812 20.5234 0.513911 20.5234 0.823695V13.9594C20.5234 14.2692 20.7794 14.5246 21.0907 14.5246H23.2798C23.5911 14.5246 23.8478 14.2685 23.8478 13.9587V9.06309H27.29C27.6013 9.06309 27.8573 8.80699 27.8573 8.49648V6.31275C27.8573 6.00224 27.6013 5.74687 27.29 5.74615L23.8478 5.74397V3.5733H28.9431C29.2543 3.5733 29.5103 3.31793 29.5103 3.00742V0.823695C29.5103 0.513911 29.2543 0.257812 28.9431 0.257812Z" fill="#EC1409"/>
<path fill-rule="evenodd" clip-rule="evenodd" d="M43.9177 0.257812H36.066C35.7548 0.257812 35.4988 0.513911 35.4988 0.823695L35.498 13.9594C35.498 14.2692 35.7548 14.5246 36.066 14.5246H38.2544C38.5664 14.5246 38.8224 14.2685 38.8224 13.9587V9.06309H42.2653C42.5759 9.06309 42.8326 8.80699 42.8326 8.49648V6.31275C42.8326 6.00224 42.5759 5.74687 42.2653 5.74615L38.8224 5.74397V3.5733H43.9177C44.229 3.5733 44.4857 3.31793 44.4857 3.00742V0.823695C44.4857 0.513911 44.229 0.257812 43.9177 0.257812Z" fill="#EC1409"/>
<path fill-rule="evenodd" clip-rule="evenodd" d="M103.815 0.279297H102.85C98.846 0.279297 95.7187 3.50918 95.7129 7.39853C95.7078 11.174 98.7565 14.5178 102.85 14.5178H103.743C104.054 14.5178 104.311 14.2617 104.311 13.9519V11.7682C104.311 11.4584 104.055 11.2023 103.745 11.2023H102.85C100.775 11.2023 99.0482 9.56847 99.0373 7.39853C99.0271 5.5021 100.598 3.59479 102.85 3.59479H103.743C104.054 3.59479 104.311 3.33941 104.311 3.0289V0.829944C104.311 0.548454 104.092 0.279297 103.815 0.279297Z" fill="black"/>
<path fill-rule="evenodd" clip-rule="evenodd" d="M88.7571 0.276367H86.568C86.2567 0.276367 86 0.532465 86 0.84225V13.9976C86 14.287 86.2698 14.5156 86.5644 14.5156H88.7571C89.0684 14.5156 89.3244 14.2595 89.3244 13.9497V0.84225C89.3244 0.532465 89.0684 0.276367 88.7571 0.276367Z" fill="black"/>
<path fill-rule="evenodd" clip-rule="evenodd" d="M71.0303 3.58496H74.1088C74.807 3.58859 75.1975 4.17333 75.1866 4.66014C75.1714 5.33629 74.6288 5.73894 74.1088 5.73604L71.0303 5.73822V3.58496ZM74.7751 9.00081C76.7468 8.70335 78.4544 7.09422 78.5111 4.6602C78.5606 2.51202 76.741 0.269531 74.109 0.269531H68.2733C67.9628 0.269531 67.7061 0.524904 67.7061 0.835414V13.9479C67.7061 14.2584 67.9628 14.5138 68.2733 14.5138H70.4631C70.7737 14.5138 71.0304 14.2584 71.0304 13.9479V9.41361L74.997 14.3194C75.1642 14.4848 75.3351 14.5124 75.4661 14.5124L78.2326 14.5131C78.6784 14.5131 78.8537 13.9762 78.5686 13.6926L74.7751 9.00081Z" fill="black"/>
<path fill-rule="evenodd" clip-rule="evenodd" d="M2.17773 32.2947H4.82355L3.50573 28.8936L2.17773 32.2947ZM5.15779 33.1521H1.84361L1.34616 34.4195C1.32725 34.4703 1.29234 34.5225 1.24143 34.5769C1.19052 34.6306 1.10179 34.6575 0.973793 34.6575H0.620338C0.563611 34.6575 0.514156 34.6371 0.472702 34.5958C0.431247 34.5537 0.410156 34.5051 0.410156 34.4478C0.410156 34.4159 0.423247 34.3716 0.448702 34.3143L2.78907 28.3022C2.82034 28.2318 2.86834 28.1629 2.93234 28.0925C2.99561 28.0229 3.09088 27.9873 3.21888 27.9873H3.79197C3.91925 27.9873 4.01452 28.0229 4.07852 28.0925C4.14179 28.1629 4.18979 28.2318 4.22179 28.3022L6.55197 34.3143C6.57743 34.3716 6.59052 34.4159 6.59052 34.4478C6.59052 34.5051 6.56943 34.5537 6.52797 34.5958C6.48652 34.6371 6.43707 34.6575 6.38034 34.6575H6.02688C5.89961 34.6575 5.81016 34.6306 5.75925 34.5769C5.70834 34.5225 5.67343 34.4703 5.65452 34.4195L5.15779 33.1521Z" fill="black"/>
<path fill-rule="evenodd" clip-rule="evenodd" d="M7.40176 28.3409C7.36976 28.2836 7.35449 28.2357 7.35449 28.1979C7.35449 28.1406 7.37486 28.0913 7.41631 28.0507C7.45776 28.0086 7.50722 27.9883 7.56395 27.9883H7.97486C8.10213 27.9883 8.19304 28.0137 8.24686 28.0645C8.30067 28.1152 8.34431 28.1697 8.37558 28.2262L10.0956 31.5323L11.8243 28.2262C11.8563 28.1697 11.8992 28.1152 11.953 28.0645C12.0069 28.0137 12.0978 27.9883 12.225 27.9883H12.6359C12.6934 27.9883 12.7421 28.0086 12.7836 28.0507C12.8258 28.0913 12.8461 28.1406 12.8461 28.1979C12.8461 28.2357 12.8301 28.2836 12.7981 28.3409L10.5058 32.7236C10.385 32.9463 10.2592 33.1726 10.129 33.4048C9.99813 33.6369 9.85195 33.8444 9.68976 34.0287C9.52686 34.2137 9.34504 34.3639 9.14504 34.4814C8.94431 34.5989 8.71667 34.6577 8.46213 34.6577H7.9654C7.89486 34.6577 7.83449 34.6323 7.78358 34.5815C7.73267 34.5308 7.70722 34.4705 7.70722 34.4009V34.0577C7.70722 33.9874 7.73267 33.9271 7.78358 33.8764C7.83449 33.8263 7.89486 33.8002 7.9654 33.8002H8.37558C8.50358 33.8002 8.6214 33.7639 8.72976 33.6906C8.8374 33.6174 8.93922 33.5194 9.03522 33.3954C9.13049 33.2713 9.22286 33.1327 9.31158 32.9811C9.40104 32.8288 9.49049 32.6699 9.57922 32.5045L7.40176 28.3409Z" fill="black"/>
<path fill-rule="evenodd" clip-rule="evenodd" d="M18.4572 27.9883C18.527 27.9883 18.5881 28.0137 18.639 28.0645C18.6899 28.116 18.7154 28.1762 18.7154 28.2451V28.5883C18.7154 28.6586 18.6899 28.7188 18.639 28.7696C18.5881 28.8204 18.527 28.8465 18.4572 28.8465H16.671V34.4009C16.671 34.4713 16.6455 34.5315 16.5946 34.5815C16.5437 34.6323 16.4834 34.6577 16.4128 34.6577H16.0215C15.9517 34.6577 15.8914 34.6323 15.8405 34.5815C15.7895 34.5315 15.7641 34.4713 15.7641 34.4009V28.8465H13.9779C13.9074 28.8465 13.847 28.8204 13.7961 28.7696C13.7452 28.7188 13.7197 28.6586 13.7197 28.5883V28.2451C13.7197 28.1762 13.7452 28.116 13.7961 28.0645C13.847 28.0137 13.9074 27.9883 13.9779 27.9883H18.4572Z" fill="black"/>
<path fill-rule="evenodd" clip-rule="evenodd" d="M20.3286 28.0645C20.3795 28.0137 20.4398 27.9883 20.5104 27.9883H24.4646C24.5344 27.9883 24.5947 28.0137 24.6464 28.0645C24.6966 28.1152 24.7227 28.1755 24.7227 28.2451V34.4002C24.7227 34.4705 24.6966 34.5308 24.6464 34.5808C24.5947 34.6323 24.5344 34.6577 24.4646 34.6577H24.0726C24.0027 34.6577 23.9424 34.6323 23.8915 34.5808C23.8406 34.5308 23.8151 34.4705 23.8151 34.4002V28.8458H21.1598V32.9427C21.1598 33.1777 21.1264 33.4026 21.0595 33.6188C20.9926 33.835 20.8878 34.0273 20.7438 34.1956C20.6013 34.3639 20.418 34.4988 20.1947 34.6004C19.9722 34.702 19.7017 34.7528 19.3831 34.7528H19.2682C19.1984 34.7528 19.138 34.7281 19.0871 34.6766C19.0362 34.6258 19.0107 34.5656 19.0107 34.4952V34.1528C19.0107 34.0831 19.0362 34.0229 19.0871 33.9721C19.138 33.9206 19.1984 33.8952 19.2682 33.8952H19.3446C19.6442 33.8952 19.8704 33.8161 20.0231 33.6573C20.1758 33.4984 20.2522 33.2481 20.2522 32.9049V28.2451C20.2522 28.1755 20.2777 28.1152 20.3286 28.0645Z" fill="black"/>
<path fill-rule="evenodd" clip-rule="evenodd" d="M30.5956 33.7999C30.6654 33.7999 30.7258 33.8253 30.7774 33.8754C30.8276 33.9269 30.8531 33.9871 30.8531 34.0568V34.3999C30.8531 34.4703 30.8276 34.5305 30.7774 34.5806C30.7258 34.6313 30.6654 34.6575 30.5956 34.6575H26.7367C26.6669 34.6575 26.6065 34.6313 26.5549 34.5806C26.5047 34.5305 26.4785 34.4703 26.4785 34.3999V28.2449C26.4785 28.1752 26.5047 28.115 26.5549 28.0642C26.6065 28.0127 26.6669 27.9873 26.7367 27.9873H30.5192C30.5891 27.9873 30.6494 28.0127 30.7003 28.0642C30.7512 28.115 30.7774 28.1752 30.7774 28.2449V28.5873C30.7774 28.6577 30.7512 28.7179 30.7003 28.7687C30.6494 28.8202 30.5891 28.8456 30.5192 28.8456H27.3862V30.8552H30.3091C30.3789 30.8552 30.4392 30.8813 30.4902 30.9321C30.5411 30.9829 30.5665 31.0431 30.5665 31.1127V31.4559C30.5665 31.5255 30.5411 31.5857 30.4902 31.6372C30.4392 31.688 30.3789 31.7127 30.3091 31.7127H27.3862V33.7999H30.5956Z" fill="black"/>
<path fill-rule="evenodd" clip-rule="evenodd" d="M36.631 27.9883C36.7008 27.9883 36.7619 28.0137 36.8128 28.0645C36.8637 28.116 36.8892 28.1762 36.8892 28.2451V28.5883C36.8892 28.6586 36.8637 28.7188 36.8128 28.7696C36.7619 28.8204 36.7008 28.8465 36.631 28.8465H34.8448V34.4009C34.8448 34.4713 34.8194 34.5315 34.7685 34.5815C34.7176 34.6323 34.6572 34.6577 34.5866 34.6577H34.1954C34.1256 34.6577 34.0652 34.6323 34.0143 34.5815C33.9634 34.5315 33.9379 34.4713 33.9379 34.4009V28.8465H32.1517C32.0812 28.8465 32.0208 28.8204 31.9699 28.7696C31.919 28.7188 31.8936 28.6586 31.8936 28.5883V28.2451C31.8936 28.1762 31.919 28.116 31.9699 28.0645C32.0208 28.0137 32.0812 27.9883 32.1517 27.9883H36.631Z" fill="black"/>
<path fill-rule="evenodd" clip-rule="evenodd" d="M41.5498 31.2086H43.2596C43.7178 31.2086 44.0727 31.11 44.3244 30.9134C44.576 30.716 44.7018 30.4142 44.7018 30.0079C44.7018 29.6017 44.576 29.3064 44.3244 29.1221C44.0727 28.9378 43.7178 28.8457 43.2596 28.8457H41.5498V31.2086ZM43.308 27.9883C43.62 27.9883 43.9139 28.0275 44.1909 28.1073C44.468 28.1863 44.7117 28.3089 44.9219 28.4736C45.132 28.639 45.2993 28.8487 45.4237 29.1034C45.548 29.3566 45.6099 29.6584 45.6099 30.008C45.6099 30.357 45.548 30.6603 45.4237 30.9185C45.2993 31.1754 45.132 31.3894 44.9219 31.5606C44.7117 31.7325 44.468 31.8595 44.1909 31.9422C43.9139 32.0249 43.62 32.0663 43.308 32.0663H41.5502V34.4002C41.5502 34.4705 41.5248 34.5308 41.4739 34.5808C41.4229 34.6323 41.3626 34.6577 41.2928 34.6577H40.9008C40.8309 34.6577 40.7706 34.6323 40.7189 34.5808C40.6688 34.5308 40.6426 34.4705 40.6426 34.4002V28.2451C40.6426 28.1755 40.6688 28.1152 40.7189 28.0645C40.7706 28.0137 40.8309 27.9883 40.9008 27.9883H43.308Z" fill="black"/>
<path fill-rule="evenodd" clip-rule="evenodd" d="M50.7386 28.8457H49.1241C48.6659 28.8457 48.311 28.9291 48.0593 29.0982C47.8077 29.2665 47.6826 29.5538 47.6826 29.9601C47.6826 30.3671 47.8077 30.6602 48.0593 30.8415C48.311 31.0222 48.6659 31.1129 49.1241 31.1129H50.7386V28.8457ZM51.3878 27.9873C51.4583 27.9873 51.5187 28.0134 51.5696 28.0642C51.6205 28.115 51.646 28.1752 51.646 28.2449V34.3999C51.646 34.4703 51.6205 34.5305 51.5696 34.5806C51.5187 34.6321 51.4583 34.6575 51.3878 34.6575H50.9965C50.926 34.6575 50.8656 34.6321 50.8147 34.5806C50.7638 34.5305 50.7383 34.4703 50.7383 34.3999V31.971H49.0954L47.7107 34.3999C47.6853 34.4449 47.6423 34.4986 47.582 34.5624C47.5209 34.6255 47.4271 34.6575 47.2998 34.6575H46.8896C46.8322 34.6575 46.7827 34.6364 46.7413 34.5958C46.6998 34.5537 46.6787 34.5051 46.6787 34.4478C46.6787 34.4159 46.6889 34.381 46.7078 34.3426L48.15 31.8368C47.7493 31.7098 47.4198 31.4936 47.1616 31.1889C46.9034 30.8842 46.7747 30.4743 46.7747 29.9599C46.7747 29.611 46.8365 29.312 46.9609 29.0647C47.0853 28.8165 47.2525 28.6134 47.4627 28.4545C47.6729 28.2956 47.9158 28.1781 48.1929 28.1027C48.47 28.0258 48.7645 27.9873 49.0765 27.9873H51.3878Z" fill="black"/>
<path fill-rule="evenodd" clip-rule="evenodd" d="M54.9553 32.8279C54.9553 32.9803 54.9422 33.1515 54.9168 33.3423C54.8913 33.5331 54.8338 33.6854 54.7451 33.8001H57.5917V28.8457H54.9553V32.8279ZM54.0476 28.2449C54.0476 28.1752 54.073 28.115 54.124 28.0642C54.1749 28.0127 54.2352 27.9873 54.3058 27.9873H58.241C58.3109 27.9873 58.3712 28.0127 58.4221 28.0642C58.473 28.115 58.4985 28.1752 58.4985 28.2449V33.7999H58.7181C58.7887 33.7999 58.849 33.8253 58.9 33.8754C58.9509 33.9269 58.9763 33.9871 58.9763 34.0568V35.4475C58.9763 35.5179 58.9509 35.5781 58.9 35.6289C58.849 35.6797 58.7887 35.7051 58.7181 35.7051H58.3269C58.257 35.7051 58.1967 35.6797 58.145 35.6289C58.0941 35.5781 58.0687 35.5179 58.0687 35.4475V34.6567H53.7807V35.4475C53.7807 35.5179 53.7552 35.5781 53.7036 35.6289C53.6527 35.6797 53.5923 35.7051 53.5225 35.7051H53.1312C53.0607 35.7051 53.0003 35.6797 52.9494 35.6289C52.8985 35.5781 52.873 35.5179 52.873 35.4475V34.0568C52.873 33.9871 52.8985 33.9269 52.9494 33.8754C53.0003 33.8253 53.0607 33.7999 53.1312 33.7999H53.284C53.417 33.7999 53.5334 33.7818 53.6323 33.7477C53.7305 33.7129 53.8105 33.6519 53.8709 33.5663C53.9312 33.48 53.9763 33.3646 54.0047 33.2181C54.033 33.0723 54.0476 32.888 54.0476 32.6653V28.2449Z" fill="black"/>
<path fill-rule="evenodd" clip-rule="evenodd" d="M64.4634 30.5216C64.4503 30.2235 64.4016 29.963 64.3151 29.741C64.2292 29.5183 64.11 29.334 63.9572 29.1882C63.8045 29.0424 63.6241 28.9328 63.4176 28.8595C63.2103 28.7863 62.9827 28.75 62.7347 28.75C62.486 28.75 62.2583 28.7863 62.0518 28.8595C61.8445 28.9328 61.6649 29.0424 61.5121 29.1882C61.3587 29.334 61.238 29.5183 61.1485 29.741C61.0598 29.963 61.0118 30.2235 61.006 30.5216C60.9929 30.8082 60.9863 31.0745 60.9863 31.3226C60.9863 31.57 60.9929 31.8362 61.006 32.1228C61.0118 32.421 61.0598 32.6822 61.1485 32.9042C61.238 33.1262 61.3587 33.3104 61.5121 33.457C61.6649 33.6028 61.8445 33.7124 62.0518 33.7849C62.2583 33.8589 62.486 33.8945 62.7347 33.8945C62.9827 33.8945 63.2103 33.8589 63.4176 33.7849C63.6241 33.7124 63.8045 33.6028 63.9572 33.457C64.11 33.3104 64.2292 33.1262 64.3151 32.9042C64.4016 32.6822 64.4503 32.421 64.4634 32.1228C64.4758 31.8362 64.4823 31.57 64.4823 31.3226C64.4823 31.0745 64.4758 30.8082 64.4634 30.5216ZM60.0982 30.4746C60.104 30.1184 60.1665 29.7832 60.2843 29.4691C60.4022 29.1549 60.5723 28.8814 60.7956 28.65C61.0182 28.4186 61.2923 28.2343 61.6167 28.0972C61.9418 27.9608 62.3142 27.8926 62.7345 27.8926C63.1549 27.8926 63.5273 27.9608 63.8516 28.0972C64.1767 28.2343 64.4502 28.4186 64.6734 28.65C64.896 28.8814 65.0662 29.1549 65.184 29.4691C65.3018 29.7832 65.3643 30.1184 65.3709 30.4746C65.3898 31.0398 65.3898 31.6049 65.3709 32.1701C65.3578 32.5263 65.2923 32.8615 65.1745 33.1756C65.0567 33.4905 64.8865 33.7647 64.6633 33.9998C64.4407 34.2348 64.1687 34.4191 63.8473 34.5526C63.5251 34.6853 63.1549 34.7521 62.7345 34.7521C62.3142 34.7521 61.9433 34.6853 61.6218 34.5526C61.2996 34.4191 61.0276 34.2348 60.8051 33.9998C60.5818 33.7647 60.4116 33.4905 60.2938 33.1756C60.176 32.8615 60.1113 32.5263 60.0982 32.1701C60.0793 31.6049 60.0793 31.0398 60.0982 30.4746Z" fill="black"/>
<path fill-rule="evenodd" clip-rule="evenodd" d="M69.8842 32.0181L71.8137 28.2927C71.8522 28.2166 71.9046 28.1462 71.9715 28.0831C72.0377 28.0192 72.1257 27.9873 72.2341 27.9873H72.597C72.6668 27.9873 72.7272 28.0127 72.7781 28.0642C72.829 28.115 72.8544 28.1752 72.8544 28.2449V34.3999C72.8544 34.4703 72.829 34.5305 72.7781 34.5806C72.7272 34.6321 72.6668 34.6575 72.597 34.6575H72.205C72.1352 34.6575 72.0748 34.6321 72.0239 34.5806C71.973 34.5305 71.9475 34.4703 71.9475 34.3999V29.8837L70.4573 32.7516C70.4064 32.8474 70.3526 32.9214 70.2952 32.975C70.2377 33.0302 70.1613 33.057 70.0661 33.057H69.7024C69.6072 33.057 69.5308 33.0302 69.4733 32.975C69.4159 32.9214 69.3621 32.8474 69.3112 32.7516L67.821 29.8837V34.3999C67.821 34.4703 67.7955 34.5305 67.7446 34.5806C67.6937 34.6321 67.6333 34.6575 67.5635 34.6575H67.1715C67.1017 34.6575 67.0413 34.6321 66.9904 34.5806C66.9395 34.5305 66.9141 34.4703 66.9141 34.3999V28.2449C66.9141 28.1752 66.9395 28.115 66.9904 28.0642C67.0413 28.0127 67.1017 27.9873 67.1715 27.9873H67.5344C67.6428 27.9873 67.7308 28.0192 67.797 28.0831C67.8639 28.1462 67.9162 28.2166 67.9548 28.2927L69.8842 32.0181Z" fill="black"/>
<path fill-rule="evenodd" clip-rule="evenodd" d="M77.8684 30.5218C77.8553 30.8083 77.8494 31.0746 77.8494 31.3227C77.8494 31.5701 77.8553 31.8363 77.8684 32.1229C77.8873 32.6503 78.048 33.0769 78.3505 33.4049C78.6531 33.7313 79.088 33.8946 79.6545 33.8946C79.96 33.8946 80.2182 33.8568 80.4284 33.7807C80.6385 33.7045 80.8116 33.6058 80.9484 33.4854C81.0858 33.365 81.1905 33.2271 81.264 33.0711C81.3374 32.9151 81.3934 32.7577 81.4305 32.5988C81.4436 32.5299 81.4756 32.477 81.5265 32.4414C81.5782 32.4073 81.6284 32.3892 81.6793 32.3892H82.1193C82.176 32.3892 82.2254 32.4109 82.2669 32.4516C82.3076 32.4929 82.3294 32.5415 82.3294 32.5988C82.3229 32.8085 82.2684 33.0378 82.1665 33.2851C82.0647 33.5325 81.9076 33.7669 81.6938 33.9852C81.4807 34.2043 81.2065 34.3872 80.8727 34.533C80.5382 34.6788 80.1324 34.7521 79.6545 34.7521C79.2407 34.7521 78.8713 34.6868 78.5469 34.5569C78.2218 34.4271 77.944 34.2479 77.7105 34.0186C77.4785 33.7901 77.2989 33.5188 77.1716 33.2039C77.0436 32.8898 76.9745 32.5451 76.9614 32.1701C76.9425 31.6049 76.9425 31.0398 76.9614 30.4746C76.9745 30.106 77.0436 29.7629 77.1716 29.4459C77.2989 29.1281 77.4785 28.8546 77.7105 28.626C77.944 28.3968 78.2218 28.2176 78.5469 28.0877C78.8713 27.9579 79.2407 27.8926 79.6545 27.8926C80.1324 27.8926 80.5382 27.9659 80.8727 28.1117C81.2065 28.2575 81.4807 28.4403 81.6938 28.6594C81.9076 28.8785 82.0647 29.1121 82.1665 29.3595C82.2684 29.6069 82.3229 29.8362 82.3294 30.0458C82.3294 30.1031 82.3076 30.1518 82.2669 30.1931C82.2254 30.2345 82.176 30.2555 82.1193 30.2555H81.6793C81.6284 30.2555 81.5782 30.2374 81.5265 30.2033C81.4756 30.1684 81.4436 30.1155 81.4305 30.0458C81.3934 29.887 81.3374 29.7295 81.264 29.5735C81.1905 29.4183 81.0858 29.2804 80.9484 29.1593C80.8116 29.0389 80.6385 28.9402 80.4284 28.864C80.2182 28.7878 79.96 28.7501 79.6545 28.7501C79.088 28.7501 78.6531 28.9133 78.3505 29.2405C78.048 29.5677 77.8873 29.9943 77.8684 30.5218Z" fill="black"/>
<path fill-rule="evenodd" clip-rule="evenodd" d="M87.7073 32.8279C87.7073 32.9803 87.6942 33.1515 87.6687 33.3423C87.6433 33.5331 87.5858 33.6854 87.4971 33.8001H90.3429V28.8457H87.7073V32.8279ZM86.7995 28.2449C86.7995 28.1752 86.825 28.115 86.8759 28.0642C86.9268 28.0127 86.9872 27.9873 87.057 27.9873H90.993C91.0621 27.9873 91.1232 28.0127 91.1741 28.0642C91.225 28.115 91.2505 28.1752 91.2505 28.2449V33.7999H91.4701C91.5406 33.7999 91.601 33.8253 91.6519 33.8754C91.7021 33.9269 91.7275 33.9871 91.7275 34.0568V35.4475C91.7275 35.5179 91.7021 35.5781 91.6519 35.6289C91.601 35.6797 91.5406 35.7051 91.4701 35.7051H91.0788C91.0083 35.7051 90.9479 35.6797 90.897 35.6289C90.8461 35.5781 90.8206 35.5179 90.8206 35.4475V34.6567H86.5326V35.4475C86.5326 35.5179 86.5072 35.5781 86.4555 35.6289C86.4046 35.6797 86.3443 35.7051 86.2737 35.7051H85.8825C85.8126 35.7051 85.7523 35.6797 85.7014 35.6289C85.6505 35.5781 85.625 35.5179 85.625 35.4475V34.0568C85.625 33.9871 85.6505 33.9269 85.7014 33.8754C85.7523 33.8253 85.8126 33.7999 85.8825 33.7999H86.0352C86.169 33.7999 86.2854 33.7818 86.3843 33.7477C86.4825 33.7129 86.5625 33.6519 86.6228 33.5663C86.6832 33.48 86.7275 33.3646 86.7566 33.2181C86.785 33.0723 86.7995 32.888 86.7995 32.6653V28.2449Z" fill="black"/>
<path fill-rule="evenodd" clip-rule="evenodd" d="M97.2146 30.5216C97.2016 30.2235 97.1528 29.963 97.067 29.741C96.9812 29.5183 96.8612 29.334 96.7085 29.1882C96.5557 29.0424 96.3761 28.9328 96.1688 28.8595C95.9616 28.7863 95.7346 28.75 95.4859 28.75C95.2372 28.75 95.0103 28.7863 94.803 28.8595C94.5957 28.9328 94.4161 29.0424 94.2634 29.1882C94.1099 29.334 93.9892 29.5183 93.8997 29.741C93.811 29.963 93.7637 30.2235 93.7572 30.5216C93.7448 30.8082 93.7383 31.0745 93.7383 31.3226C93.7383 31.57 93.7448 31.8362 93.7572 32.1228C93.7637 32.421 93.811 32.6822 93.8997 32.9042C93.9892 33.1262 94.1099 33.3104 94.2634 33.457C94.4161 33.6028 94.5957 33.7124 94.803 33.7849C95.0103 33.8589 95.2372 33.8945 95.4859 33.8945C95.7346 33.8945 95.9616 33.8589 96.1688 33.7849C96.3761 33.7124 96.5557 33.6028 96.7085 33.457C96.8612 33.3104 96.9812 33.1262 97.067 32.9042C97.1528 32.6822 97.2016 32.421 97.2146 32.1228C97.2277 31.8362 97.2336 31.57 97.2336 31.3226C97.2336 31.0745 97.2277 30.8082 97.2146 30.5216ZM92.8491 30.4746C92.8557 30.1184 92.9175 29.7832 93.0353 29.4691C93.1531 29.1549 93.3233 28.8814 93.5466 28.65C93.7699 28.4186 94.0433 28.2343 94.3677 28.0972C94.6928 27.9608 95.0651 27.8926 95.4855 27.8926C95.9059 27.8926 96.2782 27.9608 96.6026 28.0972C96.9277 28.2343 97.2011 28.4186 97.4244 28.65C97.6477 28.8814 97.8171 29.1549 97.935 29.4691C98.0528 29.7832 98.1153 30.1184 98.1219 30.4746C98.1408 31.0398 98.1408 31.6049 98.1219 32.1701C98.1088 32.5263 98.0441 32.8615 97.9262 33.1756C97.8077 33.4905 97.6375 33.7647 97.4142 33.9998C97.1924 34.2348 96.9197 34.4191 96.5982 34.5526C96.2768 34.6853 95.9059 34.7521 95.4855 34.7521C95.0651 34.7521 94.6942 34.6853 94.3728 34.5526C94.0506 34.4191 93.7786 34.2348 93.5561 33.9998C93.3328 33.7647 93.1633 33.4905 93.0455 33.1756C92.927 32.8615 92.8622 32.5263 92.8491 32.1701C92.8302 31.6049 92.8302 31.0398 92.8491 30.4746Z" fill="black"/>
<path fill-rule="evenodd" clip-rule="evenodd" d="M102.635 32.0181L104.565 28.2927C104.603 28.2166 104.656 28.1462 104.722 28.0831C104.789 28.0192 104.877 27.9873 104.985 27.9873H105.348C105.418 27.9873 105.478 28.0127 105.529 28.0642C105.581 28.115 105.606 28.1752 105.606 28.2449V34.3999C105.606 34.4703 105.581 34.5305 105.529 34.5806C105.478 34.6321 105.418 34.6575 105.348 34.6575H104.956C104.886 34.6575 104.826 34.6321 104.775 34.5806C104.724 34.5305 104.698 34.4703 104.698 34.3999V29.8837L103.208 32.7516C103.157 32.8474 103.104 32.9214 103.046 32.975C102.989 33.0302 102.912 33.057 102.817 33.057H102.454C102.358 33.057 102.282 33.0302 102.225 32.975C102.167 32.9214 102.113 32.8474 102.062 32.7516L100.572 29.8837V34.3999C100.572 34.4703 100.546 34.5305 100.496 34.5806C100.445 34.6321 100.384 34.6575 100.314 34.6575H99.9232C99.8527 34.6575 99.7923 34.6321 99.7414 34.5806C99.6905 34.5305 99.665 34.4703 99.665 34.3999V28.2449C99.665 28.1752 99.6905 28.115 99.7414 28.0642C99.7923 28.0127 99.8527 27.9873 99.9232 27.9873H100.286C100.394 27.9873 100.482 28.0192 100.549 28.0831C100.616 28.1462 100.668 28.2166 100.706 28.2927L102.635 32.0181Z" fill="black"/>
<path fill-rule="evenodd" clip-rule="evenodd" d="M111.514 30.5216C111.5 30.2235 111.452 29.963 111.366 29.741C111.28 29.5183 111.161 29.334 111.008 29.1882C110.855 29.0424 110.675 28.9328 110.468 28.8595C110.26 28.7863 110.033 28.75 109.785 28.75C109.537 28.75 109.309 28.7863 109.103 28.8595C108.895 28.9328 108.715 29.0424 108.562 29.1882C108.409 29.334 108.288 29.5183 108.199 29.741C108.11 29.963 108.063 30.2235 108.056 30.5216C108.044 30.8082 108.037 31.0745 108.037 31.3226C108.037 31.57 108.044 31.8362 108.056 32.1228C108.063 32.421 108.11 32.6822 108.199 32.9042C108.288 33.1262 108.409 33.3104 108.562 33.457C108.715 33.6028 108.895 33.7124 109.103 33.7849C109.309 33.8589 109.537 33.8945 109.785 33.8945C110.033 33.8945 110.26 33.8589 110.468 33.7849C110.675 33.7124 110.855 33.6028 111.008 33.457C111.161 33.3104 111.28 33.1262 111.366 32.9042C111.452 32.6822 111.5 32.421 111.514 32.1228C111.527 31.8362 111.532 31.57 111.532 31.3226C111.532 31.0745 111.527 30.8082 111.514 30.5216ZM107.149 30.4746C107.155 30.1184 107.217 29.7832 107.335 29.4691C107.453 29.1549 107.622 28.8814 107.846 28.65C108.069 28.4186 108.343 28.2343 108.667 28.0972C108.992 27.9608 109.365 27.8926 109.785 27.8926C110.205 27.8926 110.578 27.9608 110.902 28.0972C111.227 28.2343 111.5 28.4186 111.723 28.65C111.947 28.8814 112.117 29.1549 112.235 29.4691C112.353 29.7832 112.414 30.1184 112.421 30.4746C112.44 31.0398 112.44 31.6049 112.421 32.1701C112.408 32.5263 112.343 32.8615 112.225 33.1756C112.107 33.4905 111.937 33.7647 111.714 33.9998C111.491 34.2348 111.219 34.4191 110.897 34.5526C110.576 34.6853 110.205 34.7521 109.785 34.7521C109.365 34.7521 108.993 34.6853 108.673 34.5526C108.35 34.4191 108.078 34.2348 107.856 33.9998C107.633 33.7647 107.462 33.4905 107.345 33.1756C107.226 32.8615 107.162 32.5263 107.149 32.1701C107.13 31.6049 107.13 31.0398 107.149 30.4746Z" fill="black"/>
<path fill-rule="evenodd" clip-rule="evenodd" d="M116.936 32.0181L118.864 28.2927C118.903 28.2166 118.955 28.1462 119.022 28.0831C119.089 28.0192 119.176 27.9873 119.285 27.9873H119.648C119.718 27.9873 119.779 28.0127 119.83 28.0642C119.88 28.115 119.906 28.1752 119.906 28.2449V34.3999C119.906 34.4703 119.88 34.5305 119.83 34.5806C119.779 34.6321 119.718 34.6575 119.648 34.6575H119.256C119.187 34.6575 119.126 34.6321 119.075 34.5806C119.024 34.5305 118.999 34.4703 118.999 34.3999V29.8837L117.509 32.7516C117.458 32.8474 117.404 32.9214 117.346 32.975C117.288 33.0302 117.213 33.057 117.117 33.057H116.754C116.659 33.057 116.582 33.0302 116.525 32.975C116.467 32.9214 116.413 32.8474 116.363 32.7516L114.872 29.8837V34.3999C114.872 34.4703 114.847 34.5305 114.796 34.5806C114.744 34.6321 114.684 34.6575 114.615 34.6575H114.223C114.153 34.6575 114.093 34.6321 114.042 34.5806C113.99 34.5305 113.965 34.4703 113.965 34.3999V28.2449C113.965 28.1752 113.99 28.115 114.042 28.0642C114.093 28.0127 114.153 27.9873 114.223 27.9873H114.586C114.694 27.9873 114.782 28.0192 114.848 28.0831C114.915 28.1462 114.968 28.2166 115.006 28.2927L116.936 32.0181Z" fill="black"/>
</svg>
