<svg width="120" height="37" fill="none" xmlns="http://www.w3.org/2000/svg"><path d="M0 0h120v37H0z"/><path fill-rule="evenodd" clip-rule="evenodd" d="M57.526 5.749l-3.079.002V3.598h3.079a1.071 1.071 0 011.078 1.076 1.078 1.078 0 01-1.078 1.075zm0-5.467h-5.835a.57.57 0 00-.568.566v13.113c0 .31.257.566.568.566l2.19.001a.57.57 0 00.566-.567V9.064h3.079c2.237 0 4.34-1.686 4.402-4.39.05-2.15-1.77-4.392-4.402-4.392zm62.41 2.722V.82a.57.57 0 00-.565-.566h-7.835a.57.57 0 00-.567.566l-.001 13.141c0 .31.257.566.567.566h7.833a.57.57 0 00.567-.566v-2.184a.57.57 0 00-.567-.566h-5.076V9.064h3.443a.57.57 0 00.567-.566V6.314a.569.569 0 00-.565-.566h-3.445l-.001-2.179h5.077a.57.57 0 00.568-.565z" fill="#000"/><path fill-rule="evenodd" clip-rule="evenodd" d="M7.42 11.33a3.932 3.932 0 01-3.937-3.928A3.932 3.932 0 017.42 3.476a3.932 3.932 0 013.937 3.926A3.932 3.932 0 017.42 11.33zM7.42 0C3.322 0 0 3.314 0 7.402c0 4.089 3.322 7.403 7.42 7.403s7.42-3.314 7.42-7.403C14.84 3.314 11.519 0 7.42 0zm21.523.258h-7.852a.57.57 0 00-.568.566v13.135c0 .31.256.566.568.566h2.189a.57.57 0 00.568-.566V9.063h3.442a.57.57 0 00.567-.567V6.313a.57.57 0 00-.567-.567l-3.442-.002v-2.17h5.095a.57.57 0 00.567-.567V.824a.57.57 0 00-.567-.566zm14.975 0h-7.852a.57.57 0 00-.567.566l-.001 13.135c0 .31.257.566.568.566h2.188a.57.57 0 00.568-.566V9.063h3.443a.57.57 0 00.568-.567V6.313a.57.57 0 00-.568-.567l-3.443-.002v-2.17h5.096a.57.57 0 00.568-.567V.824a.57.57 0 00-.568-.566z" fill="#EC1409"/><path fill-rule="evenodd" clip-rule="evenodd" d="M103.815.28h-.965a7.12 7.12 0 00-7.137 7.119c-.005 3.775 3.044 7.119 7.137 7.119h.893a.57.57 0 00.568-.566v-2.184a.57.57 0 00-.566-.566h-.895A3.79 3.79 0 0199.037 7.4c-.01-1.897 1.561-3.804 3.813-3.804h.893a.57.57 0 00.568-.566V.83c0-.28-.219-.55-.496-.55zM88.757.276h-2.189A.57.57 0 0086 .842v13.156c0 .289.27.518.564.518h2.193a.57.57 0 00.567-.566V.842a.57.57 0 00-.567-.566zM71.03 3.585h3.079a1.07 1.07 0 011.078 1.075 1.078 1.078 0 01-1.078 1.076l-3.079.002V3.585zm3.745 5.416c1.972-.298 3.68-1.907 3.736-4.34.05-2.149-1.77-4.391-4.402-4.391h-5.836a.57.57 0 00-.567.565v13.113c0 .31.257.566.567.566h2.19a.57.57 0 00.567-.566V9.414l3.967 4.905a.63.63 0 00.47.193l2.766.001c.445 0 .62-.537.336-.82L74.775 9zM2.178 32.295h2.646l-1.318-3.401-1.328 3.4zm2.98.857H1.844l-.498 1.267a.485.485 0 01-.105.158c-.05.054-.14.08-.267.08H.62a.202.202 0 01-.147-.061.203.203 0 01-.063-.148.36.36 0 01.039-.134l2.34-6.012c.031-.07.08-.14.143-.21.064-.07.159-.105.287-.105h.573c.127 0 .223.036.287.106.063.07.11.139.143.21l2.33 6.011a.362.362 0 01.039.134.203.203 0 01-.063.148.202.202 0 01-.148.062h-.353c-.127 0-.217-.027-.268-.081a.485.485 0 01-.104-.157l-.497-1.268zm2.244-4.812a.31.31 0 01-.048-.142c0-.057.02-.107.062-.147a.2.2 0 01.148-.063h.41c.128 0 .219.026.273.076a.706.706 0 01.129.162l1.72 3.306 1.728-3.306a.692.692 0 01.129-.162c.054-.05.145-.076.272-.076h.41c.058 0 .107.02.149.063.042.04.062.09.062.147a.313.313 0 01-.048.143l-2.292 4.383c-.121.222-.247.449-.377.68-.13.233-.277.44-.44.625a2.225 2.225 0 01-.544.452 1.32 1.32 0 01-.683.177h-.497a.248.248 0 01-.181-.077.246.246 0 01-.077-.18v-.343c0-.07.026-.13.077-.182a.25.25 0 01.181-.076h.41a.618.618 0 00.355-.11c.107-.073.21-.17.305-.295.095-.124.188-.262.277-.414.089-.152.178-.311.267-.477l-2.177-4.163zm11.055-.352c.07 0 .131.026.182.076.05.052.076.112.076.181v.343a.25.25 0 01-.076.182.25.25 0 01-.182.076h-1.786v5.555c0 .07-.026.13-.076.18a.248.248 0 01-.182.077h-.392a.248.248 0 01-.18-.077.244.244 0 01-.077-.18v-5.555h-1.786a.249.249 0 01-.182-.076.247.247 0 01-.076-.182v-.343c0-.069.025-.129.076-.18a.248.248 0 01.182-.077h4.48zm1.872.076a.248.248 0 01.181-.076h3.955c.07 0 .13.026.181.076a.25.25 0 01.077.181V34.4c0 .07-.026.13-.077.18a.249.249 0 01-.181.078h-.392a.246.246 0 01-.181-.077.244.244 0 01-.077-.18v-5.555H21.16v4.097a2.3 2.3 0 01-.1.676 1.544 1.544 0 01-.865.982 1.946 1.946 0 01-.812.152h-.115a.245.245 0 01-.18-.076.247.247 0 01-.077-.182v-.342c0-.07.025-.13.076-.18a.246.246 0 01.181-.078h.077c.3 0 .525-.079.678-.238.153-.159.23-.409.23-.752v-4.66c0-.07.025-.13.076-.18zM30.596 33.8c.07 0 .13.025.181.075.05.052.076.112.076.182v.343c0 .07-.025.13-.076.18a.252.252 0 01-.181.078h-3.86a.252.252 0 01-.181-.077.247.247 0 01-.076-.181v-6.155c0-.07.026-.13.076-.18a.248.248 0 01.182-.078h3.782c.07 0 .13.026.181.077a.247.247 0 01.077.18v.343c0 .07-.026.13-.077.182a.246.246 0 01-.18.077h-3.134v2.01h2.923c.07 0 .13.025.181.076.051.05.077.111.077.18v.344a.25.25 0 01-.077.181.247.247 0 01-.18.076h-2.924V33.8h3.21zm6.035-5.812c.07 0 .13.026.182.076.05.052.076.112.076.181v.343a.25.25 0 01-.076.182.25.25 0 01-.182.076h-1.786v5.555c0 .07-.026.13-.076.18a.248.248 0 01-.182.077h-.392a.248.248 0 01-.18-.077.244.244 0 01-.077-.18v-5.555h-1.786a.249.249 0 01-.182-.076.247.247 0 01-.076-.182v-.343c0-.069.025-.129.076-.18a.248.248 0 01.182-.077h4.479zm4.919 3.221h1.71c.458 0 .813-.099 1.064-.296.252-.197.378-.499.378-.905s-.126-.702-.378-.886c-.251-.184-.606-.276-1.064-.276h-1.71v2.363zm1.758-3.22c.312 0 .606.038.883.118.277.08.52.202.73.367.211.165.378.375.503.63.124.253.186.554.186.904 0 .349-.062.652-.186.91a1.881 1.881 0 01-.502.643 2.08 2.08 0 01-.731.381 3.06 3.06 0 01-.883.124H41.55V34.4c0 .07-.025.13-.076.18a.246.246 0 01-.181.078H40.9a.249.249 0 01-.182-.077.247.247 0 01-.076-.18v-6.156c0-.07.026-.13.076-.18a.25.25 0 01.182-.077h2.407zm7.431.857h-1.615c-.458 0-.813.083-1.065.252-.251.169-.376.456-.376.862 0 .407.125.7.376.881.252.181.607.272 1.065.272h1.615v-2.267zm.649-.859c.07 0 .13.026.182.077a.25.25 0 01.076.18V34.4c0 .07-.026.13-.076.18a.246.246 0 01-.182.078h-.392a.246.246 0 01-.181-.077.244.244 0 01-.077-.181v-2.43h-1.643l-1.384 2.43a.9.9 0 01-.129.162c-.061.064-.155.096-.282.096h-.41a.205.205 0 01-.149-.062.203.203 0 01-.033-.253l1.442-2.506c-.4-.127-.73-.343-.988-.648-.259-.305-.387-.715-.387-1.23 0-.348.062-.647.186-.894.124-.248.291-.452.502-.61.21-.16.453-.277.73-.352a3.29 3.29 0 01.884-.116h2.31zm3.567 4.841c0 .152-.013.323-.038.514a.939.939 0 01-.172.458h2.847v-4.954h-2.637v3.982zm-.907-4.583c0-.07.025-.13.076-.18a.246.246 0 01.182-.078h3.935c.07 0 .13.026.181.077a.247.247 0 01.077.18V33.8h.22c.07 0 .13.025.181.075a.25.25 0 01.076.182v1.39c0 .07-.025.131-.076.182a.248.248 0 01-.182.076h-.391a.25.25 0 01-.182-.076.247.247 0 01-.076-.181v-.791H53.78v.79a.25.25 0 01-.077.182.248.248 0 01-.181.076h-.392a.248.248 0 01-.182-.076.247.247 0 01-.076-.181v-1.391c0-.07.026-.13.076-.182a.25.25 0 01.182-.075h.153c.133 0 .25-.018.348-.052a.485.485 0 00.239-.182.905.905 0 00.134-.348c.028-.146.043-.33.043-.553v-4.42zm10.415 2.277a2.446 2.446 0 00-.148-.781 1.493 1.493 0 00-.358-.553 1.497 1.497 0 00-.54-.328 2.038 2.038 0 00-.682-.11 2.01 2.01 0 00-.683.11 1.491 1.491 0 00-.54.328c-.153.146-.274.33-.364.553a2.215 2.215 0 00-.142.78c-.013.287-.02.553-.02.802 0 .247.007.513.02.8.006.298.054.56.142.781.09.222.21.406.364.553.153.146.332.255.54.328.206.074.434.11.683.11.248 0 .475-.036.683-.11.206-.073.386-.182.54-.328a1.51 1.51 0 00.357-.553 2.45 2.45 0 00.148-.781c.013-.287.02-.553.02-.8 0-.248-.007-.515-.02-.801zm-4.365-.047a2.98 2.98 0 01.186-1.006 2.348 2.348 0 011.332-1.372 2.867 2.867 0 011.118-.204c.42 0 .793.068 1.118.204.325.137.598.322.821.553.223.231.393.505.511.82a3 3 0 01.187 1.005c.019.565.019 1.13 0 1.695a3.177 3.177 0 01-.197 1.006 2.343 2.343 0 01-1.327 1.377 2.9 2.9 0 01-1.113.2c-.42 0-.79-.068-1.112-.2a2.342 2.342 0 01-1.328-1.377 3.176 3.176 0 01-.196-1.006 25.357 25.357 0 010-1.695zm9.786 1.543l1.93-3.725a.758.758 0 01.158-.21.363.363 0 01.262-.096h.363c.07 0 .13.026.181.077a.246.246 0 01.076.18V34.4c0 .07-.025.13-.076.18a.246.246 0 01-.181.078h-.392a.246.246 0 01-.181-.077.244.244 0 01-.076-.181v-4.516l-1.49 2.868a.845.845 0 01-.163.223.317.317 0 01-.229.082h-.364a.317.317 0 01-.229-.082.845.845 0 01-.162-.223l-1.49-2.868V34.4c0 .07-.025.13-.076.18a.246.246 0 01-.181.078h-.392a.246.246 0 01-.182-.077.244.244 0 01-.076-.181v-6.155c0-.07.025-.13.076-.18a.246.246 0 01.181-.078h.363c.109 0 .197.032.263.096a.76.76 0 01.158.21l1.93 3.725zm7.984-1.496a17.536 17.536 0 000 1.6c.02.528.18.955.483 1.283.302.326.737.49 1.303.49.306 0 .564-.038.774-.114.21-.076.384-.175.52-.296.138-.12.243-.258.316-.414a2.33 2.33 0 00.166-.472.237.237 0 01.096-.158.277.277 0 01.153-.052h.44c.057 0 .106.022.148.063.04.04.062.09.062.147a1.98 1.98 0 01-.162.686 2.198 2.198 0 01-.473.7c-.213.22-.487.402-.821.548-.335.146-.74.22-1.219.22a2.96 2.96 0 01-1.107-.196 2.381 2.381 0 01-1.375-1.353 2.996 2.996 0 01-.21-1.034 25.357 25.357 0 010-1.695 3.02 3.02 0 01.21-1.03 2.376 2.376 0 011.375-1.357c.324-.13.694-.195 1.108-.195.477 0 .883.073 1.218.219.334.146.608.328.82.547.215.22.372.453.474.7.101.248.156.477.162.687a.203.203 0 01-.062.147.203.203 0 01-.148.063h-.44a.277.277 0 01-.153-.053.234.234 0 01-.096-.157 2.383 2.383 0 00-.166-.473 1.277 1.277 0 00-.316-.414 1.603 1.603 0 00-.52-.295 2.287 2.287 0 00-.773-.114c-.567 0-1.002.163-1.305.49-.302.328-.463.754-.482 1.282zm9.839 2.306c0 .152-.013.323-.038.514a.938.938 0 01-.172.458h2.846v-4.954h-2.636v3.982zm-.907-4.583c0-.07.025-.13.076-.18a.246.246 0 01.181-.078h3.936c.07 0 .13.026.181.077a.246.246 0 01.076.18V33.8h.22c.07 0 .131.025.182.075.05.052.076.112.076.182v1.39c0 .07-.026.131-.076.182a.248.248 0 01-.182.076h-.391a.248.248 0 01-.182-.076.247.247 0 01-.076-.181v-.791h-4.288v.79c0 .07-.026.131-.078.182a.248.248 0 01-.181.076h-.392a.248.248 0 01-.18-.076.247.247 0 01-.077-.181v-1.391c0-.07.025-.13.076-.182a.25.25 0 01.181-.075h.153c.134 0 .25-.018.35-.052a.484.484 0 00.238-.182.915.915 0 00.134-.348c.028-.146.042-.33.042-.553v-4.42zm10.415 2.277a2.464 2.464 0 00-.148-.781 1.494 1.494 0 00-.358-.553 1.491 1.491 0 00-.54-.328 2.035 2.035 0 00-.683-.11c-.249 0-.476.036-.683.11a1.49 1.49 0 00-.54.328 1.54 1.54 0 00-.363.553 2.23 2.23 0 00-.143.78 19.31 19.31 0 00-.019.802c0 .247.007.513.02.8.006.298.053.56.142.781.09.222.21.406.363.553.153.146.333.255.54.328.207.074.434.11.683.11.249 0 .476-.036.683-.11.207-.073.387-.182.54-.328.152-.147.272-.33.358-.553a2.46 2.46 0 00.148-.781 17.532 17.532 0 000-1.601zm-4.366-.047a3 3 0 01.186-1.006 2.348 2.348 0 011.332-1.372 2.867 2.867 0 011.118-.204c.42 0 .793.068 1.118.204a2.34 2.34 0 011.332 1.373 3 3 0 01.187 1.005c.019.565.019 1.13 0 1.695a3.174 3.174 0 01-.196 1.006 2.34 2.34 0 01-1.328 1.377c-.321.132-.692.2-1.112.2-.42 0-.792-.068-1.113-.2a2.342 2.342 0 01-1.328-1.377 3.158 3.158 0 01-.196-1.006 25.357 25.357 0 010-1.695zm9.786 1.543l1.93-3.725a.762.762 0 01.157-.21.366.366 0 01.263-.096h.363c.07 0 .13.026.181.077a.243.243 0 01.077.18V34.4a.24.24 0 01-.077.18.245.245 0 01-.181.078h-.392a.245.245 0 01-.181-.077.245.245 0 01-.077-.181v-4.516l-1.49 2.868a.834.834 0 01-.162.223.316.316 0 01-.229.082h-.363a.314.314 0 01-.229-.082.835.835 0 01-.163-.223l-1.49-2.868V34.4c0 .07-.026.13-.076.18a.248.248 0 01-.182.078h-.39a.246.246 0 01-.183-.077.244.244 0 01-.076-.181v-6.155c0-.07.025-.13.076-.18a.246.246 0 01.182-.078h.363c.108 0 .196.032.263.096a.743.743 0 01.157.21l1.929 3.725zm8.879-1.496a2.486 2.486 0 00-.148-.781 1.492 1.492 0 00-.358-.553 1.497 1.497 0 00-.54-.328 2.042 2.042 0 00-.683-.11c-.248 0-.476.036-.682.11a1.492 1.492 0 00-.541.328 1.54 1.54 0 00-.363.553 2.235 2.235 0 00-.143.78 19.31 19.31 0 00-.019.802c0 .247.007.513.019.8.007.298.054.56.143.781.089.222.21.406.363.553.153.146.333.255.541.328.206.074.434.11.682.11.248 0 .475-.036.683-.11.207-.073.387-.182.54-.328a1.5 1.5 0 00.358-.553 2.49 2.49 0 00.148-.781 17.605 17.605 0 000-1.601zm-4.365-.047a2.98 2.98 0 01.186-1.006c.118-.314.287-.588.511-.819a2.45 2.45 0 01.821-.553 2.87 2.87 0 011.118-.204c.42 0 .793.068 1.117.204a2.343 2.343 0 011.333 1.373c.118.313.179.648.186 1.005.019.565.019 1.13 0 1.695a3.168 3.168 0 01-.196 1.006 2.419 2.419 0 01-.511.824 2.35 2.35 0 01-.817.553c-.321.132-.692.2-1.112.2a2.89 2.89 0 01-1.112-.2 2.331 2.331 0 01-1.328-1.377 3.14 3.14 0 01-.196-1.006 25.224 25.224 0 010-1.695zm9.787 1.543l1.928-3.725a.766.766 0 01.158-.21.364.364 0 01.263-.096h.363a.25.25 0 01.182.077.25.25 0 01.076.18V34.4c0 .07-.026.13-.076.18a.248.248 0 01-.182.078h-.392a.247.247 0 01-.181-.077.244.244 0 01-.076-.181v-4.516l-1.49 2.868a.835.835 0 01-.163.223.316.316 0 01-.229.082h-.363a.316.316 0 01-.229-.082.813.813 0 01-.162-.223l-1.491-2.868V34.4c0 .07-.025.13-.076.18a.249.249 0 01-.181.078h-.392a.245.245 0 01-.181-.077.24.24 0 01-.077-.181v-6.155c0-.07.025-.13.077-.18a.245.245 0 01.181-.078h.363c.108 0 .196.032.262.096.067.063.12.134.158.21l1.93 3.725z" fill="#000"/></svg>