<svg xmlns="http://www.w3.org/2000/svg" height="95.76" width="324.093"><g fill-rule="evenodd"><path d="M224.16 7.73h3.456v36.402a5.589 5.589 0 00-1.837-.315 5.33 5.33 0 00-1.619.241zm3.456 46.663v36.4h-3.456V54.467a5.33 5.33 0 001.619.242 5.67 5.67 0 001.837-.315m-1.792-9.853c2.62 0 4.747 2.116 4.747 4.724 0 2.609-2.127 4.722-4.747 4.722-2.624 0-4.748-2.113-4.748-4.722 0-2.608 2.124-4.724 4.748-4.724m-99.179 25.112V51.755h-6.717v-2.38h16.139v2.38h-6.718v17.898zm12.206 0V49.375h7.696c1.35 0 2.385.065 3.101.195 1 .163 1.84.48 2.519.945.68.464 1.225 1.117 1.638 1.95.412.837.615 1.756.615 2.764 0 1.717-.55 3.174-1.655 4.363-1.1 1.195-3.097 1.79-5.981 1.79h-5.23v8.271zm2.704-10.65h5.266c1.746 0 2.98-.322 3.715-.968.73-.646 1.095-1.552 1.095-2.727 0-.847-.212-1.571-.644-2.176a3.013 3.013 0 00-1.704-1.197c-.456-.12-1.295-.18-2.514-.18h-5.214zm16.338 10.65V49.375h14.718v2.38h-12.015v6.23h11.245v2.377h-11.245v6.911h12.5v2.38zm18.987-20.278h2.448v16.054l10.848-16.054h2.672v20.278H190.4V53.637l-10.823 16.016h-2.697zm10.161-4.869h1.708c-.137 1.167-.565 2.062-1.276 2.684-.713.628-1.656.941-2.838.941-1.186 0-2.134-.313-2.842-.93-.705-.625-1.132-1.52-1.27-2.695h1.708c.128.637.388 1.114.773 1.424.384.315.907.472 1.556.472.753 0 1.324-.15 1.708-.46.384-.3.645-.78.773-1.436zm12.091 4.869h12.412v17.898h1.823v7.107h-2.392v-4.727h-13.492v4.727h-2.391v-7.107h1.567c1.648-2.466 2.473-7.445 2.473-14.932zm9.707 2.38h-7.115v1.036c0 1.727-.157 4.094-.47 7.089-.31 2.999-.925 5.463-1.835 7.393h9.42V51.755" fill="#328ad2"/><path d="M.037 74.661h12.874v16.313h-2.176v-14.4h-8.52v14.4H.036zm15.435 10.401c0-2.185.611-3.8 1.836-4.854 1.02-.873 2.268-1.308 3.738-1.308 1.629 0 2.964.53 4.003 1.593 1.035 1.059 1.555 2.529 1.555 4.402 0 1.519-.229 2.711-.688 3.579a4.87 4.87 0 01-2.005 2.03c-.872.48-1.83.721-2.865.721-1.665 0-3.009-.528-4.035-1.587-1.029-1.059-1.54-2.586-1.54-4.576zm2.061.003c0 1.51.334 2.643.998 3.39.667.753 1.501 1.128 2.515 1.128 1 0 1.832-.375 2.499-1.13.664-.756.998-1.907.998-3.453 0-1.458-.337-2.561-1.004-3.311-.669-.75-1.5-1.125-2.493-1.125-1.014 0-1.848.37-2.515 1.117-.664.748-.998 1.878-.998 3.384zm11.41-5.917h2.016v5.104c.642 0 1.092-.122 1.351-.367.256-.243.633-.953 1.138-2.134.397-.935.719-1.55.963-1.848.248-.297.53-.497.852-.599.322-.102.838-.156 1.545-.156h.403v1.654l-.56-.012c-.531 0-.872.08-1.02.236-.154.161-.398.648-.716 1.458-.306.773-.585 1.31-.84 1.606-.254.295-.647.563-1.177.813.866.232 1.722 1.031 2.56 2.405l2.212 3.666h-2.214l-2.18-3.653c-.44-.74-.819-1.225-1.145-1.462a1.966 1.966 0 00-1.172-.354v5.469h-2.015zm10.21 16.372l-.229-1.854c.442.117.824.179 1.152.179.45 0 .808-.075 1.078-.223a1.82 1.82 0 00.663-.625c.126-.199.331-.698.615-1.495.038-.112.094-.273.179-.492l-4.513-11.862h2.153l2.482 6.828c.324.86.61 1.774.867 2.73.232-.9.507-1.787.828-2.66l2.534-6.898h2.013L44.48 91.179c-.485 1.296-.862 2.183-1.133 2.675-.358.653-.77 1.14-1.231 1.445-.467.31-1.02.461-1.661.461-.39 0-.826-.082-1.302-.24zm11.542-16.372h9.392v11.826h-2.015V80.81H52.71v10.163h-2.015zm20.168 10.346c-.748.633-1.47 1.077-2.161 1.337a6.21 6.21 0 01-2.225.394c-1.306 0-2.31-.314-3.013-.95-.703-.63-1.054-1.438-1.054-2.42 0-.582.135-1.108.397-1.585.27-.481.616-.86 1.043-1.148a4.87 4.87 0 011.45-.656c.398-.104.998-.203 1.795-.302 1.626-.19 2.83-.42 3.596-.685.008-.275.01-.45.01-.521 0-.814-.19-1.385-.572-1.72-.514-.452-1.282-.674-2.297-.674-.951 0-1.654.165-2.104.495-.454.329-.785.915-1.004 1.756l-1.97-.271c.18-.839.474-1.518.885-2.035.415-.517 1.008-.91 1.787-1.192.776-.278 1.68-.417 2.704-.417 1.015 0 1.844.118 2.48.355.635.24 1.105.534 1.401.896.3.359.509.817.631 1.368.063.34.099.956.099 1.843v2.656c0 1.858.041 3.031.126 3.528.08.498.25.972.491 1.428h-2.106c-.204-.42-.332-.915-.389-1.48zM70.7 85.05c-.731.297-1.83.547-3.296.754-.832.116-1.421.251-1.764.397a1.795 1.795 0 00-.795.645 1.702 1.702 0 00-.281.953c0 .526.2.969.608 1.324.411.352 1.005.531 1.788.531.776 0 1.465-.167 2.072-.506.604-.335 1.05-.794 1.335-1.374.216-.452.323-1.115.323-1.992zm5.135-5.901h2.014v9.02l5.604-9.02h2.163v11.826H83.6v-8.961l-5.594 8.96h-2.172zm6.964-4.375h1.373c-.11.94-.454 1.659-1.026 2.162-.57.507-1.331.755-2.283.755-.955 0-1.718-.248-2.286-.748-.57-.5-.913-1.222-1.024-2.169h1.374c.104.513.313.896.623 1.148.309.255.73.38 1.252.38.607 0 1.065-.122 1.375-.37.308-.241.518-.63.622-1.158zm12.195 4.375h4.639c1.137 0 1.984.096 2.542.284.554.192 1.03.536 1.427 1.042.402.507.6 1.111.6 1.817 0 .57-.117 1.062-.35 1.48a2.845 2.845 0 01-1.062 1.055 2.77 2.77 0 011.39 1.042c.365.501.549 1.108.549 1.803-.073 1.12-.476 1.953-1.206 2.49-.73.544-1.79.813-3.18.813h-5.349zm2.015 4.991h2.14c.851 0 1.438-.046 1.755-.133.32-.09.606-.268.86-.543a1.38 1.38 0 00.378-.975c0-.63-.223-1.06-.662-1.309-.444-.244-1.199-.368-2.269-.368H97.01zm0 5.197h2.645c1.138 0 1.922-.136 2.345-.399.424-.263.647-.716.668-1.367 0-.375-.121-.728-.366-1.05a1.616 1.616 0 00-.96-.614c-.396-.084-1.028-.125-1.9-.125H97.01zm17.66-2.69l1.97.273c-.218 1.346-.768 2.4-1.657 3.162-.888.765-1.984 1.144-3.278 1.144-1.623 0-2.928-.528-3.912-1.585-.992-1.054-1.484-2.566-1.484-4.532 0-1.278.215-2.388.639-3.345.423-.956 1.07-1.672 1.938-2.148a5.772 5.772 0 012.834-.715c1.286 0 2.342.323 3.16.968.82.65 1.348 1.574 1.577 2.769l-1.948.295c-.187-.795-.515-1.39-.992-1.793-.474-.4-1.046-.6-1.72-.6-1.014 0-1.837.359-2.475 1.08-.632.728-.951 1.865-.951 3.43 0 1.586.305 2.741.916 3.456.617.719 1.412 1.078 2.394 1.078.794 0 1.455-.238 1.981-.721.531-.48.868-1.218 1.007-2.217zm11.795.501l2.085.273c-.326 1.202-.933 2.142-1.817 2.806-.886.664-2.015 1-3.394 1-1.732 0-3.107-.534-4.122-1.595-1.015-1.061-1.524-2.555-1.524-4.47 0-1.983.513-3.523 1.539-4.62 1.026-1.096 2.36-1.641 3.995-1.641 1.584 0 2.88.532 3.884 1.609 1.004 1.074 1.508 2.587 1.508 4.532 0 .12-.004.299-.012.534h-8.853c.078 1.292.443 2.288 1.109 2.98.659.683 1.486 1.028 2.476 1.028.737 0 1.366-.191 1.886-.58.523-.386.936-1.003 1.24-1.856zm-6.595-3.213h6.618c-.086-.995-.342-1.74-.759-2.237-.637-.773-1.47-1.158-2.488-1.158-.924 0-1.699.307-2.33.922-.625.617-.974 1.441-1.041 2.473zm.091-6.244v-2.28h2.107v2.28zm4.167 0v-2.28h2.11v2.28zm12.574 7.372c0-2.185.612-3.8 1.838-4.854 1.018-.873 2.268-1.308 3.737-1.308 1.628 0 2.967.53 4.004 1.593 1.033 1.059 1.553 2.529 1.553 4.402 0 1.519-.228 2.711-.686 3.579a4.871 4.871 0 01-2.006 2.03c-.872.48-1.83.721-2.865.721-1.664 0-3.008-.528-4.035-1.587-1.028-1.059-1.54-2.586-1.54-4.576zm2.064.003c0 1.51.332 2.643.995 3.39.67.753 1.505 1.128 2.516 1.128 1 0 1.832-.375 2.5-1.13.665-.756.997-1.907.997-3.453 0-1.458-.336-2.561-1.005-3.311-.667-.75-1.499-1.125-2.492-1.125-1.01 0-1.847.37-2.516 1.117-.663.748-.995 1.878-.995 3.384zm11.434-5.917h2.014v4.92h5.59v-4.92h2.014v11.826h-2.014v-5.241h-5.59v5.24H150.2zm13.632 0h9.364v11.815h-2.015V80.811h-5.336v5.884c0 1.37-.045 2.273-.133 2.713-.094.438-.335.818-.738 1.145-.404.327-.984.49-1.744.49-.469 0-1.01-.033-1.621-.088v-1.669h.881c.416 0 .714-.039.894-.127a.66.66 0 00.357-.406c.059-.186.09-.79.09-1.81zm20.142 10.346c-.75.633-1.469 1.077-2.161 1.337a6.219 6.219 0 01-2.224.394c-1.307 0-2.31-.314-3.013-.95-.703-.63-1.055-1.438-1.055-2.42a3.28 3.28 0 011.44-2.733c.43-.29.912-.51 1.45-.656.398-.104.995-.203 1.795-.302 1.627-.19 2.828-.42 3.595-.685.01-.275.012-.45.012-.521 0-.814-.19-1.385-.573-1.72-.515-.452-1.284-.674-2.298-.674-.949 0-1.653.165-2.104.495-.452.329-.784.915-1.004 1.756l-1.968-.271c.179-.839.474-1.518.887-2.035.41-.517 1.005-.91 1.785-1.192.775-.278 1.679-.417 2.702-.417 1.016 0 1.846.118 2.484.355.632.24 1.102.534 1.398.896.298.359.508.817.631 1.368.065.34.099.956.099 1.843v2.656c0 1.858.041 3.031.126 3.528a4.5 4.5 0 00.491 1.428h-2.107c-.202-.42-.33-.915-.388-1.48zm-.161-4.445c-.732.297-1.832.547-3.3.754-.828.116-1.419.251-1.76.397a1.79 1.79 0 00-.796.645 1.705 1.705 0 00-.283.953c0 .526.203.969.61 1.324.412.352 1.005.531 1.789.531.773 0 1.465-.167 2.072-.506.605-.335 1.05-.794 1.332-1.374.217-.452.324-1.115.324-1.992zm5.135-5.901h2.014v9.02l5.602-9.02h2.162v11.826h-2.013v-8.961l-5.593 8.96h-2.172zm6.964-4.375h1.372c-.112.94-.452 1.659-1.026 2.162-.572.507-1.332.755-2.284.755-.953 0-1.717-.248-2.285-.748-.57-.5-.912-1.222-1.024-2.169h1.376c.103.513.312.896.623 1.148.308.255.728.38 1.25.38.607 0 1.066-.122 1.375-.37.31-.241.52-.63.623-1.158zm5.83 4.375h2.018v4.92h5.588v-4.92h2.016v11.826h-2.016v-5.241h-5.588v5.24h-2.018V79.149M324.096 7.692h-82.71v83.09h82.71V7.692" fill="#f47523"/><path d="M244.143 30.138h21.677c4.721 0 8.259 1.103 10.612 3.314 2.347 2.213 3.525 5.363 3.525 9.448 0 4.195-1.285 7.479-3.848 9.837-2.562 2.367-6.48 3.544-11.74 3.544h-7.148v15.364h-13.078zm13.078 17.74h3.211c2.533 0 4.31-.436 5.332-1.297 1.019-.858 1.53-1.962 1.53-3.3 0-1.307-.442-2.41-1.337-3.318-.881-.906-2.552-1.362-5.005-1.362h-3.73zm25.575-17.74h14.136l5.859 17.101 5.744-17.101h13.253l-13.821 32.057c-1.13 2.578-2.122 4.512-2.966 5.778-.842 1.274-2.092 2.318-3.749 3.141-1.659.82-3.939 1.227-6.833 1.227-1.534 0-4.172-.214-7.915-.647v-8.57c2.21.232 3.821.347 4.832.347 3.012 0 4.848-1.103 5.497-3.316l-14.037-30.017" fill="#fff"/><path d="M0 24.235c0-5.297 1.437-9.421 4.316-12.366 2.88-2.955 6.886-4.427 12.027-4.427 5.266 0 9.324 1.45 12.173 4.344 2.85 2.9 4.27 6.964 4.27 12.184 0 3.793-.617 6.897-1.862 9.321a13.538 13.538 0 01-5.399 5.667c-2.355 1.352-5.288 2.025-8.8 2.025-3.565 0-6.517-.583-8.86-1.747-2.333-1.17-4.234-3.012-5.684-5.535C.73 31.185 0 28.026 0 24.235zm9.768.02c0 3.274.593 5.629 1.781 7.058 1.192 1.427 2.812 2.145 4.86 2.145 2.098 0 3.733-.704 4.884-2.101 1.154-1.403 1.728-3.91 1.728-7.546 0-3.053-.602-5.28-1.803-6.684-1.208-1.413-2.836-2.117-4.897-2.117-1.974 0-3.565.72-4.756 2.147-1.204 1.428-1.797 3.798-1.797 7.098zM38.09 7.985h9.765v11.332h10.693V7.985h9.811v32.453h-9.811V27.296H47.854v13.142H38.09zm65.838 32.453h-9.765V15.963H86.52v9.979c0 4.101-.214 7.116-.635 9.042-.426 1.924-1.42 3.34-2.982 4.24-1.561.897-4.077 1.351-7.563 1.351-1.06 0-2.283-.12-3.667-.356v-6.58h1.464c1.32 0 2.254-.301 2.8-.9.543-.596.816-1.688.816-3.286V7.985h27.175zm25.922-5.35h-11.076l-1.59 5.35h-9.98l11.91-32.453h10.699l11.857 32.453h-10.237zm-2.069-7.025L124.326 16.4l-3.47 11.662zm47.243-20.078v32.453h-9.19v-17.82l-11.761 17.82H144.8V7.985h9.233v17.957l11.851-17.957zm-7.16-7.979c-.301 1.86-1.177 3.356-2.623 4.497-1.442 1.14-3.165 1.714-5.16 1.714-1.989 0-3.705-.574-5.164-1.723-1.448-1.148-2.32-2.643-2.606-4.488h3.712c.612 1.845 1.929 2.766 3.969 2.766 2.181 0 3.564-.92 4.161-2.766zm13.743 7.98h9.765v11.33h10.692V7.987h9.81v32.452h-9.81V27.296h-10.692v13.142h-9.765V7.985" fill="#328ad2"/></g></svg>