<svg xmlns="http://www.w3.org/2000/svg" height="95.76" width="324.093" xml:space="preserve" id="svg2" version="1.1"><g transform="matrix(1.33333 0 0 -1.33333 0 95.76)" id="g10"><g transform="scale(.1)" id="g12" fill-opacity="1" fill-rule="evenodd" stroke="none"><path id="path14" d="M1681.2 660.23h25.92V387.211c-4.31 1.547-9.23 2.359-13.78 2.359-4.53 0-8.31-.636-12.14-1.808zm25.92-349.976V37.246h-25.92v272.461c3.83-1.172 7.61-1.816 12.14-1.816 4.55 0 9.47.839 13.78 2.363" fill="#328ad2"/><path id="path16" d="M1693.68 384.141c19.65 0 35.6-15.871 35.6-35.43 0-19.563-15.95-35.41-35.6-35.41-19.68 0-35.61 15.847-35.61 35.41 0 19.559 15.93 35.43 35.61 35.43" fill="#328ad2"/><path id="path18" d="M949.836 195.801v134.238h-50.379v17.852H1020.5v-17.852h-50.379V195.801zm91.544 0v152.09h57.72c10.13 0 17.89-.489 23.26-1.465 7.5-1.223 13.8-3.594 18.89-7.09 5.1-3.477 9.19-8.379 12.29-14.629 3.09-6.269 4.61-13.164 4.61-20.723 0-12.882-4.13-23.808-12.41-32.726-8.25-8.961-23.23-13.426-44.86-13.426h-39.22v-62.031zm20.28 79.883h39.5c13.09 0 22.35 2.41 27.86 7.254 5.48 4.843 8.21 11.64 8.21 20.449 0 6.359-1.59 11.789-4.83 16.32-3.24 4.539-7.5 7.551-12.78 8.984-3.42.899-9.71 1.348-18.85 1.348h-39.11zm122.54-79.883v152.09h110.38v-17.852h-90.11v-46.73h84.34v-17.821h-84.34v-51.836h93.75v-17.851zm142.4 152.09h18.36V227.48l81.36 120.411h20.04v-152.09H1428v120.125l-81.17-120.125h-20.23zm76.21 36.511h12.81c-1.03-8.75-4.24-15.461-9.57-20.125-5.35-4.711-12.42-7.062-21.29-7.062-8.89 0-16 2.351-21.31 6.98-5.29 4.688-8.49 11.399-9.53 20.207h12.81c.96-4.777 2.91-8.351 5.8-10.675 2.88-2.364 6.8-3.543 11.67-3.543 5.65 0 9.93 1.129 12.81 3.445 2.88 2.254 4.84 5.863 5.8 10.773zm90.68-36.511h93.09V213.652h13.67v-53.3h-17.94v35.449h-101.19v-35.449h-17.93v53.3h11.75c12.36 18.496 18.55 55.84 18.55 111.993zm72.8-17.852h-53.36v-7.773c0-12.95-1.18-30.703-3.52-53.164-2.33-22.493-6.94-40.977-13.77-55.45h70.65v116.387" fill="#328ad2"/><path id="path20" d="M.281 158.242h96.555V35.898H80.512v107.997H16.605V35.898H.281zM116.04 80.234c0 16.387 4.586 28.496 13.77 36.407 7.648 6.543 17.011 9.812 28.035 9.812 12.215 0 22.23-3.973 30.027-11.949 7.758-7.941 11.656-18.969 11.656-33.02 0-11.386-1.714-20.332-5.156-26.836-3.437-6.535-8.449-11.593-15.035-15.234-6.543-3.594-13.731-5.402-21.492-5.402-12.485 0-22.563 3.957-30.262 11.906-7.715 7.938-11.543 19.395-11.543 34.316zm15.461-.02c0-11.327 2.504-19.823 7.48-25.429 5.008-5.644 11.262-8.457 18.864-8.457 7.5 0 13.738 2.813 18.742 8.477 4.98 5.664 7.484 14.297 7.484 25.898 0 10.93-2.523 19.207-7.531 24.832-5.012 5.617-11.246 8.438-18.695 8.438-7.602 0-13.856-2.782-18.864-8.379-4.976-5.614-7.48-14.09-7.48-25.38zm85.578 44.376h15.113V86.309c4.817 0 8.192.918 10.137 2.754 1.914 1.824 4.746 7.148 8.531 16.003 2.981 7.012 5.391 11.633 7.223 13.86 1.863 2.226 3.973 3.73 6.387 4.492 2.422.77 6.285 1.172 11.59 1.172h3.027v-12.402l-4.207.085c-3.981 0-6.535-.593-7.652-1.765-1.153-1.211-2.981-4.863-5.368-10.938-2.289-5.8-4.386-9.824-6.3-12.043-1.903-2.215-4.852-4.226-8.825-6.101 6.496-1.739 12.918-7.735 19.207-18.04l16.582-27.488h-16.601l-16.356 27.395c-3.293 5.555-6.136 9.188-8.582 10.965-2.472 1.758-5.382 2.656-8.793 2.656V35.898h-15.113zM293.637 1.797l-1.711 13.906c3.308-.879 6.176-1.34 8.64-1.34 3.375 0 6.059.559 8.079 1.672 2.023 1.113 3.695 2.684 4.972 4.688.949 1.492 2.488 5.234 4.613 11.21.286.84.711 2.051 1.344 3.692L285.73 124.59h16.145l18.617-51.211c2.43-6.453 4.567-13.3 6.504-20.469a207.225 207.225 0 006.203 19.942l19.008 51.738h15.098l-33.711-90.234c-3.637-9.72-6.465-16.368-8.496-20.06-2.688-4.901-5.782-8.554-9.239-10.839-3.5-2.324-7.64-3.457-12.457-3.457-2.918 0-6.191.613-9.765 1.797zm86.566 122.793h70.445V35.898h-15.117v76.219H395.32V35.898h-15.117zm151.262-77.598c-5.613-4.746-11.02-8.074-16.211-10.027-5.176-1.965-10.723-2.953-16.684-2.953-9.797 0-17.32 2.355-22.597 7.12-5.27 4.735-7.907 10.794-7.907 18.153 0 4.367 1.016 8.313 2.981 11.887 2.016 3.613 4.621 6.457 7.824 8.613 3.231 2.168 6.848 3.828 10.875 4.922 2.981.781 7.481 1.524 13.457 2.266 12.195 1.425 21.223 3.144 26.969 5.136.066 2.063.078 3.368.078 3.907 0 6.101-1.422 10.39-4.289 12.898-3.859 3.391-9.613 5.059-17.227 5.059-7.136 0-12.406-1.239-15.781-3.719-3.402-2.461-5.89-6.856-7.527-13.164l-14.774 2.031c1.344 6.289 3.551 11.387 6.633 15.262 3.11 3.879 7.563 6.828 13.406 8.937 5.817 2.09 12.594 3.133 20.278 3.133 7.609 0 13.832-.887 18.597-2.664 4.766-1.797 8.286-4.004 10.512-6.719 2.242-2.695 3.813-6.132 4.731-10.265.472-2.547.738-7.168.738-13.817V73.066c0-13.933.312-22.734.945-26.464.61-3.73 1.871-7.286 3.688-10.704h-15.801c-1.524 3.153-2.488 6.856-2.914 11.094zm-1.215 33.34c-5.484-2.227-13.73-4.101-24.719-5.656-6.238-.867-10.66-1.883-13.23-2.977-2.571-1.113-4.559-2.754-5.961-4.836-1.402-2.148-2.11-4.511-2.11-7.148 0-3.946 1.5-7.266 4.563-9.93 3.082-2.637 7.535-3.984 13.41-3.984 5.817 0 10.985 1.258 15.539 3.797 4.531 2.511 7.879 5.957 10.008 10.304 1.621 3.391 2.422 8.36 2.422 14.942zm38.512 44.258h15.109V56.934l42.024 67.656h16.222V35.898h-15.113v67.207l-41.949-67.207h-16.293zm52.234 32.812h10.297c-.832-7.043-3.406-12.441-7.699-16.211-4.281-3.808-9.985-5.664-17.125-5.664-7.156 0-12.883 1.856-17.145 5.606-4.269 3.758-6.844 9.168-7.676 16.269h10.301c.781-3.847 2.352-6.718 4.676-8.613 2.316-1.906 5.477-2.851 9.391-2.851 4.55 0 7.984.917 10.308 2.773 2.313 1.816 3.887 4.727 4.672 8.691zm91.461-32.812h34.789c8.531 0 14.883-.723 19.063-2.129 4.16-1.438 7.722-4.023 10.707-7.813 3.011-3.808 4.5-8.339 4.5-13.632 0-4.27-.879-7.961-2.629-11.094-1.778-3.164-4.41-5.813-7.965-7.918 4.176-1.39 7.652-3.977 10.43-7.817 2.734-3.757 4.113-8.308 4.113-13.523-.543-8.39-3.57-14.64-9.039-18.672-5.473-4.082-13.43-6.094-23.86-6.094h-40.109zm15.109-37.434h16.047c6.387 0 10.789.344 13.164.996 2.403.676 4.551 2.012 6.45 4.075 1.886 2.011 2.836 4.472 2.836 7.312 0 4.719-1.672 7.949-4.965 9.816-3.325 1.836-8.989 2.762-17.012 2.762h-16.52zm0-38.972h19.84c8.532 0 14.414 1.015 17.59 2.988 3.18 1.972 4.848 5.371 5.008 10.254 0 2.812-.91 5.457-2.746 7.879-1.867 2.422-4.262 3.957-7.207 4.601-2.961.625-7.707.938-14.238.938h-18.247zm132.446 20.175l14.785-2.05c-1.637-10.098-5.766-18.008-12.43-23.72-6.664-5.734-14.883-8.577-24.59-8.577-12.168 0-21.957 3.957-29.339 11.886-7.438 7.91-11.125 19.246-11.125 33.993 0 9.582 1.609 17.91 4.789 25.089 3.175 7.168 8.019 12.54 14.535 16.106 6.504 3.582 13.574 5.367 21.254 5.367 9.644 0 17.57-2.422 23.707-7.265 6.14-4.872 10.105-11.805 11.824-20.762l-14.609-2.215c-1.407 5.965-3.864 10.43-7.446 13.445-3.554 3-7.844 4.504-12.89 4.504-7.614 0-13.786-2.695-18.567-8.105-4.742-5.461-7.137-13.985-7.137-25.723 0-11.895 2.29-20.559 6.875-25.918 4.622-5.39 10.59-8.086 17.95-8.086 5.957 0 10.918 1.785 14.863 5.41 3.98 3.594 6.504 9.13 7.551 16.621zm88.465-3.761l15.64-2.047c-2.441-9.016-7-16.067-13.629-21.047-6.644-4.98-15.113-7.492-25.453-7.492-12.992 0-23.305 3.996-30.918 11.953-7.613 7.96-11.426 19.164-11.426 33.527 0 14.871 3.848 26.426 11.539 34.649 7.696 8.222 17.7 12.312 29.965 12.312 11.883 0 21.598-3.992 29.129-12.07 7.531-8.055 11.309-19.403 11.309-33.992 0-.899-.028-2.239-.09-4.004h-66.398c.589-9.688 3.324-17.16 8.32-22.344 4.941-5.125 11.148-7.715 18.57-7.715 5.531 0 10.246 1.434 14.145 4.356 3.925 2.89 7.019 7.52 9.297 13.914zM899.016 88.69h49.64c-.652 7.47-2.57 13.055-5.695 16.778-4.781 5.801-11.023 8.691-18.664 8.691-6.93 0-12.738-2.305-17.477-6.914-4.679-4.629-7.3-10.812-7.804-18.555zm.687 46.836v17.102h15.801v-17.102zm31.25 0v17.102h15.82v-17.102zm94.307-55.293c0 16.387 4.59 28.496 13.78 36.407 7.64 6.543 17.01 9.812 28.03 9.812 12.21 0 22.25-3.973 30.03-11.949 7.75-7.941 11.65-18.969 11.65-33.02 0-11.386-1.71-20.332-5.15-26.836-3.44-6.535-8.45-11.593-15.04-15.234-6.54-3.594-13.73-5.402-21.49-5.402-12.48 0-22.56 3.957-30.26 11.906-7.71 7.938-11.55 19.395-11.55 34.316zm15.48-.02c0-11.327 2.49-19.823 7.46-25.429 5.02-5.644 11.29-8.457 18.87-8.457 7.5 0 13.74 2.813 18.75 8.477 4.99 5.664 7.48 14.297 7.48 25.898 0 10.93-2.52 19.207-7.54 24.832-5 5.617-11.24 8.438-18.69 8.438-7.58 0-13.85-2.782-18.87-8.379-4.97-5.614-7.46-14.09-7.46-25.38zm85.75 44.376h15.11V87.684h41.92v36.906h15.11V35.898h-15.11v39.305h-41.92V35.898h-15.11zm102.24 0h70.23V35.977h-15.11v76.14h-40.02V67.988c0-10.273-.34-17.05-1-20.351-.7-3.282-2.51-6.133-5.53-8.586-3.03-2.45-7.38-3.668-13.08-3.668-3.52 0-7.58.242-12.16.652v12.52h6.61c3.12 0 5.35.293 6.7.949 1.34.625 2.22 1.668 2.68 3.047.44 1.394.68 5.926.68 13.582zm151.07-77.598c-5.63-4.746-11.02-8.074-16.21-10.027-5.18-1.965-10.74-2.953-16.68-2.953-9.8 0-17.33 2.355-22.6 7.12-5.27 4.735-7.91 10.794-7.91 18.153 0 4.367 1.02 8.313 2.99 11.887 2.01 3.613 4.61 6.457 7.81 8.613 3.22 2.168 6.84 3.828 10.88 4.922 2.98.781 7.46 1.524 13.46 2.266 12.2 1.425 21.21 3.144 26.96 5.136.07 2.063.09 3.368.09 3.907 0 6.101-1.43 10.39-4.3 12.898-3.86 3.391-9.63 5.059-17.23 5.059-7.12 0-12.4-1.239-15.78-3.719-3.39-2.461-5.88-6.856-7.53-13.164l-14.76 2.031c1.34 6.289 3.55 11.387 6.65 15.262 3.07 3.879 7.54 6.828 13.39 8.937 5.81 2.09 12.59 3.133 20.26 3.133 7.62 0 13.85-.887 18.63-2.664 4.74-1.797 8.27-4.004 10.49-6.719 2.23-2.695 3.81-6.132 4.73-10.265.49-2.547.74-7.168.74-13.817V73.066c0-13.933.31-22.734.95-26.464.6-3.73 1.84-7.286 3.68-10.704h-15.8c-1.52 3.153-2.48 6.856-2.91 11.094zm-1.21 33.34c-5.49-2.227-13.74-4.101-24.75-5.656-6.21-.867-10.64-1.883-13.2-2.977-2.6-1.113-4.55-2.754-5.97-4.836-1.4-2.148-2.12-4.511-2.12-7.148 0-3.946 1.52-7.266 4.57-9.93 3.09-2.637 7.54-3.984 13.42-3.984 5.8 0 10.99 1.258 15.54 3.797 4.54 2.511 7.88 5.957 9.99 10.304 1.63 3.391 2.43 8.36 2.43 14.942zm38.51 44.258h15.11V56.934l42.01 67.656h16.22V35.898h-15.1v67.207l-41.95-67.207h-16.29zm52.23 32.812h10.29c-.84-7.043-3.39-12.441-7.69-16.211-4.29-3.808-9.99-5.664-17.13-5.664-7.15 0-12.88 1.856-17.14 5.606-4.27 3.758-6.84 9.168-7.68 16.269h10.32c.77-3.847 2.34-6.718 4.67-8.613 2.31-1.906 5.46-2.851 9.38-2.851 4.55 0 7.99.917 10.31 2.773 2.33 1.816 3.9 4.727 4.67 8.691zm43.73-32.812h15.13V87.684h41.91v36.906h15.12V35.898h-15.12v39.305h-41.91V35.898h-15.13v88.692" fill="#f47523"/><path id="path22" d="M2430.72 660.508H1810.4V37.336h620.32v623.172" fill="#f47523"/><path id="path24" d="M1831.07 492.168h162.58c35.41 0 61.94-8.273 79.59-24.855 17.6-16.598 26.44-40.227 26.44-70.86 0-31.469-9.64-56.094-28.86-73.777-19.22-17.754-48.6-26.582-88.05-26.582h-53.61V180.859h-98.09zm98.09-133.047h24.08c19 0 32.32 3.262 39.99 9.723 7.64 6.437 11.47 14.711 11.47 24.754 0 9.797-3.31 18.066-10.02 24.879-6.61 6.796-19.14 10.214-37.54 10.214h-27.98zm191.81 133.047h106.02l43.94-128.262 43.08 128.262h99.4l-103.66-240.43c-8.47-19.336-15.91-33.84-22.24-43.332-6.32-9.558-15.69-17.39-28.12-23.562-12.44-6.153-29.54-9.199-51.25-9.199-11.5 0-31.29 1.601-59.36 4.851v64.27c16.57-1.739 28.66-2.598 36.24-2.598 22.59 0 36.36 8.27 41.23 24.871l-105.28 225.129" fill="#fff"/><path id="path26" d="M0 536.441c0 39.727 10.777 70.657 32.371 92.739 21.598 22.168 51.645 33.207 90.203 33.207 39.496 0 69.93-10.875 91.293-32.582 21.371-21.75 32.028-52.231 32.028-91.379 0-28.446-4.629-51.727-13.965-69.91-9.332-18.2-22.871-32.36-40.489-42.5-17.668-10.141-39.66-15.188-66.003-15.188-26.735 0-48.876 4.375-66.446 13.102-17.504 8.773-31.762 22.59-42.636 41.515C5.473 484.316 0 508.004 0 536.441zm73.262-.156c0-24.551 4.449-42.215 13.355-52.93 8.938-10.703 21.094-16.089 36.449-16.089 15.735 0 27.997 5.277 36.629 15.757 8.657 10.524 12.965 29.329 12.965 56.594 0 22.899-4.519 39.598-13.523 50.133-9.059 10.598-21.27 15.875-36.727 15.875-14.805 0-26.738-5.395-35.676-16.105-9.023-10.704-13.472-28.481-13.472-53.235zm212.406 122.024h73.238v-84.985h80.196v84.985h73.586V414.918h-73.586v98.562h-80.196v-98.562h-73.238zm493.785-243.391h-73.238v183.559h-57.32v-74.84c0-30.762-1.606-53.375-4.762-67.817-3.195-14.433-10.649-25.043-22.371-31.793-11.707-6.738-30.578-10.14-56.719-10.14-7.953 0-17.121.898-27.504 2.672v49.343h10.984c9.895 0 16.903 2.266 20.993 6.75 4.078 4.473 6.121 12.668 6.121 24.649v161.008h203.816zm194.418 40.121h-83.074l-11.926-40.121h-74.844l89.325 243.391h80.238l88.93-243.391h-76.778zm-15.519 52.691l-25.907 87.465-26.019-87.465zm354.318 150.579V414.918h-68.92v133.641l-88.21-133.641H1086v243.391h69.25V523.637l88.88 134.672zm-53.69 59.843c-2.26-13.949-8.83-25.164-19.67-33.722-10.82-8.555-23.74-12.86-38.7-12.86-14.92 0-27.79 4.305-38.73 12.922-10.86 8.61-17.4 19.824-19.55 33.66h27.84c4.59-13.836 14.47-20.742 29.77-20.742 16.36 0 26.73 6.906 31.21 20.742zm103.07-59.843h73.24v-84.985h80.19v84.985h73.57V414.918h-73.57v98.562h-80.19v-98.562h-73.24v243.391" fill="#328ad2"/></g></g></svg>