<svg version="1.1" id="Layer_1" xmlns="http://www.w3.org/2000/svg" x="0" y="0" viewBox="0 0 360.6 107" xml:space="preserve"><style>.st0{fill:#005bff}</style><g id="Logo_Ozon_BTS"><g id="Group-5" transform="translate(0 16)"><path id="Fill-1" class="st0" d="M42.1 58.5C28.4 60.2 16.8 48.7 18.5 35c1.2-9.3 8.7-16.9 18-18.1 13.7-1.8 25.3 9.8 23.6 23.5-1.2 9.3-8.7 16.9-18 18.1zm1.1-60C18.4-3.9-2.3 16.9.2 41.8 2 60.2 16.9 75 35.3 76.8c24.9 2.4 45.6-18.3 43.1-43.2C76.6 15.2 61.7.3 43.2-1.5z"/><path id="Fill-1_1_" class="st0" d="M224 58.2c-19.2 1.7-35.4-9.8-33-23.5 1.7-9.3 12.2-16.9 25.2-18.1 19.2-1.8 35.4 9.8 33 23.5C247.5 49.4 237 57 224 58.2zm1.5-59.8c-34.7-2.4-63.7 18.4-60.2 43.3 2.5 18.4 23.4 33.2 49.2 35 34.9 2.4 63.9-18.3 60.4-43.2-2.6-18.4-23.5-33.3-49.4-35.1z"/><path id="Fill-3" class="st0" d="M99.5 0c-5.7 0-10.2 5.2-9 11.1.9 4.3 4.9 7.3 9.3 7.3h25.6L85.7 71c-1.3 1.7-.1 4.2 2.1 4.2l62.5-.1c4.4 0 8.5-3 9.3-7.3 1.2-5.9-3.3-11.1-9-11.1l-31.2.1 39.7-52.6c1.3-1.7.1-4.2-2.1-4.2H99.5"/><path id="Fill-4" class="st0" d="M349.3-.2c-4.3.9-7.2 4.9-7.2 9.2v30.6L292.5.3c-1.7-1.4-4.3-.1-4.3 2.1l.1 63.1c0 4.4 2.9 8.3 7.2 9.2 5.9 1.2 11.2-3.3 11.2-9V34.9l49.7 39.3c1.7 1.4 4.3.1 4.3-2.1l-.1-63.3c-.1-5.8-5.4-10.2-11.3-9"/></g></g></svg>