<svg version="1.1" id="Layer_1" xmlns="http://www.w3.org/2000/svg" x="0" y="0" viewBox="0 0 255 43" xml:space="preserve"><style>.st1{fill:#d30a00}.st1,.st2,.st3,.st4,.st5,.st6,.st7{fill-rule:evenodd;clip-rule:evenodd}.st2{fill:#ff7200}.st3{fill:#ffc000}.st4{fill:#61b000}.st5{fill:#009fe4}.st6{fill:#005ba6}.st7{fill:#671387}</style><switch><g><path d="M124.3 25.1L121 13.3s-1-4.4-4-5.6c-2.4-1-5.6-.5-5.6-.5s-1 .4-.9 1.8c.1 1.4 1.2 1.8 1.2 1.8 4-.7 4.7 2.6 4.7 2.6l.2.6c-.5-.1-1.1-.1-1.8-.1-2 0-6.4 1.4-8 6.7-.9 3.2.2 8.3 6.2 8.4 3.3.1 5.6-1.3 7.1-2.6.2.6.6 1.6 1.4 2.2 0 0 .8.6 2.4.3 1.8-.4 2.1-1.1 2.1-1.1-.9-.9-1.3-1.6-1.7-2.7m-11.3 0c-2.5-1.1-2.4-6.1 1-7.5 1.9-.7 3.5-.1 3.8.9l1.3 4.6c-.1.1-3.4 3.2-6.1 2zM47.3 13.9c-1.2 0-2.3.2-3.2.5v-3.3c0-2.7-.4-4.3-3-4-2.2.3-2.4 1.1-2.4 1.1s.3 1 .3 3v10.5s-.3 7.8 8.5 7.2c6.5-.4 7.1-5.6 7.1-8 .2-2.2-.6-7-7.3-7m-.4 11.8c-1.2 0-2.8-1.1-2.8-3.6v-1.4s0-3.4 2.9-3.4c1.8 0 2.9 1.4 2.9 4.4 0 2.2-.6 4-3 4zM82.2 0s-1.7.7-3.7.6h-3.7c-6.8.1-9 7-9.2 14.8-.2 7.8 2.1 13.6 9.2 13.6 5.1 0 8.7-3.8 8.9-8.9.3-7.4-3.5-11.1-9-11-2.2 0-3.2.6-3.4.8 0 0 .2-4.9 5-4.9h3.4c2.6 0 3.7-.6 3.7-.6s.7-3-1.2-4.4M75 25.7c-1.8 0-4.2-2.2-4.3-7.3 0 0-.2-5.9 4-6 2.7-.1 4.3 2.6 4.3 7 0 2.8-1.2 6.3-4 6.3zM59.1 7.1c2.1 0 2.4 1.5 2.4 1.5v16.9c0 1.1.3 2.5.3 2.5s-.4.8-2.1 1c-1.9.2-2.4-.4-2.4-.4s-.6-.8-.6-2.9V8.6s.4-1.5 2.4-1.5M36 25.1c.4 1.2.8 1.9 1.5 2.7 0 0-.2.8-2.1 1.1-1.6.3-2.2-.2-2.2-.2-.7-.4-1.4-1.9-1.7-2.8-1.3-3.5-2.7-8-4.3-12.2-.1-.2-.6-.1-.6 0-1.8 5.3-4.7 14-4.7 14s-.8 1.5-2.7 1.2c-1.9-.3-1.7-2.3-1.7-2.3s3.3-9.4 5.8-16c-.1-.3-.3-.8-.1-1.6.4-1.6 2.3-2.1 3.7-1.9 2.4.3 3.2 2.2 3.2 2.2 2.6 6 4 10.8 5.9 15.8m-18.5-18c1.5.3 1.7 1.3 1.7 1.3-.3.3-.8 1.3-1.5 3-2.1 5.9-5.7 16-7.5 21-.5 1.5-.9 2.2-1.7 2.6 0 0-.9.4-2.6 0-1.3-.3-1.8-.9-1.8-.9.4-.5 1.5-2.2 1.8-3.1l1.4-3.9L.1 9.9s-.5-2.1 1.6-2.7c2.2-.6 2.9.9 2.9.9L9.1 20l.3.7c.1.2.4.2.4 0l3.6-9.9c.6-1.5 1.1-3 1.8-3.4 0-.1.9-.5 2.3-.3M103 23.9c1 1.6 2.4 2.1 2.4 2.1s0 1-.5 1.8c-.8 1.2-2.3 1.1-2.3 1.1s-1.9.2-4.2-3.6l-2.8-4.2c-.9-1.6-2.2-1.6-3.3-1.5v7.8s-.3 1.5-2.4 1.5-2.4-1.5-2.4-1.5V8.6s.3-1.5 2.4-1.5 2.4 1.5 2.4 1.5v7.6c0 .3.3.4.5.3l7.8-9c.3-.4 1.9-.7 2.8 0 .7.7.8 2 .6 2.3l-6.3 7.1c.9.1 1.4.7 1.9 1.5l3.4 5.5m73.9 1.2l-3.3-11.7s-1-4.3-4-5.6c-2.4-1-5.6-.5-5.6-.5s-1 .4-.9 1.8c.1 1.3 1.2 1.8 1.2 1.8 4-.7 4.7 2.6 4.7 2.6l.2.6c-.5-.1-1.1-.1-1.8-.1-2 0-6.3 1.4-7.9 6.7-.9 3.1.2 8.2 6.1 8.3 3.3.1 5.6-1.3 7-2.6.2.6.6 1.6 1.4 2.1 0 0 .8.6 2.4.3 1.7-.3 2.1-1.1 2.1-1.1-.7-.7-1.1-1.4-1.6-2.6m-11.1.1c-2.5-1.1-2.3-6.1 1-7.4 1.8-.7 3.4-.1 3.7.9l1.3 4.6c-.1-.1-3.4 3-6 1.9zm22.2-16c2.4 0 3.3.7 3.5.9 0 0 0-4.8-5.1-5.6-3.6-.5-5.4.5-5.4.5s-.5-3.1 1-4.1c0 0 1.2-1.2 6-.4 6.9 1 8.8 7.4 9 15.1.2 7.7-2.1 13.4-9.2 13.4-5 0-8.6-3.7-8.9-8.8-.2-7.4 3.6-11.1 9.1-11m-.3 16.5c1.8 0 4.1-2.1 4.3-7.3 0 0 .2-5.8-3.9-6-2.7-.1-4.3 2.5-4.3 6.9 0 3 1.2 6.4 3.9 6.4zM147.9 7.3c-1.8 0-3.2 1-4 1.8v-.2s-.3-1.5-2.4-1.5-2.4 1.5-2.4 1.5v24.8c0 2.1.6 2.9.6 2.9s.4.6 2.4.4c1.7-.2 2.1-.9 2.1-.9s-.3-1.4-.3-2.5V28c1 .5 2.4.9 4.1.9 5.3-.1 8.8-4.1 9-9.7.3-8-3-12.1-9.1-11.9m-.4 18.1c-1.5.1-2.8-.3-3.6-.9V13.3c.4-1.2 1.4-2.5 3.7-2.5 2.7 0 4.6 1.7 4.6 7.6 0 7-4.7 7-4.7 7zm68.7-18.1c1.5.3 1.7 1.2 1.7 1.2-.3.3-.8 1.2-1.5 3-2.1 5.8-5.7 15.9-7.4 20.8-.5 1.5-.9 2.2-1.7 2.6 0 0-.9.4-2.6 0-1.3-.3-1.8-.9-1.8-.9.4-.5 1.5-2.2 1.8-3l1.4-3.9-7.2-17s-.5-2.1 1.6-2.7c2.2-.6 2.8.9 2.8.9l4.5 11.7.3.7c.1.2.4.2.4 0l3.6-9.8c.5-1.5 1.1-2.9 1.8-3.4 0 0 .9-.4 2.3-.2m17.3 0s1.6.3 1.5 2.2c-.1 1.6-1 2.1-1 2.1s-.8-.1-1.2-.1h-7.6v16s-.3 1.5-2.4 1.5-2.4-1.5-2.4-1.5V8.8s.3-1.5 2.3-1.5h10.8m21.1 18.2c0 1.4.4 2.5.4 2.5s-.3.8-2.2 1c-1.9.1-2.4-.5-2.4-.5s-.6-.6-.6-2.9v-9.7c-2.8 4.3-6.9 10.5-7.7 11.8-.2.4-.8 1.3-2.3 1.3-2.1 0-2.4-1.5-2.4-1.5v-18c0-.6-.1-1.3-.1-1.3s.6-.9 2.5-.9c2.1 0 2.4 1.5 2.4 1.5v11.4L250 8.3c.3-.4.9-1 2.2-1 2.1 0 2.4 1.5 2.4 1.5v16.7" fill="#e7470a"/><path class="st1" d="M0 38h5v5H0z"/><path class="st2" d="M10 38h10v5H10z"/><path class="st3" d="M25 38h5v5h-5z"/><path class="st4" d="M35 38h10v5H35z"/><path class="st5" d="M50 38h5v5h-5z"/><path class="st6" d="M60 38h10v5H60z"/><path class="st7" d="M75 38h5v5h-5z"/><path class="st1" d="M85 38h10v5H85z"/><path class="st2" d="M100 38h5v5h-5z"/><path class="st3" d="M110 38h10v5h-10z"/><path class="st4" d="M125 38h5v5h-5z"/><path class="st5" d="M135 38h10v5h-10z"/><path class="st6" d="M150 38h5v5h-5z"/><path class="st7" d="M160 38h10v5h-10z"/><path class="st1" d="M175 38h5v5h-5z"/><path class="st2" d="M185 38h10v5h-10z"/><path class="st3" d="M200 38h5v5h-5z"/><path class="st4" d="M210 38h10v5h-10z"/><path class="st5" d="M225 38h5v5h-5z"/><path class="st7" d="M250 38h5v5h-5z"/><path class="st6" d="M235 38h10v5h-10z"/></g></switch></svg>