<svg xmlns="http://www.w3.org/2000/svg" viewBox="0 0 151.7 44.3"><g data-name="Слой 2"><g data-name="Слой 1" fill="#231F20"><path d="M131.8 8.3h3.6v13.4h-3.6v-5.2h-7.5v5.2h-3.6V8.3h3.6v5.4h7.5V8.3zm16.2 0h3.7v13.4H148v-5.2h-7.4v5.2H137V8.3h3.6v5.4h7.4V8.3zM44.8 10.8h-4.6V8.3H53v2.5h-4.5v10.9h-3.7V10.8zm16 8.5c3.5 0 4.9-2.4 4.9-4.4s-1.5-4.4-4.9-4.4-5.1 2.4-5.1 4.4 1.1 4.5 5.1 4.4zm0-11.2c6.6 0 8.5 4.2 8.5 6.9s-1.7 6.9-8.5 6.9c-7.2 0-8.7-4.2-8.7-6.9s2-6.9 8.7-6.9z"/><path d="M37 13.7c-.3-2.2-2.9-3-4.8-3-3.5 0-4.8 2.5-4.8 4.3a4.53 4.53 0 004.8 4.5c1.8 0 4.5-.8 4.9-3.4h3.6c0 3.8-4.3 5.7-8.6 5.7-3.8 0-8.2-1.8-8.2-6.7s4.1-6.9 8.2-6.9c3.3 0 8.2 1 8.7 5.5zm43.9-5.4h4.5l-6.1 5.2 6.6 8.2h-4.7l-4.8-5.8-2.8 2.3v3.5h-3.7V8.3h3.7v6l7.3-6z"/><path d="M98.3 8.3h5.1v13.4h-3.7v-9.5l-4.1 9.5h-1.9l-4.1-9.4v9.4h-3.7V8.3H91l3.7 8.3 3.6-8.3z"/><path d="M115.4 19.3h-7.7l-1.1 2.4h-3.3l6.6-13.4h3.9l6.9 13.4h-4.1l-1.2-2.4zm-3.9-7.8l-2.3 4.9h4.9l-2.6-4.9zM5.2 14.8a3.9 3.9 0 017.8 0 4 4 0 01-3.9 3.9 3.84 3.84 0 01-3.9-3.9z"/><path d="M12.8 0L0 8.7V21s11.8 7.9 12.6 8.5C12.4 29.7 0 38 0 38v6.3l12.8-8.6V23.3L.3 14.8c.2-.1 12.5-8.5 12.5-8.5V0z"/></g></g></svg>