<svg width="157" height="40" fill="none" xmlns="http://www.w3.org/2000/svg"><path fill-rule="evenodd" clip-rule="evenodd" d="M154.369 17.709c.91 0 1.71-.772 1.71-1.724 0-.938-.8-1.683-1.71-1.683-.938 0-1.724.745-1.724 1.683 0 .952.786 1.724 1.724 1.724zm0-6.11c.91 0 1.71-.745 1.71-1.724 0-.938-.8-1.696-1.71-1.696-.938 0-1.724.758-1.724 1.696 0 .98.786 1.724 1.724 1.724zm-53.211 1.352c0 2.193-1.517 3.848-3.752 3.848-2.234 0-3.751-1.655-3.751-3.848 0-2.193 1.517-3.862 3.751-3.862 2.235 0 3.752 1.669 3.752 3.862zm-10.938 0c0 4.11 3.048 7.158 7.186 7.158s7.186-3.062 7.186-7.158c0-4.11-3.076-7.173-7.186-7.173-4.138 0-7.186 3.062-7.186 7.173zM86 19.613c.634.647 1.696.675 2.345.027.634-.62.703-1.697.069-2.345l-4.318-4.455 4.152-4.29c.62-.647.565-1.71-.07-2.316-.633-.649-1.696-.62-2.317.027l-4.288 4.413c-.373.387-.635.442-.91.442-.428 0-.787-.29-.787-.73V7.432c0-.924-.773-1.668-1.697-1.668-.923 0-1.696.744-1.696 1.668V18.44c0 .924.773 1.669 1.696 1.669.924 0 1.697-.745 1.697-1.67v-3.13c0-.427.359-.717.786-.717.276 0 .538.056.91.44L86 19.613zm62.479-10.331c.938 0 1.683-.731 1.683-1.655 0-.897-.745-1.656-1.683-1.656h-2.565c-4.193 0-7.172 2.994-7.172 7.007 0 4.014 2.979 7.007 7.172 7.007h2.565c.938 0 1.683-.731 1.683-1.655 0-.897-.745-1.656-1.683-1.656h-2.662c-2.234 0-3.71-1.572-3.71-3.696s1.476-3.696 3.71-3.696h2.662zm-15.144 3.669c0 2.193-1.517 3.848-3.751 3.848-2.235 0-3.752-1.655-3.752-3.848 0-2.193 1.517-3.862 3.752-3.862 2.234 0 3.751 1.669 3.751 3.862zm-10.937 0c0 4.11 3.048 7.158 7.186 7.158s7.186-3.062 7.186-7.158c0-4.11-3.076-7.173-7.186-7.173-4.138 0-7.186 3.062-7.186 7.173zm-67.7.468l-3.98-6.813c-.455-.772-1.42-1.048-2.248-.676a1.661 1.661 0 00-.62 2.317l4.757 8.033c-.575.38-1.198.515-1.875.574-.924.083-1.545.745-1.545 1.614 0 1.034.842 1.613 1.698 1.613 1.93 0 3.613-.979 4.826-2.345 1.104-1.24 1.945-2.813 2.731-4.29l2.8-5.254c.428-.814.166-1.876-.703-2.29-.814-.386-1.807-.04-2.234.76l-3.607 6.757zm11.979-4.151v9.172c0 .938.786 1.669 1.724 1.669.951 0 1.724-.731 1.724-1.67v-9.17h2.565c.938 0 1.696-.745 1.696-1.682 0-.911-.758-1.67-1.696-1.67h-8.593c-.938 0-1.696.759-1.696 1.67 0 .937.758 1.682 1.696 1.682h2.58zm40.619 9.172c.013.924.786 1.669 1.709 1.669.925 0 1.697-.745 1.697-1.67v-3.82h5.586v3.82c0 .925.786 1.67 1.71 1.67.924 0 1.697-.745 1.697-1.67V7.434c0-.924-.786-1.668-1.711-1.668-.924 0-1.696.744-1.696 1.668v3.82h-5.6v-3.82c0-.924-.772-1.668-1.696-1.668-.924 0-1.696.744-1.696 1.668V18.44z" fill="#0DB14B"/><path d="M49.117 31.42l2.496-3.456c.108-.147.247-.262.448-.262.317 0 .441.216.441.479v4.382c0 .255-.14.472-.456.472-.325 0-.472-.217-.472-.472v-3.23l-2.512 3.431c-.1.132-.24.27-.432.27-.287 0-.441-.177-.441-.47V28.18c0-.255.14-.48.464-.48.317 0 .464.225.464.48v3.238zm4.885.54c.348 0 .541.256.541.542 0 .293-.193.533-.54.533-.349 0-.534-.24-.534-.533 0-.286.185-.541.533-.541zm1.856 0c.347 0 .54.256.54.542 0 .293-.193.533-.54.533-.348 0-.534-.24-.534-.533 0-.286.186-.541.534-.541zm4.298-.54l2.496-3.456c.108-.147.247-.262.448-.262.317 0 .441.216.441.479v4.382c0 .255-.139.472-.456.472-.325 0-.472-.217-.472-.472v-3.23l-2.512 3.431c-.1.132-.24.27-.432.27-.286 0-.441-.177-.441-.47V28.18c0-.255.14-.48.464-.48.317 0 .464.225.464.48v3.238zm5.118.54c.347 0 .54.256.54.542 0 .293-.193.533-.54.533-.349 0-.534-.24-.534-.533 0-.286.186-.541.534-.541zm2.086 0c.349 0 .542.256.542.542 0 .293-.193.533-.541.533-.348 0-.534-.24-.534-.533 0-.286.186-.541.534-.541zm6.138.325c1.051 0 1.57-.842 1.57-1.917 0-1.067-.519-1.917-1.57-1.917-1.043 0-1.561.85-1.561 1.917 0 1.075.518 1.917 1.561 1.917zm0-4.66c1.678 0 2.543 1.213 2.543 2.743 0 1.538-.865 2.744-2.543 2.744-1.677 0-2.535-1.206-2.535-2.744 0-1.53.858-2.744 2.535-2.744zm6.857 3.099h-2.458v1.84c0 .262-.162.47-.464.47-.309 0-.463-.208-.463-.47V28.18c0-.263.154-.48.463-.48.302 0 .464.217.464.48v1.715h2.458V28.18c0-.263.155-.48.464-.48.301 0 .464.217.464.48v4.382c0 .263-.163.472-.464.472-.31 0-.464-.209-.464-.472v-1.84zm5.465-3.023c.31 0 .465.217.465.48v4.382c0 .263-.155.472-.464.472-.31 0-.464-.209-.464-.472v-4.035h-1.43c-.015.936-.077 2.373-.356 3.363-.177.634-.571 1.182-1.182 1.182-.448 0-.657-.27-.572-.602.062-.255.263-.278.448-.278.194 0 .38-.155.487-.518.201-.642.302-1.817.325-3.494.008-.294.17-.48.44-.48h2.304zm2.776 3.1h1.477l-.75-1.948-.727 1.948zm1.74.727h-1.987l-.402 1.09c-.093.27-.293.517-.634.378-.24-.1-.255-.37-.154-.634l1.739-4.359c.1-.263.255-.379.471-.379.24 0 .371.147.449.333l1.793 4.398c.093.231.062.54-.209.641-.293.108-.525-.03-.634-.324l-.432-1.144zm3.045-4.661c-.115-.155-.13-.348 0-.472.178-.17.356-.062.503.078.216.208.44.293.719.293a.945.945 0 00.71-.286c.148-.147.326-.24.503-.085.147.124.109.317-.007.472-.194.262-.619.494-1.206.494s-1.028-.232-1.222-.494zm.024 4.552l2.496-3.455c.109-.147.248-.262.449-.262.317 0 .44.216.44.479v4.382c0 .255-.139.472-.456.472-.324 0-.471-.217-.471-.472v-3.23l-2.512 3.431c-.1.132-.24.27-.433.27-.286 0-.44-.177-.44-.47V28.18c0-.255.138-.48.463-.48.317 0 .464.225.464.48v3.238zm8.086-.695h-2.458v1.84c0 .262-.162.47-.464.47-.31 0-.464-.208-.464-.47V28.18c0-.263.155-.48.464-.48.302 0 .464.217.464.48v1.715h2.458V28.18c0-.263.154-.48.463-.48.302 0 .464.217.464.48v4.382c0 .263-.162.472-.464.472-.309 0-.463-.209-.463-.472v-1.84z" fill="#000"/><path fill-rule="evenodd" clip-rule="evenodd" d="M37 4.333C37 1.94 35.035 0 32.614 0H4.385C1.963 0 0 1.94 0 4.333v17.389C0 31.816 8.282 40 18.5 40 28.717 40 37 31.816 37 21.722V4.332z" fill="#FFC709"/><path fill-rule="evenodd" clip-rule="evenodd" d="M23.273 26.555c0-.942-.778-1.703-1.72-1.703-.944 0-1.722.761-1.722 1.703 0 .943.778 1.72 1.721 1.72a1.73 1.73 0 001.72-1.72zm-6.105 0c0-.942-.777-1.703-1.737-1.703-.943 0-1.704.761-1.704 1.703 0 .943.761 1.72 1.704 1.72.96 0 1.737-.777 1.737-1.72z" fill="#000"/></svg>