<svg xmlns="http://www.w3.org/2000/svg" viewBox="0 0 51.87 50">
      <path fill="#000"
            d="M51.58 12.17a.3.3 0 0 0 .28-.28v-.09h-7.58v.09a.3.3 0 0 0 .28.28 1 1 0 0 1 .94 1v9.74H25.56l.37 1H45.5v9.79a1 1 0 0 1-.94 1 .3.3 0 0 0-.28.28v.09h7.58V35a.3.3 0 0 0-.28-.28 1.08 1.08 0 0 1-.94-1V13.2c-.09-.2.1-.84.94-1.03zM19 24l-.37-1H6.55v-9.8a1.08 1.08 0 0 1 .94-1 .3.3 0 0 0 .28-.28H0a.3.3 0 0 0 .28.28 1 1 0 0 1 .94 1v20.5a1 1 0 0 1-.94 1A.3.3 0 0 0 0 35v.09h7.77V35a.3.3 0 0 0-.28-.28 1.08 1.08 0 0 1-.94-1V24z"></path>
      <path fill="#000"
            d="M33.23 24.62H32L28.93 35 17.88 1.5a1 1 0 0 1 .56-1.13q.28-.14.28-.28V0h-8.23v.09a.3.3 0 0 0 .28.28 2.59 2.59 0 0 1 1.69 1.31v.09l12.16 37.18 1.12 3c-.19.47-2.53 8.33 1.59 8.05 2.15-.09 3-2.62 3.28-5.9a19.48 19.48 0 0 0-.94-7zm-6.45 24.72c-.75 0-1.87-.66-.09-5.71.28.75.47 1.5.56 1.78.84 2.8.37 3.93-.47 3.93zM40.72 0H38v.09c0 .09 0 .19.28.28a1.06 1.06 0 0 1 .66 1.22l-6.27 20.69h1.22l6.18-20.5A2.31 2.31 0 0 1 41.75.37.3.3 0 0 0 42 .09V0z"></path>
</svg>