<svg version="1.1" id="Layer_1" xmlns="http://www.w3.org/2000/svg" x="0" y="0" viewBox="0 0 240.6 27.6" xml:space="preserve"><path d="M7.3 27.6L0 .5h4.8l5.6 20.8 6-20.8h4.5L27 21.4 32.7.5h4.8l-7.3 27.1h-5.6L18.7 7.3l-5.9 20.3H7.3zM40.8.5h4.6v27.1h-4.6V.5zm14.3 22.8h11.1v4.2H50.6V.5h4.5v22.8zM80.3.5c3.8 0 6.9 1.3 9.3 3.9 2.5 2.6 3.8 5.8 3.8 9.6s-1.3 7-3.8 9.6c-2.5 2.6-5.6 3.9-9.3 3.9H69.6V.5h10.7zm0 22.9c2.6 0 4.7-.9 6.3-2.6 1.6-1.8 2.5-4 2.5-6.7s-.8-4.9-2.5-6.7c-1.6-1.8-3.7-2.6-6.3-2.6h-6.2v18.6h6.2zm37.3-3.6c0 2.2-.8 4.1-2.4 5.5s-3.5 2.2-5.8 2.2H97.6V.5h10.9c2.2 0 4.1.8 5.7 2.2 1.6 1.4 2.3 3.2 2.3 5.3 0 2.4-.9 4.2-2.8 5.5 2.4 1.3 3.9 3.5 3.9 6.3zM102.1 4.7v7.1h6.4c2 0 3.5-1.6 3.5-3.6s-1.5-3.6-3.5-3.6h-6.4zm7.3 18.7c2.1 0 3.7-1.7 3.7-3.8 0-2.1-1.6-3.8-3.7-3.8h-7.2v7.6h7.2zm16.9-.1h12.1v4.3h-16.6V.5h16.4v4.3h-11.9v7h10.9V16h-10.9v7.3zm31.7 4.3l-5.8-9.9h-5.3v9.9h-4.5V.5h10.9c2.5 0 4.5.8 6.2 2.6 1.7 1.7 2.6 3.7 2.6 6.2 0 3.4-2.2 6.6-5.4 7.8l6.2 10.5H158zM146.9 4.7v9.1h6.4c2.4 0 4.3-2 4.3-4.5s-1.9-4.5-4.3-4.5c.1-.1-6.4-.1-6.4-.1zM182 27.6l-5.8-9.9h-5.3v9.9h-4.5V.5h10.9c2.5 0 4.5.8 6.2 2.6 1.7 1.7 2.6 3.7 2.6 6.2 0 3.4-2.2 6.6-5.4 7.8l6.2 10.5H182zM170.9 4.7v9.1h6.4c2.4 0 4.3-2 4.3-4.5s-1.9-4.5-4.3-4.5h-6.4zM190.2.5h4.5v27.1h-4.5V.5zm14.3 22.8h12.1v4.3H200V.5h16.4v4.3h-11.9v7h10.9V16h-10.9v7.3zm15.2-1.9l3.9-2.2c1.1 3.1 3.3 4.6 6.8 4.6 3.4 0 5.1-1.4 5.1-3.6 0-1.1-.5-1.9-1.4-2.5-.9-.6-2.5-1.3-4.9-1.9-2.6-.8-3.9-1.3-5.7-2.5-1.8-1.3-2.6-3-2.6-5.5 0-2.4.9-4.3 2.6-5.7 1.7-1.4 3.8-2.1 6.2-2.1 4.4 0 7.8 2.3 9.5 6l-3.8 2.2c-1.1-2.5-3.1-3.8-5.7-3.8s-4.3 1.3-4.3 3.4c0 2 1.3 2.9 5.5 4.2 1 .3 1.8.6 2.3.8.5.2 1.2.4 2 .8.9.3 1.6.8 2 1.1 1.5 1.1 3 3 2.8 5.6 0 2.4-.9 4.4-2.7 5.8-1.8 1.4-4.1 2.1-7 2.1-5.3-.1-9.1-2.6-10.6-6.8z" fill="#414141"/></svg>