<?xml version="1.0" encoding="utf-8"?>
<!-- Generator: Adobe Illustrator 23.1.0, SVG Export Plug-In . SVG Version: 6.00 Build 0)  -->
<svg version="1.1" id="Layer_1" xmlns="http://www.w3.org/2000/svg" xmlns:xlink="http://www.w3.org/1999/xlink" x="0px" y="0px"
	 viewBox="0 0 240.6 27.6" style="enable-background:new 0 0 240.6 27.6;" xml:space="preserve">
<style type="text/css">
	.st0{fill:#414141;}
</style>
<g>
	<g>
		<path class="st0" d="M7.3,27.6L0,0.5h4.8l5.6,20.8l6-20.8l4.5,0L27,21.4l5.7-20.9l4.8,0l-7.3,27.1l-5.6,0L18.7,7.3l-5.9,20.3
			C12.9,27.6,7.3,27.6,7.3,27.6z M40.8,0.5h4.6v27.1h-4.6V0.5z M55.1,23.3h11.1v4.2H50.6V0.5h4.5C55.1,0.5,55.1,23.3,55.1,23.3z
			 M80.3,0.5c3.8,0,6.9,1.3,9.3,3.9c2.5,2.6,3.8,5.8,3.8,9.6c0,3.8-1.3,7-3.8,9.6c-2.5,2.6-5.6,3.9-9.3,3.9H69.6V0.5L80.3,0.5
			L80.3,0.5z M80.3,23.4c2.6,0,4.7-0.9,6.3-2.6c1.6-1.8,2.5-4,2.5-6.7c0-2.7-0.8-4.9-2.5-6.7c-1.6-1.8-3.7-2.6-6.3-2.6h-6.2v18.6
			C74.1,23.4,80.3,23.4,80.3,23.4z M117.6,19.8c0,2.2-0.8,4.1-2.4,5.5s-3.5,2.2-5.8,2.2H97.6V0.5h10.9c2.2,0,4.1,0.8,5.7,2.2
			c1.6,1.4,2.3,3.2,2.3,5.3c0,2.4-0.9,4.2-2.8,5.5C116.1,14.8,117.6,17,117.6,19.8z M102.1,4.7v7.1h6.4c2,0,3.5-1.6,3.5-3.6
			s-1.5-3.6-3.5-3.6H102.1z M109.4,23.4c2.1,0,3.7-1.7,3.7-3.8c0-2.1-1.6-3.8-3.7-3.8h-7.2v7.6L109.4,23.4
			C109.4,23.4,109.4,23.4,109.4,23.4z M126.3,23.3h12.1v4.3h-16.6V0.5h16.4v4.3h-11.9v7h10.9V16h-10.9L126.3,23.3L126.3,23.3z
			 M158,27.6l-5.8-9.9h-5.3v9.9h-4.5V0.5h10.9c2.5,0,4.5,0.8,6.2,2.6c1.7,1.7,2.6,3.7,2.6,6.2c0,3.4-2.2,6.6-5.4,7.8l6.2,10.5H158z
			 M146.9,4.7v9.1h6.4c2.4,0,4.3-2,4.3-4.5c0-2.5-1.9-4.5-4.3-4.5C153.4,4.7,146.9,4.7,146.9,4.7z M182,27.6l-5.8-9.9h-5.3v9.9h-4.5
			V0.5h10.9c2.5,0,4.5,0.8,6.2,2.6c1.7,1.7,2.6,3.7,2.6,6.2c0,3.4-2.2,6.6-5.4,7.8l6.2,10.5H182L182,27.6z M170.9,4.7v9.1h6.4
			c2.4,0,4.3-2,4.3-4.5c0-2.5-1.9-4.5-4.3-4.5H170.9z M190.2,0.5h4.5v27.1h-4.5V0.5z M204.5,23.3h12.1v4.3H200V0.5h16.4v4.3h-11.9v7
			h10.9V16h-10.9L204.5,23.3L204.5,23.3z M219.7,21.4l3.9-2.2c1.1,3.1,3.3,4.6,6.8,4.6c3.4,0,5.1-1.4,5.1-3.6c0-1.1-0.5-1.9-1.4-2.5
			c-0.9-0.6-2.5-1.3-4.9-1.9c-2.6-0.8-3.9-1.3-5.7-2.5c-1.8-1.3-2.6-3-2.6-5.5c0-2.4,0.9-4.3,2.6-5.7c1.7-1.4,3.8-2.1,6.2-2.1
			c4.4,0,7.8,2.3,9.5,6l-3.8,2.2c-1.1-2.5-3.1-3.8-5.7-3.8c-2.6,0-4.3,1.3-4.3,3.4c0,2,1.3,2.9,5.5,4.2c1,0.3,1.8,0.6,2.3,0.8
			c0.5,0.2,1.2,0.4,2,0.8c0.9,0.3,1.6,0.8,2,1.1c1.5,1.1,3,3,2.8,5.6c0,2.4-0.9,4.4-2.7,5.8c-1.8,1.4-4.1,2.1-7,2.1
			C225,28.1,221.2,25.6,219.7,21.4L219.7,21.4z"/>
	</g>
</g>
</svg>
