<svg xmlns="http://www.w3.org/2000/svg" viewBox="0 0 394.94 394.93"><g id="Layer_2" data-name="Layer 2"><g id="Capa_1" data-name="Capa 1"><path d="M5.83 150C32 44.17 139.06-20.37 244.9 5.83S415.3 139 389.11 244.89 255.89 415.3 150 389.1-20.38 255.88 5.83 150" fill="#f1f2f2"/><path d="M276.51 186.28A75 75 0 11195 118.45a75 75 0 0181.48 67.83" fill="#ef3827"/><path d="M137.71 154.35a37.45 37.45 0 1064 38.83 37.43 37.43 0 0164 38.8 74.88 74.88 0 11-128.07-77.63" fill="#223c72"/><path d="M80.05 276.84l19.48 28.87 9.75-6.54-19.5-28.87zM77 272.28l9.75-6.57-19.5-28.9-9.75 6.55zm-34.5-18.79l42.07 62.35 9.71-6.54-42.08-62.36zm30-20.22l42.08 62.36 9.7-6.57-42-62.38zM331.19 153l-19.46-29-9.73 6.6 19.48 28.9zm-22.58-33.48l-19.45-28.97-9.73 6.57L298.91 126zm42.88 19.82l9.71-6.57-19.5-28.9-9.7 6.52zm-12.87-40.11l-19.5-28.89-9.73 6.57 19.5 28.89zm7.57 43.62l-42-62.38-9.78 6.53 42.08 62.36zm-36.8 166.45l9.73 6.54 19.5-28.84-9.75-6.57zM332 275.82l9.73 6.54 19.5-28.87-9.75-6.55zm-18.08-5.52l-19.48 28.87 9.71 6.59 19.5-28.9zm32.3-26.92l-9.7-6.57-19.52 28.9 9.7 6.57zm-47.28 16.79l-19.5 28.89 9.75 6.57 19.45-28.9zm12.82 2l19.46-28.9-9.71-6.59-19.51 28.9zM72.46 153l9.73 6.55 42.05-62.38-9.7-6.55zm-5.27-3.56L109.28 87l-9.75-6.54-42.07 62.39zm27.09-72.53l-9.71-6.57-42.1 62.38 9.73 6.57z" fill="#3e3e3f"/></g></g></svg>