<svg xmlns="http://www.w3.org/2000/svg" viewBox="0 0 435.68 415.3"><defs><radialGradient id="radial-gradient" cx="-3049.8" cy="2300.37" r="1" gradientTransform="matrix(197.47 0 0 -197.47 602454.43 454445.81)" gradientUnits="userSpaceOnUse"><stop offset="0" stop-color="#fff"/><stop offset=".78" stop-color="#fff"/><stop offset=".82" stop-color="#f9f8f8"/><stop offset=".88" stop-color="#e9e6e3"/><stop offset=".94" stop-color="#cfc8c2"/><stop offset="1" stop-color="#b6aba1"/></radialGradient><clipPath id="clip-path"><path d="M217.68 0C129.05 0 48.46 60.11 26.21 150 0 255.88 64.57 362.92 170.41 389.1s212.88-38.36 239.08-144.21S371.14 32 265.28 5.83A198 198 0 00217.69 0" fill="none"/></clipPath></defs><g id="Layer_2" data-name="Layer 2"><g id="Capa_1" data-name="Capa 1"><g clip-path="url(#clip-path)"><path fill="url(#radial-gradient)" d="M0 0h435.68v415.3H0z"/></g><path d="M26.21 150C52.4 44.17 159.44-20.37 265.28 5.83S435.68 139 409.49 244.89 276.27 415.3 170.41 389.1 0 255.88 26.21 150" fill="#223c72"/><path d="M357.9 58.27l-79.39 52.92V9.6c-4.34-1.39-8.74-2.66-13.23-3.77a196.44 196.44 0 00-108.61 3.92V111.2L77.59 58.49a196.19 196.19 0 00-42.82 65.08l20.94 14H29.76q-2 6.15-3.55 12.51a196.47 196.47 0 004.15 109.33h25.87l-20.72 13.77A198.49 198.49 0 0079 337.81L156.67 286v99.13q6.75 2.2 13.74 3.94a196.51 196.51 0 00108.1-3.75V286l78 52a196.24 196.24 0 0043.57-64.56l-21.15-14.09h26.38q2.34-7.11 4.17-14.48A196.64 196.64 0 00406 137.53h-26.54l21.36-14.23a198.28 198.28 0 00-42.92-65" fill="#efebe7"/><path d="M126.3 137.53L53 88.77a195.06 195.06 0 00-13.18 23.3l38.27 25.46zm256.1-49.14a198 198 0 00-16.26-21.27l-87.63 58.27v12.14h30zM53.53 306.9a197.82 197.82 0 0016.3 21.22l86.84-57.75v-11H125zm358.74-144H253.13V3.23a196.33 196.33 0 00-71.09 0V162.9H23.48a196.29 196.29 0 00.31 71.1H182v157.6a196.18 196.18 0 0071.09.15V234h158.77a196.33 196.33 0 00.41-71.06m-102.06 96.43l71.85 47.77a194.78 194.78 0 0013.3-23.22l-36.93-24.55z" fill="#ef3827"/><path d="M278.51 30.15V43a22.93 22.93 0 001.18-6.89 14.4 14.4 0 00-1.18-5.92" fill="#303f66"/></g></g></svg>