<svg xmlns="http://www.w3.org/2000/svg" xmlns:xlink="http://www.w3.org/1999/xlink"><defs><radialGradient id="b" cx="-3049.8" cy="2300.37" r="1" gradientTransform="matrix(197.47 0 0 -197.47 602454.43 454445.81)" gradientUnits="userSpaceOnUse"><stop offset="0" stop-color="#fff"/><stop offset=".78" stop-color="#fff"/><stop offset=".82" stop-color="#f9f8f8"/><stop offset=".88" stop-color="#e9e6e3"/><stop offset=".94" stop-color="#cfc8c2"/><stop offset="1" stop-color="#b6aba1"/></radialGradient><clipPath id="a"><path d="M217.68 0C129.05 0 48.46 60.11 26.21 150 0 255.88 64.57 362.92 170.41 389.1s212.88-38.36 239.08-144.21S371.14 32 265.28 5.83A198 198 0 00217.69 0" fill="none"/></clipPath><linearGradient id="a" data-name="&#x411;&#x435;&#x437;&#x44B;&#x43C;&#x44F;&#x43D;&#x43D;&#x44B;&#x439; &#x433;&#x440;&#x430;&#x434;&#x438;&#x435;&#x43D;&#x442; 5" x1="38.39" y1="26.22" x2="316.65" y2="304.47" gradientUnits="userSpaceOnUse"><stop offset="0" stop-color="#fbc6a2"/><stop offset="1" stop-color="#aa7c4a"/></linearGradient><linearGradient id="b" x1="-5.23" y1="313.57" x2="22.93" y2="341.73" xlink:href="#a"/><linearGradient id="c" x1="27.71" y1="312.54" x2="57.29" y2="342.12" xlink:href="#a"/><linearGradient id="d" x1="61.11" y1="321.3" x2="90.04" y2="350.24" xlink:href="#a"/><linearGradient id="e" x1="99.94" y1="308.3" x2="131.15" y2="339.51" xlink:href="#a"/><linearGradient id="f" x1="136.56" y1="308.75" x2="163.68" y2="335.88" xlink:href="#a"/><linearGradient id="g" x1="166.01" y1="306.67" x2="194.46" y2="335.11" xlink:href="#a"/><linearGradient id="h" x1="214.88" y1="312.01" x2="236.33" y2="333.45" xlink:href="#a"/><linearGradient id="i" x1="248.67" y1="312.06" x2="278.36" y2="341.75" xlink:href="#a"/><linearGradient id="j" x1="284.22" y1="313.35" x2="315.79" y2="344.92" xlink:href="#a"/><linearGradient id="k" x1="323.3" y1="311.92" x2="353.07" y2="341.7" xlink:href="#a"/><linearGradient id="l" x1="351.96" y1="312.01" x2="381.32" y2="341.37" xlink:href="#a"/></defs><symbol id="bars" viewBox="0 0 448 512"><path d="M436 124H12c-6.627 0-12-5.373-12-12V80c0-6.627 5.373-12 12-12h424c6.627 0 12 5.373 12 12v32c0 6.627-5.373 12-12 12zm0 160H12c-6.627 0-12-5.373-12-12v-32c0-6.627 5.373-12 12-12h424c6.627 0 12 5.373 12 12v32c0 6.627-5.373 12-12 12zm0 160H12c-6.627 0-12-5.373-12-12v-32c0-6.627 5.373-12 12-12h424c6.627 0 12 5.373 12 12v32c0 6.627-5.373 12-12 12z"/></symbol><symbol id="clock" viewBox="0 0 512 512"><path d="M256 8C119 8 8 119 8 256s111 248 248 248 248-111 248-248S393 8 256 8zm0 448c-110.5 0-200-89.5-200-200S145.5 56 256 56s200 89.5 200 200-89.5 200-200 200zm61.8-104.4l-84.9-61.7c-3.1-2.3-4.9-5.9-4.9-9.7V116c0-6.6 5.4-12 12-12h32c6.6 0 12 5.4 12 12v141.7l66.8 48.6c5.4 3.9 6.5 11.4 2.6 16.8L334.6 349c-3.9 5.3-11.4 6.5-16.8 2.6z"/></symbol><symbol id="facebook" viewBox="0 0 320 512"><path d="M279.14 288l14.22-92.66h-88.91v-60.13c0-25.35 12.42-50.06 52.24-50.06h40.42V6.26S260.43 0 225.36 0c-73.22 0-121.08 44.38-121.08 124.72v70.62H22.89V288h81.39v224h100.17V288z"/></symbol><symbol id="flag-en" viewBox="0 0 435.68 415.3"><g data-name="Layer 2"><g data-name="Capa 1"><g clip-path="url(#a)"><path fill="url(#b)" d="M0 0h435.68v415.3H0z"/></g><path d="M26.21 150C52.4 44.17 159.44-20.37 265.28 5.83S435.68 139 409.49 244.89 276.27 415.3 170.41 389.1 0 255.88 26.21 150" fill="#223c72"/><path d="M357.9 58.27l-79.39 52.92V9.6c-4.34-1.39-8.74-2.66-13.23-3.77a196.44 196.44 0 00-108.61 3.92V111.2L77.59 58.49a196.19 196.19 0 00-42.82 65.08l20.94 14H29.76q-2 6.15-3.55 12.51a196.47 196.47 0 004.15 109.33h25.87l-20.72 13.77A198.49 198.49 0 0079 337.81L156.67 286v99.13q6.75 2.2 13.74 3.94a196.51 196.51 0 00108.1-3.75V286l78 52a196.24 196.24 0 0043.57-64.56l-21.15-14.09h26.38q2.34-7.11 4.17-14.48A196.64 196.64 0 00406 137.53h-26.54l21.36-14.23a198.28 198.28 0 00-42.92-65" fill="#efebe7"/><path d="M126.3 137.53L53 88.77a195.06 195.06 0 00-13.18 23.3l38.27 25.46zm256.1-49.14a198 198 0 00-16.26-21.27l-87.63 58.27v12.14h30zM53.53 306.9a197.82 197.82 0 0016.3 21.22l86.84-57.75v-11H125zm358.74-144H253.13V3.23a196.33 196.33 0 00-71.09 0V162.9H23.48a196.29 196.29 0 00.31 71.1H182v157.6a196.18 196.18 0 0071.09.15V234h158.77a196.33 196.33 0 00.41-71.06m-102.06 96.43l71.85 47.77a194.78 194.78 0 0013.3-23.22l-36.93-24.55z" fill="#ef3827"/><path d="M278.51 30.15V43a22.93 22.93 0 001.18-6.89 14.4 14.4 0 00-1.18-5.92" fill="#303f66"/></g></g></symbol><symbol id="flag-ko" viewBox="0 0 394.94 394.93"><g data-name="Layer 2"><g data-name="Capa 1"><path d="M5.83 150C32 44.17 139.06-20.37 244.9 5.83S415.3 139 389.11 244.89 255.89 415.3 150 389.1-20.38 255.88 5.83 150" fill="#f1f2f2"/><path d="M276.51 186.28A75 75 0 11195 118.45a75 75 0 0181.48 67.83" fill="#ef3827"/><path d="M137.71 154.35a37.45 37.45 0 1064 38.83 37.43 37.43 0 0164 38.8 74.88 74.88 0 11-128.07-77.63" fill="#223c72"/><path d="M80.05 276.84l19.48 28.87 9.75-6.54-19.5-28.87zM77 272.28l9.75-6.57-19.5-28.9-9.75 6.55zm-34.5-18.79l42.07 62.35 9.71-6.54-42.08-62.36zm30-20.22l42.08 62.36 9.7-6.57-42-62.38zM331.19 153l-19.46-29-9.73 6.6 19.48 28.9zm-22.58-33.48l-19.45-28.97-9.73 6.57L298.91 126zm42.88 19.82l9.71-6.57-19.5-28.9-9.7 6.52zm-12.87-40.11l-19.5-28.89-9.73 6.57 19.5 28.89zm7.57 43.62l-42-62.38-9.78 6.53 42.08 62.36zm-36.8 166.45l9.73 6.54 19.5-28.84-9.75-6.57zM332 275.82l9.73 6.54 19.5-28.87-9.75-6.55zm-18.08-5.52l-19.48 28.87 9.71 6.59 19.5-28.9zm32.3-26.92l-9.7-6.57-19.52 28.9 9.7 6.57zm-47.28 16.79l-19.5 28.89 9.75 6.57 19.45-28.9zm12.82 2l19.46-28.9-9.71-6.59-19.51 28.9zM72.46 153l9.73 6.55 42.05-62.38-9.7-6.55zm-5.27-3.56L109.28 87l-9.75-6.54-42.07 62.39zm27.09-72.53l-9.71-6.57-42.1 62.38 9.73 6.57z" fill="#3e3e3f"/></g></g></symbol><symbol id="instagram" viewBox="0 0 448 512"><path d="M224.1 141c-63.6 0-114.9 51.3-114.9 114.9s51.3 114.9 114.9 114.9S339 319.5 339 255.9 287.7 141 224.1 141zm0 189.6c-41.1 0-74.7-33.5-74.7-74.7s33.5-74.7 74.7-74.7 74.7 33.5 74.7 74.7-33.6 74.7-74.7 74.7zm146.4-194.3c0 14.9-12 26.8-26.8 26.8-14.9 0-26.8-12-26.8-26.8s12-26.8 26.8-26.8 26.8 12 26.8 26.8zm76.1 27.2c-1.7-35.9-9.9-67.7-36.2-93.9-26.2-26.2-58-34.4-93.9-36.2-37-2.1-147.9-2.1-184.9 0-35.8 1.7-67.6 9.9-93.9 36.1s-34.4 58-36.2 93.9c-2.1 37-2.1 147.9 0 184.9 1.7 35.9 9.9 67.7 36.2 93.9s58 34.4 93.9 36.2c37 2.1 147.9 2.1 184.9 0 35.9-1.7 67.7-9.9 93.9-36.2 26.2-26.2 34.4-58 36.2-93.9 2.1-37 2.1-147.8 0-184.8zM398.8 388c-7.8 19.6-22.9 34.7-42.6 42.6-29.5 11.7-99.5 9-132.1 9s-102.7 2.6-132.1-9c-19.6-7.8-34.7-22.9-42.6-42.6-11.7-29.5-9-99.5-9-132.1s-2.6-102.7 9-132.1c7.8-19.6 22.9-34.7 42.6-42.6 29.5-11.7 99.5-9 132.1-9s102.7-2.6 132.1 9c19.6 7.8 34.7 22.9 42.6 42.6 11.7 29.5 9 99.5 9 132.1s2.7 102.7-9 132.1z"/></symbol><symbol id="logo-gold" viewBox="0 0 376.37 347.31"><g data-name="Layer 2"><g data-name="&#x421;&#x43B;&#x43E;&#x439; 1"><path d="M354.51 155.69a74.26 74.26 0 00-52.8-21.93h-.09a74.18 74.18 0 00-24.24 4 78.92 78.92 0 00-9.52-5.26 70.77 70.77 0 0016.58-12.34A70.41 70.41 0 00234.65 0H56.46v15.56h31.17v60.28H56.46v15.55h31.17v43.47a75.48 75.48 0 00-12.88-1.1 74.75 74.75 0 000 149.5h159.9a78.56 78.56 0 0034-7.65 74.76 74.76 0 0085.87-119.92zM87.63 267.7H74.75a59.19 59.19 0 1112.88-117zm15.56-252.14h61.06v60.28h-61.06zm61.06 252.14h-61.06V156.58a61.25 61.25 0 016.46 4.12l54.6 39.94zm-45.41-119.56a77.79 77.79 0 00-7.6-4.89 76.48 76.48 0 00-8-3.9v-48h61.06v90zM234.65 267.7h-54.84V212l72.64 53.14a63.39 63.39 0 01-17.8 2.56zm34.1-10c-.69-.46-1.36-.93-2-1.42l-86.91-63.58V91.39h29.36V75.84h-29.39V15.56h54.84a54.85 54.85 0 010 109.7h-25.1v15.56h25.1a63.43 63.43 0 0134.1 116.92zm32.88 10a59.41 59.41 0 01-16.81-2.41c2-1.62 3.87-3.35 5.7-5.17a79 79 0 001.62-110 59.72 59.72 0 019.48-.75h.08a59.19 59.19 0 01-.07 118.38z" fill="url(#a)"/><path d="M0 308.34h11.66q.67 0 1.35.06a18.55 18.55 0 013.1.49 7.14 7.14 0 012.73 1.35 8.66 8.66 0 012.64 3.19 10.54 10.54 0 011 4v.43a9.92 9.92 0 01-1.32 5 7.26 7.26 0 01-4 3.31 7.7 7.7 0 015.1 3.38 11.54 11.54 0 012 5.71v1.41A11.94 11.94 0 0123 341a8.31 8.31 0 01-3.07 3.4 9 9 0 01-2.85 1.26 18 18 0 01-3.22.52c-.57 0-1.15.07-1.72.09H0zm6 16h1.18a1.88 1.88 0 00.55.07h1.48a4.88 4.88 0 00.85-.07 11 11 0 004.3-1.07c1.31-.63 2-1.87 2-3.71V319q0-3.56-2.4-4.48a15.54 15.54 0 00-5.28-1H6zm.62 16.82h.61s.07.06.09.06h2a6.12 6.12 0 00.83-.06 13.39 13.39 0 005.27-1.26c1.6-.75 2.4-2.34 2.4-4.75V335c0-2.41-.78-4-2.33-4.72a13.22 13.22 0 00-5.12-1.28H6v12.15z" fill="url(#b)"/><path d="M31.91 308.34h21.17v5.34h-15v9.39h15v5.46h-15v12.21h15v5.58H31.91z" fill="url(#c)"/><path d="M83.15 336.51h-15l-4.36 9.81h-6.5l18.28-39.45L94 346.32h-6.61zm-8.07-15.9a15.15 15.15 0 01-.83 2.15l-3.86 8.65h10.55l-3.86-8.65c-.25-.57-.46-1.15-.65-1.72s-.36-1.17-.52-1.78c0-.12-.08-.25-.12-.4s-.08-.29-.12-.46c-.17.74-.36 1.47-.59 2.21z" fill="url(#d)"/><path d="M106.1 308.34v23.07a11.71 11.71 0 002.21 7.46q2.22 2.79 7.24 2.79 4.86 0 7.15-2.82a11.36 11.36 0 002.31-7.43v-23.07h6.13V332q0 7.67-3.93 11.41t-11.66 3.74q-7.67 0-11.66-3.77t-4-11.38v-23.66z" fill="url(#e)"/><path d="M153.23 346.32H147v-32.64h-10v-5.34h26.27v5.34h-10z" fill="url(#f)"/><path d="M177.11 328.9l-12.77-20.56h6.44l8 13a3.33 3.33 0 01.43.67l.37.74.12.24.13.31c.08.16.17.33.27.49s.2.33.28.49a13.17 13.17 0 01.7-1.62c.27-.52.57-1 .89-1.57l8.17-12.7h6.13l-13 20.56v17.42h-6.13z" fill="url(#g)"/><path d="M219.83 346.32v-39.26h19.47v3.37h-15.84v12.27h15.22v3.37h-15.22v20.25z" fill="url(#h)"/><path d="M263.46 347.31a22.81 22.81 0 01-10.31-2.39 18.66 18.66 0 01-7.73-7.06 21 21 0 01-2.89-11.24 19.58 19.58 0 013-10.8 20.55 20.55 0 017.91-7.12 22.33 22.33 0 0110.25-2.51 21.09 21.09 0 018.41 1.6 19.86 19.86 0 0110.8 11 21.66 21.66 0 011.54 8.11 20.19 20.19 0 01-2.83 10.72 18.68 18.68 0 01-7.61 7.18 22.38 22.38 0 01-10.54 2.51zm0-3.07a17.09 17.09 0 008.72-2.27 16.55 16.55 0 006.19-6.21 16.93 16.93 0 002.28-8.76 19.41 19.41 0 00-1.9-8.29 17 17 0 00-5.83-6.7 16.24 16.24 0 00-9.34-2.63 18.25 18.25 0 00-7.91 1.9 16.74 16.74 0 00-6.69 5.89 17 17 0 00-2.64 9.57 17.88 17.88 0 002.15 8.66 17 17 0 0015 8.84z" fill="url(#i)"/><path d="M314.39 346.32H310l-13.81-18.65h-2.08v18.65h-3.63v-39.26h7.24q12.64 0 12.64 10.72 0 5.1-3.13 7.37a13.52 13.52 0 01-7 2.52zm-17.49-21.6a15.52 15.52 0 007.12-1.35q2.58-1.29 2.58-5.76c0-2.69-.76-4.61-2.26-5.76s-4-1.66-7.38-1.66h-2.81v14.53z" fill="url(#j)"/><path d="M338.75 309.38a18 18 0 00-9 2.15 14.35 14.35 0 00-5.75 6.07 19.55 19.55 0 00-2.08 9.19q0 8.06 4.6 12.71t12.09 4.67a20.23 20.23 0 0012.58-4.68l-.06 4.18a24.1 24.1 0 01-5.88 2.59 25.18 25.18 0 01-6.82.92 26.55 26.55 0 01-9.28-1.71 17 17 0 01-7.85-6.26Q318 334.67 318 327a24.77 24.77 0 012.15-10.37 16.77 16.77 0 016.81-7.55 22.45 22.45 0 0111.91-2.89 21.72 21.72 0 0112.63 4.18l-.12 3.92a26.07 26.07 0 00-5.15-3.43 16.73 16.73 0 00-7.48-1.48z" fill="url(#k)"/><path d="M356.91 346.32v-39.26h19.46v3.37h-15.84v12.27h15.84v3.37h-15.84V343h15.84v3.31z" fill="url(#l)"/></g></g></symbol><symbol id="logo" viewBox="0 0 233.6 50"><style>.st0{fill:#fff}</style><path class="st0" d="M55.1 27.1c-2.1-2.1-5-3.3-8-3.3-1.3 0-2.5.2-3.7.6-.5-.3-.9-.6-1.4-.8.9-.5 1.8-1.1 2.5-1.9 2-2 3.1-4.7 3.1-7.5 0-2.9-1.1-5.5-3.1-7.5S39.8 3.6 37 3.6H10V6h4.7v9H10v2.4h4.7V24c-.6-.1-1.3-.2-2-.2-3 0-5.9 1.2-8 3.3-2.1 2.1-3.3 5-3.3 8s1.2 5.9 3.3 8c2.1 2.1 5 3.3 8 3.3h24.2c1.8 0 3.6-.4 5.1-1.2 1.5.8 3.3 1.2 5 1.2 3 0 5.9-1.2 8-3.3 2.1-2.1 3.3-5 3.3-8s-1.1-5.8-3.2-8zm-40.4 17h-2c-4.9 0-9-4-9-9s4-9 9-9c.7 0 1.3.1 2 .2v17.8zM17 5.9h9.2V15H17V5.9zm9.3 38.2H17V27.3c.3.2.7.4 1 .6l8.3 6v10.2zM19.4 26c-.4-.3-.8-.5-1.2-.7l-1.2-.6v-7.3h9.2V31l-6.8-5zm17.5 18.1h-8.3v-8.4l11 8c-.8.3-1.7.4-2.7.4zm5.2-1.5c-.1-.1-.2-.1-.3-.2l-13.1-9.6V17.4h4.4V15h-4.5V5.9h8.3c4.6 0 8.3 3.7 8.3 8.3s-3.7 8.3-8.3 8.3h-3.8v2.4h3.8c5.3 0 9.6 4.3 9.6 9.6 0 3.4-1.7 6.4-4.4 8.1zm5 1.5c-.9 0-1.7-.1-2.6-.4.3-.2.6-.5.9-.8 2.3-2.3 3.5-5.3 3.5-8.5 0-3.1-1.2-6-3.3-8.2.5-.1 1-.1 1.4-.1 4.9 0 9 4 9 9s-4 9-8.9 9zM71.1 8.1h5.6c.5 0 .9.1 1.3.2s.8.3 1.2.6c.5.4.9.8 1.1 1.4.3.5.4 1.1.4 1.7v.2c0 .8-.2 1.5-.6 2.1-.4.7-1 1.1-1.7 1.4.9.2 1.7.7 2.2 1.4s.8 1.6.8 2.4V20.1c-.1.6-.2 1.3-.5 1.9-.3.6-.7 1.1-1.3 1.5-.4.2-.8.4-1.2.5-.4.1-.9.2-1.4.2h-6l.1-16.1zm2.5 6.8H75.3c.7 0 1.3-.2 1.8-.5.6-.3.8-.8.9-1.6v-.2c0-1-.3-1.7-1-1.9-.7-.3-1.4-.4-2.3-.4h-.1-1v4.6zm.3 7.2h1.5c.8 0 1.6-.2 2.3-.5.7-.3 1-1 1-2v-.1c0-1-.3-1.7-1-2-.7-.3-1.4-.5-2.2-.5H73.7v5.2c0-.1.1-.1.2-.1zM84.7 8.1h9v2.3h-6.4v4h6.4v2.3h-6.4v5.2h6.4v2.4h-9V8.1zM106.5 20.1h-6.4l-1.9 4.2h-2.8l7.8-16.8 7.8 16.8h-2.8l-1.7-4.2zm-3.4-6.8c-.1.3-.2.6-.4.9l-1.7 3.7h4.5l-1.7-3.7c-.1-.2-.2-.5-.3-.7-.1-.2-.2-.5-.2-.8 0-.1 0-.1-.1-.2 0-.1 0-.1-.1-.2.2.4.1.7 0 1zM116.3 8.1V18c0 1.3.3 2.4.9 3.2.6.8 1.7 1.2 3.1 1.2 1.4 0 2.4-.4 3.1-1.2.7-.8 1-1.9 1-3.2V8.2h2.6v10.1c0 2.2-.6 3.8-1.7 4.9-1.1 1.1-2.8 1.6-5 1.6s-3.9-.5-5-1.6-1.7-2.7-1.7-4.8V8.2l2.7-.1zM136.4 24.3h-2.7V10.4h-4.3V8.1h11.2v2.3h-4.3v13.9zM146.6 16.9l-5.4-8.8h2.8l3.4 5.5c.1.1.1.2.2.3.1.1.1.2.2.3 0 0 0 .1.1.1 0 0 0 .1.1.1 0 .1.1.1.1.2s.1.1.1.2c.1-.2.2-.5.3-.7.1-.2.2-.4.4-.7l3.5-5.4h2.6l-5.5 8.8v7.4h-2.6l-.3-7.3zM164.8 24.3V7.6h8.3V9h-6.7v5.2h6.5v1.4h-6.5v8.6l-1.6.1zM183.4 24.7c-1.6 0-3-.3-4.4-1-1.4-.7-2.5-1.7-3.3-3-.8-1.3-1.2-2.9-1.2-4.8 0-1.7.4-3.3 1.3-4.6.9-1.3 2-2.3 3.4-3 1.4-.7 2.9-1.1 4.4-1.1 1.3 0 2.5.2 3.6.7 1.1.5 2 1.1 2.8 1.9.8.8 1.4 1.7 1.8 2.8.4 1.1.7 2.3.7 3.5 0 1.7-.4 3.3-1.2 4.6-.8 1.3-1.9 2.4-3.3 3.1-1.4.6-2.9.9-4.6.9zm0-1.3c1.4 0 2.6-.3 3.7-1 1.1-.6 2-1.5 2.7-2.7.7-1.1 1-2.4 1-3.8 0-1.2-.3-2.4-.8-3.5-.6-1.2-1.4-2.1-2.5-2.9-1.1-.8-2.4-1.1-4-1.1-1.1 0-2.2.3-3.4.8-1.2.6-2.1 1.4-2.9 2.5-.8 1.1-1.1 2.5-1.1 4.1 0 1.3.3 2.6.9 3.7.6 1.1 1.5 2 2.6 2.7 1.2.9 2.4 1.2 3.8 1.2zM205.2 24.3h-1.9l-5.9-8h-.9v8H195V7.6h3.1c3.6 0 5.4 1.5 5.4 4.6 0 1.5-.4 2.5-1.3 3.2-.9.6-1.9 1-3 1.1l6 7.8zm-7.5-9.2c1.3 0 2.3-.2 3-.6.7-.4 1.1-1.2 1.1-2.5 0-1.2-.3-2-1-2.5s-1.7-.7-3.2-.7h-1.2V15l1.3.1zM215.5 8.6c-1.5 0-2.7.3-3.8.9-1.1.6-1.9 1.5-2.5 2.6-.6 1.1-.9 2.4-.9 3.9 0 2.3.7 4.1 2 5.4 1.3 1.3 3 2 5.1 2 1.9 0 3.7-.7 5.4-2v1.8c-.8.5-1.6.8-2.5 1.1s-1.9.4-2.9.4c-1.3 0-2.7-.2-4-.7-1.3-.5-2.4-1.4-3.4-2.7-.9-1.3-1.4-3-1.4-5.2 0-1.6.3-3.1.9-4.4.6-1.3 1.6-2.4 2.9-3.2 1.3-.8 3-1.2 5.1-1.2 1.9 0 3.7.6 5.4 1.8l-.1 1.7c-.6-.5-1.4-1-2.2-1.5-.8-.5-1.8-.7-3.1-.7zM223.3 24.3V7.6h8.3V9h-6.7v5.2h6.7v1.4h-6.7v7.2h6.7v1.4l-8.3.1z"/><g><path class="st0" d="M78.7 36.5v.7c-.4-.4-.8-.8-1.3-1-.5-.2-1-.4-1.6-.4-1.1 0-2 .4-2.7 1.1-.7.8-1.1 1.7-1.1 2.8 0 .6.1 1.2.4 1.7.2.5.5.9.9 1.2.4.3.8.6 1.2.7.4.2.9.3 1.3.3.5 0 1-.1 1.5-.3.5-.2 1-.5 1.4-1v.7c-.7.8-1.7 1.1-2.7 1.1-1.3 0-2.3-.4-3.2-1.3-.9-.9-1.3-1.9-1.3-3.1 0-1.2.4-2.3 1.3-3.1s1.9-1.3 3.1-1.3c1.1.1 2 .4 2.8 1.2zM83.9 36.6c.9-.9 1.9-1.3 3.2-1.3 1.2 0 2.3.4 3.2 1.3.9.9 1.3 1.9 1.3 3.1 0 1.2-.4 2.3-1.3 3.1-.9.9-1.9 1.3-3.2 1.3-1.2 0-2.3-.4-3.2-1.3-.9-.8-1.3-1.9-1.3-3.1 0-1.2.5-2.2 1.3-3.1zm.4 5.9c.7.7 1.6 1.1 2.7 1.1s2-.4 2.7-1.1c.7-.8 1.1-1.7 1.1-2.8 0-1.1-.4-2-1.1-2.8-.7-.7-1.6-1.1-2.7-1.1s-2 .4-2.7 1.1c-.7.8-1.1 1.7-1.1 2.8 0 1.2.4 2.1 1.1 2.8zM100.2 36.6l-.4.3c-.4-.7-.9-1.1-1.7-1.1-.5 0-.9.2-1.2.5-.3.3-.4.7-.4 1.1 0 .2 0 .4.1.6.1.2.2.3.3.4.2.1.3.2.4.3.1.1.3.2.6.3.9.4 1.5.7 1.7.9.6.4.9 1 .9 1.7s-.3 1.3-.8 1.8-1.1.7-1.9.7c-.8 0-1.5-.3-2-.9l-.6-.9.5-.2c.1.3.3.6.5.8.4.5.9.7 1.6.7.6 0 1.1-.2 1.5-.6.4-.4.6-.8.6-1.4 0-.6-.3-1-.8-1.3-.2-.1-.7-.4-1.6-.8-.4-.2-.7-.4-.9-.5-.2-.1-.4-.3-.5-.6-.2-.3-.3-.6-.3-1 0-.6.2-1 .6-1.5s.9-.6 1.6-.6c.4 0 .8.1 1.2.3.5.3.8.6 1 1zM105.4 44h-.6l1-8.8 3.7 7.9 3.7-7.9 1 8.8h-.5l-.8-6.8-3.4 7.1-3.4-7.1-.7 6.8zM123.1 35.5v.5h-3.5v3.1h3.5v.5h-3.5v3.9h3.5v.5H119v-8.5h4.1zM131.5 36h-2.2v8h-.6v-8h-2.2v-.5h5v.5zM135.3 35.5h.6V44h-.6v-8.5zM147.6 36.5v.7c-.4-.4-.8-.8-1.3-1-.5-.2-1-.4-1.6-.4-1.1 0-2 .4-2.7 1.1-.7.8-1.1 1.7-1.1 2.8 0 .6.1 1.2.4 1.7.2.5.5.9.9 1.2.4.3.8.6 1.2.7.4.2.9.3 1.3.3.5 0 1-.1 1.5-.3.5-.2 1-.5 1.4-1v.7c-.8.7-1.8 1.1-2.8 1.1-1.3 0-2.3-.4-3.2-1.3-.9-.9-1.3-1.9-1.3-3.1 0-1.2.4-2.3 1.3-3.1.9-.9 1.9-1.3 3.1-1.3 1.1.1 2.1.4 2.9 1.2zM164.3 36.5v.7c-.4-.4-.8-.8-1.3-1-.5-.2-1-.4-1.6-.4-1.1 0-2 .4-2.7 1.1-.7.8-1.1 1.7-1.1 2.8 0 .6.1 1.2.4 1.7.2.5.5.9.9 1.2.4.3.8.6 1.2.7.4.2.9.3 1.3.3.5 0 1-.1 1.5-.3.5-.2 1-.5 1.4-1v.7c-.8.7-1.8 1.1-2.8 1.1-1.3 0-2.3-.4-3.2-1.3-.9-.9-1.3-1.9-1.3-3.1 0-1.2.4-2.3 1.3-3.1.9-.9 1.9-1.3 3.1-1.3 1.2.1 2.1.4 2.9 1.2zM169.5 36.6c.9-.9 1.9-1.3 3.2-1.3 1.2 0 2.3.4 3.2 1.3.9.9 1.3 1.9 1.3 3.1 0 1.2-.4 2.3-1.3 3.1-.9.9-1.9 1.3-3.2 1.3-1.2 0-2.3-.4-3.2-1.3-.9-.8-1.3-1.9-1.3-3.1 0-1.2.5-2.2 1.3-3.1zm.4 5.9c.7.7 1.6 1.1 2.7 1.1s2-.4 2.7-1.1c.7-.8 1.1-1.7 1.1-2.8 0-1.1-.4-2-1.1-2.8-.7-.7-1.6-1.1-2.7-1.1s-2 .4-2.7 1.1c-.7.8-1.1 1.7-1.1 2.8 0 1.2.4 2.1 1.1 2.8zM181.9 44h-.6l1-8.8 3.7 7.9 3.7-7.9 1 8.8h-.6l-.8-6.8-3.3 7.1-3.4-7.1-.7 6.8zM197.1 40H196v4h-.6v-8.5h1.7c.7 0 1.3.2 1.8.6.5.4.7.9.7 1.6s-.2 1.3-.7 1.7c-.5.4-1.1.6-1.8.6zm-1.1-4v3.5h1.1c.6 0 1-.2 1.4-.5.3-.3.5-.7.5-1.3 0-.5-.2-1-.5-1.3-.3-.3-.8-.5-1.4-.5l-1.1.1zM209.2 44l-1.1-2.8h-3.6l-1.1 2.8h-.6l3.6-8.8 3.5 8.8h-.7zm-4.5-3.3h3.2l-1.6-4-1.6 4zM214.3 44h-.6v-8.6l7.2 7.5v-7.4h.6v8.7l-7.1-7.5-.1 7.3zM228.1 44v-3.7l-2.8-4.9h.6l2.5 4.3 2.5-4.3h.6l-2.9 4.9V44h-.5z"/></g></symbol><symbol id="mail" viewBox="0 0 512 512"><path d="M464 64H48C21.49 64 0 85.49 0 112v288c0 26.51 21.49 48 48 48h416c26.51 0 48-21.49 48-48V112c0-26.51-21.49-48-48-48zm0 48v40.805c-22.422 18.259-58.168 46.651-134.587 106.49-16.841 13.247-50.201 45.072-73.413 44.701-23.208.375-56.579-31.459-73.413-44.701C106.18 199.465 70.425 171.067 48 152.805V112h416zM48 400V214.398c22.914 18.251 55.409 43.862 104.938 82.646 21.857 17.205 60.134 55.186 103.062 54.955 42.717.231 80.509-37.199 103.053-54.947 49.528-38.783 82.032-64.401 104.947-82.653V400H48z"/></symbol><symbol id="marker" viewBox="0 0 384 512"><path d="M192 0C85.903 0 0 86.014 0 192c0 71.117 23.991 93.341 151.271 297.424 18.785 30.119 62.694 30.083 81.457 0C360.075 285.234 384 263.103 384 192 384 85.903 297.986 0 192 0zm0 464C64.576 259.686 48 246.788 48 192c0-79.529 64.471-144 144-144s144 64.471 144 144c0 54.553-15.166 65.425-144 272zm-80-272c0-44.183 35.817-80 80-80s80 35.817 80 80-35.817 80-80 80-80-35.817-80-80z"/></symbol><symbol id="odnoklassniki" viewBox="0 0 320 512"><path d="M275.1 334c-27.4 17.4-65.1 24.3-90 26.9l20.9 20.6 76.3 76.3c27.9 28.6-17.5 73.3-45.7 45.7-19.1-19.4-47.1-47.4-76.3-76.6L84 503.4c-28.2 27.5-73.6-17.6-45.4-45.7 19.4-19.4 47.1-47.4 76.3-76.3l20.6-20.6c-24.6-2.6-62.9-9.1-90.6-26.9-32.6-21-46.9-33.3-34.3-59 7.4-14.6 27.7-26.9 54.6-5.7 0 0 36.3 28.9 94.9 28.9s94.9-28.9 94.9-28.9c26.9-21.1 47.1-8.9 54.6 5.7 12.4 25.7-1.9 38-34.5 59.1zM30.3 129.7C30.3 58 88.6 0 160 0s129.7 58 129.7 129.7c0 71.4-58.3 129.4-129.7 129.4s-129.7-58-129.7-129.4zm66 0c0 35.1 28.6 63.7 63.7 63.7s63.7-28.6 63.7-63.7c0-35.4-28.6-64-63.7-64s-63.7 28.6-63.7 64z"/></symbol><symbol id="ozon" viewBox="0 0 360.6 107"><style>.st0{fill:#005bff}</style><g id="Logo_Ozon_BTS"><g id="Group-5" transform="translate(0 16)"><path id="Fill-1" class="st0" d="M42.1 58.5C28.4 60.2 16.8 48.7 18.5 35c1.2-9.3 8.7-16.9 18-18.1 13.7-1.8 25.3 9.8 23.6 23.5-1.2 9.3-8.7 16.9-18 18.1zm1.1-60C18.4-3.9-2.3 16.9.2 41.8 2 60.2 16.9 75 35.3 76.8c24.9 2.4 45.6-18.3 43.1-43.2C76.6 15.2 61.7.3 43.2-1.5z"/><path id="Fill-1_1_" class="st0" d="M224 58.2c-19.2 1.7-35.4-9.8-33-23.5 1.7-9.3 12.2-16.9 25.2-18.1 19.2-1.8 35.4 9.8 33 23.5C247.5 49.4 237 57 224 58.2zm1.5-59.8c-34.7-2.4-63.7 18.4-60.2 43.3 2.5 18.4 23.4 33.2 49.2 35 34.9 2.4 63.9-18.3 60.4-43.2-2.6-18.4-23.5-33.3-49.4-35.1z"/><path id="Fill-3" class="st0" d="M99.5 0c-5.7 0-10.2 5.2-9 11.1.9 4.3 4.9 7.3 9.3 7.3h25.6L85.7 71c-1.3 1.7-.1 4.2 2.1 4.2l62.5-.1c4.4 0 8.5-3 9.3-7.3 1.2-5.9-3.3-11.1-9-11.1l-31.2.1 39.7-52.6c1.3-1.7.1-4.2-2.1-4.2H99.5"/><path id="Fill-4" class="st0" d="M349.3-.2c-4.3.9-7.2 4.9-7.2 9.2v30.6L292.5.3c-1.7-1.4-4.3-.1-4.3 2.1l.1 63.1c0 4.4 2.9 8.3 7.2 9.2 5.9 1.2 11.2-3.3 11.2-9V34.9l49.7 39.3c1.7 1.4 4.3.1 4.3-2.1l-.1-63.3c-.1-5.8-5.4-10.2-11.3-9"/></g></g></symbol><symbol id="phone" viewBox="0 0 512 512"><path d="M484.25 330l-101.59-43.55a45.86 45.86 0 00-53.39 13.1l-32.7 40a311.08 311.08 0 01-124.19-124.12l40-32.7a45.91 45.91 0 0013.1-53.42L182 27.79a45.63 45.63 0 00-52.31-26.61L35.5 22.89A45.59 45.59 0 000 67.5C0 313.76 199.68 512.1 444.56 512a45.58 45.58 0 0044.59-35.51l21.7-94.22a45.75 45.75 0 00-26.6-52.27zm-41.59 134.09C225.08 463.09 49 287 48 69.3l90.69-20.9 42.09 98.22-68.09 55.71c46.39 99 98.19 150.63 197 197l55.69-68.11 98.19 42.11z"/></symbol><symbol id="times" viewBox="0 0 320 512"><path d="M207.6 256l107.72-107.72c6.23-6.23 6.23-16.34 0-22.58l-25.03-25.03c-6.23-6.23-16.34-6.23-22.58 0L160 208.4 52.28 100.68c-6.23-6.23-16.34-6.23-22.58 0L4.68 125.7c-6.23 6.23-6.23 16.34 0 22.58L112.4 256 4.68 363.72c-6.23 6.23-6.23 16.34 0 22.58l25.03 25.03c6.23 6.23 16.34 6.23 22.58 0L160 303.6l107.72 107.72c6.23 6.23 16.34 6.23 22.58 0l25.03-25.03c6.23-6.23 6.23-16.34 0-22.58L207.6 256z"/></symbol><symbol id="vkontakte" viewBox="0 0 576 512"><path d="M545 117.7c3.7-12.5 0-21.7-17.8-21.7h-58.9c-15 0-21.9 7.9-25.6 16.7 0 0-30 73.1-72.4 120.5-13.7 13.7-20 18.1-27.5 18.1-3.7 0-9.4-4.4-9.4-16.9V117.7c0-15-4.2-21.7-16.6-21.7h-92.6c-9.4 0-15 7-15 13.5 0 14.2 21.2 17.5 23.4 57.5v86.8c0 19-3.4 22.5-10.9 22.5-20 0-68.6-73.4-97.4-157.4-5.8-16.3-11.5-22.9-26.6-22.9H38.8c-16.8 0-20.2 7.9-20.2 16.7 0 15.6 20 93.1 93.1 195.5C160.4 378.1 229 416 291.4 416c37.5 0 42.1-8.4 42.1-22.9 0-66.8-3.4-73.1 15.4-73.1 8.7 0 23.7 4.4 58.7 38.1 40 40 46.6 57.9 69 57.9h58.9c16.8 0 25.3-8.4 20.4-25-11.2-34.9-86.9-106.7-90.3-111.5-8.7-11.2-6.2-16.2 0-26.2.1-.1 72-101.3 79.4-135.6z"/></symbol><symbol id="youtube" viewBox="0 0 576 512"><path d="M549.655 124.083c-6.281-23.65-24.787-42.276-48.284-48.597C458.781 64 288 64 288 64S117.22 64 74.629 75.486c-23.497 6.322-42.003 24.947-48.284 48.597-11.412 42.867-11.412 132.305-11.412 132.305s0 89.438 11.412 132.305c6.281 23.65 24.787 41.5 48.284 47.821C117.22 448 288 448 288 448s170.78 0 213.371-11.486c23.497-6.321 42.003-24.171 48.284-47.821 11.412-42.867 11.412-132.305 11.412-132.305s0-89.438-11.412-132.305zm-317.51 213.508V175.185l142.739 81.205-142.739 81.201z"/></symbol></svg>