<svg xmlns="http://www.w3.org/2000/svg" xmlns:xlink="http://www.w3.org/1999/xlink"><defs><style>.cls-1{fill:#fff}</style></defs><symbol id="logo" viewBox="0 0 693.2 131.2"><g id="Layer_2" data-name="Layer 2"><g id="&#x421;&#x43B;&#x43E;&#x439;_1" data-name="&#x421;&#x43B;&#x43E;&#x439; 1"><path class="cls-1" d="M161.7 71a34 34 0 00-24.1-10 34.9 34.9 0 00-11.1 1.8 36.2 36.2 0 00-4.3-2.4 28.8 28.8 0 007.5-5.6 31.6 31.6 0 009.4-22.7 31.8 31.8 0 00-9.4-22.7A31.6 31.6 0 00107 0H25.7v7.1H40v27.5H25.7v7.1H40v19.8a39.2 39.2 0 00-5.9-.5A34 34 0 0010 71a34 34 0 000 48.2 34 34 0 0024.1 10H107a35.6 35.6 0 0015.5-3.5A34.1 34.1 0 00161.7 71zM40 122.1h-5.9a27 27 0 010-54 28.8 28.8 0 015.9.6zm7.1-115h27.8v27.5H47.1zm27.8 115H47.1V71.4a29 29 0 012.9 1.9l24.9 18.2zM54.2 67.6a26.4 26.4 0 00-3.5-2.3l-3.6-1.7V41.7h27.8v41zm52.8 54.5H82V96.7l33.1 24.2a26.9 26.9 0 01-8.1 1.2zm15.6-4.5l-.9-.7-39.7-29V41.7h13.4v-7.1H82V7.1h25a25 25 0 010 50H95.6v7.1H107a29 29 0 0115.6 53.4zm15 4.5a28.1 28.1 0 01-7.7-1.1 19.5 19.5 0 002.6-2.4 35.9 35.9 0 00.7-50.2 32.5 32.5 0 014.4-.3 27 27 0 010 54zM226.8 100.5a12.5 12.5 0 00-6.3-1.9 7.5 7.5 0 00-5.7 2.3c-1.5 1.4-2.2 3.4-2.2 6.1a8.1 8.1 0 002.1 5.8 7.5 7.5 0 005.7 2.3 12.2 12.2 0 006.7-2.2v2.9a17.4 17.4 0 01-6.7 1.5 10.8 10.8 0 01-7.5-2.5c-2.1-2-3.1-4.7-3.1-8.2a11.5 11.5 0 011-4.6 8.6 8.6 0 012.5-3.4c1.8-1.6 4.4-2.4 7.6-2.4a14 14 0 015.9 1.3zM229.2 106.9a11.4 11.4 0 011.4-5.4 10.9 10.9 0 013.8-3.9 10.8 10.8 0 015.3-1.4 11.6 11.6 0 017.7 2.8 11.1 11.1 0 01-.1 15.5 11.8 11.8 0 01-7.7 2.8 10.5 10.5 0 01-7.3-2.7c-2.1-1.8-3.1-4.4-3.1-7.7zm18.4-.1a8.1 8.1 0 00-2.2-5.8 7.5 7.5 0 00-5.5-2.3 7.1 7.1 0 00-5.4 2.4 8.3 8.3 0 00-.1 11.4 6.8 6.8 0 005.1 2.4 8.1 8.1 0 005.7-2.3 7.5 7.5 0 002.4-5.8zM252.3 113l2.6-1.5a4.4 4.4 0 001.8 2.3 4.7 4.7 0 005.8.2 2.3 2.3 0 001-2 3.9 3.9 0 00-1-2.7 9.2 9.2 0 00-3.6-1.8 22 22 0 01-3-1.4 5.8 5.8 0 01-1.9-1.9 6 6 0 01-.7-3 4 4 0 01.8-2.6 5.8 5.8 0 012.2-1.8 9 9 0 013.4-.6 6.8 6.8 0 016.4 4l-2.4 1.4a4.5 4.5 0 00-4.3-3 4.3 4.3 0 00-2.4.7 2.9 2.9 0 00-.8 2.1 2.8 2.8 0 001.1 2.2 14.2 14.2 0 003.6 1.9 10.4 10.4 0 014 2.4 5.7 5.7 0 011.4 3.7 5.2 5.2 0 01-1.8 4.2 7.6 7.6 0 01-5 1.5 8 8 0 01-4.4-1.1 6.7 6.7 0 01-2.8-3.2zM271.9 116.5h-2.7V96.9h2.7v3.1c1.5-2.6 3.5-3.8 6-3.8a9.9 9.9 0 013.5.6 6.4 6.4 0 012.7 3.2 7.8 7.8 0 016.7-3.8 6.9 6.9 0 014.9 1.8 6.7 6.7 0 011.9 5.2v13.3H295v-12.2q0-5.7-4.5-5.7c-2.1 0-3.6.6-4.4 1.9s-1.3 3.1-1.3 5.7v10.3h-2.7v-12.2q0-5.7-4.5-5.7c-2.1 0-3.6.6-4.4 1.9a10 10 0 00-1.3 5.7zM319.5 106.8h-15.6a9.7 9.7 0 001.6 5.6 5.6 5.6 0 005.1 2.5c2.7 0 4.9-1.6 6.6-4.7l2.4 1.4a16.7 16.7 0 01-3.2 4.1c-1.3 1.1-3.2 1.6-5.7 1.6a9 9 0 01-7.2-3.1 11.3 11.3 0 01-2.6-7.4 11.6 11.6 0 012.5-7.8c1.6-1.9 4-2.8 7-2.8a8.7 8.7 0 014.6 1.1 7.5 7.5 0 013.3 3.5 13.4 13.4 0 011.2 6zm-3.3-2.3a6.7 6.7 0 00-1.5-4 5.9 5.9 0 00-4.6-1.7q-5.2 0-6 5.7zM324.7 99.2H321v-2.3h3.7v-8h2.6v8h4v2.3h-4v17.3h-2.6zM335.8 91.6a2.4 2.4 0 01-1.5-.6 2.1 2.1 0 01-.7-1.6 2 2 0 01.6-1.5 2.3 2.3 0 011.6-.6 2.2 2.2 0 011.5 3.7 2 2 0 01-1.5.6zm-1.3 24.9V96.9h2.8v19.6zM357.8 100.5a12.2 12.2 0 00-6.3-1.9 7.8 7.8 0 00-5.7 2.3 8.2 8.2 0 00-2.2 6.1 7.8 7.8 0 002.2 5.8 7.4 7.4 0 005.6 2.3 11.9 11.9 0 006.7-2.2v2.9a17.4 17.4 0 01-6.7 1.5 10.8 10.8 0 01-7.5-2.5 11 11 0 01-3-8.2 11.4 11.4 0 01.9-4.6 9.7 9.7 0 012.5-3.4 11.4 11.4 0 017.6-2.4 13.7 13.7 0 015.9 1.3zM393 100.5a12.5 12.5 0 00-6.3-1.9 7.5 7.5 0 00-5.7 2.3c-1.5 1.4-2.2 3.4-2.2 6.1a8.1 8.1 0 002.1 5.8 7.6 7.6 0 005.7 2.3 11.9 11.9 0 006.7-2.2v2.9a17.4 17.4 0 01-6.7 1.5 10.8 10.8 0 01-7.5-2.5c-2.1-2-3.1-4.7-3.1-8.2a11.5 11.5 0 011-4.6 8.6 8.6 0 012.5-3.4c1.8-1.6 4.4-2.4 7.6-2.4a14 14 0 015.9 1.3zM395.4 106.9a11.4 11.4 0 011.4-5.4 10.9 10.9 0 013.8-3.9 10.8 10.8 0 015.3-1.4 11.6 11.6 0 017.7 2.8 11.1 11.1 0 01-.1 15.5 11.8 11.8 0 01-7.7 2.8 10.5 10.5 0 01-7.3-2.7c-2.1-1.8-3.1-4.4-3.1-7.7zm18.4-.1a8.1 8.1 0 00-2.2-5.8 7.5 7.5 0 00-5.5-2.3 7.1 7.1 0 00-5.4 2.4 8.3 8.3 0 00-.1 11.4 6.8 6.8 0 005.1 2.4 8.1 8.1 0 005.7-2.3 7.5 7.5 0 002.4-5.8zM422.4 116.5h-2.6V96.9h2.6v3.1c1.5-2.6 3.5-3.8 6-3.8a9.5 9.5 0 013.5.6 7 7 0 012.8 3.2 7.5 7.5 0 016.6-3.8 6.5 6.5 0 016.9 7v13.3h-2.7v-12.2q0-5.7-4.5-5.7c-2.1 0-3.5.6-4.4 1.9a10.4 10.4 0 00-1.3 5.7v10.3h-2.7v-12.2q0-5.7-4.5-5.7c-2.1 0-3.6.6-4.4 1.9a10.9 10.9 0 00-1.3 5.7zM455.2 97v3.5a7.3 7.3 0 017-4.3 8.3 8.3 0 016.8 3 11.3 11.3 0 012.4 7.3 13.4 13.4 0 01-1.2 6 8.7 8.7 0 01-3.2 3.6 9.6 9.6 0 01-4.4 1.1 8.2 8.2 0 01-4.4-1 10.3 10.3 0 01-3-3.2v18.2h-2.6V97zm13.2 9.5a11.3 11.3 0 00-1.4-5.6q-1.5-2.4-5.1-2.4a6 6 0 00-5 2.5 9.8 9.8 0 00-1.8 5.9 8.3 8.3 0 002 5.6 5.7 5.7 0 004.7 2.4c2.5 0 4.2-.8 5.2-2.5a12.2 12.2 0 001.4-5.9zM490.4 116.5v-3.6a8 8 0 01-7.4 4.4 7.8 7.8 0 01-6.4-2.9c-1.7-2-2.5-4.7-2.5-8.1a11.2 11.2 0 012.6-7.2 7.8 7.8 0 016.5-2.9c3.5 0 5.9 1.4 7.2 4.3v-3.6h2.7v19.6zm-7.1-1.6a6.9 6.9 0 005.1-2.1 8.5 8.5 0 002-6 8.9 8.9 0 00-1.8-5.8 5.4 5.4 0 00-4.7-2.3 6.2 6.2 0 00-4.8 2 7.7 7.7 0 00-2 5.7 10.4 10.4 0 001.7 6 5.1 5.1 0 004.5 2.5zM496.2 116.5V96.9h2.6v3.1a12 12 0 012.6-2.8 6.9 6.9 0 014.2-1c2.6 0 4.5.7 5.5 2.1a7.6 7.6 0 011.6 4.9v13.3H510v-12a7.1 7.1 0 00-1.1-4.2 4.6 4.6 0 00-4-1.7c-2.2 0-3.7.7-4.6 2a10 10 0 00-1.4 5.7v10.2zM515.2 96.9h3l5.6 15.3 5.1-15.3h2.9l-10.1 29.4h-2.9l3.5-9.9zM209.8 18.5h16.7l4 .7a8.8 8.8 0 013.5 1.7 11.2 11.2 0 013.4 4.1 12.9 12.9 0 011.4 5.1v.6a13.3 13.3 0 01-1.7 6.4 9.5 9.5 0 01-5.2 4.2 9.7 9.7 0 016.5 4.4A14.4 14.4 0 01241 53v1.8a16.3 16.3 0 01-1.6 5.6 10.6 10.6 0 01-4 4.4 11.7 11.7 0 01-3.6 1.6 19.4 19.4 0 01-4.2.7h-17.8zm7.8 20.5h5.2a14.3 14.3 0 005.5-1.3c1.7-.9 2.5-2.4 2.6-4.8v-.8c0-3-1-5-3.1-5.8a20.6 20.6 0 00-6.8-1.2h-3.4zm.7 21.6h4.6a17 17 0 006.8-1.6c2-1 3.1-3 3.1-6.1v-.2c0-3.1-1-5.2-3-6.1a17.8 17.8 0 00-6.6-1.6h-5.6v15.6zM250.8 18.5H278v6.8h-19.3v12.1H278v7h-19.3v15.7H278v7.2h-27.2zM316.6 54.6h-19.3l-5.6 12.7h-8.3l23.5-50.7 23.6 50.7h-8.4zm-10.3-20.4a23.3 23.3 0 01-1.1 2.8l-5 11.1h13.6l-5-11.1a19.5 19.5 0 01-.8-2.2c-.2-.8-.5-1.5-.7-2.3s-.1-.3-.1-.5-.1-.4-.2-.6a28.6 28.6 0 01-.7 2.8zM346.1 18.5v29.6a15.6 15.6 0 002.8 9.6q2.9 3.6 9.3 3.6c4.2 0 7.3-1.2 9.2-3.7a14.4 14.4 0 003-9.5V18.5h7.9v30.4c0 6.6-1.7 11.4-5.1 14.6s-8.3 4.9-15 4.9-11.5-1.7-14.9-4.9-5.2-8.1-5.2-14.6V18.5zM406.6 67.3h-7.9v-42h-12.9v-6.8h33.7v6.8h-12.9zM437.3 44.9l-16.4-26.4h8.3l10.2 16.6a7 7 0 01.6.9l.4.9c.1.1.2.2.2.3s.1.3.2.4l.3.6.4.7a6.7 6.7 0 01.9-2.1 19.8 19.8 0 011.1-2L454 18.5h7.9l-16.7 26.4v22.4h-7.9zM492.2 67.3V16.8h25v4.3h-20.4v15.8h19.6v4.3h-19.6v26.1zM548.2 68.5a28.5 28.5 0 01-13.2-3.1 23.5 23.5 0 01-10-9 27.5 27.5 0 01-3.7-14.4 24.9 24.9 0 013.9-13.9 26.6 26.6 0 0110.2-9.2 28.8 28.8 0 0113.1-3.2 26.7 26.7 0 0110.8 2.1 25.3 25.3 0 018.4 5.6 28.2 28.2 0 015.5 8.5 28.8 28.8 0 012 10.5 25.4 25.4 0 01-3.7 13.7 23.9 23.9 0 01-9.7 9.2 29.6 29.6 0 01-13.6 3.2zm0-3.9a22.5 22.5 0 0011.2-2.9 21.9 21.9 0 008-8 22.4 22.4 0 002.9-11.3 23.9 23.9 0 00-2.5-10.6 20 20 0 00-7.5-8.6 20.3 20.3 0 00-11.9-3.4 23.8 23.8 0 00-10.2 2.4 21.3 21.3 0 00-12 19.9 22.3 22.3 0 002.8 11.1 20.1 20.1 0 007.9 8.2 20.7 20.7 0 0011.3 3.2zM613.6 67.3H608l-17.7-24h-2.7v24H583V16.8h9.3q16.2 0 16.2 13.8c0 4.4-1.3 7.5-4 9.5a17.9 17.9 0 01-9.1 3.2zm-22.4-27.8a20.8 20.8 0 009.1-1.7c2.2-1.1 3.3-3.6 3.3-7.4s-1-6-2.9-7.4-5.1-2.2-9.5-2.2h-3.6v18.7zM644.9 19.8a22.5 22.5 0 00-11.5 2.8 17.7 17.7 0 00-7.5 7.8 24.8 24.8 0 00-2.7 11.8c0 6.9 2 12.3 5.9 16.3s9.2 6 15.6 6 11-2 16.1-6v5.3a30.5 30.5 0 01-7.6 3.4 31.7 31.7 0 01-8.8 1.2 35.7 35.7 0 01-11.9-2.2 22.3 22.3 0 01-10.1-8.1c-2.8-3.9-4.2-9.1-4.2-15.7a32.6 32.6 0 012.7-13.3 22.2 22.2 0 018.8-9.7c4-2.5 9.1-3.7 15.3-3.7a27.6 27.6 0 0116.2 5.4v5a33.8 33.8 0 00-6.7-4.4 20.6 20.6 0 00-9.6-1.9zM668.2 67.3V16.8h25v4.3h-20.3v15.8h20.3v4.3h-20.3V63h20.3v4.3z"/></g></g></symbol></svg>