<svg xmlns="http://www.w3.org/2000/svg" xmlns:xlink="http://www.w3.org/1999/xlink"><defs><style>.cls-1{fill:#fff}</style></defs><symbol id="facebook" viewBox="0 0 320 512"><path d="M279.14 288l14.22-92.66h-88.91v-60.13c0-25.35 12.42-50.06 52.24-50.06h40.42V6.26S260.43 0 225.36 0c-73.22 0-121.08 44.38-121.08 124.72v70.62H22.89V288h81.39v224h100.17V288z"/></symbol><symbol id="instagram" viewBox="0 0 448 512"><path d="M224.1 141c-63.6 0-114.9 51.3-114.9 114.9s51.3 114.9 114.9 114.9S339 319.5 339 255.9 287.7 141 224.1 141zm0 189.6c-41.1 0-74.7-33.5-74.7-74.7s33.5-74.7 74.7-74.7 74.7 33.5 74.7 74.7-33.6 74.7-74.7 74.7zm146.4-194.3c0 14.9-12 26.8-26.8 26.8-14.9 0-26.8-12-26.8-26.8s12-26.8 26.8-26.8 26.8 12 26.8 26.8zm76.1 27.2c-1.7-35.9-9.9-67.7-36.2-93.9-26.2-26.2-58-34.4-93.9-36.2-37-2.1-147.9-2.1-184.9 0-35.8 1.7-67.6 9.9-93.9 36.1s-34.4 58-36.2 93.9c-2.1 37-2.1 147.9 0 184.9 1.7 35.9 9.9 67.7 36.2 93.9s58 34.4 93.9 36.2c37 2.1 147.9 2.1 184.9 0 35.9-1.7 67.7-9.9 93.9-36.2 26.2-26.2 34.4-58 36.2-93.9 2.1-37 2.1-147.8 0-184.8zM398.8 388c-7.8 19.6-22.9 34.7-42.6 42.6-29.5 11.7-99.5 9-132.1 9s-102.7 2.6-132.1-9c-19.6-7.8-34.7-22.9-42.6-42.6-11.7-29.5-9-99.5-9-132.1s-2.6-102.7 9-132.1c7.8-19.6 22.9-34.7 42.6-42.6 29.5-11.7 99.5-9 132.1-9s102.7-2.6 132.1 9c19.6 7.8 34.7 22.9 42.6 42.6 11.7 29.5 9 99.5 9 132.1s2.7 102.7-9 132.1z"/></symbol><symbol id="logo" viewBox="0 0 693.2 129.2"><g id="Layer_2" data-name="Layer 2"><g id="Layer 1" data-name="Layer 1"><path class="cls-1" d="M331.8 103.7a10.2 10.2 0 00-5.2-1.6 6.2 6.2 0 00-4.8 1.9 6.9 6.9 0 00-1.8 5.1 6.5 6.5 0 001.8 4.8 6 6 0 004.7 1.9 8.8 8.8 0 005.5-1.9v2.5a12.9 12.9 0 01-5.5 1.3 8.8 8.8 0 01-6.3-2.2 9.3 9.3 0 01-2.5-6.8 9.1 9.1 0 01.8-3.7 7.8 7.8 0 012.1-2.9 9.3 9.3 0 016.3-2 10.6 10.6 0 014.9 1.1zM333.8 109a8.9 8.9 0 014.4-7.7 8.3 8.3 0 014.4-1.2 8.8 8.8 0 016.3 2.4 7.9 7.9 0 012.6 6.4 8.1 8.1 0 01-2.7 6.4 9.2 9.2 0 01-6.4 2.3 9 9 0 01-6.1-2.2 8.3 8.3 0 01-2.5-6.4zm15.3-.1a6.8 6.8 0 00-1.8-4.8 6.4 6.4 0 00-4.6-1.9 6.2 6.2 0 00-4.5 2 6.4 6.4 0 00-1.9 4.7 6.5 6.5 0 001.9 4.8 5.5 5.5 0 004.2 1.9 6.6 6.6 0 004.7-1.9 5.9 5.9 0 002-4.8zM353 114.1l2.2-1.3a3.6 3.6 0 001.5 2 4 4 0 002.3.8 3.7 3.7 0 002.5-.7 1.8 1.8 0 00.8-1.6 3.8 3.8 0 00-.8-2.3 7 7 0 00-3-1.5 11.7 11.7 0 01-2.5-1.2 6.1 6.1 0 01-1.6-1.6 4.9 4.9 0 01-.6-2.5 3.5 3.5 0 01.7-2.1 4.5 4.5 0 011.8-1.5 8.4 8.4 0 012.9-.5 5.8 5.8 0 015.3 3.3l-2 1.2a3.6 3.6 0 00-3.6-2.5 2.7 2.7 0 00-1.9.6 2.1 2.1 0 00-.8 1.7 2.4 2.4 0 001 1.9l3 1.5a8.5 8.5 0 013.3 2.1 4.6 4.6 0 011.1 3 4.4 4.4 0 01-1.5 3.5 6.5 6.5 0 01-4.1 1.3 6.1 6.1 0 01-3.6-1 5.5 5.5 0 01-2.4-2.6zM369.3 117h-2.2v-16.3h2.2v2.5a5.5 5.5 0 015-3.1 8.8 8.8 0 012.9.5 5.8 5.8 0 012.3 2.7 6.3 6.3 0 015.5-3.2 5.8 5.8 0 014.1 1.5 5.5 5.5 0 011.6 4.4v11h-2.2v-10.1c0-3.2-1.3-4.8-3.7-4.8s-3 .5-3.7 1.5a9 9 0 00-1.1 4.8v8.6h-2.2v-10.1c0-3.2-1.3-4.8-3.7-4.8s-3 .5-3.7 1.6a8.6 8.6 0 00-1.1 4.7zM408.8 108.9h-12.9a8.2 8.2 0 001.4 4.7 4.4 4.4 0 004.1 2.1c2.3 0 4.1-1.3 5.5-4l2.1 1.2a13.5 13.5 0 01-2.7 3.4 7.4 7.4 0 01-4.8 1.3 7 7 0 01-5.9-2.6 8.8 8.8 0 01-2.2-6.1 9.3 9.3 0 012.1-6.4 7.3 7.3 0 015.8-2.4 7.6 7.6 0 013.8.9 5.9 5.9 0 012.7 2.9 10.9 10.9 0 011 5zm-2.6-1.9a7 7 0 00-1.3-3.3 4.9 4.9 0 00-3.8-1.4c-2.9 0-4.6 1.6-5 4.7zM413.2 102.6h-3.1v-1.9h3.1V94h2.2v6.7h3.3v1.9h-3.3V117h-2.2zM422.4 96.3a1.8 1.8 0 01-1.2-.5 1.8 1.8 0 01-.6-1.3 2.1 2.1 0 01.5-1.3 1.8 1.8 0 013.1 1.3 1.7 1.7 0 01-1.8 1.8zm-1 20.7v-16.3h2.3V117zM440.7 103.7a10.2 10.2 0 00-5.2-1.6 6.2 6.2 0 00-4.8 1.9 6.9 6.9 0 00-1.8 5.1 6.5 6.5 0 001.8 4.8 6 6 0 004.7 1.9 8.8 8.8 0 005.5-1.9v2.5a12.9 12.9 0 01-5.5 1.3 8.8 8.8 0 01-6.3-2.2 9.3 9.3 0 01-2.5-6.8 9.1 9.1 0 01.8-3.7 7.8 7.8 0 012.1-2.9 9.3 9.3 0 016.3-2 10.6 10.6 0 014.9 1.1zM469.9 103.7a10.2 10.2 0 00-5.2-1.6 6.1 6.1 0 00-4.7 1.9 7.9 7.9 0 00-.1 9.9 6.1 6.1 0 004.7 1.9 9.2 9.2 0 005.6-1.9v2.5a13.4 13.4 0 01-5.6 1.3 8.4 8.4 0 01-6.2-2.2c-1.7-1.6-2.5-3.9-2.5-6.8a7.7 7.7 0 01.8-3.7 7.5 7.5 0 012-2.9 9.8 9.8 0 016.4-2 10.5 10.5 0 014.8 1.1zM472 109a10 10 0 011.1-4.5 9.8 9.8 0 013.2-3.2 8.3 8.3 0 014.4-1.2 9.3 9.3 0 016.4 2.4 8.2 8.2 0 012.6 6.4 8.1 8.1 0 01-2.7 6.4 9.2 9.2 0 01-6.4 2.3 8.8 8.8 0 01-6.1-2.2c-1.7-1.5-2.5-3.6-2.5-6.4zm15.3-.1a6.5 6.5 0 00-1.9-4.8 6.3 6.3 0 00-4.6-1.9 5.9 5.9 0 00-4.4 2 6.4 6.4 0 00-1.9 4.7 6.8 6.8 0 001.8 4.8 5.7 5.7 0 004.2 1.9 6.8 6.8 0 004.8-1.9 6.3 6.3 0 002-4.8zM494.4 117h-2.2v-16.3h2.2v2.5a5.5 5.5 0 015-3.1 8.8 8.8 0 012.9.5 5.8 5.8 0 012.3 2.7 6.3 6.3 0 015.5-3.2 5.8 5.8 0 014.1 1.5 5.5 5.5 0 011.6 4.4v11h-2.2v-10.1c0-3.2-1.3-4.8-3.7-4.8s-3 .5-3.7 1.5a9 9 0 00-1.1 4.8v8.6h-2.2v-10.1c0-3.2-1.2-4.8-3.7-4.8s-3 .5-3.7 1.6a8.6 8.6 0 00-1.1 4.7zM521.7 100.7v3a6 6 0 015.7-3.6 7 7 0 015.8 2.5 9.6 9.6 0 011.9 6 10.6 10.6 0 01-1 5 6.1 6.1 0 01-2.7 3 6.5 6.5 0 01-3.6 1 6.4 6.4 0 01-3.6-.9 6.3 6.3 0 01-2.5-2.6v15.1h-2.2v-28.5zm10.9 8a9.1 9.1 0 00-1.2-4.7 4.6 4.6 0 00-4.2-2 4.7 4.7 0 00-4.1 2.1 8.1 8.1 0 00-1.5 4.9 7.1 7.1 0 001.6 4.7 5 5 0 003.9 2c2.1 0 3.5-.7 4.3-2.1a9.6 9.6 0 001.2-4.9zM550.9 117v-3a6.6 6.6 0 01-6.1 3.6 6.6 6.6 0 01-5.4-2.4c-1.4-1.6-2-3.9-2-6.7a8.7 8.7 0 012.1-5.9 6.6 6.6 0 015.4-2.5c2.9 0 4.9 1.2 6 3.5v-2.9h2.3V117zm-5.9-1.3a5.4 5.4 0 004.2-1.8 7 7 0 001.7-5 7.3 7.3 0 00-1.5-4.8 4.7 4.7 0 00-3.9-1.9 5.4 5.4 0 00-4 1.6 6.5 6.5 0 00-1.6 4.8 8.2 8.2 0 001.4 5 4.2 4.2 0 003.7 2.1zM555.8 117v-16.3h2.1v2.5a9.8 9.8 0 012.2-2.3 5.8 5.8 0 013.4-.8c2.2 0 3.8.6 4.7 1.7a7.4 7.4 0 011.3 4.1V117h-2.3v-10a6.5 6.5 0 00-.9-3.5 3.8 3.8 0 00-3.3-1.4c-1.9 0-3.2.6-3.9 1.7a8.8 8.8 0 00-1.1 4.7v8.5zM571.6 100.7h2.4l4.7 12.7 4.2-12.7h2.4l-8.4 24.4h-2.4l2.9-8.2zM161.7 71a34 34 0 00-24.1-10 34.9 34.9 0 00-11.1 1.8 36.2 36.2 0 00-4.3-2.4 28.8 28.8 0 007.5-5.6 31.6 31.6 0 009.4-22.7 31.8 31.8 0 00-9.4-22.7A31.6 31.6 0 00107 0H25.7v7.1H40v27.5H25.7v7.1H40v19.8a39.2 39.2 0 00-5.9-.5A34 34 0 0010 71a34 34 0 000 48.2 34 34 0 0024.1 10H107a35.6 35.6 0 0015.5-3.5A34.1 34.1 0 00161.7 71zM40 122.1h-5.9a27 27 0 010-54 28.8 28.8 0 015.9.6zm7.1-115h27.8v27.5H47.1zm27.8 115H47.1V71.4a29 29 0 012.9 1.9l24.9 18.2zM54.2 67.6a26.4 26.4 0 00-3.5-2.3l-3.6-1.7V41.7h27.8v41zm52.8 54.5H82V96.7l33.1 24.2a26.9 26.9 0 01-8.1 1.2zm15.6-4.5l-.9-.7-39.7-29V41.7h13.4v-7.1H82V7.1h25a25 25 0 010 50H95.6v7.1H107a29 29 0 0115.6 53.4zm15 4.5a28.1 28.1 0 01-7.7-1.1 19.5 19.5 0 002.6-2.4 35.9 35.9 0 00.7-50.2 32.5 32.5 0 014.4-.3 27 27 0 010 54zM209.8 2.8h16.7a25.7 25.7 0 014 .7 8.8 8.8 0 013.5 1.7 11.2 11.2 0 013.4 4.1 12.9 12.9 0 011.4 5.1v.6a13.3 13.3 0 01-1.7 6.4 9.5 9.5 0 01-5.2 4.2 9.7 9.7 0 016.5 4.4 14.4 14.4 0 012.6 7.3v1.8a16.3 16.3 0 01-1.6 5.6 10.6 10.6 0 01-4 4.4 11.7 11.7 0 01-3.6 1.6 19.4 19.4 0 01-4.2.7h-17.8zm7.8 20.5h5.2a14.3 14.3 0 005.5-1.3c1.7-.9 2.5-2.4 2.6-4.8v-.8c0-3-1-5-3.1-5.8a20.6 20.6 0 00-6.8-1.2h-3.4zm.7 21.6h4.6a17 17 0 006.8-1.6c2-1 3.1-3 3.1-6.1V37c0-3.1-1-5.2-3-6.1a17.8 17.8 0 00-6.6-1.6h-5.6v15.6zM250.8 2.8H278v6.8h-19.3v12.1H278v7h-19.3v15.7H278v7.2h-27.2zM316.6 38.9h-19.3l-5.6 12.7h-8.3L306.9.9l23.6 50.7h-8.4zm-10.3-20.4a23.3 23.3 0 01-1.1 2.8l-5 11.1h13.6l-5-11.1c-.3-.8-.6-1.5-.8-2.2s-.5-1.5-.7-2.3-.1-.3-.1-.5-.1-.4-.2-.6a28.6 28.6 0 01-.7 2.8zM346.1 2.8v29.6a15.6 15.6 0 002.8 9.6q2.9 3.6 9.3 3.6c4.2 0 7.3-1.2 9.2-3.7a14.4 14.4 0 003-9.5V2.8h7.9v30.4c0 6.6-1.7 11.4-5.1 14.6s-8.3 4.9-15 4.9-11.5-1.7-14.9-4.9-5.2-8.1-5.2-14.6V2.8zM406.6 51.6h-7.9v-42h-12.9V2.8h33.7v6.8h-12.9zM437.3 29.2L420.9 2.8h8.3l10.2 16.6a7 7 0 01.6.9l.4.9c.1.1.2.2.2.3s.1.3.2.4l.3.6.4.7a6.7 6.7 0 01.9-2.1 19.8 19.8 0 011.1-2L454 2.8h7.9l-16.7 26.4v22.4h-7.9zM492.2 51.6V1.1h25v4.3h-20.4v15.8h19.6v4.3h-19.6v26.1zM548.2 52.8a28.5 28.5 0 01-13.2-3.1 23.5 23.5 0 01-10-9 27.6 27.6 0 01-3.7-14.5 24.8 24.8 0 013.9-13.8 26.6 26.6 0 0110.2-9.2A28.8 28.8 0 01548.5 0a26.7 26.7 0 0110.8 2.1 25.3 25.3 0 018.4 5.6 27.1 27.1 0 015.5 8.5 28.8 28.8 0 012 10.5 25.4 25.4 0 01-3.7 13.7 23.9 23.9 0 01-9.7 9.2 29.6 29.6 0 01-13.6 3.2zm0-3.9a22.5 22.5 0 0011.2-2.9 21.9 21.9 0 008-8 22.4 22.4 0 002.9-11.3 23.9 23.9 0 00-2.5-10.6 20 20 0 00-7.5-8.6 20.3 20.3 0 00-11.9-3.4 23.8 23.8 0 00-10.2 2.4 21.3 21.3 0 00-12 19.9 22.3 22.3 0 002.8 11.1 20.1 20.1 0 007.9 8.2 20.7 20.7 0 0011.3 3.2zM613.6 51.6H608l-17.7-24h-2.7v24H583V1.1h9.3q16.2 0 16.2 13.8c0 4.4-1.3 7.5-4 9.5a17.9 17.9 0 01-9.1 3.2zm-22.4-27.8a20.8 20.8 0 009.1-1.7c2.2-1.1 3.3-3.6 3.3-7.4s-1-6-2.9-7.4-5.1-2.2-9.5-2.2h-3.6v18.7zM644.9 4.1a22.5 22.5 0 00-11.5 2.8 17.7 17.7 0 00-7.5 7.8 24.8 24.8 0 00-2.7 11.8c0 6.9 2 12.3 5.9 16.3s9.2 6 15.6 6 11-2 16.1-6v5.3a30.5 30.5 0 01-7.6 3.4 31.7 31.7 0 01-8.8 1.1 35.6 35.6 0 01-11.9-2.1 22.3 22.3 0 01-10.1-8.1c-2.8-3.9-4.2-9.1-4.2-15.7a32.6 32.6 0 012.7-13.3 22.2 22.2 0 018.8-9.7c4-2.5 9.1-3.7 15.3-3.7a27.6 27.6 0 0116.2 5.4v5a33.8 33.8 0 00-6.8-4.4 20.6 20.6 0 00-9.5-1.9zM668.2 51.6V1.1h25v4.3h-20.3v15.8h20.3v4.3h-20.3v21.8h20.3v4.3z"/></g></g></symbol><symbol id="youtube" viewBox="0 0 576 512"><path d="M549.655 124.083c-6.281-23.65-24.787-42.276-48.284-48.597C458.781 64 288 64 288 64S117.22 64 74.629 75.486c-23.497 6.322-42.003 24.947-48.284 48.597-11.412 42.867-11.412 132.305-11.412 132.305s0 89.438 11.412 132.305c6.281 23.65 24.787 41.5 48.284 47.821C117.22 448 288 448 288 448s170.78 0 213.371-11.486c23.497-6.321 42.003-24.171 48.284-47.821 11.412-42.867 11.412-132.305 11.412-132.305s0-89.438-11.412-132.305zm-317.51 213.508V175.185l142.739 81.205-142.739 81.201z"/></symbol></svg>