<?xml version="1.0" encoding="UTF-8"?>
<!DOCTYPE svg PUBLIC "-//W3C//DTD SVG 1.1//EN" "http://www.w3.org/Graphics/SVG/1.1/DTD/svg11.dtd">
<!-- Creator: CorelDRAW 2017 -->
<svg xmlns="http://www.w3.org/2000/svg" xml:space="preserve" width="240px" height="118px" version="1.1" style="shape-rendering:geometricPrecision; text-rendering:geometricPrecision; image-rendering:optimizeQuality; fill-rule:evenodd; clip-rule:evenodd"
viewBox="0 0 240 118"
 xmlns:xlink="http://www.w3.org/1999/xlink">
 <defs>
  <style type="text/css">
   <![CDATA[
    .fil0 {fill:white}
    .fil1 {fill:#FEFEFE;fill-rule:nonzero}
    .fil2 {fill:#00985F;fill-rule:nonzero}
    .fil3 {fill:#DC000F;fill-rule:nonzero}
   ]]>
  </style>
 </defs>
 <g id="Слой_x0020_1">
  <metadata id="CorelCorpID_0Corel-Layer"/>
  <g id="_2853363558880">
   <rect class="fil0" width="240" height="118.04"/>
   <g>
    <path class="fil1" d="M82.02 39.49c-0.37,0.37 -0.37,0.96 0,1.33 0.37,0.37 0.96,0.37 1.33,0 0.36,-0.37 0.36,-0.96 0,-1.33 -0.37,-0.37 -0.96,-0.37 -1.33,0z"/>
    <path class="fil2" d="M91.3 38.91l-4.02 0 -0.97 1.2c-0.17,0.17 -0.11,0.34 0.06,0.4l1.32 0.58 3.72 -1.72c0.23,-0.12 0.17,-0.46 -0.11,-0.46zm-14.9 19.54l-4.93 0c-1.27,0.75 -1.67,0.98 -3.44,1.67 -0.13,0.04 -0.17,0.17 -0.12,0.34l4.41 12.32 2.52 0 -4.04 -11.29c2.62,0 8.9,-0.7 12.3,-6.19 -1.02,1.59 -3.49,3.15 -6.7,3.15zm6.95 -17.63c-0.37,0.36 -0.96,0.36 -1.33,0 -0.37,-0.37 -0.37,-0.96 0,-1.33 0.37,-0.37 0.96,-0.37 1.33,0 -0.78,-0.78 -2.05,-0.78 -2.83,0 -0.78,0.78 -0.78,2.05 0,2.83 0.78,0.78 2.05,0.78 2.83,0 0.78,-0.78 0.78,-2.05 0,-2.83 0.36,0.37 0.36,0.96 0,1.33zm-9.65 22.33l3.44 9.63 2.52 0 -3.61 -10.09c-0.69,0.17 -1.49,0.35 -2.35,0.46zm3.4 -12c0.27,-0.41 0.52,-0.83 0.77,-1.25 -0.12,-0.06 -0.21,-0.05 -0.33,0.07 -5.1,5.39 -10.03,6.07 -13.81,6.07l-5.79 0c-0.17,0 -0.32,-0.21 -0.2,-0.39 4.49,-6.19 9.46,-11.03 13.11,-14.19l-9.7 8.11c-0.75,0.63 -1.66,1.03 -2.92,1.03l-12.21 0c-0.35,0 -0.23,0.29 -0.17,0.46 0.85,2.63 3.15,4.98 7.16,4.98l-2.86 2.93c-0.12,0.11 -0.12,0.4 0.17,0.4l10.89 0c7.87,0 12.71,-3.42 15.89,-8.22z"/>
    <path class="fil3" d="M185.87 72.76l8.87 0 0 -27.49 -8.87 0 0 10.08 -8.36 0 0 -10.08 -8.94 0 0 27.49 8.94 0 0 -10.36 8.36 0 0 10.36zm-105.35 -30.44c-0.78,-0.78 -0.78,-2.05 0,-2.83 0.78,-0.78 2.05,-0.78 2.83,0 0.78,0.78 0.78,2.05 0,2.83 -0.78,0.78 -2.05,0.78 -2.83,0zm2.58 12.98c3.4,-5.49 4.59,-14.22 4.59,-14.22l-1.32 -0.57c-0.17,-0.06 -0.23,-0.23 -0.06,-0.4l0.98 -1.2c-0.64,-1.21 -2.81,-3.16 -6.02,-3.16 -1.91,0 -3.57,0.51 -5.07,1.49 0,0 -2.18,1.48 -5.35,4.22 -3.65,3.16 -8.62,8 -13.1,14.19 -0.13,0.18 0.02,0.39 0.19,0.39l5.79 0c3.78,0 8.71,-0.68 13.81,-6.07 0.12,-0.12 0.21,-0.13 0.33,-0.07 0.11,0.06 0.13,0.18 0.07,0.3 -0.8,1.95 -2.81,5.9 -6.47,8.25l4.92 0c3.22,0 5.69,-1.55 6.71,-3.15zm-4.99 6.63l3.85 10.85 10.77 0c-2.24,-6.65 -4.64,-12.9 -6.88,-18.63 -1.86,3.85 -3.63,5.79 -7.74,7.78zm-32.85 10.85l10.89 0 3.68 -11.52 -10.6 0c-1.26,3.44 -2.6,7.22 -3.97,11.52zm14.74 -24.7l5.5 -4.53c1.15,-3.15 2.36,-6.36 3.62,-9.06 0.63,1.44 1.21,2.87 1.84,4.42 3.02,-2.48 4.87,-3.96 7.37,-4.67 -1.54,-3.38 -2.62,-5.71 -3.14,-6.74l-12.21 0c-1.03,2.18 -4.92,10.26 -9.45,21.21l4.41 0c0.8,0 1.49,-0.12 2.06,-0.63zm67.38 21.65l0.57 3.03 7.22 0 0 -27.49 -8.93 0 0 19.07c-0.75,0.92 -2.35,1.89 -3.73,1.89 -2.46,0 -3.84,-1.43 -3.84,-4l0 -16.96 -8.87 0 0 19.07c-0.75,0.92 -2.52,1.89 -4.01,1.89 -2.29,0 -3.55,-1.43 -3.55,-4l0 -16.96 -8.88 0 0 18.16c0,6.64 2.87,9.91 8.88,9.91 4.35,0 6.87,-1.61 8.88,-3.73 1.37,2.47 3.89,3.73 7.55,3.73 4.36,0 6.76,-1.55 8.71,-3.61zm28.24 -5.39c-0.8,0.92 -2.12,1.9 -4.29,1.9 -2.41,0 -3.73,-2.24 -3.73,-6.53 0,-5.27 1.44,-7.91 4.3,-7.91 1.66,0 2.52,0.12 3.72,0.4l0 12.14zm-7.31 9l0.28 0c3.97,-0.04 6.71,-1.41 8.23,-3.61l0.46 3.03 7.28 0 0 -26.34c-2.92,-0.92 -6.25,-1.72 -12.49,-1.72 -8.88,0 -13.74,5.44 -13.74,15.35 0,9.24 3.4,13.25 9.98,13.29z"/>
   </g>
  </g>
 </g>
</svg>
