<svg xmlns="http://www.w3.org/2000/svg" viewBox="0 0 88 11"><path d="M32.67 10.38h1.8V.06h-1.8v10.32zm16.8 0h1.8V.05h-1.8v10.3zm-7.44-3.92L39.07.06h-1.92l4.88 10.55L46.9.07H45l-2.97 6.4zm-42 3.9H1.8V.07H.03v10.3zM8.4.07H6.2L2.07 5.2l4.14 5.17h2.2L4.3 5.2 8.38.06zm63.46 4.3V1.8h1.7c1.2 0 1.47.8 1.47 1.26 0 .8-.54 1.3-1.48 1.3h-1.7zm4.97-1.3c0-1.92-1.72-3-3.17-3h-3.6v10.3h1.8v-4.3h.02l3.45 4.3h2.2l-3.47-4.32c1.45-.17 2.77-1.25 2.77-2.97zM16.73 6.8c0 1.23-.77 2.05-1.92 2.05-1.14 0-1.9-.82-1.9-2.05V.05h-1.8v6.8c0 2.43 1.74 3.73 3.7 3.73 1.97 0 3.72-1.3 3.72-3.73V.07h-1.8V6.8zm8.9-1.1h-1.3V1.85h1.3c1.25 0 2.06.76 2.06 1.92 0 1.15-.82 1.9-2.06 1.9zm.08-5.64h-3.17v10.3h1.8V7.5h1.38c2.44 0 3.73-1.75 3.73-3.72 0-1.97-1.3-3.72-3.72-3.72zM58.67 5.7h-1.3V1.85h1.3c1.24 0 2.05.76 2.05 1.92 0 1.15-.8 1.9-2.04 1.9zm.08-5.64h-3.18v10.3h1.8V7.5h1.38c2.42 0 3.72-1.75 3.72-3.72 0-1.97-1.3-3.72-3.73-3.72zm27.04 0V6.8c0 1.23-.76 2.05-1.92 2.05-1.14 0-1.9-.82-1.9-2.05V.05h-1.8v6.8c0 2.43 1.74 3.73 3.7 3.73 1.97 0 3.72-1.3 3.72-3.73V.07h-1.8zM64.23 10.4h1.85V8.55h-1.85v1.85z"/></svg>