<svg version="1.1" id="Layer_1" xmlns="http://www.w3.org/2000/svg" xmlns:xlink="http://www.w3.org/1999/xlink" width="257" height="101" viewBox="0 0 257 101" fill="none" xml:space="preserve">
  <g clip-path="url(#clip0)" fill="#414141">  
    <path d="M7.325 43.603L0 16.486h4.805l5.629 20.828 6.032-20.83 4.479.002 6.053 20.938 5.654-20.933 4.805-.007-7.329 27.115-5.57-.006-5.85-20.251-5.858 20.256-5.525.005zM40.771 16.5h4.574v27.086h-4.574V16.5zM55.125 39.337H66.26v4.249H50.645V16.5h4.48v22.837zM80.33 16.531c3.754 0 6.877 1.312 9.338 3.905 2.492 2.593 3.753 5.811 3.753 9.622 0 3.78-1.261 6.998-3.754 9.623-2.46 2.593-5.583 3.905-9.337 3.905H69.573V16.5H80.33v.031zm0 22.837c2.587 0 4.7-.874 6.278-2.624 1.64-1.75 2.46-3.999 2.46-6.654 0-2.718-.82-4.905-2.46-6.655-1.61-1.75-3.723-2.624-6.278-2.624h-6.246v18.557h6.246zM117.554 35.848c0 2.22-.788 4.064-2.397 5.533-1.609 1.469-3.502 2.219-5.836 2.219H97.617V16.5h10.852c2.24 0 4.132.75 5.678 2.157 1.578 1.437 2.335 3.22 2.335 5.345 0 2.375-.947 4.188-2.776 5.532 2.397 1.25 3.848 3.501 3.848 6.314zm-15.426-15.16v7.127h6.372c1.988 0 3.502-1.563 3.502-3.563s-1.514-3.564-3.502-3.564h-6.372zm7.224 18.723c2.082 0 3.723-1.656 3.723-3.782 0-2.125-1.641-3.782-3.723-3.782h-7.224v7.596h7.224v-.032zM126.292 39.349h12.114V43.6h-16.593V16.5h16.404v4.25h-11.925v7.034h10.947v4.22h-10.947v7.345zM158.028 43.6l-5.805-9.877h-5.3V43.6h-4.479V16.5h10.946c2.461 0 4.543.844 6.215 2.563 1.703 1.657 2.587 3.72 2.587 6.158 0 3.438-2.177 6.595-5.426 7.845L162.98 43.6h-4.952zm-11.105-22.912v9.065h6.436c2.397 0 4.29-2 4.29-4.532 0-2.501-1.924-4.533-4.29-4.533h-6.436zM181.971 43.6l-5.773-9.882h-5.3V43.6h-4.479V16.486h10.946c2.461 0 4.543.844 6.215 2.564 1.703 1.658 2.587 3.722 2.587 6.161 0 3.44-2.177 6.599-5.426 7.85l6.214 10.539h-4.984zm-11.073-22.924v9.07h6.436c2.397 0 4.29-2.002 4.29-4.535 0-2.502-1.924-4.535-4.29-4.535h-6.436zM190.236 16.489h4.48V43.6h-4.48V16.489zM204.495 39.349h12.114v4.25h-16.594V16.5h16.404v4.252h-11.924v7.033h10.946v4.22h-10.946v7.345zM219.732 37.431l3.88-2.249c1.104 3.062 3.344 4.561 6.782 4.561 3.407 0 5.079-1.437 5.079-3.561 0-1.125-.473-1.937-1.356-2.5-.884-.593-2.524-1.25-4.858-1.936-2.619-.781-3.912-1.281-5.742-2.468-1.766-1.25-2.65-3.03-2.65-5.468 0-2.405.852-4.28 2.587-5.686 1.704-1.437 3.786-2.124 6.215-2.124 4.385 0 7.76 2.25 9.527 5.967l-3.786 2.156c-1.136-2.5-3.06-3.78-5.741-3.78-2.619 0-4.291 1.312-4.291 3.374 0 1.999 1.325 2.936 5.521 4.217 1.041.344 1.798.594 2.271.781.505.156 1.167.438 2.019.781.884.344 1.578.75 1.988 1.094 1.451 1.124 2.996 2.968 2.807 5.56 0 2.437-.883 4.406-2.681 5.843-1.767 1.437-4.101 2.124-7.003 2.124-5.3-.031-9.149-2.53-10.568-6.685z"/>
  </g>
</svg>

