<svg xmlns="http://www.w3.org/2000/svg" viewBox="0 0 33.23 20.86">
  <defs>
    <style>
      .cls-1 {
        fill: #fff;
      }

      .cls-2 {
        fill: #28292b;
      }

      .cls-3 {
        fill: #2e4593;
      }

      .cls-4 {
        fill: #db2e2e;
      }
    </style>
  </defs>
  <title>Asset 1bg</title>
  <g id="Layer_2" data-name="Layer 2">
    <g id="Capa_1" data-name="Capa 1">
      <g>
        <rect class="cls-1" width="33.23" height="20.86"/>
        <g>
          <g>
            <rect class="cls-2" x="4.05" y="2.93" width="4.93" height="1.1" transform="translate(-0.55 5.65) rotate(-45.17)"/>
            <rect class="cls-2" x="5.17" y="4.07" width="4.93" height="1.1" transform="translate(-1.02 6.78) rotate(-45.18)"/>
            <rect class="cls-2" x="6.25" y="5.16" width="4.93" height="1.1" transform="translate(-1.48 7.87) rotate(-45.18)"/>
          </g>
          <g>
            <g>
              <rect class="cls-2" x="24.39" y="13.79" width="1.94" height="1.1" transform="translate(-2.68 22.23) rotate(-45.2)"/>
              <rect class="cls-2" x="22.28" y="15.93" width="1.9" height="1.1" transform="translate(-4.83 21.36) rotate(-45.22)"/>
            </g>
            <g>
              <rect class="cls-2" x="25.52" y="14.92" width="1.92" height="1.1" transform="translate(-3.15 23.36) rotate(-45.21)"/>
              <rect class="cls-2" x="23.4" y="17.06" width="1.91" height="1.1" transform="translate(-5.3 22.47) rotate(-45.18)"/>
            </g>
            <g>
              <rect class="cls-2" x="26.61" y="16.01" width="1.92" height="1.1" transform="translate(-3.63 24.35) rotate(-45.02)"/>
              <rect class="cls-2" x="24.49" y="18.15" width="1.92" height="1.1" transform="translate(-5.75 23.56) rotate(-45.16)"/>
            </g>
          </g>
          <g>
            <g>
              <rect class="cls-2" x="27.13" y="3.43" width="1.1" height="1.94" transform="translate(5.05 20.94) rotate(-45.2)"/>
              <rect class="cls-2" x="24.99" y="1.33" width="1.1" height="1.9" transform="translate(5.91 18.78) rotate(-45.14)"/>
            </g>
            <polygon class="cls-2" points="23.34 3.12 24.12 2.34 25.48 3.69 26.25 4.46 27.61 5.82 26.84 6.6 25.48 5.24 24.7 4.46 23.34 3.12"/>
            <g>
              <rect class="cls-2" x="24.91" y="5.66" width="1.1" height="1.92" transform="translate(2.77 19.93) rotate(-44.97)"/>
              <rect class="cls-2" x="22.77" y="3.53" width="1.1" height="1.92" transform="translate(3.7 17.87) rotate(-45.2)"/>
            </g>
          </g>
          <g>
            <polygon class="cls-2" points="6.64 13.99 7.41 13.21 8.76 14.55 9.54 15.32 10.91 16.69 10.14 17.47 8.76 16.1 7.98 15.32 6.64 13.99"/>
            <g>
              <rect class="cls-2" x="8.16" y="16.56" width="1.1" height="1.92" transform="translate(-9.86 11.35) rotate(-45.21)"/>
              <rect class="cls-2" x="6.02" y="14.44" width="1.1" height="1.91" transform="translate(-8.98 9.21) rotate(-45.2)"/>
            </g>
            <polygon class="cls-2" points="4.41 16.19 5.18 15.42 6.55 16.77 7.33 17.54 8.68 18.89 7.91 19.67 6.55 18.32 5.77 17.54 4.41 16.19"/>
          </g>
        </g>
        <g>
          <path class="cls-3" d="M22.61,10.26A5.92,5.92,0,1,1,16.7,4.35,5.92,5.92,0,0,1,22.61,10.26Z"/>
          <path class="cls-4" d="M22.58,10.26a5.69,5.69,0,0,1-.06.83c-.17-1.18-.81-3.29-3.23-3.33a2.53,2.53,0,0,0-2.75,1.72c-.54,1.34-.6,3-3,3a2.62,2.62,0,0,1-2.8-2.1.28.28,0,0,1,0-.09,5.92,5.92,0,1,1,11.83,0Z"/>
        </g>
      </g>
    </g>
  </g>
</svg>
