<?xml version="1.0" encoding="utf-8"?>
<!-- Generator: Adobe Illustrator 23.1.0, SVG Export Plug-In . SVG Version: 6.00 Build 0)  -->
<svg version="1.1" id="Слой_1" xmlns="http://www.w3.org/2000/svg" xmlns:xlink="http://www.w3.org/1999/xlink" x="0px" y="0px"
	 viewBox="0 0 233.6 50" style="enable-background:new 0 0 233.6 50;" xml:space="preserve">
<style type="text/css">
	.st0{fill:#FFFFFF;}
</style>
<g>
	<g>
		<path class="st0" d="M55.1,27.1c-2.1-2.1-5-3.3-8-3.3l0,0c-1.3,0-2.5,0.2-3.7,0.6c-0.5-0.3-0.9-0.6-1.4-0.8
			c0.9-0.5,1.8-1.1,2.5-1.9c2-2,3.1-4.7,3.1-7.5c0-2.9-1.1-5.5-3.1-7.5c-2-2-4.7-3.1-7.5-3.1H10v2.4h4.7V15H10v2.4h4.7V24
			c-0.6-0.1-1.3-0.2-2-0.2c-3,0-5.9,1.2-8,3.3c-2.1,2.1-3.3,5-3.3,8s1.2,5.9,3.3,8c2.1,2.1,5,3.3,8,3.3h24.2c1.8,0,3.6-0.4,5.1-1.2
			c1.5,0.8,3.3,1.2,5,1.2c3,0,5.9-1.2,8-3.3c2.1-2.1,3.3-5,3.3-8S57.2,29.3,55.1,27.1z M14.7,44.1h-2c-4.9,0-9-4-9-9s4-9,9-9
			c0.7,0,1.3,0.1,2,0.2V44.1z M17,5.9h9.2V15H17V5.9z M26.3,44.1H17V27.3c0.3,0.2,0.7,0.4,1,0.6l8.3,6L26.3,44.1L26.3,44.1z
			 M19.4,26c-0.4-0.3-0.8-0.5-1.2-0.7c-0.4-0.2-0.8-0.4-1.2-0.6v-7.3h9.2V31L19.4,26z M36.9,44.1h-8.3v-8.4l11,8
			C38.8,44,37.9,44.1,36.9,44.1z M42.1,42.6c-0.1-0.1-0.2-0.1-0.3-0.2l-13.1-9.6V17.4h4.4V15h-4.5V5.9h8.3c4.6,0,8.3,3.7,8.3,8.3
			s-3.7,8.3-8.3,8.3h-3.8v2.4h3.8c5.3,0,9.6,4.3,9.6,9.6C46.5,37.9,44.8,40.9,42.1,42.6z M47.1,44.1c-0.9,0-1.7-0.1-2.6-0.4
			c0.3-0.2,0.6-0.5,0.9-0.8c2.3-2.3,3.5-5.3,3.5-8.5c0-3.1-1.2-6-3.3-8.2c0.5-0.1,1-0.1,1.4-0.1l0,0c4.9,0,9,4,9,9
			C56,40.1,52,44.1,47.1,44.1z"/>
		<g>
			<g>
				<g>
					<path class="st0" d="M71.1,8.1h4.4c0.2,0,0.4,0,0.6,0c0.2,0,0.4,0,0.6,0c0.5,0,0.9,0.1,1.3,0.2c0.4,0.1,0.8,0.3,1.2,0.6
						c0.5,0.4,0.9,0.8,1.1,1.4c0.3,0.5,0.4,1.1,0.4,1.7c0,0,0,0.1,0,0.1c0,0,0,0.1,0,0.1c0,0.8-0.2,1.5-0.6,2.1
						c-0.4,0.7-1,1.1-1.7,1.4c0.9,0.2,1.7,0.7,2.2,1.4s0.8,1.6,0.8,2.4c0,0.1,0,0.1,0,0.1c0,0,0,0.1,0,0.1s0,0.1,0,0.2
						c0,0.1,0,0.1,0,0.2c-0.1,0.6-0.2,1.3-0.5,1.9c-0.3,0.6-0.7,1.1-1.3,1.5c-0.4,0.2-0.8,0.4-1.2,0.5c-0.4,0.1-0.9,0.2-1.4,0.2
						c-0.2,0-0.5,0-0.7,0s-0.5,0-0.7,0H71L71.1,8.1L71.1,8.1z M73.6,14.9c0.1,0,0.2,0,0.2,0s0.2,0,0.2,0c0.1,0,0.1,0,0.2,0
						c0.1,0,0.2,0,0.3,0c0.1,0,0.2,0,0.4,0c0.1,0,0.2,0,0.4,0c0.7,0,1.3-0.2,1.8-0.5c0.6-0.3,0.8-0.8,0.9-1.6v-0.2
						c0-1-0.3-1.7-1-1.9c-0.7-0.3-1.4-0.4-2.3-0.4c0,0-0.1,0-0.1,0c0,0-0.1,0-0.1,0h-0.9L73.6,14.9L73.6,14.9z M73.9,22.1
						c0.1,0,0.2,0,0.3,0c0,0,0,0,0,0h0c0.1,0,0.2,0,0.2,0c0.1,0,0.2,0,0.2,0c0.1,0,0.2,0,0.4,0c0.1,0,0.2,0,0.4,0
						c0.8,0,1.6-0.2,2.3-0.5c0.7-0.3,1-1,1-2v-0.1c0-1-0.3-1.7-1-2c-0.7-0.3-1.4-0.5-2.2-0.5c-0.1,0-0.2,0-0.3,0c-0.1,0-0.2,0-0.3,0
						h-1.2v5.2C73.7,22.1,73.8,22.1,73.9,22.1z"/>
					<path class="st0" d="M84.7,8.1h9v2.3h-6.4v4h6.4v2.3h-6.4v5.2h6.4v2.4h-9V8.1z"/>
					<path class="st0" d="M106.5,20.1h-6.4l-1.9,4.2h-2.8l7.8-16.8l7.8,16.8h-2.8L106.5,20.1z M103.1,13.3c-0.1,0.3-0.2,0.6-0.4,0.9
						l-1.7,3.7h4.5l-1.7-3.7c-0.1-0.2-0.2-0.5-0.3-0.7c-0.1-0.2-0.2-0.5-0.2-0.8c0-0.1,0-0.1-0.1-0.2c0-0.1,0-0.1-0.1-0.2
						C103.3,12.7,103.2,13,103.1,13.3z"/>
					<path class="st0" d="M116.3,8.1V18c0,1.3,0.3,2.4,0.9,3.2c0.6,0.8,1.7,1.2,3.1,1.2c1.4,0,2.4-0.4,3.1-1.2c0.7-0.8,1-1.9,1-3.2
						V8.2h2.6v10.1c0,2.2-0.6,3.8-1.7,4.9c-1.1,1.1-2.8,1.6-5,1.6c-2.2,0-3.9-0.5-5-1.6c-1.1-1.1-1.7-2.7-1.7-4.8V8.2L116.3,8.1
						L116.3,8.1z"/>
					<path class="st0" d="M136.4,24.3h-2.7V10.4h-4.3V8.1h11.2v2.3h-4.3V24.3z"/>
					<path class="st0" d="M146.6,16.9l-5.4-8.8h2.8l3.4,5.5c0.1,0.1,0.1,0.2,0.2,0.3c0.1,0.1,0.1,0.2,0.2,0.3c0,0,0,0.1,0.1,0.1
						c0,0,0,0.1,0.1,0.1c0,0.1,0.1,0.1,0.1,0.2c0,0.1,0.1,0.1,0.1,0.2c0.1-0.2,0.2-0.5,0.3-0.7c0.1-0.2,0.2-0.4,0.4-0.7l3.5-5.4h2.6
						l-5.5,8.8v7.4h-2.6L146.6,16.9L146.6,16.9z"/>
				</g>
			</g>
			<path class="st0" d="M164.8,24.3V7.6h8.3V9h-6.7v5.2h6.5v1.4h-6.5v8.6L164.8,24.3L164.8,24.3z"/>
			<path class="st0" d="M183.4,24.7c-1.6,0-3-0.3-4.4-1c-1.4-0.7-2.5-1.7-3.3-3c-0.8-1.3-1.2-2.9-1.2-4.8c0-1.7,0.4-3.3,1.3-4.6
				c0.9-1.3,2-2.3,3.4-3c1.4-0.7,2.9-1.1,4.4-1.1c1.3,0,2.5,0.2,3.6,0.7c1.1,0.5,2,1.1,2.8,1.9c0.8,0.8,1.4,1.7,1.8,2.8
				c0.4,1.1,0.7,2.3,0.7,3.5c0,1.7-0.4,3.3-1.2,4.6c-0.8,1.3-1.9,2.4-3.3,3.1C186.6,24.4,185.1,24.7,183.4,24.7z M183.4,23.4
				c1.4,0,2.6-0.3,3.7-1c1.1-0.6,2-1.5,2.7-2.7c0.7-1.1,1-2.4,1-3.8c0-1.2-0.3-2.4-0.8-3.5c-0.6-1.2-1.4-2.1-2.5-2.9
				c-1.1-0.8-2.4-1.1-4-1.1c-1.1,0-2.2,0.3-3.4,0.8c-1.2,0.6-2.1,1.4-2.9,2.5c-0.8,1.1-1.1,2.5-1.1,4.1c0,1.3,0.3,2.6,0.9,3.7
				c0.6,1.1,1.5,2,2.6,2.7C180.8,23.1,182,23.4,183.4,23.4z"/>
			<path class="st0" d="M205.2,24.3h-1.9l-5.9-8h-0.9v8H195V7.6h3.1c3.6,0,5.4,1.5,5.4,4.6c0,1.5-0.4,2.5-1.3,3.2
				c-0.9,0.6-1.9,1-3,1.1L205.2,24.3z M197.7,15.1c1.3,0,2.3-0.2,3-0.6c0.7-0.4,1.1-1.2,1.1-2.5c0-1.2-0.3-2-1-2.5
				c-0.7-0.5-1.7-0.7-3.2-0.7h-1.2v6.2L197.7,15.1L197.7,15.1z"/>
			<path class="st0" d="M215.5,8.6c-1.5,0-2.7,0.3-3.8,0.9c-1.1,0.6-1.9,1.5-2.5,2.6c-0.6,1.1-0.9,2.4-0.9,3.9c0,2.3,0.7,4.1,2,5.4
				c1.3,1.3,3,2,5.1,2c1.9,0,3.7-0.7,5.4-2l0,1.8c-0.8,0.5-1.6,0.8-2.5,1.1s-1.9,0.4-2.9,0.4c-1.3,0-2.7-0.2-4-0.7
				c-1.3-0.5-2.4-1.4-3.4-2.7c-0.9-1.3-1.4-3-1.4-5.2c0-1.6,0.3-3.1,0.9-4.4c0.6-1.3,1.6-2.4,2.9-3.2c1.3-0.8,3-1.2,5.1-1.2
				c1.9,0,3.7,0.6,5.4,1.8l-0.1,1.7c-0.6-0.5-1.4-1-2.2-1.5C217.8,8.8,216.8,8.6,215.5,8.6z"/>
			<path class="st0" d="M223.3,24.3V7.6h8.3V9h-6.7v5.2h6.7v1.4h-6.7v7.2h6.7v1.4L223.3,24.3L223.3,24.3z"/>
		</g>
	</g>
	<g>
		<path class="st0" d="M78.7,36.5v0.7c-0.4-0.4-0.8-0.8-1.3-1c-0.5-0.2-1-0.4-1.6-0.4c-1.1,0-2,0.4-2.7,1.1
			c-0.7,0.8-1.1,1.7-1.1,2.8c0,0.6,0.1,1.2,0.4,1.7c0.2,0.5,0.5,0.9,0.9,1.2c0.4,0.3,0.8,0.6,1.2,0.7c0.4,0.2,0.9,0.3,1.3,0.3
			c0.5,0,1-0.1,1.5-0.3c0.5-0.2,1-0.5,1.4-1v0.7C78,43.8,77,44.1,76,44.1c-1.3,0-2.3-0.4-3.2-1.3c-0.9-0.9-1.3-1.9-1.3-3.1
			c0-1.2,0.4-2.3,1.3-3.1s1.9-1.3,3.1-1.3C77,35.4,77.9,35.7,78.7,36.5z"/>
		<path class="st0" d="M83.9,36.6c0.9-0.9,1.9-1.3,3.2-1.3c1.2,0,2.3,0.4,3.2,1.3c0.9,0.9,1.3,1.9,1.3,3.1c0,1.2-0.4,2.3-1.3,3.1
			c-0.9,0.9-1.9,1.3-3.2,1.3c-1.2,0-2.3-0.4-3.2-1.3c-0.9-0.8-1.3-1.9-1.3-3.1C82.6,38.5,83.1,37.5,83.9,36.6z M84.3,42.5
			c0.7,0.7,1.6,1.1,2.7,1.1c1.1,0,2-0.4,2.7-1.1c0.7-0.8,1.1-1.7,1.1-2.8c0-1.1-0.4-2-1.1-2.8c-0.7-0.7-1.6-1.1-2.7-1.1
			c-1.1,0-2,0.4-2.7,1.1c-0.7,0.8-1.1,1.7-1.1,2.8C83.2,40.9,83.6,41.8,84.3,42.5z"/>
		<path class="st0" d="M100.2,36.6l-0.4,0.3c-0.4-0.7-0.9-1.1-1.7-1.1c-0.5,0-0.9,0.2-1.2,0.5c-0.3,0.3-0.4,0.7-0.4,1.1
			c0,0.2,0,0.4,0.1,0.6c0.1,0.2,0.2,0.3,0.3,0.4c0.2,0.1,0.3,0.2,0.4,0.3c0.1,0.1,0.3,0.2,0.6,0.3c0.9,0.4,1.5,0.7,1.7,0.9
			c0.6,0.4,0.9,1,0.9,1.7s-0.3,1.3-0.8,1.8c-0.5,0.5-1.1,0.7-1.9,0.7c-0.8,0-1.5-0.3-2-0.9c-0.2-0.3-0.4-0.6-0.6-0.9l0.5-0.2
			c0.1,0.3,0.3,0.6,0.5,0.8c0.4,0.5,0.9,0.7,1.6,0.7c0.6,0,1.1-0.2,1.5-0.6c0.4-0.4,0.6-0.8,0.6-1.4c0-0.6-0.3-1-0.8-1.3
			c-0.2-0.1-0.7-0.4-1.6-0.8c-0.4-0.2-0.7-0.4-0.9-0.5c-0.2-0.1-0.4-0.3-0.5-0.6c-0.2-0.3-0.3-0.6-0.3-1c0-0.6,0.2-1,0.6-1.5
			s0.9-0.6,1.6-0.6c0.4,0,0.8,0.1,1.2,0.3C99.7,35.9,100,36.2,100.2,36.6z"/>
		<path class="st0" d="M105.4,44h-0.6l1-8.8l3.7,7.9l3.7-7.9l1,8.8h-0.5l-0.8-6.8l-3.4,7.1l-3.4-7.1L105.4,44z"/>
		<path class="st0" d="M123.1,35.5V36h-3.5v3.1h3.5v0.5h-3.5v3.9h3.5v0.5H119v-8.5L123.1,35.5L123.1,35.5z"/>
		<path class="st0" d="M131.5,36h-2.2v8h-0.6v-8h-2.2v-0.5h5L131.5,36L131.5,36z"/>
		<path class="st0" d="M135.3,35.5h0.6V44h-0.6V35.5z"/>
		<path class="st0" d="M147.6,36.5v0.7c-0.4-0.4-0.8-0.8-1.3-1c-0.5-0.2-1-0.4-1.6-0.4c-1.1,0-2,0.4-2.7,1.1
			c-0.7,0.8-1.1,1.7-1.1,2.8c0,0.6,0.1,1.2,0.4,1.7c0.2,0.5,0.5,0.9,0.9,1.2c0.4,0.3,0.8,0.6,1.2,0.7c0.4,0.2,0.9,0.3,1.3,0.3
			c0.5,0,1-0.1,1.5-0.3c0.5-0.2,1-0.5,1.4-1v0.7c-0.8,0.7-1.8,1.1-2.8,1.1c-1.3,0-2.3-0.4-3.2-1.3c-0.9-0.9-1.3-1.9-1.3-3.1
			c0-1.2,0.4-2.3,1.3-3.1c0.9-0.9,1.9-1.3,3.1-1.3C145.8,35.4,146.8,35.7,147.6,36.5z"/>
		<path class="st0" d="M164.3,36.5v0.7c-0.4-0.4-0.8-0.8-1.3-1c-0.5-0.2-1-0.4-1.6-0.4c-1.1,0-2,0.4-2.7,1.1
			c-0.7,0.8-1.1,1.7-1.1,2.8c0,0.6,0.1,1.2,0.4,1.7c0.2,0.5,0.5,0.9,0.9,1.2c0.4,0.3,0.8,0.6,1.2,0.7c0.4,0.2,0.9,0.3,1.3,0.3
			c0.5,0,1-0.1,1.5-0.3c0.5-0.2,1-0.5,1.4-1v0.7c-0.8,0.7-1.8,1.1-2.8,1.1c-1.3,0-2.3-0.4-3.2-1.3c-0.9-0.9-1.3-1.9-1.3-3.1
			c0-1.2,0.4-2.3,1.3-3.1c0.9-0.9,1.9-1.3,3.1-1.3C162.6,35.4,163.5,35.7,164.3,36.5z"/>
		<path class="st0" d="M169.5,36.6c0.9-0.9,1.9-1.3,3.2-1.3c1.2,0,2.3,0.4,3.2,1.3c0.9,0.9,1.3,1.9,1.3,3.1c0,1.2-0.4,2.3-1.3,3.1
			c-0.9,0.9-1.9,1.3-3.2,1.3c-1.2,0-2.3-0.4-3.2-1.3c-0.9-0.8-1.3-1.9-1.3-3.1C168.2,38.5,168.7,37.5,169.5,36.6z M169.9,42.5
			c0.7,0.7,1.6,1.1,2.7,1.1s2-0.4,2.7-1.1c0.7-0.8,1.1-1.7,1.1-2.8c0-1.1-0.4-2-1.1-2.8c-0.7-0.7-1.6-1.1-2.7-1.1s-2,0.4-2.7,1.1
			c-0.7,0.8-1.1,1.7-1.1,2.8C168.8,40.9,169.2,41.8,169.9,42.5z"/>
		<path class="st0" d="M181.9,44h-0.6l1-8.8l3.7,7.9l3.7-7.9l1,8.8h-0.6l-0.8-6.8l-3.3,7.1l-3.4-7.1L181.9,44z"/>
		<path class="st0" d="M197.1,40H196V44h-0.6v-8.5h1.7c0.7,0,1.3,0.2,1.8,0.6c0.5,0.4,0.7,0.9,0.7,1.6s-0.2,1.3-0.7,1.7
			C198.4,39.8,197.8,40,197.1,40z M196,36v3.5h1.1c0.6,0,1-0.2,1.4-0.5c0.3-0.3,0.5-0.7,0.5-1.3c0-0.5-0.2-1-0.5-1.3
			c-0.3-0.3-0.8-0.5-1.4-0.5L196,36L196,36z"/>
		<path class="st0" d="M209.2,44l-1.1-2.8h-3.6l-1.1,2.8h-0.6l3.6-8.8l3.5,8.8H209.2z M204.7,40.7h3.2l-1.6-4L204.7,40.7z"/>
		<path class="st0" d="M214.3,44h-0.6v-8.6l7.2,7.5v-7.4h0.6v8.7l-7.1-7.5L214.3,44L214.3,44z"/>
		<path class="st0" d="M228.1,44v-3.7l-2.8-4.9h0.6l2.5,4.3l2.5-4.3h0.6l-2.9,4.9V44H228.1z"/>
	</g>
</g>
</svg>
