<svg xmlns="http://www.w3.org/2000/svg" viewBox="0 0 693.2 131.2"><defs><style>.cls-1{fill:#fff;}</style></defs><title>Asset 2</title><g id="Layer_2" data-name="Layer 2"><g id="Слой_1" data-name="Слой 1"><path class="cls-1" d="M161.7,71a34,34,0,0,0-24.1-10h0a34.9,34.9,0,0,0-11.1,1.8,36.2,36.2,0,0,0-4.3-2.4,28.8,28.8,0,0,0,7.5-5.6,31.6,31.6,0,0,0,9.4-22.7,31.8,31.8,0,0,0-9.4-22.7A31.6,31.6,0,0,0,107,0H25.7V7.1H40V34.6H25.7v7.1H40V61.5a39.2,39.2,0,0,0-5.9-.5A34,34,0,0,0,10,71a34,34,0,0,0,0,48.2,34,34,0,0,0,24.1,10H107a35.6,35.6,0,0,0,15.5-3.5A34.1,34.1,0,0,0,161.7,71ZM40,122.1H34.1a27,27,0,0,1,0-54,28.8,28.8,0,0,1,5.9.6Zm7.1-115H74.9V34.6H47.1Zm27.8,115H47.1V71.4A29,29,0,0,1,50,73.3L74.9,91.5ZM54.2,67.6a26.4,26.4,0,0,0-3.5-2.3l-3.6-1.7V41.7H74.9v41ZM107,122.1H82V96.7l33.1,24.2A26.9,26.9,0,0,1,107,122.1Zm15.6-4.5-.9-.7L82,87.9V41.7H95.4V34.6H82V7.1h25a25,25,0,0,1,0,50H95.6v7.1H107a29,29,0,0,1,15.6,53.4Zm15,4.5a28.1,28.1,0,0,1-7.7-1.1,19.5,19.5,0,0,0,2.6-2.4,35.9,35.9,0,0,0,.7-50.2,32.5,32.5,0,0,1,4.4-.3h0a27,27,0,0,1,0,54Z"/><path class="cls-1" d="M226.8,100.5a12.5,12.5,0,0,0-6.3-1.9,7.5,7.5,0,0,0-5.7,2.3c-1.5,1.4-2.2,3.4-2.2,6.1a8.1,8.1,0,0,0,2.1,5.8,7.5,7.5,0,0,0,5.7,2.3,12.2,12.2,0,0,0,6.7-2.2v2.9a17.4,17.4,0,0,1-6.7,1.5,10.8,10.8,0,0,1-7.5-2.5c-2.1-2-3.1-4.7-3.1-8.2a11.5,11.5,0,0,1,1-4.6,8.6,8.6,0,0,1,2.5-3.4c1.8-1.6,4.4-2.4,7.6-2.4a14,14,0,0,1,5.9,1.3Z"/><path class="cls-1" d="M229.2,106.9a11.4,11.4,0,0,1,1.4-5.4,10.9,10.9,0,0,1,3.8-3.9,10.8,10.8,0,0,1,5.3-1.4,11.6,11.6,0,0,1,7.7,2.8,11.1,11.1,0,0,1-.1,15.5,11.8,11.8,0,0,1-7.7,2.8,10.5,10.5,0,0,1-7.3-2.7C230.2,112.8,229.2,110.2,229.2,106.9Zm18.4-.1a8.1,8.1,0,0,0-2.2-5.8,7.5,7.5,0,0,0-5.5-2.3,7.1,7.1,0,0,0-5.4,2.4,8.3,8.3,0,0,0-.1,11.4,6.8,6.8,0,0,0,5.1,2.4,8.1,8.1,0,0,0,5.7-2.3A7.5,7.5,0,0,0,247.6,106.8Z"/><path class="cls-1" d="M252.3,113l2.6-1.5a4.4,4.4,0,0,0,1.8,2.3,4.7,4.7,0,0,0,5.8.2,2.3,2.3,0,0,0,1-2,3.9,3.9,0,0,0-1-2.7,9.2,9.2,0,0,0-3.6-1.8,22,22,0,0,1-3-1.4,5.8,5.8,0,0,1-1.9-1.9,6,6,0,0,1-.7-3,4,4,0,0,1,.8-2.6,5.8,5.8,0,0,1,2.2-1.8,9,9,0,0,1,3.4-.6,6.8,6.8,0,0,1,6.4,4l-2.4,1.4a4.5,4.5,0,0,0-4.3-3,4.3,4.3,0,0,0-2.4.7,2.9,2.9,0,0,0-.8,2.1,2.8,2.8,0,0,0,1.1,2.2,14.2,14.2,0,0,0,3.6,1.9,10.4,10.4,0,0,1,4,2.4,5.7,5.7,0,0,1,1.4,3.7,5.2,5.2,0,0,1-1.8,4.2,7.6,7.6,0,0,1-5,1.5,8,8,0,0,1-4.4-1.1A6.7,6.7,0,0,1,252.3,113Z"/><path class="cls-1" d="M271.9,116.5h-2.7V96.9h2.7V100c1.5-2.6,3.5-3.8,6-3.8a9.9,9.9,0,0,1,3.5.6,6.4,6.4,0,0,1,2.7,3.2,7.8,7.8,0,0,1,6.7-3.8,6.9,6.9,0,0,1,4.9,1.8,6.7,6.7,0,0,1,1.9,5.2v13.3H295V104.3q0-5.7-4.5-5.7c-2.1,0-3.6.6-4.4,1.9s-1.3,3.1-1.3,5.7v10.3h-2.7V104.3q0-5.7-4.5-5.7c-2.1,0-3.6.6-4.4,1.9a10,10,0,0,0-1.3,5.7Z"/><path class="cls-1" d="M319.5,106.8H303.9a9.7,9.7,0,0,0,1.6,5.6,5.6,5.6,0,0,0,5.1,2.5c2.7,0,4.9-1.6,6.6-4.7l2.4,1.4a16.7,16.7,0,0,1-3.2,4.1c-1.3,1.1-3.2,1.6-5.7,1.6a9,9,0,0,1-7.2-3.1,11.3,11.3,0,0,1-2.6-7.4,11.6,11.6,0,0,1,2.5-7.8c1.6-1.9,4-2.8,7-2.8a8.7,8.7,0,0,1,4.6,1.1,7.5,7.5,0,0,1,3.3,3.5A13.4,13.4,0,0,1,319.5,106.8Zm-3.3-2.3a6.7,6.7,0,0,0-1.5-4,5.9,5.9,0,0,0-4.6-1.7q-5.2,0-6,5.7Z"/><path class="cls-1" d="M324.7,99.2H321V96.9h3.7v-8h2.6v8h4v2.3h-4v17.3h-2.6Z"/><path class="cls-1" d="M335.8,91.6a2.4,2.4,0,0,1-1.5-.6,2.1,2.1,0,0,1-.7-1.6,2,2,0,0,1,.6-1.5,2.3,2.3,0,0,1,1.6-.6,2.2,2.2,0,0,1,1.5,3.7A2,2,0,0,1,335.8,91.6Zm-1.3,24.9V96.9h2.8v19.6Z"/><path class="cls-1" d="M357.8,100.5a12.2,12.2,0,0,0-6.3-1.9,7.8,7.8,0,0,0-5.7,2.3,8.2,8.2,0,0,0-2.2,6.1,7.8,7.8,0,0,0,2.2,5.8,7.4,7.4,0,0,0,5.6,2.3,11.9,11.9,0,0,0,6.7-2.2v2.9a17.4,17.4,0,0,1-6.7,1.5,10.8,10.8,0,0,1-7.5-2.5,11,11,0,0,1-3-8.2,11.4,11.4,0,0,1,.9-4.6,9.7,9.7,0,0,1,2.5-3.4,11.4,11.4,0,0,1,7.6-2.4,13.7,13.7,0,0,1,5.9,1.3Z"/><path class="cls-1" d="M393,100.5a12.5,12.5,0,0,0-6.3-1.9,7.5,7.5,0,0,0-5.7,2.3c-1.5,1.4-2.2,3.4-2.2,6.1a8.1,8.1,0,0,0,2.1,5.8,7.6,7.6,0,0,0,5.7,2.3,11.9,11.9,0,0,0,6.7-2.2v2.9a17.4,17.4,0,0,1-6.7,1.5,10.8,10.8,0,0,1-7.5-2.5c-2.1-2-3.1-4.7-3.1-8.2a11.5,11.5,0,0,1,1-4.6,8.6,8.6,0,0,1,2.5-3.4c1.8-1.6,4.4-2.4,7.6-2.4a14,14,0,0,1,5.9,1.3Z"/><path class="cls-1" d="M395.4,106.9a11.4,11.4,0,0,1,1.4-5.4,10.9,10.9,0,0,1,3.8-3.9,10.8,10.8,0,0,1,5.3-1.4,11.6,11.6,0,0,1,7.7,2.8,11.1,11.1,0,0,1-.1,15.5,11.8,11.8,0,0,1-7.7,2.8,10.5,10.5,0,0,1-7.3-2.7C396.4,112.8,395.4,110.2,395.4,106.9Zm18.4-.1a8.1,8.1,0,0,0-2.2-5.8,7.5,7.5,0,0,0-5.5-2.3,7.1,7.1,0,0,0-5.4,2.4,8.3,8.3,0,0,0-.1,11.4,6.8,6.8,0,0,0,5.1,2.4,8.1,8.1,0,0,0,5.7-2.3A7.5,7.5,0,0,0,413.8,106.8Z"/><path class="cls-1" d="M422.4,116.5h-2.6V96.9h2.6V100c1.5-2.6,3.5-3.8,6-3.8a9.5,9.5,0,0,1,3.5.6,7,7,0,0,1,2.8,3.2,7.5,7.5,0,0,1,6.6-3.8,6.5,6.5,0,0,1,6.9,7v13.3h-2.7V104.3q0-5.7-4.5-5.7c-2.1,0-3.5.6-4.4,1.9a10.4,10.4,0,0,0-1.3,5.7v10.3h-2.7V104.3q0-5.7-4.5-5.7c-2.1,0-3.6.6-4.4,1.9a10.9,10.9,0,0,0-1.3,5.7Z"/><path class="cls-1" d="M455.2,97v3.5a7.3,7.3,0,0,1,7-4.3,8.3,8.3,0,0,1,6.8,3,11.3,11.3,0,0,1,2.4,7.3,13.4,13.4,0,0,1-1.2,6,8.7,8.7,0,0,1-3.2,3.6,9.6,9.6,0,0,1-4.4,1.1,8.2,8.2,0,0,1-4.4-1,10.3,10.3,0,0,1-3-3.2v18.2h-2.6V97Zm13.2,9.5a11.3,11.3,0,0,0-1.4-5.6q-1.5-2.4-5.1-2.4a6,6,0,0,0-5,2.5,9.8,9.8,0,0,0-1.8,5.9,8.3,8.3,0,0,0,2,5.6,5.7,5.7,0,0,0,4.7,2.4c2.5,0,4.2-.8,5.2-2.5A12.2,12.2,0,0,0,468.4,106.5Z"/><path class="cls-1" d="M490.4,116.5v-3.6a8,8,0,0,1-7.4,4.4,7.8,7.8,0,0,1-6.4-2.9c-1.7-2-2.5-4.7-2.5-8.1a11.2,11.2,0,0,1,2.6-7.2,7.8,7.8,0,0,1,6.5-2.9c3.5,0,5.9,1.4,7.2,4.3V96.9h2.7v19.6Zm-7.1-1.6a6.9,6.9,0,0,0,5.1-2.1,8.5,8.5,0,0,0,2-6,8.9,8.9,0,0,0-1.8-5.8,5.4,5.4,0,0,0-4.7-2.3,6.2,6.2,0,0,0-4.8,2,7.7,7.7,0,0,0-2,5.7,10.4,10.4,0,0,0,1.7,6A5.1,5.1,0,0,0,483.3,114.9Z"/><path class="cls-1" d="M496.2,116.5V96.9h2.6V100a12,12,0,0,1,2.6-2.8,6.9,6.9,0,0,1,4.2-1c2.6,0,4.5.7,5.5,2.1a7.6,7.6,0,0,1,1.6,4.9v13.3H510v-12a7.1,7.1,0,0,0-1.1-4.2,4.6,4.6,0,0,0-4-1.7c-2.2,0-3.7.7-4.6,2a10,10,0,0,0-1.4,5.7v10.2Z"/><path class="cls-1" d="M515.2,96.9h3l5.6,15.3,5.1-15.3h2.9l-10.1,29.4h-2.9l3.5-9.9Z"/><path class="cls-1" d="M209.8,18.5h16.7l4,.7a8.8,8.8,0,0,1,3.5,1.7,11.2,11.2,0,0,1,3.4,4.1,12.9,12.9,0,0,1,1.4,5.1v.6a13.3,13.3,0,0,1-1.7,6.4,9.5,9.5,0,0,1-5.2,4.2,9.7,9.7,0,0,1,6.5,4.4A14.4,14.4,0,0,1,241,53v1.8a16.3,16.3,0,0,1-1.6,5.6,10.6,10.6,0,0,1-4,4.4,11.7,11.7,0,0,1-3.6,1.6,19.4,19.4,0,0,1-4.2.7H209.8ZM217.6,39h5.2a14.3,14.3,0,0,0,5.5-1.3c1.7-.9,2.5-2.4,2.6-4.8v-.8c0-3-1-5-3.1-5.8a20.6,20.6,0,0,0-6.8-1.2h-3.4Zm.7,21.6h4.6a17,17,0,0,0,6.8-1.6c2-1,3.1-3,3.1-6.1v-.2c0-3.1-1-5.2-3-6.1a17.8,17.8,0,0,0-6.6-1.6h-5.6V60.6Z"/><path class="cls-1" d="M250.8,18.5H278v6.8H258.7V37.4H278v7H258.7V60.1H278v7.2H250.8Z"/><path class="cls-1" d="M316.6,54.6H297.3l-5.6,12.7h-8.3l23.5-50.7,23.6,50.7h-8.4ZM306.3,34.2a23.3,23.3,0,0,1-1.1,2.8l-5,11.1h13.6l-5-11.1a19.5,19.5,0,0,1-.8-2.2c-.2-.8-.5-1.5-.7-2.3s-.1-.3-.1-.5-.1-.4-.2-.6A28.6,28.6,0,0,1,306.3,34.2Z"/><path class="cls-1" d="M346.1,18.5V48.1a15.6,15.6,0,0,0,2.8,9.6q2.9,3.6,9.3,3.6c4.2,0,7.3-1.2,9.2-3.7a14.4,14.4,0,0,0,3-9.5V18.5h7.9V48.9c0,6.6-1.7,11.4-5.1,14.6s-8.3,4.9-15,4.9-11.5-1.7-14.9-4.9-5.2-8.1-5.2-14.6V18.5Z"/><path class="cls-1" d="M406.6,67.3h-7.9v-42H385.8V18.5h33.7v6.8H406.6Z"/><path class="cls-1" d="M437.3,44.9,420.9,18.5h8.3l10.2,16.6a7,7,0,0,1,.6.9l.4.9c.1.1.2.2.2.3s.1.3.2.4l.3.6.4.7a6.7,6.7,0,0,1,.9-2.1,19.8,19.8,0,0,1,1.1-2L454,18.5h7.9L445.2,44.9V67.3h-7.9Z"/><path class="cls-1" d="M492.2,67.3V16.8h25v4.3H496.8V36.9h19.6v4.3H496.8V67.3Z"/><path class="cls-1" d="M548.2,68.5A28.5,28.5,0,0,1,535,65.4a23.5,23.5,0,0,1-10-9A27.5,27.5,0,0,1,521.3,42a24.9,24.9,0,0,1,3.9-13.9,26.6,26.6,0,0,1,10.2-9.2,28.8,28.8,0,0,1,13.1-3.2,26.7,26.7,0,0,1,10.8,2.1,25.3,25.3,0,0,1,8.4,5.6,28.2,28.2,0,0,1,5.5,8.5,28.8,28.8,0,0,1,2,10.5,25.4,25.4,0,0,1-3.7,13.7,23.9,23.9,0,0,1-9.7,9.2A29.6,29.6,0,0,1,548.2,68.5Zm0-3.9a22.5,22.5,0,0,0,11.2-2.9,21.9,21.9,0,0,0,8-8,22.4,22.4,0,0,0,2.9-11.3,23.9,23.9,0,0,0-2.5-10.6,20,20,0,0,0-7.5-8.6,20.3,20.3,0,0,0-11.9-3.4,23.8,23.8,0,0,0-10.2,2.4,21.3,21.3,0,0,0-12,19.9A22.3,22.3,0,0,0,529,53.2a20.1,20.1,0,0,0,7.9,8.2A20.7,20.7,0,0,0,548.2,64.6Z"/><path class="cls-1" d="M613.6,67.3H608l-17.7-24h-2.7v24H583V16.8h9.3q16.2,0,16.2,13.8c0,4.4-1.3,7.5-4,9.5a17.9,17.9,0,0,1-9.1,3.2ZM591.2,39.5a20.8,20.8,0,0,0,9.1-1.7c2.2-1.1,3.3-3.6,3.3-7.4s-1-6-2.9-7.4-5.1-2.2-9.5-2.2h-3.6V39.5Z"/><path class="cls-1" d="M644.9,19.8a22.5,22.5,0,0,0-11.5,2.8,17.7,17.7,0,0,0-7.5,7.8,24.8,24.8,0,0,0-2.7,11.8c0,6.9,2,12.3,5.9,16.3s9.2,6,15.6,6,11-2,16.1-6v5.3a30.5,30.5,0,0,1-7.6,3.4,31.7,31.7,0,0,1-8.8,1.2,35.7,35.7,0,0,1-11.9-2.2,22.3,22.3,0,0,1-10.1-8.1c-2.8-3.9-4.2-9.1-4.2-15.7a32.6,32.6,0,0,1,2.7-13.3,22.2,22.2,0,0,1,8.8-9.7c4-2.5,9.1-3.7,15.3-3.7a27.6,27.6,0,0,1,16.2,5.4v5a33.8,33.8,0,0,0-6.7-4.4A20.6,20.6,0,0,0,644.9,19.8Z"/><path class="cls-1" d="M668.2,67.3V16.8h25v4.3H672.9V36.9h20.3v4.3H672.9V63h20.3v4.3Z"/></g></g></svg>