<svg xmlns="http://www.w3.org/2000/svg" xmlns:xlink="http://www.w3.org/1999/xlink" viewBox="0 0 376.37 347.31">
  <defs>
    <style>
      .cls-1 {
        fill: url(#Безымянный_градиент_5);
      }

      .cls-2 {
        fill: url(#Безымянный_градиент_5-2);
      }

      .cls-3 {
        fill: url(#Безымянный_градиент_5-3);
      }

      .cls-4 {
        fill: url(#Безымянный_градиент_5-4);
      }

      .cls-5 {
        fill: url(#Безымянный_градиент_5-5);
      }

      .cls-6 {
        fill: url(#Безымянный_градиент_5-6);
      }

      .cls-7 {
        fill: url(#Безымянный_градиент_5-7);
      }

      .cls-8 {
        fill: url(#Безымянный_градиент_5-8);
      }

      .cls-9 {
        fill: url(#Безымянный_градиент_5-9);
      }

      .cls-10 {
        fill: url(#Безымянный_градиент_5-10);
      }

      .cls-11 {
        fill: url(#Безымянный_градиент_5-11);
      }

      .cls-12 {
        fill: url(#Безымянный_градиент_5-12);
      }
    </style>
    <linearGradient id="Безымянный_градиент_5" data-name="Безымянный градиент 5" x1="38.39" y1="26.22" x2="316.65" y2="304.47" gradientUnits="userSpaceOnUse">
      <stop offset="0" stop-color="#fbc6a2"/>
      <stop offset="1" stop-color="#aa7c4a"/>
    </linearGradient>
    <linearGradient id="Безымянный_градиент_5-2" x1="-5.23" y1="313.57" x2="22.93" y2="341.73" xlink:href="#Безымянный_градиент_5"/>
    <linearGradient id="Безымянный_градиент_5-3" x1="27.71" y1="312.54" x2="57.29" y2="342.12" xlink:href="#Безымянный_градиент_5"/>
    <linearGradient id="Безымянный_градиент_5-4" x1="61.11" y1="321.3" x2="90.04" y2="350.24" xlink:href="#Безымянный_градиент_5"/>
    <linearGradient id="Безымянный_градиент_5-5" x1="99.94" y1="308.3" x2="131.15" y2="339.51" xlink:href="#Безымянный_градиент_5"/>
    <linearGradient id="Безымянный_градиент_5-6" x1="136.56" y1="308.75" x2="163.68" y2="335.88" xlink:href="#Безымянный_градиент_5"/>
    <linearGradient id="Безымянный_градиент_5-7" x1="166.01" y1="306.67" x2="194.46" y2="335.11" xlink:href="#Безымянный_градиент_5"/>
    <linearGradient id="Безымянный_градиент_5-8" x1="214.88" y1="312.01" x2="236.33" y2="333.45" xlink:href="#Безымянный_градиент_5"/>
    <linearGradient id="Безымянный_градиент_5-9" x1="248.67" y1="312.06" x2="278.36" y2="341.75" xlink:href="#Безымянный_градиент_5"/>
    <linearGradient id="Безымянный_градиент_5-10" x1="284.22" y1="313.35" x2="315.79" y2="344.92" xlink:href="#Безымянный_градиент_5"/>
    <linearGradient id="Безымянный_градиент_5-11" x1="323.3" y1="311.92" x2="353.07" y2="341.7" xlink:href="#Безымянный_градиент_5"/>
    <linearGradient id="Безымянный_градиент_5-12" x1="351.96" y1="312.01" x2="381.32" y2="341.37" xlink:href="#Безымянный_градиент_5"/>
  </defs>
  <title>Asset 1bg</title>
  <g id="Layer_2" data-name="Layer 2">
    <g id="Слой_1" data-name="Слой 1">
      <g>
        <path class="cls-1" d="M354.51,155.69a74.26,74.26,0,0,0-52.8-21.93h-.09a74.18,74.18,0,0,0-24.24,4,78.92,78.92,0,0,0-9.52-5.26,70.77,70.77,0,0,0,16.58-12.34A70.41,70.41,0,0,0,234.65,0H56.46V15.56H87.63V75.84H56.46V91.39H87.63v43.47a75.48,75.48,0,0,0-12.88-1.1,74.75,74.75,0,0,0,0,149.5h159.9a78.56,78.56,0,0,0,34-7.65,74.76,74.76,0,0,0,85.87-119.92ZM87.63,267.7H74.75a59.19,59.19,0,1,1,12.88-117ZM103.19,15.56h61.06V75.84H103.19ZM164.25,267.7H103.19V156.58a61.25,61.25,0,0,1,6.46,4.12l54.6,39.94ZM118.84,148.14a77.79,77.79,0,0,0-7.6-4.89,76.48,76.48,0,0,0-8-3.9v-48h61.06v90ZM234.65,267.7H179.81V212l72.64,53.14A63.39,63.39,0,0,1,234.65,267.7Zm34.1-10c-.69-.46-1.36-.93-2-1.42l-86.91-63.58V91.39H209.2V75.84H179.81V15.56h54.84a54.85,54.85,0,0,1,0,109.7h-25.1v15.56h25.1a63.43,63.43,0,0,1,34.1,116.92Zm32.88,10a59.41,59.41,0,0,1-16.81-2.41c2-1.62,3.87-3.35,5.7-5.17a79,79,0,0,0,1.62-110,59.72,59.72,0,0,1,9.48-.75h.08a59.19,59.19,0,0,1-.07,118.38Z"/>
        <g>
          <g>
            <path class="cls-2" d="M0,308.34H11.66q.67,0,1.35.06a18.55,18.55,0,0,1,3.1.49,7.14,7.14,0,0,1,2.73,1.35,8.66,8.66,0,0,1,2.64,3.19,10.54,10.54,0,0,1,1,4v.43a9.92,9.92,0,0,1-1.32,5,7.26,7.26,0,0,1-4,3.31,7.7,7.7,0,0,1,5.1,3.38,11.54,11.54,0,0,1,2,5.71v1.41A11.94,11.94,0,0,1,23,341a8.31,8.31,0,0,1-3.07,3.4,9,9,0,0,1-2.85,1.26,18,18,0,0,1-3.22.52c-.57,0-1.15.07-1.72.09l-1.66,0H0Zm6,16H7.18a1.88,1.88,0,0,0,.55.07H9.21a4.88,4.88,0,0,0,.85-.07,11,11,0,0,0,4.3-1.07c1.31-.63,2-1.87,2-3.71V319q0-3.56-2.4-4.48a15.54,15.54,0,0,0-5.28-1H6Zm.62,16.82h.61s.07.06.09.06h2a6.12,6.12,0,0,0,.83-.06,13.39,13.39,0,0,0,5.27-1.26c1.6-.75,2.4-2.34,2.4-4.75V335c0-2.41-.78-4-2.33-4.72A13.22,13.22,0,0,0,10.37,329H6v12.15Z"/>
            <path class="cls-3" d="M31.91,308.34H53.08v5.34h-15v9.39h15v5.46h-15v12.21h15v5.58H31.91Z"/>
            <path class="cls-4" d="M83.15,336.51h-15l-4.36,9.81h-6.5l18.28-39.45L94,346.32H87.39Zm-8.07-15.9a15.15,15.15,0,0,1-.83,2.15l-3.86,8.65H80.94l-3.86-8.65c-.25-.57-.46-1.15-.65-1.72s-.36-1.17-.52-1.78c0-.12-.08-.25-.12-.4s-.08-.29-.12-.46C75.5,319.14,75.31,319.87,75.08,320.61Z"/>
            <path class="cls-5" d="M106.1,308.34v23.07a11.71,11.71,0,0,0,2.21,7.46q2.22,2.79,7.24,2.79,4.86,0,7.15-2.82a11.36,11.36,0,0,0,2.31-7.43V308.34h6.13V332q0,7.67-3.93,11.41t-11.66,3.74q-7.67,0-11.66-3.77t-4-11.38V308.34Z"/>
            <path class="cls-6" d="M153.23,346.32H147V313.68H137v-5.34h26.27v5.34h-10Z"/>
            <path class="cls-7" d="M177.11,328.9l-12.77-20.56h6.44l8,13a3.33,3.33,0,0,1,.43.67l.37.74.12.24.13.31c.08.16.17.33.27.49s.2.33.28.49a13.17,13.17,0,0,1,.7-1.62c.27-.52.57-1,.89-1.57l8.17-12.7h6.13l-13,20.56v17.42h-6.13Z"/>
          </g>
          <path class="cls-8" d="M219.83,346.32V307.06H239.3v3.37H223.46V322.7h15.22v3.37H223.46v20.25Z"/>
          <path class="cls-9" d="M263.46,347.31a22.81,22.81,0,0,1-10.31-2.39,18.66,18.66,0,0,1-7.73-7.06,21,21,0,0,1-2.89-11.24,19.58,19.58,0,0,1,3-10.8,20.55,20.55,0,0,1,7.91-7.12,22.33,22.33,0,0,1,10.25-2.51,21.09,21.09,0,0,1,8.41,1.6,19.86,19.86,0,0,1,10.8,11,21.66,21.66,0,0,1,1.54,8.11,20.19,20.19,0,0,1-2.83,10.72A18.68,18.68,0,0,1,274,344.8,22.38,22.38,0,0,1,263.46,347.31Zm0-3.07a17.09,17.09,0,0,0,8.72-2.27,16.55,16.55,0,0,0,6.19-6.21,16.93,16.93,0,0,0,2.28-8.76,19.41,19.41,0,0,0-1.9-8.29,17,17,0,0,0-5.83-6.7,16.24,16.24,0,0,0-9.34-2.63,18.25,18.25,0,0,0-7.91,1.9,16.74,16.74,0,0,0-6.69,5.89,17,17,0,0,0-2.64,9.57,17.88,17.88,0,0,0,2.15,8.66,17,17,0,0,0,15,8.84Z"/>
          <path class="cls-10" d="M314.39,346.32H310l-13.81-18.65h-2.08v18.65h-3.63V307.06h7.24q12.64,0,12.64,10.72,0,5.1-3.13,7.37a13.52,13.52,0,0,1-7,2.52Zm-17.49-21.6a15.52,15.52,0,0,0,7.12-1.35q2.58-1.29,2.58-5.76c0-2.69-.76-4.61-2.26-5.76s-4-1.66-7.38-1.66h-2.81v14.53Z"/>
          <path class="cls-11" d="M338.75,309.38a18,18,0,0,0-9,2.15A14.35,14.35,0,0,0,324,317.6a19.55,19.55,0,0,0-2.08,9.19q0,8.06,4.6,12.71t12.09,4.67a20.23,20.23,0,0,0,12.58-4.68l-.06,4.18a24.1,24.1,0,0,1-5.88,2.59,25.18,25.18,0,0,1-6.82.92,26.55,26.55,0,0,1-9.28-1.71,17,17,0,0,1-7.85-6.26Q318,334.67,318,327a24.77,24.77,0,0,1,2.15-10.37,16.77,16.77,0,0,1,6.81-7.55,22.45,22.45,0,0,1,11.91-2.89,21.72,21.72,0,0,1,12.63,4.18l-.12,3.92a26.07,26.07,0,0,0-5.15-3.43A16.73,16.73,0,0,0,338.75,309.38Z"/>
          <path class="cls-12" d="M356.91,346.32V307.06h19.46v3.37H360.53V322.7h15.84v3.37H360.53V343h15.84v3.31Z"/>
        </g>
      </g>
    </g>
  </g>
</svg>
