<svg xmlns="http://www.w3.org/2000/svg" viewBox="0 0 693.2 129.2"><defs><style>.cls-1{fill:#fff;}</style></defs><title>Asset 4</title><g id="Layer_2" data-name="Layer 2"><g id="Layer 1" data-name="Layer 1"><path class="cls-1" d="M331.8,103.7a10.2,10.2,0,0,0-5.2-1.6,6.2,6.2,0,0,0-4.8,1.9,6.9,6.9,0,0,0-1.8,5.1,6.5,6.5,0,0,0,1.8,4.8,6,6,0,0,0,4.7,1.9,8.8,8.8,0,0,0,5.5-1.9v2.5a12.9,12.9,0,0,1-5.5,1.3,8.8,8.8,0,0,1-6.3-2.2,9.3,9.3,0,0,1-2.5-6.8,9.1,9.1,0,0,1,.8-3.7,7.8,7.8,0,0,1,2.1-2.9,9.3,9.3,0,0,1,6.3-2,10.6,10.6,0,0,1,4.9,1.1Z"/><path class="cls-1" d="M333.8,109a8.9,8.9,0,0,1,4.4-7.7,8.3,8.3,0,0,1,4.4-1.2,8.8,8.8,0,0,1,6.3,2.4,7.9,7.9,0,0,1,2.6,6.4,8.1,8.1,0,0,1-2.7,6.4,9.2,9.2,0,0,1-6.4,2.3,9,9,0,0,1-6.1-2.2A8.3,8.3,0,0,1,333.8,109Zm15.3-.1a6.8,6.8,0,0,0-1.8-4.8,6.4,6.4,0,0,0-4.6-1.9,6.2,6.2,0,0,0-4.5,2,6.4,6.4,0,0,0-1.9,4.7,6.5,6.5,0,0,0,1.9,4.8,5.5,5.5,0,0,0,4.2,1.9,6.6,6.6,0,0,0,4.7-1.9A5.9,5.9,0,0,0,349.1,108.9Z"/><path class="cls-1" d="M353,114.1l2.2-1.3a3.6,3.6,0,0,0,1.5,2,4,4,0,0,0,2.3.8,3.7,3.7,0,0,0,2.5-.7,1.8,1.8,0,0,0,.8-1.6,3.8,3.8,0,0,0-.8-2.3,7,7,0,0,0-3-1.5,11.7,11.7,0,0,1-2.5-1.2,6.1,6.1,0,0,1-1.6-1.6,4.9,4.9,0,0,1-.6-2.5,3.5,3.5,0,0,1,.7-2.1,4.5,4.5,0,0,1,1.8-1.5,8.4,8.4,0,0,1,2.9-.5,5.8,5.8,0,0,1,5.3,3.3l-2,1.2a3.6,3.6,0,0,0-3.6-2.5,2.7,2.7,0,0,0-1.9.6,2.1,2.1,0,0,0-.8,1.7,2.4,2.4,0,0,0,1,1.9l3,1.5a8.5,8.5,0,0,1,3.3,2.1,4.6,4.6,0,0,1,1.1,3,4.4,4.4,0,0,1-1.5,3.5,6.5,6.5,0,0,1-4.1,1.3,6.1,6.1,0,0,1-3.6-1A5.5,5.5,0,0,1,353,114.1Z"/><path class="cls-1" d="M369.3,117h-2.2V100.7h2.2v2.5a5.5,5.5,0,0,1,5-3.1,8.8,8.8,0,0,1,2.9.5,5.8,5.8,0,0,1,2.3,2.7,6.3,6.3,0,0,1,5.5-3.2,5.8,5.8,0,0,1,4.1,1.5,5.5,5.5,0,0,1,1.6,4.4v11h-2.2V106.9c0-3.2-1.3-4.8-3.7-4.8s-3,.5-3.7,1.5a9,9,0,0,0-1.1,4.8V117h-2.2V106.9c0-3.2-1.3-4.8-3.7-4.8s-3,.5-3.7,1.6a8.6,8.6,0,0,0-1.1,4.7Z"/><path class="cls-1" d="M408.8,108.9H395.9a8.2,8.2,0,0,0,1.4,4.7,4.4,4.4,0,0,0,4.1,2.1c2.3,0,4.1-1.3,5.5-4l2.1,1.2a13.5,13.5,0,0,1-2.7,3.4,7.4,7.4,0,0,1-4.8,1.3,7,7,0,0,1-5.9-2.6,8.8,8.8,0,0,1-2.2-6.1,9.3,9.3,0,0,1,2.1-6.4,7.3,7.3,0,0,1,5.8-2.4,7.6,7.6,0,0,1,3.8.9,5.9,5.9,0,0,1,2.7,2.9A10.9,10.9,0,0,1,408.8,108.9Zm-2.6-1.9a7,7,0,0,0-1.3-3.3,4.9,4.9,0,0,0-3.8-1.4c-2.9,0-4.6,1.6-5,4.7Z"/><path class="cls-1" d="M413.2,102.6h-3.1v-1.9h3.1V94h2.2v6.7h3.3v1.9h-3.3V117h-2.2Z"/><path class="cls-1" d="M422.4,96.3a1.8,1.8,0,0,1-1.2-.5,1.8,1.8,0,0,1-.6-1.3,2.1,2.1,0,0,1,.5-1.3,1.8,1.8,0,0,1,3.1,1.3,1.7,1.7,0,0,1-1.8,1.8Zm-1,20.7V100.7h2.3V117Z"/><path class="cls-1" d="M440.7,103.7a10.2,10.2,0,0,0-5.2-1.6,6.2,6.2,0,0,0-4.8,1.9,6.9,6.9,0,0,0-1.8,5.1,6.5,6.5,0,0,0,1.8,4.8,6,6,0,0,0,4.7,1.9,8.8,8.8,0,0,0,5.5-1.9v2.5a12.9,12.9,0,0,1-5.5,1.3,8.8,8.8,0,0,1-6.3-2.2,9.3,9.3,0,0,1-2.5-6.8,9.1,9.1,0,0,1,.8-3.7,7.8,7.8,0,0,1,2.1-2.9,9.3,9.3,0,0,1,6.3-2,10.6,10.6,0,0,1,4.9,1.1Z"/><path class="cls-1" d="M469.9,103.7a10.2,10.2,0,0,0-5.2-1.6A6.1,6.1,0,0,0,460,104a7.9,7.9,0,0,0-.1,9.9,6.1,6.1,0,0,0,4.7,1.9,9.2,9.2,0,0,0,5.6-1.9v2.5a13.4,13.4,0,0,1-5.6,1.3,8.4,8.4,0,0,1-6.2-2.2c-1.7-1.6-2.5-3.9-2.5-6.8a7.7,7.7,0,0,1,.8-3.7,7.5,7.5,0,0,1,2-2.9,9.8,9.8,0,0,1,6.4-2,10.5,10.5,0,0,1,4.8,1.1Z"/><path class="cls-1" d="M472,109a10,10,0,0,1,1.1-4.5,9.8,9.8,0,0,1,3.2-3.2,8.3,8.3,0,0,1,4.4-1.2,9.3,9.3,0,0,1,6.4,2.4,8.2,8.2,0,0,1,2.6,6.4,8.1,8.1,0,0,1-2.7,6.4,9.2,9.2,0,0,1-6.4,2.3,8.8,8.8,0,0,1-6.1-2.2C472.8,113.9,472,111.8,472,109Zm15.3-.1a6.5,6.5,0,0,0-1.9-4.8,6.3,6.3,0,0,0-4.6-1.9,5.9,5.9,0,0,0-4.4,2,6.4,6.4,0,0,0-1.9,4.7,6.8,6.8,0,0,0,1.8,4.8,5.7,5.7,0,0,0,4.2,1.9,6.8,6.8,0,0,0,4.8-1.9A6.3,6.3,0,0,0,487.3,108.9Z"/><path class="cls-1" d="M494.4,117h-2.2V100.7h2.2v2.5a5.5,5.5,0,0,1,5-3.1,8.8,8.8,0,0,1,2.9.5,5.8,5.8,0,0,1,2.3,2.7,6.3,6.3,0,0,1,5.5-3.2,5.8,5.8,0,0,1,4.1,1.5,5.5,5.5,0,0,1,1.6,4.4v11h-2.2V106.9c0-3.2-1.3-4.8-3.7-4.8s-3,.5-3.7,1.5a9,9,0,0,0-1.1,4.8V117h-2.2V106.9c0-3.2-1.2-4.8-3.7-4.8s-3,.5-3.7,1.6a8.6,8.6,0,0,0-1.1,4.7Z"/><path class="cls-1" d="M521.7,100.7v3a6,6,0,0,1,5.7-3.6,7,7,0,0,1,5.8,2.5,9.6,9.6,0,0,1,1.9,6,10.6,10.6,0,0,1-1,5,6.1,6.1,0,0,1-2.7,3,6.5,6.5,0,0,1-3.6,1,6.4,6.4,0,0,1-3.6-.9,6.3,6.3,0,0,1-2.5-2.6v15.1h-2.2V100.7Zm10.9,8a9.1,9.1,0,0,0-1.2-4.7,4.6,4.6,0,0,0-4.2-2,4.7,4.7,0,0,0-4.1,2.1,8.1,8.1,0,0,0-1.5,4.9,7.1,7.1,0,0,0,1.6,4.7,5,5,0,0,0,3.9,2c2.1,0,3.5-.7,4.3-2.1A9.6,9.6,0,0,0,532.6,108.7Z"/><path class="cls-1" d="M550.9,117v-3a6.6,6.6,0,0,1-6.1,3.6,6.6,6.6,0,0,1-5.4-2.4c-1.4-1.6-2-3.9-2-6.7a8.7,8.7,0,0,1,2.1-5.9,6.6,6.6,0,0,1,5.4-2.5c2.9,0,4.9,1.2,6,3.5v-2.9h2.3V117Zm-5.9-1.3a5.4,5.4,0,0,0,4.2-1.8,7,7,0,0,0,1.7-5,7.3,7.3,0,0,0-1.5-4.8,4.7,4.7,0,0,0-3.9-1.9,5.4,5.4,0,0,0-4,1.6,6.5,6.5,0,0,0-1.6,4.8,8.2,8.2,0,0,0,1.4,5A4.2,4.2,0,0,0,545,115.7Z"/><path class="cls-1" d="M555.8,117V100.7h2.1v2.5a9.8,9.8,0,0,1,2.2-2.3,5.8,5.8,0,0,1,3.4-.8c2.2,0,3.8.6,4.7,1.7a7.4,7.4,0,0,1,1.3,4.1V117h-2.3V107a6.5,6.5,0,0,0-.9-3.5,3.8,3.8,0,0,0-3.3-1.4c-1.9,0-3.2.6-3.9,1.7a8.8,8.8,0,0,0-1.1,4.7V117Z"/><path class="cls-1" d="M571.6,100.7H574l4.7,12.7,4.2-12.7h2.4l-8.4,24.4h-2.4l2.9-8.2Z"/><path class="cls-1" d="M161.7,71a34,34,0,0,0-24.1-10h0a34.9,34.9,0,0,0-11.1,1.8,36.2,36.2,0,0,0-4.3-2.4,28.8,28.8,0,0,0,7.5-5.6,31.6,31.6,0,0,0,9.4-22.7,31.8,31.8,0,0,0-9.4-22.7A31.6,31.6,0,0,0,107,0H25.7V7.1H40V34.6H25.7v7.1H40V61.5a39.2,39.2,0,0,0-5.9-.5A34,34,0,0,0,10,71a34,34,0,0,0,0,48.2,34,34,0,0,0,24.1,10H107a35.6,35.6,0,0,0,15.5-3.5A34.1,34.1,0,0,0,161.7,71ZM40,122.1H34.1a27,27,0,0,1,0-54,28.8,28.8,0,0,1,5.9.6Zm7.1-115H74.9V34.6H47.1Zm27.8,115H47.1V71.4A29,29,0,0,1,50,73.3L74.9,91.5ZM54.2,67.6a26.4,26.4,0,0,0-3.5-2.3l-3.6-1.7V41.7H74.9v41ZM107,122.1H82V96.7l33.1,24.2A26.9,26.9,0,0,1,107,122.1Zm15.6-4.5-.9-.7L82,87.9V41.7H95.4V34.6H82V7.1h25a25,25,0,0,1,0,50H95.6v7.1H107a29,29,0,0,1,15.6,53.4Zm15,4.5a28.1,28.1,0,0,1-7.7-1.1,19.5,19.5,0,0,0,2.6-2.4,35.9,35.9,0,0,0,.7-50.2,32.5,32.5,0,0,1,4.4-.3h0a27,27,0,0,1,0,54Z"/><path class="cls-1" d="M209.8,2.8h16.7a25.7,25.7,0,0,1,4,.7A8.8,8.8,0,0,1,234,5.2a11.2,11.2,0,0,1,3.4,4.1,12.9,12.9,0,0,1,1.4,5.1V15a13.3,13.3,0,0,1-1.7,6.4,9.5,9.5,0,0,1-5.2,4.2,9.7,9.7,0,0,1,6.5,4.4,14.4,14.4,0,0,1,2.6,7.3v1.8a16.3,16.3,0,0,1-1.6,5.6,10.6,10.6,0,0,1-4,4.4,11.7,11.7,0,0,1-3.6,1.6,19.4,19.4,0,0,1-4.2.7H209.8Zm7.8,20.5h5.2a14.3,14.3,0,0,0,5.5-1.3c1.7-.9,2.5-2.4,2.6-4.8v-.8c0-3-1-5-3.1-5.8A20.6,20.6,0,0,0,221,9.4h-3.4Zm.7,21.6h4.6a17,17,0,0,0,6.8-1.6c2-1,3.1-3,3.1-6.1V37c0-3.1-1-5.2-3-6.1a17.8,17.8,0,0,0-6.6-1.6h-5.6V44.9Z"/><path class="cls-1" d="M250.8,2.8H278V9.6H258.7V21.7H278v7H258.7V44.4H278v7.2H250.8Z"/><path class="cls-1" d="M316.6,38.9H297.3l-5.6,12.7h-8.3L306.9.9l23.6,50.7h-8.4ZM306.3,18.5a23.3,23.3,0,0,1-1.1,2.8l-5,11.1h13.6l-5-11.1c-.3-.8-.6-1.5-.8-2.2s-.5-1.5-.7-2.3-.1-.3-.1-.5-.1-.4-.2-.6A28.6,28.6,0,0,1,306.3,18.5Z"/><path class="cls-1" d="M346.1,2.8V32.4a15.6,15.6,0,0,0,2.8,9.6q2.9,3.6,9.3,3.6c4.2,0,7.3-1.2,9.2-3.7a14.4,14.4,0,0,0,3-9.5V2.8h7.9V33.2c0,6.6-1.7,11.4-5.1,14.6s-8.3,4.9-15,4.9-11.5-1.7-14.9-4.9-5.2-8.1-5.2-14.6V2.8Z"/><path class="cls-1" d="M406.6,51.6h-7.9V9.6H385.8V2.8h33.7V9.6H406.6Z"/><path class="cls-1" d="M437.3,29.2,420.9,2.8h8.3l10.2,16.6a7,7,0,0,1,.6.9l.4.9c.1.1.2.2.2.3s.1.3.2.4l.3.6.4.7a6.7,6.7,0,0,1,.9-2.1,19.8,19.8,0,0,1,1.1-2L454,2.8h7.9L445.2,29.2V51.6h-7.9Z"/><path class="cls-1" d="M492.2,51.6V1.1h25V5.4H496.8V21.2h19.6v4.3H496.8V51.6Z"/><path class="cls-1" d="M548.2,52.8A28.5,28.5,0,0,1,535,49.7a23.5,23.5,0,0,1-10-9,27.6,27.6,0,0,1-3.7-14.5,24.8,24.8,0,0,1,3.9-13.8,26.6,26.6,0,0,1,10.2-9.2A28.8,28.8,0,0,1,548.5,0a26.7,26.7,0,0,1,10.8,2.1,25.3,25.3,0,0,1,8.4,5.6,27.1,27.1,0,0,1,5.5,8.5,28.8,28.8,0,0,1,2,10.5,25.4,25.4,0,0,1-3.7,13.7,23.9,23.9,0,0,1-9.7,9.2A29.6,29.6,0,0,1,548.2,52.8Zm0-3.9A22.5,22.5,0,0,0,559.4,46a21.9,21.9,0,0,0,8-8,22.4,22.4,0,0,0,2.9-11.3,23.9,23.9,0,0,0-2.5-10.6,20,20,0,0,0-7.5-8.6,20.3,20.3,0,0,0-11.9-3.4,23.8,23.8,0,0,0-10.2,2.4,21.3,21.3,0,0,0-12,19.9A22.3,22.3,0,0,0,529,37.5a20.1,20.1,0,0,0,7.9,8.2A20.7,20.7,0,0,0,548.2,48.9Z"/><path class="cls-1" d="M613.6,51.6H608l-17.7-24h-2.7v24H583V1.1h9.3q16.2,0,16.2,13.8c0,4.4-1.3,7.5-4,9.5a17.9,17.9,0,0,1-9.1,3.2ZM591.2,23.8a20.8,20.8,0,0,0,9.1-1.7c2.2-1.1,3.3-3.6,3.3-7.4s-1-6-2.9-7.4-5.1-2.2-9.5-2.2h-3.6V23.8Z"/><path class="cls-1" d="M644.9,4.1a22.5,22.5,0,0,0-11.5,2.8,17.7,17.7,0,0,0-7.5,7.8,24.8,24.8,0,0,0-2.7,11.8c0,6.9,2,12.3,5.9,16.3s9.2,6,15.6,6,11-2,16.1-6v5.3a30.5,30.5,0,0,1-7.6,3.4,31.7,31.7,0,0,1-8.8,1.1,35.6,35.6,0,0,1-11.9-2.1,22.3,22.3,0,0,1-10.1-8.1c-2.8-3.9-4.2-9.1-4.2-15.7a32.6,32.6,0,0,1,2.7-13.3,22.2,22.2,0,0,1,8.8-9.7c4-2.5,9.1-3.7,15.3-3.7a27.6,27.6,0,0,1,16.2,5.4v5A33.8,33.8,0,0,0,654.4,6,20.6,20.6,0,0,0,644.9,4.1Z"/><path class="cls-1" d="M668.2,51.6V1.1h25V5.4H672.9V21.2h20.3v4.3H672.9V47.3h20.3v4.3Z"/></g></g></svg>